<svg height="512pt" viewBox="0 0 512 512" width="512pt" xmlns="http://www.w3.org/2000/svg"><path d="M185.379 282.484H326.62v97.102H185.38zm0 0" fill="#f29c1f"/><path d="M388.414 203.035c14.625 0 26.484-11.855 26.484-26.484l2.551-82.403a88.272 88.272 0 0 0-23.617-66.18A88.27 88.27 0 0 0 329.367 0H182.633A88.276 88.276 0 0 0 94.55 94.148l2.554 82.403c0 14.629 11.856 26.484 26.48 26.484zm0 0" fill="#804537"/><path d="M414.898 512H512v-7.855a138.922 138.922 0 0 0-4.063-33.547l-8.207-33.278c-9.523-34.715-41.43-58.511-77.418-57.734H89.688c-35.988-.777-67.894 23.02-77.417 57.734l-8.207 33.278A138.922 138.922 0 0 0 0 504.145V512zm0 0" fill="#c03a2b"/><path d="M123.586 133.063c-.066-18.31 13.922-33.61 32.16-35.184 5.867-.48 12.746-.774 20.805-.774 44.14 0 44.14 8.825 79.449 8.825s35.309-8.825 79.45-8.825c8.058 0 14.937.293 20.804.774 18.238 1.574 32.226 16.875 32.16 35.183v114.11c0 34.129-27.664 61.793-61.793 61.793H185.38c-34.125 0-61.793-27.664-61.793-61.793zm0 0" fill="#f0c419"/><path d="M344.277 353.105h45.637a20.899 20.899 0 0 1 21.629 14.122L441.379 512H70.62l29.926-144.773a20.785 20.785 0 0 1 21.539-14.122zm0 0" fill="#e64c3c"/><path d="M256 70.621a72.397 72.397 0 0 1-34.844-9.758 55.365 55.365 0 0 0-26.949-7.898 98.214 98.214 0 0 0-40.187 7.898 8.835 8.835 0 0 1-8.817-.531 8.825 8.825 0 0 1-3.945-7.894 8.825 8.825 0 0 1 4.863-7.368 115.764 115.764 0 0 1 48.086-9.761 72.401 72.401 0 0 1 34.844 9.761A55.361 55.361 0 0 0 256 52.965a55.361 55.361 0 0 0 26.95-7.895 72.401 72.401 0 0 1 34.843-9.761 115.764 115.764 0 0 1 48.086 9.761 8.82 8.82 0 0 1 3.844 11.774 8.828 8.828 0 0 1-11.715 4.027 100.029 100.029 0 0 0-40.215-7.906 55.365 55.365 0 0 0-26.95 7.898A72.397 72.397 0 0 1 256 70.621zm0 0" fill="#cb8252"/><path d="M344.277 353.105v17.653c-.023 29.242-23.722 52.941-52.968 52.965H220.69c-29.242-.024-52.945-23.723-52.968-52.965v-17.653zm0 0" fill="#f0c419"/><path d="M247.172 423.723h17.656V512h-17.656zm0 0M300.137 467.863a8.826 8.826 0 0 1-8.828 8.828c-4.875 0-8.825-3.953-8.825-8.828s3.95-8.828 8.825-8.828a8.826 8.826 0 0 1 8.828 8.828zm0 0" fill="#802f34"/><g fill="#2c2f38"><path d="M297.734 247.172c-7.132 13.957-29.398 15.933-41.558 15.933-12.188 0-34.422-1.976-41.555-15.933a179.535 179.535 0 0 0 41.555 5.207 179.356 179.356 0 0 0 41.558-5.207zm0 0M232.879 155.27a87.8 87.8 0 0 0-26.129-5.297 62.774 62.774 0 0 0-34.605 7.379c1.207-15.45 37.023-18.504 54.53-14.532a8.36 8.36 0 0 1 6.442 4.559 8.359 8.359 0 0 1-.238 7.89zm0 0M229.516 182.566c0-10.453-7.903-18.925-17.653-18.925s-17.656 8.472-17.656 18.925c0 10.45 7.906 18.922 17.656 18.922s17.653-8.472 17.653-18.922zm0 0"/></g><path d="M216.813 166.145a8.827 8.827 0 0 0-11.391 5.113 8.827 8.827 0 0 0 5.113 11.39 8.833 8.833 0 0 0 11.39-5.113 8.833 8.833 0 0 0-5.113-11.39zm0 0" fill="#fff"/><path d="M279.121 155.27a87.824 87.824 0 0 1 26.129-5.297 62.774 62.774 0 0 1 34.605 7.379c-1.207-15.45-37.023-18.504-54.53-14.532a8.366 8.366 0 0 0-6.442 4.559 8.359 8.359 0 0 0 .238 7.89zm0 0M317.793 182.566c0-10.453-7.902-18.925-17.656-18.925-9.75 0-17.653 8.472-17.653 18.925 0 10.45 7.903 18.922 17.653 18.922 9.754 0 17.656-8.472 17.656-18.922zm0 0" fill="#2c2f38"/><path d="M306.578 171.258a8.833 8.833 0 0 0-11.39-5.113 8.833 8.833 0 0 0-5.114 11.39c1.735 4.555 6.836 6.844 11.39 5.113a8.827 8.827 0 0 0 5.114-11.39zm0 0" fill="#fff"/></svg>