<svg height="512pt" viewBox="0 0 512 512" width="512pt" xmlns="http://www.w3.org/2000/svg"><path d="M414.898 512H512v-7.855a138.922 138.922 0 0 0-4.063-33.547l-8.207-33.278c-9.523-34.715-41.43-58.511-77.418-57.734H89.688c-35.988-.777-67.894 23.02-77.417 57.734l-8.207 33.278A138.922 138.922 0 0 0 0 504.145V512zm0 0" fill="#bdc3c7"/><path d="M185.379 291.309H326.62v79.449H185.38zm0 0" fill="#f29c1f"/><path d="M317.793 353.105l-59.586 86.508c-.883.617-1.766 1.149-2.648 1.766l-61.352-88.274zm0 0" fill="#f0c419"/><path d="M441.379 512H70.62l5.473-26.66h.09l3.53-17.477 3.708-17.832 3.617-17.48 13.508-65.324a20.785 20.785 0 0 1 21.539-14.122h63.293c-20.129 9.29-31.129 31.29-26.48 52.965 0 0 53.757-15.36 89.687 4.059a58.27 58.27 0 0 1 6.973 4.414c.125.145.273.266.441.355l2.207-2.207a55.544 55.544 0 0 1 5.031-2.914c35.84-18.89 88.895-3.707 88.895-3.707 4.644-21.675-6.356-43.675-26.485-52.965h64.266a20.899 20.899 0 0 1 21.629 14.122l13.504 65.324 3.531 17.48 3.707 17.832 3.621 17.477zm0 0" fill="#e6e7e8"/><path d="M300.137 459.035a8.826 8.826 0 0 1-8.828 8.828c-4.875 0-8.825-3.953-8.825-8.828s3.95-8.828 8.825-8.828a8.826 8.826 0 0 1 8.828 8.828zm0 0M211.863 441.379a8.857 8.857 0 0 1-8.828 8.828H85.188a11.129 11.129 0 0 1-1.766-.176l3.617-17.48h115.996a8.86 8.86 0 0 1 8.828 8.828zm0 0M203.035 476.691c-.015 4.868-3.957 8.813-8.828 8.825H77.949a10.285 10.285 0 0 1-1.765-.176l3.53-17.477h114.493c4.871.012 8.813 3.957 8.828 8.828zm0 0M428.578 450.031c-.582.106-1.172.164-1.765.176h-109.02a8.829 8.829 0 0 1 0-17.656h107.254zm0 0M435.906 485.34c-.582.11-1.172.168-1.765.176H326.62c-4.875 0-8.828-3.95-8.828-8.825a8.826 8.826 0 0 1 8.828-8.828h105.664zm0 0" fill="#7f8c8d"/><path d="M255.559 414.457v.086c-35.399-25.953-96.66-8.473-96.66-8.473-4.649-21.675 6.351-43.675 26.48-52.965h8.828zm0 0M352.133 406.07s-58.262-16.683-93.926 6.621l59.586-59.586h7.855c20.13 9.29 31.13 31.29 26.485 52.965zm0 0" fill="#bdc3c7"/><path d="M388.414 105.93v141.242c0 34.129-27.664 61.793-61.793 61.793H185.38c-34.125 0-61.793-27.664-61.793-61.793V105.93" fill="#f0c419"/><path d="M167.723 220.691a8.822 8.822 0 0 1-8.825 8.825 8.823 8.823 0 0 1-8.828-8.825 8.824 8.824 0 0 1 8.828-8.828 8.823 8.823 0 0 1 8.825 8.828zm0 0M167.723 247.172c0 4.875-3.95 8.828-8.825 8.828-4.878 0-8.828-3.953-8.828-8.828s3.95-8.828 8.828-8.828c4.875 0 8.825 3.953 8.825 8.828zm0 0M194.207 247.172a8.829 8.829 0 1 1-17.658-.002 8.829 8.829 0 0 1 17.658.002zm0 0M194.207 273.656a8.829 8.829 0 1 1-17.658-.001 8.829 8.829 0 0 1 17.658.001zm0 0M220.691 273.656a8.829 8.829 0 1 1-17.657-.001 8.829 8.829 0 0 1 17.657.001zm0 0M361.93 220.691a8.822 8.822 0 0 1-8.825 8.825 8.823 8.823 0 0 1-8.828-8.825 8.824 8.824 0 0 1 8.828-8.828 8.823 8.823 0 0 1 8.825 8.828zm0 0M361.93 247.172c0 4.875-3.95 8.828-8.825 8.828-4.878 0-8.828-3.953-8.828-8.828s3.95-8.828 8.828-8.828c4.875 0 8.825 3.953 8.825 8.828zm0 0M335.45 247.172a8.829 8.829 0 1 1-17.659-.002 8.829 8.829 0 0 1 17.658.002zm0 0M335.45 273.656a8.829 8.829 0 1 1-17.659-.001 8.829 8.829 0 0 1 17.658.001zm0 0M308.965 273.656a8.829 8.829 0 1 1-17.658-.001 8.829 8.829 0 0 1 17.658.001zm0 0" fill="#805333"/><path d="M114.758 70.621h282.484c9.75 0 17.656 7.902 17.656 17.656v17.653c0 9.754-7.906 17.656-17.656 17.656H114.758c-9.75 0-17.653-7.902-17.653-17.656V88.277c0-9.754 7.903-17.656 17.653-17.656zm0 0" fill="#95a5a5"/><g fill="#7f8c8d"><path d="M194.207 0h123.586c39.004 0 70.621 31.617 70.621 70.621H123.586C123.586 31.617 155.203 0 194.207 0zm0 0M141.242 105.93v17.656h-17.656V105.93c0-4.875 3.953-8.825 8.828-8.825s8.828 3.95 8.828 8.825zm0 0M176.55 105.93v17.656h-17.652V105.93a8.822 8.822 0 0 1 8.825-8.825 8.823 8.823 0 0 1 8.828 8.825zm0 0M211.863 105.93v17.656h-17.656V105.93c0-4.875 3.953-8.825 8.828-8.825s8.828 3.95 8.828 8.825zm0 0M247.172 105.93v17.656h-17.656V105.93c0-4.875 3.953-8.825 8.828-8.825s8.828 3.95 8.828 8.825zm0 0M282.484 105.93v17.656h-17.656V105.93c0-4.875 3.953-8.825 8.828-8.825s8.828 3.95 8.828 8.825zm0 0M317.793 105.93v17.656h-17.656V105.93c0-4.875 3.953-8.825 8.828-8.825s8.828 3.95 8.828 8.825zm0 0M353.105 105.93v17.656H335.45V105.93c0-4.875 3.953-8.825 8.828-8.825s8.828 3.95 8.828 8.825zm0 0M388.414 105.93v17.656h-17.656V105.93c0-4.875 3.953-8.825 8.828-8.825s8.828 3.95 8.828 8.825zm0 0M264.828 414.898V512h-17.656v-97.102a8.869 8.869 0 0 1 1.414-4.77A8.778 8.778 0 0 1 256 406.07a9.189 9.189 0 0 1 7.238 3.707 9.04 9.04 0 0 1 1.59 5.121zm0 0"/></g><path d="M301.242 237.793c-4.867 15.023-27.77 22.406-40.172 24.578-12.425 2.176-35.441 4.2-45.12-8.277 14.464.87 28.98.101 43.273-2.29a201.154 201.154 0 0 0 42.02-14.011zm0 0M231.215 165.207a87.747 87.747 0 0 0-24.664-10.133 62.81 62.81 0 0 0-35.38.711c4.106-14.941 39.852-11.18 56.294-3.972a8.35 8.35 0 0 1 5.469 5.69 8.344 8.344 0 0 1-1.72 7.704zm0 0M229.516 182.566c0-10.453-7.903-18.925-17.653-18.925s-17.656 8.472-17.656 18.925c0 10.45 7.906 18.922 17.656 18.922s17.653-8.472 17.653-18.922zm0 0" fill="#2c2f38"/><path d="M216.813 166.145a8.827 8.827 0 0 0-11.391 5.113 8.827 8.827 0 0 0 5.113 11.39 8.833 8.833 0 0 0 11.39-5.113 8.833 8.833 0 0 0-5.113-11.39zm0 0" fill="#fff"/><path d="M279.84 167.059a49.234 49.234 0 0 1 24.86-17.32 35.398 35.398 0 0 1 36.304 11.527c-.137-.133.137-2.946.086-3.387a11.927 11.927 0 0 0-.918-3.316 16.754 16.754 0 0 0-4.469-5.84 35.972 35.972 0 0 0-16.39-7.496 44.867 44.867 0 0 0-24.083 1.195 36.957 36.957 0 0 0-12.664 7.46c-3.242 2.97-8.043 8.43-5.957 13.407a28.568 28.568 0 0 0 3.23 3.77zm0 0" fill="#2c2f38"/><path d="M317.793 182.566c0-10.453-7.902-18.925-17.656-18.925-9.75 0-17.653 8.472-17.653 18.925 0 10.45 7.903 18.922 17.653 18.922 9.754 0 17.656-8.472 17.656-18.922zm0 0" fill="#2c2f38"/><path d="M306.578 171.258a8.833 8.833 0 0 0-11.39-5.113 8.833 8.833 0 0 0-5.114 11.39c1.735 4.555 6.836 6.844 11.39 5.113a8.827 8.827 0 0 0 5.114-11.39zm0 0" fill="#fff"/></svg>