<svg height="512pt" viewBox="0 0 512 512.003" width="512pt" xmlns="http://www.w3.org/2000/svg"><path d="M409.418 512.004h93.758v-8.055c.015-11.574-1.301-23.11-3.922-34.383l-7.926-34.113c-8.113-34.715-39.101-59.246-74.754-59.176H95.426c-35.649-.066-66.633 24.461-74.746 59.176l-7.926 34.113a150.702 150.702 0 0 0-3.926 34.383v8.055zm0 0" fill="#f0c419"/><path d="M185.379 300.14H326.62v61.794H185.38zm0 0" fill="#f29c1f"/><path d="M417.723 185.734c46.433 26.66 94.277-9.18 94.277-9.18-35.309-8.827-35.309-61.792-35.309-105.929 0-29.547-18.386-55.969-46.093-66.227-27.707-10.261-58.871-2.187-78.11 20.235H159.516C140.277 2.21 109.113-5.863 81.406 4.398 53.7 14.656 35.31 41.078 35.313 70.625c0 44.137 0 97.102-35.313 105.93 0 0 47.848 35.84 94.281 9.18zm0 0" fill="#804537"/><path d="M388.414 220.691c14.953 0 27.399-11.488 28.594-26.394l2.582-32.254a150.07 150.07 0 0 0-39.324-113.766A150.072 150.072 0 0 0 270 .004h-27.996a150.065 150.065 0 0 0-149.59 162.035l2.578 32.254c1.195 14.91 13.64 26.398 28.594 26.398" fill="#cc6f56"/><path d="M430.434 458.95c-11.036-.352-35.133-3.798-50.848-35.223H132.414c-15.71 31.425-39.812 34.87-50.844 35.222l18.977-91.719a20.788 20.788 0 0 1 21.539-14.125h267.828a20.902 20.902 0 0 1 21.629 14.125zm0 0" fill="#f3d55b"/><path d="M441.379 512.004H70.62l10.95-53.055c11.03-.351 35.132-3.797 50.843-35.222h247.172c15.715 31.425 39.812 34.87 50.848 35.222zm0 0" fill="#cc66a1"/><path d="M388.555 176.95v70.433c0 34.129-27.668 61.793-61.793 61.793H185.52c-34.13 0-61.793-27.664-61.793-61.793v-45.727c0-5.136 8.828-77.86 61.793-77.86 41.23 0 88.277-8.827 105.93-52.964 0 0 26.952 53.906 74.972 73.41a35.335 35.335 0 0 1 22.133 32.707zm0 0" fill="#f0c419"/><path d="M132.414 353.105h35.313v70.622h-35.313zm0 0M344.277 353.105h35.309v70.622h-35.309zm0 0" fill="#955ba5"/><path d="M158.898 485.52a8.829 8.829 0 0 1-8.828-8.829V459.04a8.829 8.829 0 0 1 17.657 0v17.652a8.829 8.829 0 0 1-8.829 8.829zm0 0" fill="#fff"/><path d="M167.727 476.691H150.07a8.826 8.826 0 0 1-8.828-8.828c0-4.875 3.953-8.824 8.828-8.824h17.657a8.826 8.826 0 0 1 0 17.652zm0 0M353.105 485.52a8.829 8.829 0 0 1-8.828-8.829V459.04a8.829 8.829 0 0 1 17.657 0v17.652a8.829 8.829 0 0 1-8.829 8.829zm0 0" fill="#fff"/><path d="M361.934 476.691h-17.657a8.826 8.826 0 0 1-8.828-8.828c0-4.875 3.953-8.824 8.828-8.824h17.657a8.826 8.826 0 0 1 0 17.652zm0 0" fill="#fff"/><g fill="#2c2f38"><path d="M297.734 256.004c-7.132 13.957-29.394 15.93-41.554 15.93-12.188 0-34.426-1.973-41.559-15.93a179.568 179.568 0 0 0 41.559 5.207 179.535 179.535 0 0 0 41.554-5.207zm0 0M232.879 159.684a87.897 87.897 0 0 0-26.129-5.297 62.821 62.821 0 0 0-34.602 7.379c1.207-15.446 37.02-18.5 54.532-14.528a8.336 8.336 0 0 1 6.437 4.559 8.34 8.34 0 0 1-.238 7.887zm0 0M279.121 159.684a87.947 87.947 0 0 1 26.133-5.297 62.828 62.828 0 0 1 34.601 7.379c-1.207-15.446-37.023-18.5-54.53-14.528a8.336 8.336 0 0 0-6.438 4.559 8.34 8.34 0 0 0 .234 7.887zm0 0M184.14 174.242s2.512 11.281 12.239 9.082c9.726-2.199 11.578 2.024 19.957 1.348a33.328 33.328 0 0 1 8.566.523c2.004.465 4.082.5 6.102.098 2.793-.746 2.55-3.988 1.574-6.098-3.879-8.36-14.789-8.968-22.77-8.043a79.171 79.171 0 0 1-10.304 2.078 27.555 27.555 0 0 1-9.973-5.128c.637 2.27.79 4.644.45 6.976-1.012 1.918-5.84-.836-5.84-.836zm0 0"/><path d="M229.52 191.395c0-10.45-7.907-18.922-17.657-18.922s-17.656 8.472-17.656 18.922c0 10.453 7.906 18.925 17.656 18.925s17.657-8.472 17.657-18.925zm0 0"/></g><path d="M216.813 174.977a8.823 8.823 0 0 0-11.387 5.113c-1.735 4.555.554 9.656 5.11 11.387a8.827 8.827 0 0 0 11.39-5.114 8.823 8.823 0 0 0-5.113-11.386zm0 0" fill="#fff"/><path d="M327.86 174.242s-2.516 11.281-12.239 9.082c-9.726-2.199-11.578 2.024-19.96 1.348a33.339 33.339 0 0 0-8.567.523c-2.004.465-4.082.5-6.098.098-2.797-.746-2.555-3.988-1.574-6.098 3.875-8.36 14.785-8.968 22.77-8.043a78.983 78.983 0 0 0 10.3 2.078 27.603 27.603 0 0 0 9.977-5.128 16.832 16.832 0 0 0-.45 6.976c1.012 1.918 5.84-.836 5.84-.836zm0 0" fill="#2c2f38"/><path d="M317.793 191.395c0-10.45-7.906-18.922-17.656-18.922s-17.657 8.472-17.657 18.922c0 10.453 7.907 18.925 17.657 18.925s17.656-8.472 17.656-18.925zm0 0" fill="#2c2f38"/><path d="M306.582 180.094a8.823 8.823 0 0 0-11.387-5.114 8.823 8.823 0 0 0-5.113 11.387c1.734 4.559 6.832 6.848 11.387 5.113 4.558-1.734 6.847-6.832 5.113-11.386zm0 0" fill="#fff"/></svg>