<svg height="512pt" viewBox="0 0 512 512" width="512pt" xmlns="http://www.w3.org/2000/svg"><path d="M185.379 291.309H326.62v79.449H185.38zm0 0" fill="#f29c1f"/><path d="M388.414 158.898v88.274a61.747 61.747 0 0 1-61.793 61.793H185.38a61.747 61.747 0 0 1-61.793-61.793v-88.274s8.828-44.14 61.793-44.14 97.105-17.653 114.758-35.309c0 0 35.312 17.656 44.14 44.137 8.828 26.484 44.137 35.312 44.137 35.312zm0 0" fill="#f0c419"/><path d="M414.898 512H512v-7.855a138.922 138.922 0 0 0-4.063-33.547l-8.207-33.278c-9.523-34.715-41.43-58.511-77.418-57.734H89.688c-35.988-.777-67.894 23.02-77.417 57.734l-8.207 33.278A138.922 138.922 0 0 0 0 504.145V512zm0 0" fill="#90bae1"/><path d="M335.45 353.105S256 441.38 256 512c0-70.621-79.45-158.895-79.45-158.895zm0 0" fill="#95a5a5"/><path d="M176.55 353.105S256 441.38 256 512H70.621l29.926-144.773a20.785 20.785 0 0 1 21.539-14.122zm0 0M441.379 512H256c0-70.621 79.45-158.895 79.45-158.895h54.464a20.899 20.899 0 0 1 21.629 14.122zm0 0" fill="#e6e7e8"/><path d="M273.664 203.035a8.842 8.842 0 0 1-7.898-4.863 33.204 33.204 0 0 0-10.157-12.832 44.247 44.247 0 0 0-9.375 12.832 8.828 8.828 0 0 1-15.785-7.91c2.64-5.29 12.297-22.54 25.551-22.54s22.91 17.25 25.55 22.536c1.368 2.734 1.223 5.984-.382 8.586s-4.445 4.187-7.504 4.191zm0 0M176.563 203.035c-.493 0-.981-.039-1.465-.12l-52.965-8.83c-4.762-.847-7.953-5.37-7.16-10.144a8.832 8.832 0 0 1 10.066-7.27l52.965 8.829a8.829 8.829 0 0 1-1.441 17.535zm0 0M335.441 203.035a8.832 8.832 0 0 1-8.789-8.101 8.83 8.83 0 0 1 7.344-9.434l52.965-8.828a8.827 8.827 0 0 1 8.34 3.055 8.822 8.822 0 0 1 1.465 8.761 8.823 8.823 0 0 1-6.899 5.598l-52.965 8.828a8.743 8.743 0 0 1-1.46.121zm0 0" fill="#5e5f62"/><path d="M256 512c-26.484-61.793-105.93-88.277-105.93-88.277a115.171 115.171 0 0 1 8.828-70.618h17.653S256 441.38 256 512zm0 0M361.93 423.723S282.484 450.207 256 512c0-70.621 79.45-158.895 79.45-158.895h17.655a115.198 115.198 0 0 1 8.825 70.618zm0 0" fill="#bdc3c7"/><path d="M158.898 476.691h-44.14a8.829 8.829 0 0 1 0-17.656h44.14c4.875 0 8.825 3.953 8.825 8.828s-3.95 8.828-8.825 8.828zm0 0" fill="#e64c3c"/><path d="M397.242 476.691h-44.137c-4.878 0-8.828-3.953-8.828-8.828s3.95-8.828 8.828-8.828h44.137a8.829 8.829 0 0 1 0 17.656zm0 0" fill="#95a5a5"/><path d="M379.586 87.746V79.45C379.582 35.57 344.016.004 300.136 0h-88.273c-38.195.031-70.984 27.188-78.125 64.707" fill="#7f8c8d"/><path d="M388.414 247.172V176.55s-35.309-8.828-44.137-35.309c-8.828-26.484-44.14-44.137-44.14-44.137-17.653 17.653-61.793 35.31-114.758 35.31s-61.793 44.136-61.793 44.136v61.793a153.452 153.452 0 0 1-35.309-79.446c-5.21-31.34 11.121-68.77 45.461-94.191a158.96 158.96 0 0 1 95.778-29.398c97.105 0 105.933 35.312 132.414 44.14a96.022 96.022 0 0 1 17.656 8.297c33.723 20.04 82.098 71.504 8.828 159.426zm0 0" fill="#95a5a5"/><g fill="#2c2f38"><path d="M297.734 256c-7.132 13.957-29.398 15.934-41.558 15.934-12.188 0-34.422-1.977-41.555-15.934a179.535 179.535 0 0 0 41.555 5.207A179.357 179.357 0 0 0 297.734 256zm0 0M232.879 155.27a87.8 87.8 0 0 0-26.129-5.297 62.774 62.774 0 0 0-34.605 7.379c1.207-15.45 37.023-18.504 54.53-14.532a8.36 8.36 0 0 1 6.442 4.559 8.359 8.359 0 0 1-.238 7.89zm0 0M279.121 155.27a87.824 87.824 0 0 1 26.129-5.297 62.774 62.774 0 0 1 34.605 7.379c-1.207-15.45-37.023-18.504-54.53-14.532a8.366 8.366 0 0 0-6.442 4.559 8.359 8.359 0 0 0 .238 7.89zm0 0M229.516 195.09c0-10.848-7.903-19.64-17.653-19.64s-17.656 8.792-17.656 19.64 7.906 19.64 17.656 19.64 17.653-8.792 17.653-19.64zm0 0"/></g><path d="M218.23 179.047c-4.175-2.516-9.601-1.168-12.117 3.008-2.515 4.175-1.172 9.601 3.004 12.117a8.828 8.828 0 0 0 12.117-3.008c2.516-4.176 1.172-9.601-3.004-12.117zm0 0" fill="#fff"/><path d="M317.79 195.09c0-10.848-7.903-19.64-17.653-19.64-9.754 0-17.657 8.792-17.657 19.64s7.903 19.64 17.657 19.64c9.75 0 17.652-8.792 17.652-19.64zm0 0" fill="#2c2f38"/><path d="M305.887 182.055c-2.516-4.176-7.942-5.524-12.117-3.008s-5.524 7.941-3.008 12.117c2.515 4.176 7.941 5.524 12.117 3.008 4.176-2.516 5.523-7.942 3.008-12.117zm0 0" fill="#fff"/><path d="M211.863 229.516c-19.504 0-35.312-15.809-35.312-35.309s15.808-35.309 35.312-35.309c19.5 0 35.309 15.809 35.309 35.309-.02 19.492-15.817 35.29-35.309 35.309zm0-52.965c-9.75 0-17.656 7.906-17.656 17.656s7.906 17.656 17.656 17.656 17.653-7.906 17.653-17.656c-.008-9.746-7.907-17.644-17.653-17.656zm0 0M300.137 229.516c-19.5 0-35.309-15.809-35.309-35.309s15.809-35.309 35.309-35.309c19.504 0 35.312 15.809 35.312 35.309-.023 19.492-15.82 35.29-35.312 35.309zm0-52.965c-9.75 0-17.653 7.906-17.653 17.656s7.903 17.656 17.653 17.656c9.754 0 17.656-7.906 17.656-17.656-.008-9.746-7.91-17.644-17.656-17.656zm0 0" fill="#285680"/></svg>