<svg height="512pt" viewBox="0 0 512 512" width="512pt" xmlns="http://www.w3.org/2000/svg"><path d="M185.379 291.309H326.62v79.449H185.38zm0 0" fill="#c03a2b"/><path d="M238.344 0h35.312c78.004 0 141.242 63.234 141.242 141.242v79.45a88.274 88.274 0 0 1-88.277 88.273H185.38c-48.754 0-88.274-39.524-88.274-88.274v-79.449C97.105 63.234 160.34 0 238.344 0zm0 0" fill="#e64c3c"/><path d="M185.379 105.93H326.62c24.375 0 44.137 19.761 44.137 44.14v70.621c0 24.375-19.762 44.137-44.137 44.137H185.38c-24.375 0-44.137-19.762-44.137-44.137v-70.62c0-24.38 19.762-44.141 44.137-44.141zm0 0" fill="#f0c419"/><path d="M414.898 512H512v-7.855a138.922 138.922 0 0 0-4.063-33.547l-8.207-33.278c-9.523-34.715-41.43-58.511-77.418-57.734H89.688c-35.988-.777-67.894 23.02-77.417 57.734l-8.207 33.278A138.922 138.922 0 0 0 0 504.145V512zm0 0" fill="#c03a2b"/><path d="M441.379 512H70.62l29.906-144.746c3.063-9.14 11.989-14.992 21.59-14.149h267.82a20.844 20.844 0 0 1 21.59 14.149zm0 0" fill="#e64c3c"/><path d="M159.453 79.45a8.835 8.835 0 0 1-8.058-5.231 8.834 8.834 0 0 1 1.488-9.492 114.939 114.939 0 0 1 85.46-38.243h35.313c4.875 0 8.828 3.95 8.828 8.825a8.826 8.826 0 0 1-8.828 8.828h-35.312a97.284 97.284 0 0 0-72.313 32.375 8.812 8.812 0 0 1-6.578 2.937zm0 0" fill="#fb7b76"/><path d="M379.586 450.207c0 34.129-27.664 61.793-61.793 61.793S256 484.336 256 450.207s27.664-61.793 61.793-61.793 61.793 27.664 61.793 61.793zm0 0" fill="#e4c05c"/><g fill="#b19046"><path d="M308.965 432.55a8.829 8.829 0 1 1-17.658 0 8.829 8.829 0 0 1 17.658 0zm0 0M317.793 476.691c0 4.875-3.953 8.825-8.828 8.825s-8.828-3.95-8.828-8.825c0-4.878 3.953-8.828 8.828-8.828s8.828 3.95 8.828 8.828zm0 0M353.105 450.207a8.829 8.829 0 1 1-17.657-.002 8.829 8.829 0 0 1 17.657.002zm0 0"/></g><path d="M297.734 225.105c-7.132 13.958-29.398 15.93-41.558 15.93-12.188 0-34.422-1.972-41.555-15.93a179.747 179.747 0 0 0 41.555 5.208 179.568 179.568 0 0 0 41.558-5.208zm0 0M232.879 133.2a87.8 87.8 0 0 0-26.129-5.298 62.808 62.808 0 0 0-34.605 7.38c1.207-15.45 37.023-18.5 54.53-14.532a8.356 8.356 0 0 1 6.442 4.563 8.35 8.35 0 0 1-.238 7.886zm0 0M229.516 160.496c0-10.45-7.903-18.922-17.653-18.922s-17.656 8.473-17.656 18.922c0 10.45 7.906 18.922 17.656 18.922s17.653-8.473 17.653-18.922zm0 0" fill="#2c2f38"/><path d="M216.813 144.078a8.827 8.827 0 0 0-6.277 16.5 8.827 8.827 0 1 0 6.276-16.5zm0 0" fill="#fff"/><path d="M279.121 133.2a87.824 87.824 0 0 1 26.129-5.298 62.808 62.808 0 0 1 34.605 7.38c-1.207-15.45-37.023-18.5-54.53-14.532a8.362 8.362 0 0 0-6.442 4.563 8.35 8.35 0 0 0 .238 7.886zm0 0M317.793 160.496c0-10.45-7.902-18.922-17.656-18.922-9.75 0-17.653 8.473-17.653 18.922 0 10.45 7.903 18.922 17.653 18.922 9.754 0 17.656-8.473 17.656-18.922zm0 0" fill="#2c2f38"/><path d="M306.578 149.188a8.828 8.828 0 0 0-11.39-5.11 8.827 8.827 0 0 0 6.277 16.5 8.827 8.827 0 0 0 5.113-11.39zm0 0" fill="#fff"/></svg>