<svg height="512pt" viewBox="0 0 512 512" width="512pt" xmlns="http://www.w3.org/2000/svg"><path d="M185.379 291.309H326.62v79.449H185.38zm0 0" fill="#f29c1f"/><path d="M414.898 512H512v-7.855a138.922 138.922 0 0 0-4.063-33.547l-8.207-33.278c-9.523-34.715-41.43-58.511-77.418-57.734H89.688c-35.988-.777-67.894 23.02-77.417 57.734l-8.207 33.278A138.922 138.922 0 0 0 0 504.145V512zm0 0" fill="#35495e"/><path d="M388.414 132.414v114.758c0 34.129-27.664 61.793-61.793 61.793H185.38c-34.125 0-61.793-27.664-61.793-61.793V132.414zm0 0" fill="#f0c419"/><path d="M301.242 246.621c-4.867 15.024-27.77 22.402-40.172 24.574-12.425 2.176-35.441 4.203-45.12-8.273 14.464.871 28.98.101 43.273-2.29a201.154 201.154 0 0 0 42.02-14.01zm0 0M231.215 178.45a87.747 87.747 0 0 0-24.664-10.134 62.81 62.81 0 0 0-35.38.711c4.106-14.941 39.852-11.18 56.294-3.972a8.35 8.35 0 0 1 5.469 5.691 8.344 8.344 0 0 1-1.72 7.703zm0 0M229.516 195.805c0-10.45-7.903-18.922-17.653-18.922s-17.656 8.472-17.656 18.922c0 10.453 7.906 18.925 17.656 18.925s17.653-8.472 17.653-18.925zm0 0" fill="#2c2f38"/><path d="M216.813 179.387a8.827 8.827 0 0 0-11.391 5.113c-1.734 4.555.555 9.656 5.113 11.39a8.833 8.833 0 0 0 11.39-5.113 8.833 8.833 0 0 0-5.113-11.39zm0 0" fill="#fff"/><path d="M279.84 180.3a49.21 49.21 0 0 1 24.86-17.32 35.398 35.398 0 0 1 36.304 11.528c-.137-.133.137-2.95.086-3.387a11.927 11.927 0 0 0-.918-3.316 16.754 16.754 0 0 0-4.469-5.84 35.932 35.932 0 0 0-16.39-7.496 44.904 44.904 0 0 0-24.083 1.191 36.967 36.967 0 0 0-12.664 7.465c-3.242 2.965-8.043 8.43-5.957 13.402a28.353 28.353 0 0 0 3.23 3.774zm0 0" fill="#2c2f38"/><path d="M317.793 195.805c0-10.45-7.902-18.922-17.656-18.922-9.75 0-17.653 8.472-17.653 18.922 0 10.453 7.903 18.925 17.653 18.925 9.754 0 17.656-8.472 17.656-18.925zm0 0" fill="#2c2f38"/><path d="M306.578 184.5a8.827 8.827 0 0 0-11.39-5.113 8.833 8.833 0 0 0-5.114 11.39 8.833 8.833 0 0 0 11.39 5.114 8.827 8.827 0 0 0 5.114-11.391zm0 0" fill="#fff"/><path d="M335.45 353.105s-5.653 18.711-11.653 45.813a138.198 138.198 0 0 1-58.969 15.715c-2.824.176-5.828.265-8.828.265s-6.004-.09-8.828-.265a138.198 138.198 0 0 1-58.969-15.715c-6-27.102-11.652-45.813-11.652-45.813zm0 0" fill="#e6e7e8"/><path d="M323.797 398.918A548.51 548.51 0 0 0 308.965 512h-105.93a548.51 548.51 0 0 0-14.832-113.082A141.57 141.57 0 0 0 256 414.898a141.57 141.57 0 0 0 67.797-15.98zm0 0" fill="#e64c3c"/><path d="M176.55 353.105S203.036 441.38 203.036 512H70.621l29.926-144.773a20.785 20.785 0 0 1 21.539-14.122zm0 0M441.379 512H308.965c0-70.621 26.484-158.895 26.484-158.895h54.465a20.899 20.899 0 0 1 21.629 14.122zm0 0" fill="#2c3e50"/><path d="M256 0c70.621 0 114.758 35.309 132.414 88.277a94.448 94.448 0 0 0 64.352 60.274 8.753 8.753 0 0 1 6.27 8.445v10.61a8.785 8.785 0 0 1-8.993 8.828 375.663 375.663 0 0 1-105.766-17.536A308.938 308.938 0 0 0 256 141.242a308.938 308.938 0 0 0-88.277 17.656 375.504 375.504 0 0 1-105.766 17.54 8.785 8.785 0 0 1-8.992-8.828v-10.614a8.753 8.753 0 0 1 6.27-8.445 94.44 94.44 0 0 0 64.35-60.274C141.243 35.31 185.38 0 256 0zm0 0" fill="#2c2f38"/><g fill="#d25627"><path d="M158.898 311.79a8.823 8.823 0 0 1-8.828-8.825v-64.621a8.826 8.826 0 0 1 8.828-8.828c4.875 0 8.825 3.953 8.825 8.828v64.62a8.822 8.822 0 0 1-8.825 8.825zm0 0M194.207 317.793a8.829 8.829 0 0 1-8.828-8.828v-26.48a8.829 8.829 0 0 1 17.656 0v26.48a8.829 8.829 0 0 1-8.828 8.828zm0 0M229.516 317.793c-4.875 0-8.825-3.953-8.825-8.828v-17.656a8.822 8.822 0 0 1 8.825-8.825 8.823 8.823 0 0 1 8.828 8.825v17.656a8.826 8.826 0 0 1-8.828 8.828zm0 0M353.105 311.79a8.823 8.823 0 0 1-8.828-8.825v-64.621a8.826 8.826 0 0 1 8.828-8.828c4.875 0 8.825 3.953 8.825 8.828v64.62a8.822 8.822 0 0 1-8.825 8.825zm0 0M317.793 317.793a8.829 8.829 0 0 1-8.828-8.828v-26.48a8.829 8.829 0 0 1 17.656 0v26.48a8.829 8.829 0 0 1-8.828 8.828zm0 0M282.484 317.793a8.829 8.829 0 0 1-8.828-8.828v-17.656c0-4.875 3.953-8.825 8.828-8.825s8.825 3.95 8.825 8.825v17.656c0 4.875-3.95 8.828-8.825 8.828zm0 0"/></g><path d="M203.035 512h-26.484a158.03 158.03 0 0 0-44.137-52.965s26.484-8.828 35.309-17.656c0 0-35.309-17.656-44.137-17.656 0 0 8.828-44.137 35.312-70.618h17.653S203.035 441.38 203.035 512zm0 0M344.277 441.379c8.828 8.828 35.309 17.656 35.309 17.656A158.03 158.03 0 0 0 335.449 512h-26.484c0-70.621 26.484-158.895 26.484-158.895h17.656c26.48 26.48 35.31 70.618 35.31 70.618-8.83 0-44.138 17.656-44.138 17.656zm0 0" fill="#35495e"/><path d="M264.828 388.414v26.219c-2.824.176-5.828.265-8.828.265s-6.004-.09-8.828-.265v-26.219a8.829 8.829 0 0 1 17.656 0zm0 0" fill="#bdc3c7"/><path d="M264.828 450.207a8.829 8.829 0 1 1-17.658-.002 8.829 8.829 0 0 1 17.658.002zm0 0M264.828 485.516c0 4.879-3.953 8.828-8.828 8.828s-8.828-3.95-8.828-8.828c0-4.875 3.953-8.825 8.828-8.825s8.828 3.95 8.828 8.825zm0 0" fill="#e4c05c"/><path d="M211.863 123.59a8.825 8.825 0 0 1-8.683-7.16 8.822 8.822 0 0 1 5.406-9.868l88.277-35.312a8.831 8.831 0 0 1 8.739 1.262 8.829 8.829 0 0 1 3.273 8.199 8.828 8.828 0 0 1-5.46 6.937l-88.278 35.309a8.779 8.779 0 0 1-3.274.633zm0 0" fill="#e6e7e8"/><path d="M300.137 123.59a8.779 8.779 0 0 1-3.274-.633l-88.277-35.309a8.828 8.828 0 0 1-5.461-6.937 8.829 8.829 0 0 1 3.273-8.2 8.833 8.833 0 0 1 8.739-1.261l88.277 35.313a8.822 8.822 0 0 1 5.406 9.867 8.825 8.825 0 0 1-8.683 7.16zm0 0" fill="#e6e7e8"/><path d="M185.379 512h-18.8a144.31 144.31 0 0 0-39.02-45.637 8.733 8.733 0 0 1-3.883-8.476 8.827 8.827 0 0 1 5.914-7.239 167.626 167.626 0 0 0 20.039-8.12 134.276 134.276 0 0 0-26.129-9.977 9.437 9.437 0 0 1-6.71-3.442 9.066 9.066 0 0 1-1.856-7.152 172.303 172.303 0 0 1 32.046-68.852h20.743a8.87 8.87 0 0 1-2.559 6.266 138.246 138.246 0 0 0-30.809 57.82 337.412 337.412 0 0 1 37.34 16.332 8.788 8.788 0 0 1 4.77 6.446 9.122 9.122 0 0 1-2.473 7.68 86.305 86.305 0 0 1-24.012 14.12 180.092 180.092 0 0 1 34.43 46.258 9.42 9.42 0 0 1 .969 3.973zm0 0M397.066 421.957a8.75 8.75 0 0 1-1.855 7.328 8.57 8.57 0 0 1-6.797 3.266 134.511 134.511 0 0 0-26.043 9.976 167.626 167.626 0 0 0 20.04 8.121 8.827 8.827 0 0 1 5.913 7.239 8.733 8.733 0 0 1-3.883 8.476A143.162 143.162 0 0 0 345.421 512h-18.8a9.367 9.367 0 0 1 .973-3.973 179.987 179.987 0 0 1 34.426-46.257 86.305 86.305 0 0 1-24.012-14.122 9.122 9.122 0 0 1-2.473-7.68 8.788 8.788 0 0 1 4.77-6.445 337.412 337.412 0 0 1 37.34-16.332 139.807 139.807 0 0 0-30.81-57.82 8.87 8.87 0 0 1-2.558-6.266h20.743a172.303 172.303 0 0 1 32.046 68.852zm0 0" fill="#e4c05c"/><path d="M286.898 66.207c0 17.063-13.836 30.898-30.898 30.898s-30.895-13.835-30.895-30.898S238.938 35.309 256 35.309s30.898 13.836 30.898 30.898zm0 0" fill="#fff"/></svg>