<svg height="672" viewBox="0 0 504.19 504" width="672" xmlns="http://www.w3.org/2000/svg"><path d="M408.73 503.41h95.461v-7.723c0-32.042-12.109-67.617-37.93-87.945a81.573 81.573 0 0 0-50.238-17.144H88.168a81.573 81.573 0 0 0-50.238 17.144C12.11 428.07 0 463.645 0 495.687v7.723zm0 0" fill="#35495e"/><path d="M416.543 191.004a60.112 60.112 0 0 1-34.711 26.035h-260.34a60.088 60.088 0 0 1-34.71-26.035s64.128-43.39 164.878-43.39c100.754 0 164.883 43.39 164.883 43.39zm0 0" fill="#2c2f38"/><path d="M433.898 503.41H69.422l29.422-124.96a20.432 20.432 0 0 1 21.172-13.888h263.289a20.546 20.546 0 0 1 21.261 13.887zm0 0" fill="#2c3e50"/><path d="M182.238 321.172h138.848v43.39H182.238zm0 0" fill="#f29c1f"/><path d="M381.832 147.613v112.813a60.704 60.704 0 0 1-60.746 60.746H182.238c-16.117.012-31.574-6.383-42.968-17.777s-17.79-26.852-17.778-42.97V147.614zm0 0" fill="#f0c419"/><path d="M251.66 251.75c0-9.586-7.77-17.355-17.355-17.355h-34.711c-9.586 0-17.356 7.77-17.356 17.355v34.71l4.528-2.265a60.799 60.799 0 0 1 27.168-6.414h37.726" fill="#805333"/><path d="M251.66 277.781h37.727c9.433 0 18.734 2.2 27.168 6.414l4.53 2.266V251.75c0-9.586-7.773-17.355-17.355-17.355h-34.714c-9.586 0-17.356 7.77-17.356 17.355zm0 0" fill="#805333"/><path d="M338.441 364.563c-.039 33.535-27.21 60.71-60.746 60.746H225.63a48.22 48.22 0 0 1-8.68-.696c-29.87-4.293-52.05-29.875-52.066-60.05h17.355c.008 23.96 19.43 43.382 43.39 43.39h52.067c23.961-.008 43.38-19.43 43.39-43.39zm0 0" fill="#7f8c8d"/><path d="M234.305 416.629v86.781h-17.356V416.63c0-4.793 3.887-8.676 8.68-8.676a8.676 8.676 0 0 1 8.676 8.676zm0 0" fill="#7f8c8d"/><path d="M269.016 460.02c0 4.792-3.883 8.68-8.676 8.68s-8.68-3.888-8.68-8.68 3.887-8.676 8.68-8.676a8.674 8.674 0 0 1 8.676 8.676zm0 0" fill="#bdc3c7"/><path d="M373.152 503.41a116.12 116.12 0 0 0 8.68-43.39 37.608 37.608 0 0 1-34.715-17.356 37.598 37.598 0 0 1-34.71 17.356 116.12 116.12 0 0 0 8.679 43.39zm0 0" fill="#a5a5a4"/><path d="M416.543 191.004s-64.129-43.39-164.883-43.39c-100.75 0-164.879 43.39-164.879 43.39a113.281 113.281 0 0 1 34.711-46.688c24.559-20.566 64.996-40.093 130.168-40.093s105.613 19.527 130.172 40.093a113.35 113.35 0 0 1 34.711 46.688zm0 0" fill="#35495e"/><path d="M381.832 130.258v14.058c-24.559-20.566-65-40.093-130.172-40.093s-105.61 19.527-130.168 40.093v-14.058c.004-6.621.496-13.235 1.473-19.785 0-.086.09-.176.09-.262C132.93 46.828 187.515.094 251.66.094c64.149 0 118.73 46.734 128.61 110.117 0 .086.085.176.085.262a135.27 135.27 0 0 1 1.477 19.785zm0 0" fill="#2c3e50"/><path d="M269.016 52.156c0 9.586-7.77 17.356-17.356 17.356-9.586 0-17.355-7.77-17.355-17.356s7.77-17.355 17.355-17.355c9.586 0 17.356 7.77 17.356 17.355zm0 0" fill="#bdc3c7"/><path d="M182.238 295.14a8.686 8.686 0 0 1-8.68-8.68v-34.71c0-4.793 3.887-8.68 8.68-8.68s8.676 3.887 8.676 8.68v21.29a69.79 69.79 0 0 1 23.02-3.935h37.726c4.793 0 8.68 3.887 8.68 8.676a8.68 8.68 0 0 1-8.68 8.68h-37.726a52.286 52.286 0 0 0-23.282 5.496l-4.535 2.266a8.729 8.729 0 0 1-3.879.918zm0 0" fill="#804537"/><path d="M321.086 295.14a8.758 8.758 0 0 1-3.883-.917l-4.535-2.266a52.282 52.282 0 0 0-23.277-5.496h-37.73c-4.794 0-8.677-3.887-8.677-8.68a8.676 8.676 0 0 1 8.676-8.676h37.73a69.766 69.766 0 0 1 23.016 3.934V251.75a8.68 8.68 0 0 1 8.68-8.68c4.793 0 8.676 3.887 8.676 8.68v34.71c0 4.794-3.887 8.677-8.676 8.68zm0 0" fill="#804537"/><path d="M228.934 170.078a86.388 86.388 0 0 0-25.688-5.203 61.718 61.718 0 0 0-34.02 7.254c1.188-15.188 36.395-18.191 53.61-14.285a8.206 8.206 0 0 1 6.328 4.484 8.198 8.198 0 0 1-.23 7.75zm0 0M225.629 196.914c0-10.273-7.774-18.601-17.36-18.601-9.582 0-17.355 8.328-17.355 18.601 0 10.274 7.774 18.602 17.356 18.602 9.585 0 17.359-8.328 17.359-18.602zm0 0" fill="#2c2f38"/><path d="M213.137 180.773a8.678 8.678 0 1 0-6.166 16.222 8.678 8.678 0 0 0 6.166-16.222zm0 0" fill="#fff"/><path d="M274.39 170.078a86.363 86.363 0 0 1 25.688-5.203 61.704 61.704 0 0 1 34.016 7.254c-1.188-15.188-36.395-18.191-53.606-14.285a8.206 8.206 0 0 0-6.097 12.234zm0 0M312.406 196.914c0-10.273-7.77-18.601-17.355-18.601-9.586 0-17.356 8.328-17.356 18.601 0 10.274 7.77 18.602 17.356 18.602 9.586 0 17.355-8.328 17.355-18.602zm0 0" fill="#2c2f38"/><path d="M301.383 185.8a8.683 8.683 0 0 0-11.2-5.027c-4.476 1.704-6.726 6.715-5.023 11.196s6.715 6.73 11.195 5.027 6.73-6.719 5.028-11.195zm0 0" fill="#fff"/></svg>