<svg height="512pt" viewBox="0 0 512 512" width="512pt" xmlns="http://www.w3.org/2000/svg"><path d="M185.379 291.309H326.62v79.449H185.38zm0 0" fill="#f29c1f"/><path d="M512 504.145V512H0v-7.855a138.922 138.922 0 0 1 4.063-33.547l8.207-33.278c9.523-34.715 41.43-58.511 77.418-57.734h332.625c35.988-.777 67.894 23.02 77.417 57.734l8.207 33.278A138.922 138.922 0 0 1 512 504.145zm0 0" fill="#4482c3"/><path d="M256 511.91v.09H70.621l27.367-132.414 2.559-12.36a20.785 20.785 0 0 1 21.539-14.12h54.465l-.086.085c-.09 0-.18.09-.266.266a17.4 17.4 0 0 0-2.031 1.676c-.086.09-.176.09-.266.265a37.056 37.056 0 0 0-2.91 2.739l-1.238 1.234a98.793 98.793 0 0 0-8.297 9.887c-.707.972-1.414 2.031-2.207 3.18-1.5 2.207-3 4.59-4.414 7.148l-.09.09c-.617 1.144-1.324 2.383-1.941 3.707-.352.793-.793 1.59-1.149 2.383a52.562 52.562 0 0 0-1.765 3.882 113.607 113.607 0 0 0-2.559 6.446 101.912 101.912 0 0 0-1.766 5.472c-.086.442-.265.797-.351 1.239-.266.882-.442 1.851-.707 2.734a61.812 61.812 0 0 0-1.5 7.238c-.266 1.239-.442 2.563-.617 3.887-.356 2.383-.621 4.941-.883 7.5v.621c-.18 2.469-.266 5.031-.266 7.68v.086a42.642 42.642 0 0 1 35.309 0 67.54 67.54 0 0 0-17.653 44.14 165.469 165.469 0 0 1 20.918-.62c1.414 0 2.829.09 4.329.179 1.148 0 2.292.086 3.53.176.74.011 1.477.07 2.208.176 4.437.285 8.86.812 13.238 1.59 1.238.175 2.563.44 3.887.706.328.016.656.075.969.176 2.03.442 3.972.883 6.003 1.41 2.032.532 4.149 1.063 6.18 1.766 1.414.531 2.824.973 4.238 1.59a72.698 72.698 0 0 1 12.094 5.828c1.235.793 2.473 1.586 3.617 2.469a47.935 47.935 0 0 1 10.684 10.418c.086.09.176.265.266.351.343.438.64.914.879 1.414.269.282.48.61.62.973.262.352.442.703.704 1.059v.085c.11.137.199.286.265.442.196.285.375.578.532.883.183.308.332.633.441.972.152.215.27.453.352.707.066.133.156.25.265.352.012.23.106.453.266.617l.527 1.5zm0 0M441.379 512H256v-.09h.09c.176-.527.351-.969.527-1.5a.956.956 0 0 0 .266-.617c.172-.371.379-.727.617-1.059 0-.175.09-.265.176-.441.086-.195.207-.375.355-.531 0-.086.086-.176.086-.262.18-.355.442-.707.621-1.063.36-.707.77-1.386 1.235-2.027l.09-.09v-.09c.261-.44.617-.882.882-1.324.086-.086.176-.261.262-.351a47.935 47.935 0 0 1 10.684-10.418c1.148-.883 2.382-1.676 3.617-2.469a72.847 72.847 0 0 1 12.094-5.828c1.414-.617 2.824-1.059 4.238-1.59 2.031-.703 4.148-1.234 6.18-1.766a151.56 151.56 0 0 1 6.003-1.41c.313-.101.641-.16.97-.176 1.323-.265 2.648-.53 3.886-.707a135.084 135.084 0 0 1 18.976-1.941c1.5-.09 2.915-.18 4.329-.18a165.552 165.552 0 0 1 20.921.621 67.563 67.563 0 0 0-17.656-44.14 42.642 42.642 0 0 1 35.309 0c0-2.649-.086-5.297-.266-7.766v-.62c-.262-2.56-.527-5.118-.883-7.5-.261-2.388-.703-4.77-1.144-6.978-.621-2.824-1.324-5.472-2.031-8.12-.442-1.59-.973-3.176-1.5-4.68a77.96 77.96 0 0 0-2.825-7.239 52.562 52.562 0 0 0-1.765-3.882c-.356-.793-.797-1.59-1.149-2.383-.617-1.324-1.324-2.563-1.941-3.707l-.09-.09c-.793-1.41-1.59-2.734-2.383-4.059-.09-.09-.176-.265-.265-.355-.618-.969-1.149-1.852-1.766-2.735-.793-1.148-1.5-2.207-2.207-3.18a104.268 104.268 0 0 0-7.063-8.562c-.175-.175-.265-.351-.44-.441a8.094 8.094 0 0 0-.794-.883 9.225 9.225 0 0 0-1.324-1.324l-.617-.617a43.909 43.909 0 0 0-4.504-3.973c-.086-.176-.176-.266-.266-.266l-.086-.086h54.465a20.899 20.899 0 0 1 21.629 14.122l2.559 12.359zm0 0" fill="#285680"/><path d="M317.793 353.105l-26.484 114.758L256 512l-35.309-44.137-26.484-114.758zm0 0" fill="#bdc3c7"/><path d="M251.676 500.965l3.441 8.828c-.11-.102-.199-.219-.265-.352a4.767 4.767 0 0 0-.352-.707 4.74 4.74 0 0 0-.441-.972 8.135 8.135 0 0 0-.532-.883 1.895 1.895 0 0 0-.265-.441v-.086a7.113 7.113 0 0 0-.703-1.059 5.87 5.87 0 0 0-.621-.973c-.262-.441-.618-.972-.88-1.414-.09-.086-.18-.261-.265-.351a47.935 47.935 0 0 0-10.684-10.418c-1.144-.883-2.382-1.676-3.617-2.469a72.698 72.698 0 0 0-12.094-5.828 41.878 41.878 0 0 0-4.238-1.59c-2.031-.703-4.148-1.234-6.18-1.766-2.03-.527-4.058-.968-6.003-1.41a3.716 3.716 0 0 0-.97-.176c-1.323-.265-2.562-.53-3.886-.707a119.65 119.65 0 0 0-13.238-1.59 19.021 19.021 0 0 0-2.207-.175c-1.238-.09-2.383-.176-3.531-.176-1.5-.09-2.915-.18-4.329-.18a165.469 165.469 0 0 0-20.918.621 67.54 67.54 0 0 1 17.653-44.14 42.642 42.642 0 0 0-35.309 0v-.086c0-2.649.086-5.211.266-7.68v-.62c.262-2.56.527-5.118.883-7.5.175-1.325.351-2.65.617-3.888a61.812 61.812 0 0 1 1.5-7.238c.265-.883.441-1.851.707-2.734.086-.442.265-.797.351-1.239a101.912 101.912 0 0 1 1.766-5.472c.797-2.207 1.68-4.414 2.559-6.446a52.562 52.562 0 0 1 1.765-3.882c.356-.793.797-1.59 1.149-2.383.617-1.324 1.324-2.563 1.941-3.707l.09-.09a91.255 91.255 0 0 1 4.414-7.148c.793-1.149 1.5-2.208 2.207-3.18a98.793 98.793 0 0 1 8.297-9.887l1.238-1.234a37.056 37.056 0 0 1 2.91-2.739l.266-.265a17.4 17.4 0 0 1 2.031-1.676c.086-.176.176-.266.266-.266l.086-.086h17.656l6.887 17.653 3.441 8.828 11.387 29.309 29.66 76.359zm0 0M335.45 432.55a67.563 67.563 0 0 1 17.655 44.141 165.552 165.552 0 0 0-20.921-.62c-1.414 0-2.829.09-4.329.179-6.363.2-12.703.848-18.976 1.941-1.324.176-2.563.442-3.887.707a3.716 3.716 0 0 0-.969.176c-1.941.442-3.972.883-6.003 1.41-2.032.532-4.149 1.063-6.18 1.766a41.878 41.878 0 0 0-4.238 1.59 72.847 72.847 0 0 0-12.094 5.828c-1.235.793-2.469 1.586-3.617 2.469a47.935 47.935 0 0 0-10.684 10.418c-.086.09-.176.265-.262.351-.265.442-.62.883-.882 1.324v.09l-.09.09c-.465.64-.875 1.32-1.235 2.027a6.867 6.867 0 0 0-.62 1.063c0 .086-.087.176-.087.262-.148.156-.27.336-.355.531-.086.176-.176.266-.176.441a6.51 6.51 0 0 1-.617 1.059l3.441-8.828v-.086l6.094-15.715.086-.09 29.574-76.18 11.387-29.308 3.441-8.828 6.887-17.653h17.656l.086.086c.09 0 .18.09.266.266a43.909 43.909 0 0 1 4.504 3.973c.226.183.433.39.617.617l1.324 1.324c.285.274.55.57.793.883.176.09.266.266.441.441a104.268 104.268 0 0 1 7.063 8.563c.707.972 1.414 2.031 2.207 3.18.617.882 1.148 1.765 1.766 2.734.09.09.175.266.265.355.793 1.325 1.59 2.649 2.383 4.059l.09.09c.617 1.144 1.324 2.383 1.941 3.707.352.793.793 1.59 1.149 2.383a52.562 52.562 0 0 1 1.765 3.882 77.96 77.96 0 0 1 2.825 7.239c.527 1.504.968 3.09 1.5 4.68.707 2.648 1.41 5.296 2.03 8.12.442 2.208.884 4.59 1.145 6.977.356 2.383.621 4.941.883 7.5v.621c.18 2.559.266 5.117.266 7.766a42.642 42.642 0 0 0-35.309 0zm0 0" fill="#4482c3"/><path d="M264.828 512H246.29c-17.566-33.102-85.715-26.66-86.422-26.57a8.543 8.543 0 0 1-6.887-2.121 9.008 9.008 0 0 1-2.91-6.618 73.323 73.323 0 0 1 11.653-39.109 37.736 37.736 0 0 0-16.508 2.828 8.784 8.784 0 0 1-8.61-.328 8.784 8.784 0 0 1-4.19-7.531 114.394 114.394 0 0 1 12.444-52.965 109.162 109.162 0 0 1 18.63-26.48h21.89a8.932 8.932 0 0 1-3.531 7.058 78.311 78.311 0 0 0-16.774 19.422 95.666 95.666 0 0 0-14.3 40.96 48.27 48.27 0 0 1 29.75 4.15 8.795 8.795 0 0 1 4.769 6.445 9.122 9.122 0 0 1-2.473 7.68 60.801 60.801 0 0 0-14.215 28.425 159.53 159.53 0 0 1 57.91 7.941h.09a72.433 72.433 0 0 1 18.977 10.067 51.532 51.532 0 0 1 10.418 9.71 48.177 48.177 0 0 1 4.324 5.915v.086c.266.531.621 1.058.883 1.59.375.558.703 1.148.973 1.765a66.975 66.975 0 0 1 2.03 4.414 8.662 8.662 0 0 1 .618 3.266zm0 0" fill="#2fa8cc"/><path d="M379.586 432.55a8.784 8.784 0 0 1-4.191 7.532 8.784 8.784 0 0 1-8.61.328 36.935 36.935 0 0 0-16.508-2.828 73.618 73.618 0 0 1 11.653 39.11 8.823 8.823 0 0 1-2.91 6.53 8.95 8.95 0 0 1-6.887 2.208c-.707-.09-68.68-7.063-86.336 26.57h-18.625a8.662 8.662 0 0 1 .617-3.266c.621-1.5 1.324-3 2.031-4.414.27-.617.598-1.207.973-1.765a14.05 14.05 0 0 1 .883-1.59 49.095 49.095 0 0 1 4.324-6 52.199 52.199 0 0 1 10.418-9.8l.086-.09a78.85 78.85 0 0 1 18.89-9.888h.09a155.762 155.762 0 0 1 57.91-7.94 57.948 57.948 0 0 0-14.214-28.427 9.108 9.108 0 0 1-2.47-7.68 8.79 8.79 0 0 1 4.767-6.445 48.27 48.27 0 0 1 29.75-4.148 95.615 95.615 0 0 0-14.215-40.961 81.678 81.678 0 0 0-16.86-19.422 8.943 8.943 0 0 1-3.53-7.059h21.89a109.162 109.162 0 0 1 18.629 26.48 114.394 114.394 0 0 1 12.445 52.966zm0 0" fill="#2fa8cc"/><path d="M388.414 105.93v141.242a61.747 61.747 0 0 1-61.793 61.793H185.38a61.747 61.747 0 0 1-61.793-61.793V105.93zm0 0" fill="#f0c419"/><path d="M396.71 111.844v-.086a104.281 104.281 0 0 1 9.294-60.957 17.572 17.572 0 0 0 .437-13.82 17.569 17.569 0 0 0-9.691-9.86A425.522 425.522 0 0 0 256 0a425.522 425.522 0 0 0-140.75 27.121 17.569 17.569 0 0 0-9.691 9.86 17.572 17.572 0 0 0 .437 13.82 104.281 104.281 0 0 1 9.293 60.957v.086zm0 0" fill="#cc4b4c"/><path d="M256 114.758c52.965 0 52.965 8.828 105.93 26.484 52.968 17.656 61.793-8.828 61.793-8.828C379.586 88.277 300.137 79.45 256 79.45s-123.586 8.828-167.723 52.965c0 0 8.828 26.484 61.793 8.828 52.965-17.656 52.965-26.484 105.93-26.484zm0 0" fill="#e64c3c"/><path d="M317.793 353.105l-21.715 55.79c-23.058 19.773-57.094 19.773-80.156 0l-21.715-55.79zm0 0" fill="#ecf0f1"/><g fill="#2c2f38"><path d="M297.734 251.586c-7.132 13.957-29.398 15.934-41.558 15.934-12.188 0-34.422-1.977-41.555-15.934a179.535 179.535 0 0 0 41.555 5.207 179.357 179.357 0 0 0 41.558-5.207zm0 0M232.879 159.68a87.917 87.917 0 0 0-26.129-5.293 62.774 62.774 0 0 0-34.605 7.379c1.207-15.45 37.023-18.504 54.53-14.532a8.351 8.351 0 0 1 6.442 4.559 8.35 8.35 0 0 1-.238 7.887zm0 0M229.516 186.98c0-10.453-7.903-18.925-17.653-18.925s-17.656 8.472-17.656 18.925c0 10.45 7.906 18.922 17.656 18.922s17.653-8.472 17.653-18.922zm0 0"/></g><path d="M216.813 170.559a8.833 8.833 0 0 0-11.391 5.113 8.827 8.827 0 0 0 5.113 11.39 8.833 8.833 0 0 0 11.39-5.113 8.833 8.833 0 0 0-5.113-11.39zm0 0" fill="#fff"/><path d="M279.121 159.68a87.942 87.942 0 0 1 26.129-5.293 62.774 62.774 0 0 1 34.605 7.379c-1.207-15.45-37.023-18.504-54.53-14.532a8.357 8.357 0 0 0-6.442 4.559 8.35 8.35 0 0 0 .238 7.887zm0 0M317.793 186.98c0-10.453-7.902-18.925-17.656-18.925-9.75 0-17.653 8.472-17.653 18.925 0 10.45 7.903 18.922 17.653 18.922 9.754 0 17.656-8.472 17.656-18.922zm0 0" fill="#2c2f38"/><path d="M306.578 175.672a8.827 8.827 0 0 0-11.39-5.113 8.833 8.833 0 0 0-5.114 11.39 8.833 8.833 0 0 0 11.39 5.113c4.56-1.734 6.849-6.835 5.114-11.39zm0 0" fill="#fff"/></svg>