<svg height="512pt" viewBox="0 0 512 512" width="512pt" xmlns="http://www.w3.org/2000/svg"><path d="M185.379 291.309H326.62v79.449H185.38zm0 0" fill="#802f34"/><path d="M512 504.145V512H0v-7.855a138.922 138.922 0 0 1 4.063-33.547l8.207-33.278c9.523-34.715 41.43-58.511 77.418-57.734h332.625c35.988-.777 67.894 23.02 77.417 57.734l8.207 33.278A138.922 138.922 0 0 1 512 504.145zm0 0" fill="#c03a2b"/><path d="M441.379 512H70.62l27.367-132.414 2.559-12.36a20.785 20.785 0 0 1 21.539-14.12h267.828a20.899 20.899 0 0 1 21.629 14.12l2.559 12.36zm0 0" fill="#e64c3c"/><path d="M238.344 0h35.312c78.004 0 141.242 63.234 141.242 141.242v79.45a88.274 88.274 0 0 1-88.277 88.273H185.38c-48.754 0-88.274-39.524-88.274-88.274v-79.449C97.105 63.234 160.34 0 238.344 0zm0 0" fill="#f5efca"/><path d="M159.453 79.45a8.835 8.835 0 0 1-8.058-5.231 8.834 8.834 0 0 1 1.488-9.492 114.939 114.939 0 0 1 85.46-38.243h35.313c4.875 0 8.828 3.95 8.828 8.825a8.826 8.826 0 0 1-8.828 8.828h-35.312a97.284 97.284 0 0 0-72.313 32.375 8.812 8.812 0 0 1-6.578 2.937zm0 0" fill="#fff"/><path d="M185.379 105.93H326.62c24.375 0 44.137 19.761 44.137 44.14v35.309c0 43.879-35.57 79.45-79.45 79.45h-70.617c-43.879 0-79.449-35.571-79.449-79.45V150.07c0-24.379 19.762-44.14 44.137-44.14zm0 0" fill="#e4c05c"/><path d="M176.55 167.723a8.82 8.82 0 0 1-8.152-5.45 8.817 8.817 0 0 1 1.915-9.617L187.964 135a8.828 8.828 0 0 1 12.375.11c3.406 3.402 3.453 8.91.11 12.374l-17.657 17.653a8.783 8.783 0 0 1-6.242 2.586zm0 0M185.379 203.035a8.829 8.829 0 0 1-6.242-15.07L232.105 135c3.461-3.344 8.97-3.297 12.375.11 3.403 3.402 3.45 8.91.106 12.374L191.62 200.45a8.799 8.799 0 0 1-6.242 2.586zm0 0" fill="#f9eab0"/><path d="M264.828 397.242V512h-17.656V397.242a8.829 8.829 0 0 1 17.656 0zm0 0" fill="#802f34"/><path d="M185.379 353.105H326.62c0 24.375-19.762 44.137-44.137 44.137h-52.968c-24.375 0-44.137-19.762-44.137-44.137zm0 0" fill="#c03a2b"/><path d="M203.035 459.035h-61.793a8.829 8.829 0 0 1 0-17.656h61.793a8.829 8.829 0 0 1 0 17.656zm0 0" fill="#71c285"/><path d="M370.758 450.207c0 9.75-7.903 17.656-17.653 17.656-9.753 0-17.656-7.906-17.656-17.656s7.903-17.656 17.656-17.656c9.75 0 17.653 7.906 17.653 17.656zm0 0" fill="#f0c419"/></svg>