<svg height="512pt" viewBox="0 0 512 512" width="512pt" xmlns="http://www.w3.org/2000/svg"><path d="M97.105 132.414h317.793v291.309H97.105zm0 0" fill="#464f5d"/><path d="M441.379 167.723v229.52l-51.465-28.692a218.768 218.768 0 0 0-2.824-108.93c-3.883-12.45-9.27-7.676-16.332-14.738-25.688-25.688-18.184-72.828-26.922-105.047-10.418-38.668-47.672-35.223-79.008-27.367-27.101 6.797-52.965-17.657-79.45 0-26.48 17.656 0 61.793-52.964 132.414-3.441 4.59-6.355-5.656-8.828-.184-21.89 48.2-8.828 123.852-8.828 123.852L70.62 397.242v-229.52C70.641 75.103 145.723.024 238.344 0h35.312C366.277.023 441.36 75.102 441.38 167.723zm0 0" fill="#7d6599"/><path d="M185.379 291.309H326.62v79.449H185.38zm0 0" fill="#f29c1f"/><path d="M387.09 259.621c-5.828 28.75-31.133 49.399-60.469 49.344H185.38a61.747 61.747 0 0 1-61.793-61.793v-2.473a80.507 80.507 0 0 1 8.828-15.183c52.965-70.618 26.484-114.758 52.965-132.41 26.484-17.657 52.348 6.796 79.45 0 31.335-7.86 68.589-11.301 79.007 27.363 8.738 32.222 1.234 79.36 26.922 105.047a73.575 73.575 0 0 1 16.332 30.105zm0 0" fill="#f0c419"/><path d="M512 504.145V512H0v-7.855a138.922 138.922 0 0 1 4.063-33.547l8.207-33.278c9.523-34.715 41.43-58.511 77.418-57.734h332.625c35.988-.777 67.894 23.02 77.417 57.734l8.207 33.278A138.922 138.922 0 0 1 512 504.145zm0 0" fill="#894b9d"/><path d="M370.758 353.105l-18.778 46.493c-20.449 13.297-51.015 24.125-95.98 24.125s-75.531-10.828-95.98-24.125h-.106l-18.672-46.493zm0 0" fill="#f0c419"/><path d="M185.379 512v-50.316c.02-4.016-.453-8.02-1.41-11.918a44.317 44.317 0 0 0-3.356-9.977l-5.828-51.816A160.517 160.517 0 0 0 256 406.07a160.517 160.517 0 0 0 81.215-18.097l-5.828 51.816a44.113 44.113 0 0 0-3.352 9.977 48.808 48.808 0 0 0-1.414 11.918V512zm0 0" fill="#84b5cb"/><path d="M203.035 461.684V512H70.621l26.484-128.09.883-4.324 2.559-12.36a15.314 15.314 0 0 1 2.473-5.648l2.91.352 11.035 17.656 12.89 20.656a106.391 106.391 0 0 0 19.95 23.48c.617.532 1.148.973 1.675 1.415a100.853 100.853 0 0 0 6.887 5.297v.09a78.565 78.565 0 0 0 8.121 5.117 103.974 103.974 0 0 0 19.688 8.918l15.445 5.207a48.808 48.808 0 0 1 1.414 11.918zm0 0M441.379 512H308.965v-50.316c-.02-4.016.457-8.02 1.414-11.918l15.45-5.207a104.05 104.05 0 0 0 19.683-8.918 78.15 78.15 0 0 0 8.12-5.118v-.09a96.525 96.525 0 0 0 6.973-5.386l1.59-1.324a106.391 106.391 0 0 0 19.95-23.48l12.89-20.657 11.035-17.656 2.47-.97a14.236 14.236 0 0 1 3.003 6.267l2.559 12.359.796 3.883zm0 0" fill="#955ba5"/><path d="M201.621 449.766l-15.445-5.207a107.035 107.035 0 0 1-27.809-14.036v-.09a104.635 104.635 0 0 1-28.512-30.19L105.93 361.93l-2.91-.352a23.79 23.79 0 0 1 19.066-8.473h36.812l15.801 34.868h.086l23.485 51.816a44.307 44.307 0 0 1 3.351 9.977zm0 0M408.54 360.96l-2.47.97-23.925 38.312a104.635 104.635 0 0 1-28.512 30.192v.09a107.072 107.072 0 0 1-27.805 14.035l-15.45 5.207a44.123 44.123 0 0 1 3.356-9.977l23.48-51.816 15.891-34.868h36.81a25.22 25.22 0 0 1 16.948 6.09 15.236 15.236 0 0 1 1.676 1.766zm0 0" fill="#cc66a1"/><path d="M308.965 512h-105.93c0-29.25 23.715-52.965 52.965-52.965 29.254 0 52.965 23.715 52.965 52.965zm0 0" fill="#f3d55b"/><path d="M167.195 430.434c.016.441-.015.886-.09 1.324-.175 1.234-.351 2.558-.617 3.883a72.317 72.317 0 0 1-18.98 38.488c-13.504 13.418-6.797 34.871-6.707 35.133.281.886.43 1.808.441 2.738h-18.008a53.36 53.36 0 0 1 11.739-50.406 57.217 57.217 0 0 0 14.656-32.133 7.939 7.939 0 0 1 1.851-4.324 5.022 5.022 0 0 1 1.325-1.414 8.767 8.767 0 0 1 5.562-2.028 8.995 8.995 0 0 1 5.649 2.028 8.602 8.602 0 0 1 3.18 6.71zm0 0M388.766 512h-18.008c.02-.93.168-1.852.441-2.738.176-.528 6.711-21.801-6.707-35.133a72.345 72.345 0 0 1-18.98-38.488c-.266-1.325-.442-2.649-.617-3.883a5.953 5.953 0 0 1-.09-1.235 8.588 8.588 0 0 1 3.265-6.8 8.306 8.306 0 0 1 5.563-2.028 8.534 8.534 0 0 1 5.648 2.028c.508.375.953.82 1.324 1.324a8.785 8.785 0 0 1 1.856 4.68 56.708 56.708 0 0 0 14.566 31.867A53.36 53.36 0 0 1 388.766 512zm0 0" fill="#fff"/><g fill="#2c2f38"><path d="M297.734 256c-7.132 13.957-29.398 15.934-41.558 15.934-12.188 0-34.422-1.977-41.555-15.934a179.535 179.535 0 0 0 41.555 5.207A179.357 179.357 0 0 0 297.734 256zm0 0M232.879 159.68a87.917 87.917 0 0 0-26.129-5.293 62.774 62.774 0 0 0-34.605 7.379c1.207-15.45 37.023-18.504 54.53-14.532a8.351 8.351 0 0 1 6.442 4.559 8.35 8.35 0 0 1-.238 7.887zm0 0M279.121 159.68a87.942 87.942 0 0 1 26.129-5.293 62.774 62.774 0 0 1 34.605 7.379c-1.207-15.45-37.023-18.504-54.53-14.532a8.357 8.357 0 0 0-6.442 4.559 8.35 8.35 0 0 0 .238 7.887zm0 0M184.137 174.242s2.515 11.278 12.238 9.078c9.727-2.199 11.582 2.024 19.96 1.348a33.339 33.339 0 0 1 8.567.523c2.004.47 4.082.5 6.102.102 2.789-.746 2.55-3.988 1.57-6.098-3.875-8.36-14.785-8.972-22.77-8.043a78.971 78.971 0 0 1-10.3 2.075 27.656 27.656 0 0 1-9.977-5.125c.637 2.265.793 4.64.45 6.972-1.008 1.918-5.84-.832-5.84-.832zm0 0"/><path d="M229.516 191.395c0-10.454-7.903-18.926-17.653-18.926s-17.656 8.472-17.656 18.926c0 10.449 7.906 18.921 17.656 18.921s17.653-8.472 17.653-18.921zm0 0"/></g><path d="M216.813 174.973a8.827 8.827 0 1 0-6.278 16.5 8.828 8.828 0 0 0 11.39-5.11 8.833 8.833 0 0 0-5.113-11.39zm0 0" fill="#fff"/><path d="M327.855 174.242s-2.511 11.278-12.238 9.078c-9.722-2.199-11.578 2.024-19.957 1.348a33.328 33.328 0 0 0-8.566.523c-2.004.47-4.082.5-6.102.102-2.793-.746-2.55-3.988-1.574-6.098 3.879-8.36 14.789-8.972 22.77-8.043a79.16 79.16 0 0 0 10.304 2.075 27.607 27.607 0 0 0 9.973-5.125 16.743 16.743 0 0 0-.445 6.972c1.011 1.918 5.835-.832 5.835-.832zm0 0" fill="#2c2f38"/><path d="M317.79 191.395c0-10.454-7.903-18.926-17.653-18.926-9.754 0-17.657 8.472-17.657 18.926 0 10.449 7.903 18.921 17.657 18.921 9.75 0 17.652-8.472 17.652-18.921zm0 0" fill="#2c2f38"/><path d="M306.574 180.086a8.827 8.827 0 1 0-16.5 6.277 8.827 8.827 0 0 0 16.5-6.277zm0 0" fill="#fff"/></svg>