<svg height="512pt" viewBox="0 0 512 512" width="512pt" xmlns="http://www.w3.org/2000/svg"><path d="M388.414 211.863s11.45-7.867 26.484-52.965c8.825-26.484 8.825-52.968 0-70.62-12.484-24.97-35.312-35.313-44.14-61.794a31.352 31.352 0 0 0-26.48 17.653s0-26.48-35.313-26.48A77.327 77.327 0 0 1 256 0a215.547 215.547 0 0 1-61.793 8.828c-35.309 0-44.137 26.48-44.137 26.48a27.358 27.358 0 0 0-17.656-8.824c0 26.48-22.828 27.996-35.309 52.965-8.828 17.656-17.656 35.309 0 79.45 17.653 44.136 26.48 52.964 26.48 52.964zm0 0" fill="#805333"/><path d="M414.898 512H512v-7.855a138.922 138.922 0 0 0-4.063-33.547l-8.207-33.278c-9.523-34.715-41.43-58.511-77.418-57.734H89.688c-35.988-.777-67.894 23.02-77.417 57.734l-8.207 33.278A138.922 138.922 0 0 0 0 504.145V512zm0 0" fill="#f0c419"/><path d="M185.379 300.137H326.62v61.793H185.38zm0 0" fill="#f29c1f"/><path d="M388.414 186.816v60.356c0 34.129-27.664 61.793-61.793 61.793H185.38c-34.125 0-61.793-27.664-61.793-61.793v-60.356a102.459 102.459 0 0 1 9.996-44.918c8.395-17.234 22.363-37.941 42.969-44.793 26.484-8.828 44.14 8.825 79.449 8.825s52.965-17.653 79.45-8.825c20.605 6.852 34.573 27.56 42.968 44.793a102.459 102.459 0 0 1 9.996 44.918zm0 0" fill="#f0c419"/><path d="M335.45 353.105s0 70.618-79.45 70.618-79.45-70.618-79.45-70.618zm0 0" fill="#f3d55b"/><path d="M441.379 512H70.62l8.031-38.754c62.59-30.543 62.59-120.14 62.59-120.14h35.309s0 70.617 79.449 70.617 79.45-70.618 79.45-70.618h35.308s0 89.598 62.59 120.055c0 .047.039.086.086.086zm0 0" fill="#e64c3c"/><path d="M141.242 353.105s0 89.598-62.59 120.141l21.895-106.02a20.785 20.785 0 0 1 21.539-14.12zm0 0M433.348 473.16c-62.59-30.457-62.59-120.055-62.59-120.055h19.156a20.899 20.899 0 0 1 21.629 14.122zm0 0" fill="#f3d55b"/><path d="M358.754 512a35.307 35.307 0 0 0 9.734-38.98c-5.18-13.754-18.343-22.856-33.039-22.856A35.308 35.308 0 0 0 312.145 512zm0 0" fill="#ecf0f1"/><g fill="#2c2f38"><path d="M297.734 247.172c-7.132 13.957-29.398 15.933-41.558 15.933-12.188 0-34.422-1.976-41.555-15.933a179.535 179.535 0 0 0 41.555 5.207 179.356 179.356 0 0 0 41.558-5.207zm0 0M232.879 155.27a87.8 87.8 0 0 0-26.129-5.297 62.774 62.774 0 0 0-34.605 7.379c1.207-15.45 37.023-18.504 54.53-14.532a8.36 8.36 0 0 1 6.442 4.559 8.359 8.359 0 0 1-.238 7.89zm0 0M229.516 182.566c0-10.453-7.903-18.925-17.653-18.925s-17.656 8.472-17.656 18.925c0 10.45 7.906 18.922 17.656 18.922s17.653-8.472 17.653-18.922zm0 0"/></g><path d="M216.813 166.145a8.827 8.827 0 0 0-11.391 5.113 8.827 8.827 0 0 0 5.113 11.39 8.833 8.833 0 0 0 11.39-5.113 8.833 8.833 0 0 0-5.113-11.39zm0 0" fill="#fff"/><path d="M279.121 155.27a87.824 87.824 0 0 1 26.129-5.297 62.774 62.774 0 0 1 34.605 7.379c-1.207-15.45-37.023-18.504-54.53-14.532a8.366 8.366 0 0 0-6.442 4.559 8.359 8.359 0 0 0 .238 7.89zm0 0M317.793 182.566c0-10.453-7.902-18.925-17.656-18.925-9.75 0-17.653 8.472-17.653 18.925 0 10.45 7.903 18.922 17.653 18.922 9.754 0 17.656-8.472 17.656-18.922zm0 0" fill="#2c2f38"/><path d="M306.578 171.258a8.833 8.833 0 0 0-11.39-5.113 8.833 8.833 0 0 0-5.114 11.39c1.735 4.555 6.836 6.844 11.39 5.113a8.827 8.827 0 0 0 5.114-11.39zm0 0" fill="#fff"/></svg>