<svg height="512pt" viewBox="0 0 512 512" width="512pt" xmlns="http://www.w3.org/2000/svg"><path d="M185.379 291.309H326.62v79.449H185.38zm0 0" fill="#f29c1f"/><path d="M389.453 220.691c14.211 0 25.89-11.222 26.461-25.425l1.934-48.375A141.244 141.244 0 0 0 276.719 0H235.28A141.244 141.244 0 0 0 94.152 146.89l1.934 48.375c.57 14.203 12.25 25.425 26.46 25.425zm0 0" fill="#e64c3c"/><path d="M388.414 194.207v52.965a61.747 61.747 0 0 1-61.793 61.793H185.38a61.747 61.747 0 0 1-61.793-61.793v-52.965a98.526 98.526 0 0 1 7.594-26.926c2.422-5.601 5.285-11 8.562-16.152C156.25 125.176 189.527 97.105 256 97.105s99.75 28.07 116.258 54.024a115.479 115.479 0 0 1 8.562 16.152 98.526 98.526 0 0 1 7.594 26.926zm0 0M414.898 512H512v-7.855a138.922 138.922 0 0 0-4.063-33.547l-8.207-33.278c-9.523-34.715-41.43-58.511-77.418-57.734H89.688c-35.988-.777-67.894 23.02-77.417 57.734l-8.207 33.278A138.922 138.922 0 0 0 0 504.145V512zm0 0" fill="#f0c419"/><path d="M441.379 512H70.62l29.906-144.746c3.063-9.14 11.989-14.992 21.59-14.149h267.82a20.844 20.844 0 0 1 21.59 14.149zm0 0" fill="#f3d55b"/><path d="M273.656 185.379a8.783 8.783 0 0 1-6.242-2.586A21.937 21.937 0 0 0 256 176.551a21.948 21.948 0 0 0-11.441 6.27c-3.47 3.35-8.985 3.296-12.387-.122s-3.434-8.933-.067-12.387A38.786 38.786 0 0 1 256 158.899a38.786 38.786 0 0 1 23.895 11.415 8.827 8.827 0 0 1-6.238 15.066zm0 0M186.352 167.813a8.89 8.89 0 0 1-8.743 7.414 7.73 7.73 0 0 1-1.41-.086l-42.637-7.063a6.872 6.872 0 0 1-2.382-.797c2.422-5.601 5.285-11 8.562-16.152l39.281 6.531a8.865 8.865 0 0 1 7.329 10.153zm0 0M380.82 167.281c-.738.41-1.547.68-2.382.797l-42.637 7.063a7.73 7.73 0 0 1-1.41.086 8.84 8.84 0 0 1-8.828-8.13 8.844 8.844 0 0 1 7.414-9.437l39.28-6.531a115.479 115.479 0 0 1 8.563 16.152zm0 0" fill="#7f8c8d"/><g fill="#f29c1f"><path d="M220.691 485.516h-79.449c-14.62-.016-26.469-11.864-26.484-26.48a8.829 8.829 0 0 1 17.656 0 8.841 8.841 0 0 0 8.828 8.827h79.45c4.87-.008 8.82-3.957 8.824-8.828a8.829 8.829 0 0 1 17.656 0c-.016 14.617-11.863 26.465-26.48 26.48zm0 0M370.758 485.516h-79.45c-14.617-.016-26.464-11.864-26.48-26.48a8.829 8.829 0 0 1 17.656 0c.004 4.87 3.954 8.82 8.825 8.827h79.449a8.841 8.841 0 0 0 8.828-8.828 8.829 8.829 0 0 1 17.656 0c-.015 14.617-11.863 26.465-26.484 26.48zm0 0"/><path d="M185.379 485.516c-4.875 0-8.828-3.95-8.828-8.825v-8.828a8.829 8.829 0 0 1 17.656 0v8.828c0 4.875-3.953 8.825-8.828 8.825zm0 0M326.621 485.516c-4.875 0-8.828-3.95-8.828-8.825v-8.828a8.829 8.829 0 0 1 17.656 0v8.828c0 4.875-3.953 8.825-8.828 8.825zm0 0"/></g><path d="M238.344 172.137c0-12.188-13.832-22.067-30.895-22.067-17.066 0-30.898 9.88-30.898 22.067 0 12.191 13.832 22.07 30.898 22.07 17.063 0 30.895-9.879 30.895-22.07zm0 0M335.45 172.137c0-12.188-13.833-22.067-30.9-22.067-17.062 0-30.894 9.88-30.894 22.067 0 12.191 13.832 22.07 30.895 22.07 17.066 0 30.898-9.879 30.898-22.07zm0 0" fill="#9fc9d3"/><path d="M207.45 203.035c-22.278 0-39.727-13.574-39.727-30.898 0-17.32 17.449-30.895 39.726-30.895 22.274 0 39.723 13.574 39.723 30.895 0 17.324-17.45 30.898-39.723 30.898zm0-44.137c-13.005 0-22.071 6.977-22.071 13.239 0 6.265 9.066 13.242 22.07 13.242s22.067-6.973 22.067-13.242c0-6.266-9.063-13.239-22.067-13.239zm0 0M304.55 203.035c-22.273 0-39.722-13.574-39.722-30.898 0-17.32 17.45-30.895 39.723-30.895 22.277 0 39.726 13.574 39.726 30.895 0 17.324-17.449 30.898-39.726 30.898zm0-44.137c-13.003 0-22.066 6.977-22.066 13.239 0 6.265 9.063 13.242 22.067 13.242s22.07-6.973 22.07-13.242c0-6.266-9.066-13.239-22.07-13.239zm0 0M297.734 247.172c-7.132 13.957-29.398 15.933-41.558 15.933-12.188 0-34.422-1.976-41.555-15.933a179.535 179.535 0 0 0 41.555 5.207 179.356 179.356 0 0 0 41.558-5.207zm0 0" fill="#2c2f38"/></svg>