<svg height="512pt" viewBox="0 0 512 512" width="512pt" xmlns="http://www.w3.org/2000/svg"><path d="M185.379 264.828H326.62v79.45H185.38zm0 0" fill="#95a5a5"/><path d="M220.691 0h70.618a8.826 8.826 0 0 1 8.828 8.828v44.137h-88.274V8.828A8.826 8.826 0 0 1 220.691 0zm0 0M512 504.145V512H0v-7.855a138.922 138.922 0 0 1 4.063-33.547l.527-3.618c27.453-4.945 48.375-32.308 48.375-65.324a71.902 71.902 0 0 0-8.828-35.047 82.496 82.496 0 0 1 45.55-13.504h332.625a82.496 82.496 0 0 1 45.551 13.504 71.902 71.902 0 0 0-8.828 35.047c0 33.016 20.922 60.38 48.375 65.324l.528 3.618A138.922 138.922 0 0 1 512 504.145zm0 0" fill="#e6e7e8"/><path d="M441.379 512H70.62l29.906-171.23a20.851 20.851 0 0 1 21.59-14.149h267.82c9.602-.84 18.532 5.008 21.59 14.149zm0 0" fill="#bdc3c7"/><path d="M406.07 512L381.97 376.496a17.705 17.705 0 0 0-17.39-14.566H147.421a17.6 17.6 0 0 0-17.305 14.566L105.93 512h52.968c-17.656-17.656-8.828-61.793-8.828-61.793s26.48 17.656 105.93 17.656 105.93-17.656 105.93-17.656 8.828 35.309 0 61.793zM256 432.55c-97.102 0-97.102-35.308-97.102-35.308h194.207s0 35.309-97.105 35.309zm0 0" fill="#e6e7e8"/><path d="M185.379 35.309H326.62c34.129 0 61.793 27.668 61.793 61.796v123.586c0 34.125-27.664 61.793-61.793 61.793H185.38c-34.125 0-61.793-27.668-61.793-61.793V97.105c0-34.128 27.668-61.796 61.793-61.796zm0 0" fill="#bdc3c7"/><path d="M185.379 70.621H326.62c14.625 0 26.484 11.856 26.484 26.484v123.586c0 14.625-11.859 26.48-26.484 26.48H185.38c-14.625 0-26.48-11.855-26.48-26.48V97.105c0-14.628 11.855-26.484 26.48-26.484zm0 0" fill="#e6e7e8"/><g fill="#2c2f38"><path d="M238.344 123.586c0 9.75-7.903 17.656-17.653 17.656-9.754 0-17.656-7.906-17.656-17.656s7.903-17.656 17.656-17.656c9.75 0 17.653 7.906 17.653 17.656zm0 0M308.965 123.586c0 9.75-7.902 17.656-17.656 17.656-9.75 0-17.653-7.906-17.653-17.656s7.903-17.656 17.653-17.656c9.753 0 17.656 7.906 17.656 17.656zm0 0M256 167.723c-4.875 0-8.828-3.95-8.828-8.825v-8.828a8.829 8.829 0 0 1 17.656 0v8.828c0 4.875-3.953 8.825-8.828 8.825zm0 0"/><path d="M287.414 211.863h-62.828a26.452 26.452 0 0 1-25.121-18.11l-2.793-8.374h-2.465a8.829 8.829 0 0 1 0-17.656h2.465a17.636 17.636 0 0 1 16.75 12.078l2.785 8.367a8.83 8.83 0 0 0 8.379 6.039h62.828c3.8 0 7.18-2.43 8.379-6.039l2.793-8.375a17.622 17.622 0 0 1 16.742-12.07h2.465a8.829 8.829 0 0 1 0 17.656h-2.465l-2.793 8.375a26.449 26.449 0 0 1-25.12 18.11zm0 0"/><path d="M238.344 220.691a8.829 8.829 0 0 1-8.828-8.828V185.38a8.829 8.829 0 0 1 17.656 0v26.484a8.829 8.829 0 0 1-8.828 8.828zm0 0M273.656 220.691a8.829 8.829 0 0 1-8.828-8.828V185.38a8.829 8.829 0 0 1 17.656 0v26.484a8.829 8.829 0 0 1-8.828 8.828zm0 0"/></g><path d="M52.965 401.656c0 33.016-20.922 60.38-48.375 65.324l7.68-56.144a73.884 73.884 0 0 1 31.867-44.227 71.902 71.902 0 0 1 8.828 35.047zm0 0M507.41 466.98c-27.453-4.945-48.375-32.308-48.375-65.324a71.902 71.902 0 0 1 8.828-35.047 73.884 73.884 0 0 1 31.867 44.227zm0 0" fill="#bdc3c7"/></svg>