<svg height="512pt" viewBox="0 0 512 512" width="512pt" xmlns="http://www.w3.org/2000/svg"><path d="M185.379 291.309H326.62v105.933H185.38zm0 0" fill="#f29c1f"/><path d="M512 504.145V512H0v-7.855a138.922 138.922 0 0 1 4.063-33.547l8.207-33.278c9.523-34.715 41.43-58.511 77.418-57.734h332.625c35.988-.777 67.894 23.02 77.417 57.734l8.207 33.278A138.922 138.922 0 0 1 512 504.145zm0 0" fill="#46b29d"/><path d="M441.379 512H70.62l26.746-132.414.621-3.266 2.559-12.625a16.313 16.313 0 0 1 7.77-10.59h295.37a16.742 16.742 0 0 1 7.856 10.59l2.559 12.625.617 3.266zm0 0" fill="#9bc8c2"/><path d="M388.414 61.793v185.379a51.56 51.56 0 0 1-.351 6.355v.266c-3.364 31.394-29.868 55.195-61.442 55.172H185.38c-31.574.023-58.078-23.778-61.442-55.172v-.266a51.56 51.56 0 0 1-.351-6.355V61.793zm0 0M203.035 353.105L256 432.551l52.965-79.446" fill="#f0c419"/><path d="M167.723 353.105v61.793a8.822 8.822 0 0 1-8.825 8.825 8.823 8.823 0 0 1-8.828-8.825v-61.793zm0 0" fill="#67b9cc"/><path d="M176.55 485.516c-4.874 0-8.827-3.95-8.827-8.825a8.826 8.826 0 0 1 8.828-8.828 8.836 8.836 0 0 0 8.828-8.828V441.38c-.012-9.746-7.91-17.645-17.656-17.656H150.07c-9.746.011-17.644 7.91-17.656 17.656v17.656a8.836 8.836 0 0 0 8.828 8.828 8.826 8.826 0 0 1 8.828 8.828c0 4.875-3.953 8.825-8.828 8.825-14.62-.016-26.469-11.864-26.484-26.48v-17.657c.02-19.492 15.82-35.29 35.312-35.309h17.653c19.496.02 35.293 15.817 35.312 35.309v17.656c-.015 14.617-11.863 26.465-26.484 26.48zm0 0" fill="#e6e7e8"/><path d="M361.93 353.105v70.618a8.823 8.823 0 0 1-8.825 8.828 8.824 8.824 0 0 1-8.828-8.828v-70.618zm0 0" fill="#67b9cc"/><path d="M379.586 450.207c0 14.625-11.856 26.484-26.48 26.484-14.63 0-26.485-11.859-26.485-26.484s11.856-26.484 26.484-26.484c14.625 0 26.48 11.859 26.48 26.484zm0 0" fill="#bdc3c7"/><path d="M353.105 485.516c-19.503 0-35.312-15.809-35.312-35.309s15.809-35.309 35.312-35.309c19.5 0 35.31 15.809 35.31 35.309-.02 19.492-15.817 35.29-35.31 35.309zm0-52.965c-9.753 0-17.656 7.906-17.656 17.656s7.903 17.656 17.656 17.656c9.75 0 17.653-7.906 17.653-17.656-.012-9.746-7.906-17.644-17.653-17.656zm0 0M313.734 353.105l-50.406 75.563a8.856 8.856 0 0 1-14.656 0l-50.402-75.563h21.183L256 407.835l36.547-54.73zm0 0" fill="#e6e7e8"/><path d="M264.828 423.723V512h-17.656v-88.277c0-4.875 3.953-8.825 8.828-8.825s8.828 3.95 8.828 8.825zm0 0" fill="#e6e7e8"/><path d="M273.656 476.691H256a8.829 8.829 0 0 1 0-17.656h17.656a8.829 8.829 0 0 1 0 17.656zm0 0" fill="#e6e7e8"/><path d="M256 0c123.586 0 202.672 68.652 194.207 229.516-5.973 113.476-56.39 142.097-88.383 148.742a8.806 8.806 0 0 1-9.398-4.028 8.814 8.814 0 0 1 .742-10.199c15.398-18.265 35.246-55.433 35.246-125.687 0-52.965-35.309-150.067-132.414-150.067-97.102 0-132.414 97.102-132.414 150.067 0 70.254 19.848 107.422 35.246 125.687a8.814 8.814 0 0 1 .742 10.2 8.806 8.806 0 0 1-9.398 4.027c-31.992-6.645-82.41-35.266-88.383-148.742C53.328 68.652 132.414 0 256 0zm0 0" fill="#cc6f56"/><g fill="#2c2f38"><path d="M297.734 251.586c-7.132 13.957-29.398 15.934-41.558 15.934-12.188 0-34.422-1.977-41.555-15.934a179.535 179.535 0 0 0 41.555 5.207 179.357 179.357 0 0 0 41.558-5.207zm0 0M232.879 155.27a87.8 87.8 0 0 0-26.129-5.297 62.774 62.774 0 0 0-34.605 7.379c1.207-15.45 37.023-18.504 54.53-14.532a8.36 8.36 0 0 1 6.442 4.559 8.359 8.359 0 0 1-.238 7.89zm0 0M279.121 155.27a87.824 87.824 0 0 1 26.129-5.297 62.774 62.774 0 0 1 34.605 7.379c-1.207-15.45-37.023-18.504-54.53-14.532a8.366 8.366 0 0 0-6.442 4.559 8.359 8.359 0 0 0 .238 7.89zm0 0M184.137 169.828s2.515 11.277 12.238 9.078c9.727-2.199 11.582 2.024 19.96 1.348a33.167 33.167 0 0 1 8.567.527c2.004.465 4.082.496 6.102.098 2.789-.746 2.55-3.988 1.57-6.098-3.875-8.36-14.785-8.972-22.77-8.043a79.635 79.635 0 0 1-10.3 2.078 27.726 27.726 0 0 1-9.977-5.129c.637 2.266.793 4.641.45 6.973-1.008 1.918-5.84-.832-5.84-.832zm0 0"/><path d="M229.516 186.98c0-10.453-7.903-18.925-17.653-18.925s-17.656 8.472-17.656 18.925c0 10.45 7.906 18.922 17.656 18.922s17.653-8.472 17.653-18.922zm0 0"/></g><path d="M216.813 170.559a8.833 8.833 0 0 0-11.391 5.113 8.827 8.827 0 0 0 5.113 11.39 8.833 8.833 0 0 0 11.39-5.113 8.833 8.833 0 0 0-5.113-11.39zm0 0" fill="#fff"/><path d="M327.855 169.828s-2.511 11.277-12.238 9.078c-9.722-2.199-11.578 2.024-19.957 1.348a33.157 33.157 0 0 0-8.566.527 14.538 14.538 0 0 1-6.102.098c-2.793-.746-2.55-3.988-1.574-6.098 3.879-8.36 14.789-8.972 22.77-8.043a79.826 79.826 0 0 0 10.304 2.078 27.616 27.616 0 0 0 9.973-5.129 16.743 16.743 0 0 0-.445 6.973c1.011 1.918 5.835-.832 5.835-.832zm0 0" fill="#2c2f38"/><path d="M317.79 186.98c0-10.453-7.903-18.925-17.653-18.925-9.754 0-17.657 8.472-17.657 18.925 0 10.45 7.903 18.922 17.657 18.922 9.75 0 17.652-8.472 17.652-18.922zm0 0" fill="#2c2f38"/><path d="M306.574 175.672a8.823 8.823 0 0 0-11.386-5.113 8.827 8.827 0 0 0-5.114 11.39c1.73 4.555 6.832 6.844 11.387 5.113 4.559-1.734 6.848-6.835 5.113-11.39zm0 0" fill="#fff"/></svg>