<svg height="512pt" viewBox="0 0 512 512.002" width="512pt" xmlns="http://www.w3.org/2000/svg"><path d="M185.379 291.309H326.62v79.449H185.38zm0 0" fill="#f29c1f"/><path d="M414.898 512H512v-7.855a139.113 139.113 0 0 0-4.059-33.547l-8.21-33.278c-9.524-34.715-41.43-58.511-77.419-57.734H89.688c-35.988-.777-67.894 23.02-77.417 57.734l-8.207 33.278A138.922 138.922 0 0 0 0 504.145V512zm0 0" fill="#35495e"/><path d="M388.414 211.863s11.45-7.867 26.484-52.965c8.829-26.484 8.829-52.968 0-70.62-12.484-24.97-35.312-35.313-44.14-61.794a31.352 31.352 0 0 0-26.48 17.653s0-26.48-35.313-26.48A77.333 77.333 0 0 1 256 0a215.547 215.547 0 0 1-61.793 8.828c-35.309 0-44.137 26.48-44.137 26.48a27.35 27.35 0 0 0-17.656-8.824c0 26.48-22.824 27.996-35.309 52.965-8.828 17.653-17.656 35.309 0 79.45 17.653 44.136 26.48 52.964 26.48 52.964zm0 0" fill="#2c2f38"/><path d="M194.207 512H70.621l29.926-144.773a20.792 20.792 0 0 1 21.539-14.125h36.812s.97 2.828 2.649 7.77c.266.706.527 1.5.793 2.296 1.148 3.266 2.472 7.238 3.972 11.828.196.871.461 1.73.793 2.559.708 2.383 1.59 5.03 2.387 7.77.442 1.323.793 2.648 1.235 3.972 1.855 6.18 3.882 12.976 5.828 20.125.703 2.648 1.41 5.297 2.117 8.035 1.59 5.914 3.176 12.004 4.59 18.184A590.729 590.729 0 0 1 186 447.734c.086.442.176.973.262 1.414.531 2.735 1.148 5.473 1.68 8.122.527 2.734 1.058 5.472 1.5 8.21.44 2.735.968 5.383 1.324 8.122.882 5.382 1.59 10.68 2.117 15.976.265 2.559.531 5.121.707 7.68.176 2.558.351 5.031.441 7.504.09 1.41.09 2.824.09 4.148.086 1.059.086 2.117.086 3.09zm0 0M441.379 512H317.793c0-1.676 0-3.441.09-5.207-.012-.68.015-1.355.086-2.031.09-2.473.265-4.946.441-7.504.09-1.324.18-2.649.356-3.973.086-1.234.265-2.472.351-3.707.09-1.058.176-2.117.356-3.18.441-4.234 1.058-8.472 1.765-12.796.352-2.739.883-5.387 1.324-8.122.442-2.738.97-5.476 1.5-8.21.528-2.649 1.149-5.387 1.676-8.122.09-.441.176-.882.266-1.414.883-3.882 1.766-7.855 2.648-11.652 0-.176.09-.266.09-.441 1.41-6.266 3-12.36 4.59-18.184.703-2.738 1.41-5.387 2.117-8.035 1.942-7.238 3.973-13.945 5.828-20.125.442-1.324.793-2.649 1.235-3.973 1.851-6.09 3.531-11.476 5.12-16.066.352-1.235.794-2.473 1.145-3.621.356-.88.621-1.676.883-2.469.266-.797.531-1.59.797-2.297.176-.617.352-1.234.527-1.766.18-.527.356-1.058.532-1.5.351-.972.617-1.855.882-2.472a9.381 9.381 0 0 1 .532-1.5c0-.09.086-.176.086-.266 0-.086 0-.086.09-.176v-.09h36.808a20.907 20.907 0 0 1 21.629 14.126zm0 0" fill="#2c3e50"/><path d="M388.414 186.793v60.379a61.73 61.73 0 0 1-18.086 43.707 61.73 61.73 0 0 1-43.707 18.086H185.38a61.747 61.747 0 0 1-61.793-61.793v-60.379a102.793 102.793 0 0 1 9.976-44.934c8.387-17.214 22.422-37.87 42.993-44.757 26.48-8.825 44.136 8.828 79.445 8.828 35.312 0 52.965-17.653 79.45-8.828 20.566 6.886 34.605 27.543 42.991 44.757a102.734 102.734 0 0 1 9.973 44.934zm0 0" fill="#f0c419"/><path d="M291.313 176.55H220.69c-4.875 0-8.828-3.952-8.828-8.827s3.953-8.825 8.828-8.825h70.621c4.875 0 8.829 3.95 8.829 8.825s-3.954 8.828-8.829 8.828zm0 0M158.906 176.55a8.677 8.677 0 0 1-2.148-.265l-31.867-7.941a8.847 8.847 0 0 1-6.516-6.117 8.825 8.825 0 0 1 2.168-8.672 8.829 8.829 0 0 1 8.625-2.34l31.867 7.945a8.828 8.828 0 0 1-2.129 17.39zm0 0M353.094 176.55a8.821 8.821 0 0 1-8.742-7.753 8.827 8.827 0 0 1 6.613-9.637l31.87-7.945a8.831 8.831 0 0 1 10.79 11.012 8.835 8.835 0 0 1-6.516 6.117l-31.867 7.941a8.655 8.655 0 0 1-2.148.266zm0 0" fill="#2c2f38"/><path d="M361.934 353.102s-67.27 41.402-92.16 60.03A27.732 27.732 0 0 0 256 432.552c0-7.414-6.973-14.918-17.035-21.715-25.602-17.566-88.895-57.734-88.895-57.734zm0 0" fill="#f0c419"/><path d="M353.105 401.688c-2.113 5.554-4.421 11.585-6.636 18.093-.801 2.387-1.606 4.762-2.41 7.223-1.809 5.238-3.621 10.715-5.227 16.348-1.105 3.574-2.113 7.222-3.117 10.875-.102.476-.203.87-.3 1.27-.708 2.46-1.31 4.839-1.911 7.3-.602 2.46-1.207 4.922-1.711 7.379a95.08 95.08 0 0 0-1.508 7.304 190.653 190.653 0 0 0-2.41 14.364c-.402 2.3-.605 4.68-.805 6.902-.3 2.305-.402 4.606-.504 6.746a11.9 11.9 0 0 0-.101 1.828c-.098 1.586-.098 3.176-.098 4.68h-140.73c0-33.965-15.078-79.836-26.739-110.313a99.235 99.235 0 0 0 36.79 15.079c10.054-15.871 40.21-15.871 40.21-15.871l.704-3.653c11.453 6.11 19.398 12.856 19.398 19.524 0-5.954 6.234-11.907 15.684-17.461l4.421 1.59s1.106 0 2.817.078c7.738.476 29.25 2.937 37.39 15.793a99.357 99.357 0 0 0 36.793-15.079zm0 0" fill="#e64c3c"/><path d="M230.137 393.18l-.617 4.062s-26.485 0-35.313 17.656a77.219 77.219 0 0 1-32.309-16.773c-6.53-21.54-11.828-36.195-11.828-36.195h8.828a318.973 318.973 0 0 1 71.239 31.25zm0 0M361.934 361.93s-1.063 2.828-2.649 7.77c-.32.745-.586 1.51-.797 2.296-1.941 5.559-4.414 13.152-7.148 22.156-.442 1.235-.797 2.649-1.238 3.973a77.219 77.219 0 0 1-32.309 16.773c-7.148-14.3-26.04-17.039-32.836-17.57-1.504-.086-2.473-.086-2.473-.086l-3.882-1.765c24.89-18.625 74.503-33.547 74.503-33.547zm0 0" fill="#e64c3c"/><g fill="#2c2f38"><path d="M255.266 423.723c-5.075.199-9.352-3.75-9.563-8.825 0-11.722-46.808-32.863-88.812-44.511a8.752 8.752 0 0 1-6.418-10.996c1.78-4.809 7-7.399 11.91-5.914 24.035 6.652 102.445 30.753 102.445 61.421-.21 5.075-4.488 9.024-9.562 8.825zm0 0"/><path d="M194.207 423.723c-.582 0-1.16-.059-1.73-.176a86.148 86.148 0 0 1-36.422-18.8 8.838 8.838 0 0 1-2.809-8.372 8.837 8.837 0 0 1 5.848-6.617 8.834 8.834 0 0 1 8.652 1.754 69.7 69.7 0 0 0 22.684 13.101c13.187-15.996 37.925-16.199 39.09-16.199 4.875-.008 8.832 3.938 8.84 8.816.007 4.875-3.942 8.833-8.817 8.84-.402.004-21.328.543-27.438 12.774a8.84 8.84 0 0 1-7.898 4.879zm0 0M317.793 423.723a8.827 8.827 0 0 1-7.895-4.883c-5.171-10.344-20.921-12.344-25.628-12.711-.942-.055-1.7-.059-1.805-.059-4.875-.008-8.824-3.965-8.82-8.84a8.831 8.831 0 0 1 8.84-8.816s1.163 0 2.98.098a53.03 53.03 0 0 1 36.105 16.093 69.597 69.597 0 0 0 22.688-13.097 8.832 8.832 0 0 1 12.465.773c3.226 3.656 2.879 9.235-.778 12.465a86.104 86.104 0 0 1-36.422 18.8 8.585 8.585 0 0 1-1.73.177zm0 0"/><path d="M256.738 423.723a9.213 9.213 0 0 1-9.566-8.825c0-30.671 78.41-54.77 102.45-61.425a9.722 9.722 0 0 1 11.905 5.918 8.755 8.755 0 0 1-.832 6.882 8.752 8.752 0 0 1-5.582 4.11c-42.008 11.652-88.812 32.793-88.812 44.515-.211 5.075-4.489 9.024-9.563 8.825zm0 0"/></g><path d="M194.207 512h-17.652c-8.828-26.484-44.14-35.309-44.14-35.309a96.622 96.622 0 0 1 17.655-35.312l-17.656-8.828c0-52.965 17.656-79.45 17.656-79.45h8.828s.97 2.829 2.649 7.77c.266.707.527 1.5.793 2.297 1.148 3.266 2.472 7.238 3.972 11.828.196.871.461 1.73.793 2.559.708 2.383 1.59 5.03 2.387 7.77.442 1.323.793 2.648 1.235 3.972 1.855 6.18 3.882 12.976 5.828 20.125.703 2.648 1.41 5.297 2.117 8.035 1.59 5.914 3.176 12.004 4.59 18.184A590.729 590.729 0 0 1 186 447.734c.086.442.176.973.262 1.414.531 2.735 1.148 5.473 1.68 8.122.527 2.734 1.058 5.472 1.5 8.21.44 2.735.968 5.383 1.324 8.122.882 5.382 1.59 10.68 2.117 15.976.265 2.559.531 5.121.707 7.68.176 2.558.351 5.031.441 7.504.09 1.41.09 2.824.09 4.148.086 1.059.086 2.117.086 3.09zm0 0M361.934 441.379a96.613 96.613 0 0 1 17.652 35.312s-35.309 8.825-44.137 35.309h-17.656c0-1.676 0-3.441.09-5.207-.012-.68.015-1.355.086-2.031.09-2.473.265-4.946.441-7.504.09-1.324.18-2.649.356-3.973.086-1.234.265-2.472.351-3.707.09-1.058.176-2.117.356-3.18.441-4.234 1.058-8.472 1.765-12.796.352-2.739.883-5.387 1.325-8.122.44-2.738.968-5.476 1.5-8.21.527-2.649 1.148-5.387 1.675-8.122.09-.441.176-.882.266-1.414.883-3.882 1.766-7.855 2.648-11.652 0-.176.09-.266.09-.441 1.41-6.266 3-12.36 4.59-18.184.703-2.738 1.41-5.387 2.117-8.035 1.942-7.238 3.973-13.945 5.828-20.125.442-1.324.793-2.649 1.235-3.973 1.851-6.09 3.531-11.476 5.12-16.066.352-1.235.794-2.473 1.145-3.621.356-.88.621-1.676.883-2.469.266-.797.531-1.59.797-2.297.176-.617.352-1.234.527-1.766.18-.527.356-1.058.532-1.5.351-.972.617-1.855.882-2.472a9.381 9.381 0 0 1 .532-1.5c0-.09.086-.176.086-.266 0-.086 0-.086.09-.176v-.09h8.828s17.652 26.485 17.652 79.45zm0 0" fill="#35495e"/><path d="M158.898 158.898h70.622c4.875 0 8.828 3.95 8.828 8.825v17.656c0 19.5-15.813 35.312-35.313 35.312h-8.828c-19.5 0-35.309-15.812-35.309-35.312zm0 0M282.484 158.898h70.621v26.48c0 19.5-15.808 35.313-35.312 35.313h-8.828c-19.5 0-35.309-15.812-35.309-35.312v-17.656c0-4.875 3.953-8.825 8.828-8.825zm0 0" fill="#2c2f38"/><path d="M185.379 512h-18.36c-8.738-19.422-36.457-26.66-36.812-26.746a9.361 9.361 0 0 1-5.559-4.328 8.913 8.913 0 0 1-.62-7.063 152.156 152.156 0 0 1 12.89-29.218l-8.477-4.235c-3-1.46-4.89-4.52-4.855-7.86a174.827 174.827 0 0 1 16.332-79.448h18.98a8.981 8.981 0 0 1-1.5 4.855c-.09.266-15.007 23.57-16.066 69.211l12.711 6.355a8.793 8.793 0 0 1 4.766 6.446 9.098 9.098 0 0 1-2.473 7.68 35.722 35.722 0 0 0-3.793 5.296 108.778 108.778 0 0 0-8.742 18.27c12.449 4.855 33.898 16.246 41.137 37.96.285.915.433 1.868.44 2.825zm0 0M375.086 444.645l8.473-4.235a8.625 8.625 0 0 0 4.855-7.86 174.725 174.725 0 0 0-16.332-79.448h-18.977v.09a8.645 8.645 0 0 0 1.5 4.765c.09.266 15.008 23.57 16.067 69.211l-12.711 6.355a8.924 8.924 0 0 0-4.68 6.356 9.067 9.067 0 0 0 2.297 7.68 77.365 77.365 0 0 1 12.621 23.656c-12.445 4.855-33.898 16.246-41.137 37.96a10.03 10.03 0 0 0-.44 2.825h18.362c8.739-19.422 36.457-26.66 36.723-26.746a8.808 8.808 0 0 0 6.266-11.39 152.141 152.141 0 0 0-12.887-29.22zm0 0" fill="#bdc3c7"/><path d="M301.242 242.207c-4.867 15.023-27.77 22.402-40.172 24.574-12.425 2.176-35.441 4.203-45.12-8.273 14.464.87 28.98.101 43.273-2.29a201.154 201.154 0 0 0 42.02-14.011zm0 0" fill="#2c2f38"/></svg>