<svg height="512pt" viewBox="0 0 512 512" width="512pt" xmlns="http://www.w3.org/2000/svg"><path d="M414.898 512H512v-7.855a138.922 138.922 0 0 0-4.063-33.547l-8.207-33.278c-9.523-34.715-41.43-58.511-77.418-57.734H89.688c-35.988-.777-67.894 23.02-77.417 57.734l-8.207 33.278A138.922 138.922 0 0 0 0 504.145V512zm0 0" fill="#bdc3c7"/><path d="M185.379 273.656H326.62v114.758H185.38zm0 0" fill="#f29c1f"/><path d="M441.379 512H70.62l29.906-144.746c3.063-9.14 11.989-14.992 21.59-14.149h267.82a20.844 20.844 0 0 1 21.59 14.149zm0 0" fill="#e6e7e8"/><path d="M388.414 100.457v146.715a61.747 61.747 0 0 1-61.793 61.793H185.38a61.747 61.747 0 0 1-61.793-61.793V105.93zm0 0" fill="#f0c419"/><path d="M418.707 147.293a8.809 8.809 0 0 1-5.293 5.82 8.807 8.807 0 0 1-7.832-.718c-17.207-10.72-58.238-30.926-123.098-30.926-85.187 0-162.254 35.398-223.074 37.34a8.902 8.902 0 0 1-8.476-6.446l-4.325-13.77a9.105 9.105 0 0 1 .532-7.152c86.507-26.48 121.73-87.48 217.687-104.957a202.818 202.818 0 0 1 158.809 35.22l.351-.087c.473 1.399.77 2.852.883 4.324a237.552 237.552 0 0 1-6.164 81.352zm0 0" fill="#2c3e50"/><path d="M423.988 61.617l-.351.086c-2.121-1.676-46.524-34.777-141.153-17.566-95.957 17.48-148.836 60.824-235.343 87.304a7.868 7.868 0 0 1 3.707-4.058c13.859-7.594 45.726-26.926 63.91-52.613C141.242 37.43 167.723 0 256 0c52.438 0 116.082 24.98 160.133 51.375a17.963 17.963 0 0 1 7.855 10.242zm0 0" fill="#35495e"/><path d="M291.309 512c17.656-44.137-8.825-70.621-8.825-70.621l-4.968-20.691 40.277 3.035A135.097 135.097 0 0 1 353.105 512zm0 0M203.035 432.55c-9.004 6.446-35.312 30.016-35.312 79.45h52.968A95.326 95.326 0 0 1 256 441.379l-2.48-19.586zm0 0" fill="#802f34"/><path d="M180.965 253.738a27.712 27.712 0 0 1-19.48-9.152 8.828 8.828 0 0 1 .105-12.375 8.825 8.825 0 0 1 12.375-.106c5.363 5.36 8.637 5.36 14 0 11.3-12.976 29.664-17.207 45.5-10.484 4.32 2.18 6.078 7.434 3.941 11.777a8.824 8.824 0 0 1-11.734 4.063 22.473 22.473 0 0 0-25.223 7.125 27.72 27.72 0 0 1-19.484 9.152zm0 0M331.035 253.738a27.72 27.72 0 0 1-19.484-9.152 22.371 22.371 0 0 0-25.121-7.172 8.838 8.838 0 0 1-8.813-.527 8.832 8.832 0 0 1 .918-15.266c15.836-6.71 34.195-2.48 45.5 10.484 5.363 5.36 8.637 5.36 14 0 3.465-3.347 8.969-3.3 12.375.106s3.453 8.91.106 12.375a27.712 27.712 0 0 1-19.48 9.152zm0 0" fill="#2c2f38"/><path d="M423.723 61.793l-.086-.09" fill="#2c3e50"/><path d="M379.586 353.105a95.524 95.524 0 0 1-26.48 61.793 69.159 69.159 0 0 1-61.797 17.653v-35.309c26.484-8.828 35.312-44.137 35.312-44.137zm0 0M132.414 353.105c0 105.93 114.758 79.446 114.758 79.446v-35.309s-70.621 0-70.621-44.137zm0 0" fill="#e64c3c"/><path d="M256 388.414h26.484c9.75 0 17.653 7.906 17.653 17.656v17.653c0 9.754-7.903 17.656-17.653 17.656H256c-9.75 0-17.656-7.902-17.656-17.656V406.07c0-9.75 7.906-17.656 17.656-17.656zm0 0" fill="#c03a2b"/><g fill="#2c2f38"><path d="M297.734 256c-7.132 13.957-29.398 15.934-41.558 15.934-12.188 0-34.422-1.977-41.555-15.934a179.535 179.535 0 0 0 41.555 5.207A179.357 179.357 0 0 0 297.734 256zm0 0M232.879 164.094a88.045 88.045 0 0 0-26.129-5.297 62.842 62.842 0 0 0-34.605 7.379c1.207-15.446 37.023-18.5 54.53-14.528a8.351 8.351 0 0 1 6.442 4.559 8.35 8.35 0 0 1-.238 7.887zm0 0M229.516 191.395c0-10.454-7.903-18.926-17.653-18.926s-17.656 8.472-17.656 18.926c0 10.449 7.906 18.921 17.656 18.921s17.653-8.472 17.653-18.921zm0 0"/></g><path d="M216.813 174.973a8.827 8.827 0 1 0-6.278 16.5 8.828 8.828 0 0 0 11.39-5.11 8.833 8.833 0 0 0-5.113-11.39zm0 0" fill="#fff"/><path d="M279.121 164.094a88.07 88.07 0 0 1 26.129-5.297 62.842 62.842 0 0 1 34.605 7.379c-1.207-15.446-37.023-18.5-54.53-14.528a8.357 8.357 0 0 0-6.442 4.559 8.35 8.35 0 0 0 .238 7.887zm0 0M317.793 191.395c0-10.454-7.902-18.926-17.656-18.926-9.75 0-17.653 8.472-17.653 18.926 0 10.449 7.903 18.921 17.653 18.921 9.754 0 17.656-8.472 17.656-18.921zm0 0" fill="#2c2f38"/><path d="M306.578 180.086a8.827 8.827 0 0 0-11.39-5.113 8.833 8.833 0 0 0-5.114 11.39c1.735 4.555 6.836 6.844 11.39 5.114 4.56-1.735 6.849-6.836 5.114-11.391zm0 0" fill="#fff"/></svg>