<svg height="512pt" viewBox="0 0 512 512" width="512pt" xmlns="http://www.w3.org/2000/svg"><path d="M414.898 512H512v-7.855a138.922 138.922 0 0 0-4.063-33.547l-8.207-33.278c-9.523-34.715-41.43-58.511-77.418-57.734H89.688c-35.988-.777-67.894 23.02-77.417 57.734l-8.207 33.278A138.922 138.922 0 0 0 0 504.145V512zm0 0" fill="#f0c419"/><path d="M185.379 287.898H326.62v86.274H185.38zm0 0" fill="#f29c1f"/><path d="M334.918 48.816C319.992 18.902 289.434 0 256 0s-63.988 18.902-78.918 48.816zm0 0" fill="#805333"/><path d="M388.414 220.688c10.266 0 19.102-7.247 21.117-17.313l4.11-16.078a114.758 114.758 0 0 0-20.559-98.793 114.751 114.751 0 0 0-90.633-44.367h-92.898a114.751 114.751 0 0 0-90.633 44.367 114.743 114.743 0 0 0-20.555 98.793l4.106 16.078c2.015 10.066 10.851 17.313 21.117 17.313" fill="#cb8252"/><path d="M434.05 476.426l-1.5.261s-39.988-15.535-79.445-35.308c-.09 0-.09-.09-.18-.09a43.08 43.08 0 0 0-4.59-1.941 50.706 50.706 0 0 0-6.796-2.028 3.98 3.98 0 0 0-.883-.18c-.086 0-.176-.085-.265-.085-1.41-.266-2.825-.532-4.325-.707a.263.263 0 0 0-.351 0 34.335 34.335 0 0 0-4.238-.442c-1.5-.09-3-.176-4.504-.176a86.663 86.663 0 0 0-59.32 23.922 51.896 51.896 0 0 0-3.618 4.239 45.21 45.21 0 0 0-3.09 4.5A33.18 33.18 0 0 0 256 485.516a33.214 33.214 0 0 0-4.941-17.125 46.572 46.572 0 0 0-3.09-4.5 51.943 51.943 0 0 0-3.621-4.239 86.656 86.656 0 0 0-59.32-23.922c-1.5 0-3.005.086-4.505.176a34.335 34.335 0 0 0-4.238.442.263.263 0 0 0-.351 0c-.711.074-1.418.191-2.118.351a21.14 21.14 0 0 0-2.472.442 3.98 3.98 0 0 0-.883.18 50.877 50.877 0 0 0-6.797 2.027 43.08 43.08 0 0 0-4.59 1.941c-.09 0-.09.09-.176.09-39.46 19.773-79.449 35.308-79.449 35.308l-1.5-.261 22.598-109.2a20.792 20.792 0 0 1 21.539-14.124h267.828a20.907 20.907 0 0 1 21.629 14.125zm0 0" fill="#f3d55b"/><path d="M388.414 187.852v59.32a61.754 61.754 0 0 1-18.086 43.707 61.738 61.738 0 0 1-43.707 18.086H185.38a61.738 61.738 0 0 1-43.707-18.086 61.754 61.754 0 0 1-18.086-43.707v-59.32s.883-57.555 52.965-70.622c35.312-8.828 44.14 8.829 79.449 8.829s44.137-17.657 79.45-8.829c52.081 13.067 52.964 70.622 52.964 70.622zm0 0" fill="#f0c419"/><path d="M176.023 419.398c.579 4.825-2.855 9.211-7.68 9.797a4.235 4.235 0 0 1-1.062.09 8.725 8.725 0 0 1-8.207-5.648 9.225 9.225 0 0 1-.531-2.121l-8.387-67.352a4.044 4.044 0 0 1-.086-1.062h17.653l8.21 65.59zm0 0M361.93 353.102c.02.355-.012.714-.086 1.062l-8.387 67.352a9.225 9.225 0 0 1-.531 2.12 8.725 8.725 0 0 1-8.207 5.65 4.235 4.235 0 0 1-1.063-.09c-4.824-.587-8.258-4.973-7.68-9.798l.09-.707 8.211-65.59zm0 0" fill="#804169"/><path d="M441.379 512H70.62l7.328-35.574 1.5.262a494.334 494.334 0 0 1 79.45-52.965C194.206 406.07 256 432.55 256 467.863c0-35.312 61.793-61.793 97.105-44.14a494.474 494.474 0 0 1 79.446 52.965l1.5-.262zm0 0" fill="#cc66a1"/><g fill="#2c2f38"><path d="M297.734 260.414c-7.132 13.957-29.398 15.93-41.558 15.93-12.188 0-34.422-1.973-41.555-15.93a179.535 179.535 0 0 0 41.555 5.207 179.568 179.568 0 0 0 41.558-5.207zm0 0M232.879 168.508a87.922 87.922 0 0 0-26.129-5.297 62.842 62.842 0 0 0-34.605 7.379c1.207-15.445 37.023-18.5 54.53-14.528a8.351 8.351 0 0 1 6.442 4.56 8.35 8.35 0 0 1-.238 7.886zm0 0M279.121 168.508a87.947 87.947 0 0 1 26.129-5.297 62.842 62.842 0 0 1 34.605 7.379c-1.207-15.445-37.023-18.5-54.53-14.528a8.357 8.357 0 0 0-6.442 4.56 8.35 8.35 0 0 0 .238 7.886zm0 0M184.137 183.066s2.515 11.282 12.238 9.082c9.727-2.199 11.582 2.024 19.96 1.348a33.339 33.339 0 0 1 8.567.524c2.004.464 4.082.5 6.102.097 2.789-.746 2.55-3.988 1.57-6.097-3.875-8.36-14.785-8.97-22.77-8.043a78.983 78.983 0 0 1-10.3 2.078 27.603 27.603 0 0 1-9.977-5.13c.637 2.27.793 4.645.45 6.977-1.008 1.918-5.84-.836-5.84-.836zm0 0"/><path d="M229.516 200.219c0-10.45-7.903-18.922-17.653-18.922s-17.656 8.473-17.656 18.922c0 10.453 7.906 18.926 17.656 18.926s17.653-8.473 17.653-18.926zm0 0"/></g><path d="M216.813 183.8a8.827 8.827 0 1 0-6.278 16.5 8.827 8.827 0 1 0 6.278-16.5zm0 0" fill="#fff"/><path d="M327.855 183.066s-2.511 11.282-12.238 9.082c-9.722-2.199-11.578 2.024-19.957 1.348a33.328 33.328 0 0 0-8.566.524c-2.004.464-4.082.5-6.102.097-2.793-.746-2.55-3.988-1.574-6.097 3.879-8.36 14.789-8.97 22.77-8.043a79.171 79.171 0 0 0 10.304 2.078 27.555 27.555 0 0 0 9.973-5.13 16.765 16.765 0 0 0-.445 6.977c1.011 1.918 5.835-.836 5.835-.836zm0 0" fill="#2c2f38"/><path d="M317.79 200.219c0-10.45-7.903-18.922-17.653-18.922-9.754 0-17.657 8.473-17.657 18.922 0 10.453 7.903 18.926 17.657 18.926 9.75 0 17.652-8.473 17.652-18.926zm0 0" fill="#2c2f38"/><path d="M306.574 188.914a8.827 8.827 0 0 0-11.39-5.113c-4.555 1.73-6.844 6.832-5.11 11.387a8.823 8.823 0 0 0 11.387 5.113 8.823 8.823 0 0 0 5.113-11.387zm0 0" fill="#fff"/></svg>