<svg height="512pt" viewBox="0 0 512 512" width="512pt" xmlns="http://www.w3.org/2000/svg"><path d="M414.898 512H512v-7.855a138.922 138.922 0 0 0-4.063-33.547l-8.207-33.278c-9.523-34.715-41.43-58.511-77.418-57.734H89.688c-35.988-.777-67.894 23.02-77.417 57.734l-8.207 33.278A138.922 138.922 0 0 0 0 504.145V512zm0 0" fill="#4482c3"/><path d="M185.379 297.2H326.62v67.667H185.38zm0 0" fill="#f29c1f"/><path d="M335.45 353.105s-33.548 20.125-65.5 42.813c-4.77 3.355-9.446 6.797-13.95 10.152-4.5-3.355-9.18-6.797-13.95-10.152-31.952-22.688-65.5-42.813-65.5-42.813zm0 0" fill="#f0c419"/><path d="M441.379 512H70.62l29.926-144.773a20.785 20.785 0 0 1 21.539-14.122h54.465s33.547 20.125 65.5 42.813c1.765 1.234 3.445 2.473 5.12 3.617 3.005 2.207 5.915 4.414 8.829 6.535 2.914-2.12 5.828-4.328 8.828-6.535 1.676-1.144 3.356-2.383 5.121-3.617 31.953-22.688 65.5-42.813 65.5-42.813h54.465a20.899 20.899 0 0 1 21.629 14.122zm0 0" fill="#2fa8cc"/><path d="M388.414 113.965v133.207a61.747 61.747 0 0 1-61.793 61.793H185.38a61.747 61.747 0 0 1-61.793-61.793V113.965zm0 0" fill="#f0c419"/><path d="M406.07 132.414V97.105C406.07 43.477 362.594 0 308.965 0h-105.93c-53.629 0-97.105 43.477-97.105 97.105v35.31l152.828-13.243zm0 0" fill="#285680"/><path d="M256 79.45c158.898 0 167.723 79.448 167.723 79.448-8.825 8.825-44.137 0-70.618-17.656-26.484-17.656-70.62-17.656-97.105-17.656s-70.621 0-97.102 17.656c-26.484 17.656-61.793 26.48-70.62 17.656 0 0 8.827-79.449 167.722-79.449zm0 0" fill="#4482c3"/><path d="M256 256a31.362 31.362 0 0 0 26.484 17.656V256c17.653 17.656 44.137 8.828 44.137 8.828C308.965 220.691 256 220.691 256 220.691s-52.965 0-70.621 44.137c0 0 26.484 8.828 44.137-8.828v17.656A31.362 31.362 0 0 0 256 256zm0 0" fill="#805333"/><path d="M242.05 395.918c-30.277-5.473-100.808 10.152-100.808 10.152-8.828-26.484 17.656-52.965 17.656-52.965h17.653s33.547 20.125 65.5 42.813zm0 0M370.758 406.07s-70.531-15.625-100.809-10.152c31.953-22.688 65.5-42.813 65.5-42.813h17.656s26.48 26.48 17.653 52.965zm0 0" fill="#4482c3"/><path d="M379.586 459.035c0-9.75-15.809-17.656-35.309-17.656-19.504 0-35.312 7.906-35.312 17.656s15.808 17.656 35.312 17.656c19.5 0 35.309-7.906 35.309-17.656zm0 0" fill="#e6e7e8"/><path d="M264.828 399.535v24.188c0 4.879-3.953 8.828-8.828 8.828s-8.828-3.95-8.828-8.828v-24.188c3.004 2.207 5.914 4.414 8.828 6.535 2.914-2.12 5.828-4.328 8.828-6.535zm0 0" fill="#4482c3"/><path d="M232.879 159.68a87.917 87.917 0 0 0-26.129-5.293 62.774 62.774 0 0 0-34.605 7.379c1.207-15.45 37.023-18.504 54.53-14.532a8.351 8.351 0 0 1 6.442 4.559 8.35 8.35 0 0 1-.238 7.887zm0 0M229.516 186.98c0-10.453-7.903-18.925-17.653-18.925s-17.656 8.472-17.656 18.925c0 10.45 7.906 18.922 17.656 18.922s17.653-8.472 17.653-18.922zm0 0" fill="#2c2f38"/><path d="M216.813 170.559a8.833 8.833 0 0 0-11.391 5.113 8.827 8.827 0 0 0 5.113 11.39 8.833 8.833 0 0 0 11.39-5.113 8.833 8.833 0 0 0-5.113-11.39zm0 0" fill="#fff"/><path d="M279.121 159.68a87.942 87.942 0 0 1 26.129-5.293 62.774 62.774 0 0 1 34.605 7.379c-1.207-15.45-37.023-18.504-54.53-14.532a8.357 8.357 0 0 0-6.442 4.559 8.35 8.35 0 0 0 .238 7.887zm0 0M317.793 186.98c0-10.453-7.902-18.925-17.656-18.925-9.75 0-17.653 8.472-17.653 18.925 0 10.45 7.903 18.922 17.653 18.922 9.754 0 17.656-8.472 17.656-18.922zm0 0" fill="#2c2f38"/><path d="M306.578 175.672a8.827 8.827 0 0 0-11.39-5.113 8.833 8.833 0 0 0-5.114 11.39 8.833 8.833 0 0 0 11.39 5.113c4.56-1.734 6.849-6.835 5.114-11.39zm0 0" fill="#fff"/></svg>