<svg height="512pt" viewBox="0 0 512 512.001" width="512pt" xmlns="http://www.w3.org/2000/svg"><path d="M185.379 290.727H326.62v80.617H185.38zm0 0" fill="#f29c1f"/><path d="M414.898 512H512v-7.855a139.057 139.057 0 0 0-4.059-33.543l-8.21-33.282c-9.524-34.715-41.43-58.508-77.419-57.734H89.688c-35.988-.774-67.894 23.02-77.417 57.734l-8.207 33.282A138.866 138.866 0 0 0 0 504.145V512zm0 0" fill="#bdc3c7"/><path d="M332.094 353.105c-14.125 8.387-45.02 30.985-79.535 41.313h-.09c-34.516-6.621-64-32.133-75.653-41.313zm0 0" fill="#f0c419"/><path d="M441.379 512H70.62l29.926-144.77a20.788 20.788 0 0 1 21.539-14.125h59.144a169.122 169.122 0 0 0 71.239 32.485h.09a343.639 343.639 0 0 0 75.12-32.485h62.235a20.902 20.902 0 0 1 21.629 14.125zm0 0" fill="#e6e7e8"/><path d="M388.414 111.14v136.032a61.747 61.747 0 0 1-61.793 61.793H185.38a61.734 61.734 0 0 1-43.707-18.082 61.763 61.763 0 0 1-18.086-43.711V111.14" fill="#f0c419"/><path d="M440.852 73.21a35.34 35.34 0 0 1-7.688 28.895 35.326 35.326 0 0 1-27.094 12.653v30.262a8.798 8.798 0 0 1-12.277 8.12A358.484 358.484 0 0 0 256 123.587a358.484 358.484 0 0 0-137.793 29.555 8.794 8.794 0 0 1-12.273-8.121v-30.262c-17.157.02-31.84-12.293-34.813-29.188-2.969-16.894 6.637-33.48 22.77-39.312a34.903 34.903 0 0 1 30.05 2.914l-.09-.586A35.573 35.573 0 0 1 155.27 9.004a35.057 35.057 0 0 1 32.23 14.48A35.244 35.244 0 0 1 215.348.414a35.254 35.254 0 0 1 33.507 13.59 8.865 8.865 0 0 0 14.29 0A35.26 35.26 0 0 1 296.656.414a35.25 35.25 0 0 1 27.848 23.07 35.046 35.046 0 0 1 32.226-14.48 35.577 35.577 0 0 1 23.961 13.242 35.556 35.556 0 0 1 7.457 26.34l-.085.586a34.901 34.901 0 0 1 30.05-2.914 35.343 35.343 0 0 1 22.739 26.953zm0 0" fill="#e6e7e8"/><path d="M361.934 105.938a8.957 8.957 0 0 1-3.278-.633C316.652 88.5 256.602 88.277 256 88.277c-.598 0-60.648.223-102.648 17.028a8.831 8.831 0 1 1-6.563-16.398C191.99 70.827 253.41 70.62 256 70.62s64.016.207 109.21 18.285a8.83 8.83 0 0 1-3.276 17.031zm0 0" fill="#bdc3c7"/><path d="M353.105 353.105a8.802 8.802 0 0 1-3.707 7.149A331.15 331.15 0 0 1 256 402.89c-.441.21-.922.332-1.41.355a315.06 315.06 0 0 1-51.465 10.68l-.09 98.074H185.38v-98.074c.05-8.903 6.7-16.387 15.539-17.477a255.654 255.654 0 0 0 17.035-2.648h.09a323.08 323.08 0 0 0 34.426-8.211h.09a343.639 343.639 0 0 0 75.12-32.485zm0 0" fill="#7f8c8d"/><path d="M261.648 396.184A8.63 8.63 0 0 1 256 402.89c-.441.21-.922.332-1.41.355a4.975 4.975 0 0 1-1.59.176 4.143 4.143 0 0 1-1.5-.176 175.773 175.773 0 0 1-33.457-9.445h-.09a171.706 171.706 0 0 1-56.496-34.43 8.87 8.87 0 0 1-2.559-6.266h22.332a169.122 169.122 0 0 0 71.239 32.485h.09c.617.09 1.234.265 1.941.351a8.711 8.711 0 0 1 7.148 10.242zm0 0" fill="#7f8c8d"/><g fill="#2c2f38"><path d="M238.344 441.379c0 4.875-3.95 8.828-8.824 8.828s-8.829-3.953-8.829-8.828 3.954-8.824 8.829-8.824 8.824 3.949 8.824 8.824zm0 0M238.344 476.691c0 4.875-3.95 8.829-8.824 8.829s-8.829-3.954-8.829-8.829 3.954-8.828 8.829-8.828 8.824 3.953 8.824 8.828zm0 0M291.313 441.379a8.829 8.829 0 0 1-17.657 0c0-4.875 3.953-8.824 8.828-8.824s8.829 3.949 8.829 8.824zm0 0M291.313 476.691a8.829 8.829 0 1 1-17.658-.001 8.829 8.829 0 0 1 17.658.001zm0 0M297.734 260.414c-7.132 13.961-29.398 15.934-41.558 15.934-12.188 0-34.422-1.973-41.555-15.934a179.75 179.75 0 0 0 41.555 5.211 179.572 179.572 0 0 0 41.558-5.21zm0 0M232.879 168.512a87.8 87.8 0 0 0-26.129-5.297 62.774 62.774 0 0 0-34.605 7.379c1.207-15.45 37.023-18.504 54.53-14.531a8.35 8.35 0 0 1 6.204 12.449zm0 0M229.52 195.809c0-10.454-7.907-18.926-17.657-18.926s-17.656 8.472-17.656 18.926c0 10.449 7.906 18.921 17.656 18.921s17.657-8.472 17.657-18.921zm0 0"/></g><path d="M216.813 179.387a8.833 8.833 0 0 0-11.391 5.113 8.833 8.833 0 0 0 5.113 11.39 8.833 8.833 0 0 0 11.39-5.113 8.833 8.833 0 0 0-5.113-11.39zm0 0" fill="#fff"/><path d="M279.121 168.512a87.824 87.824 0 0 1 26.129-5.297 62.774 62.774 0 0 1 34.605 7.379c-1.207-15.45-37.023-18.504-54.53-14.531a8.35 8.35 0 0 0-6.438 4.562 8.34 8.34 0 0 0 .234 7.887zm0 0M317.793 195.809c0-10.454-7.902-18.926-17.656-18.926-9.75 0-17.653 8.472-17.653 18.926 0 10.449 7.903 18.921 17.653 18.921 9.754 0 17.656-8.472 17.656-18.921zm0 0" fill="#2c2f38"/><path d="M306.578 184.5a8.833 8.833 0 0 0-11.39-5.113 8.833 8.833 0 0 0-5.114 11.39c1.735 4.559 6.836 6.848 11.39 5.114a8.827 8.827 0 0 0 5.114-11.391zm0 0" fill="#fff"/></svg>