<svg height="512pt" viewBox="-4 0 511 512" width="512pt" xmlns="http://www.w3.org/2000/svg"><path d="M408.363 503.32h95.461l-.004-7.722a136.762 136.762 0 0 0-3.988-32.977l-8.07-32.715c-9.364-34.125-40.73-57.515-76.11-56.754H88.668c-35.379-.761-66.746 22.63-76.106 56.754l-8.07 32.715A136.571 136.571 0 0 0 .5 495.598v7.722zm0 0" fill="#af8066"/><path d="M182.738 292.281h138.848v66.281H182.738zm0 0" fill="#f29c1f"/><path d="M312.906 347.117s-5.554 33.41-34.539 46.688a34.653 34.653 0 0 0-26.207-11.973 34.665 34.665 0 0 0-26.207 11.973c-28.984-13.278-34.539-46.688-34.539-46.688zm0 0" fill="#f0c419"/><path d="M174.145 503.32H69.925l16.313-78.968zm0 0" fill="#cbb292"/><path d="M418.082 424.266l-87.82 79.054H174.145l-87.907-78.968 11.715-56.84 60.05-20.395h33.411s5.555 33.41 34.54 46.688a34.665 34.665 0 0 1 26.206-11.973 34.653 34.653 0 0 1 26.207 11.973c28.985-13.278 34.54-46.688 34.54-46.688h33.495l59.965 20.395 1.215 5.64zm0 0" fill="#cc6f56"/><path d="M434.398 503.32H330.262l87.82-79.054zm0 0" fill="#cbb292"/><path d="M269.516 477.29c0 14.378-17.356 26.03-17.356 26.03s-17.355-11.652-17.355-26.03c0-14.38 17.355-26.036 17.355-26.036s17.356 11.656 17.356 26.035zm0 0M205.695 459.348c-12.843 6.46-31.054-3.805-31.054-3.805s2.609-20.742 15.453-27.203c12.847-6.465 31.058 3.805 31.058 3.805s-2.613 20.742-15.457 27.203zm0 0M299.207 459.348c12.844 6.46 31.055-3.805 31.055-3.805s-2.61-20.742-15.457-27.203c-12.844-6.465-31.055 3.805-31.055 3.805s2.613 20.742 15.457 27.203zm0 0" fill="#2fa8cc"/><path d="M286.871 416.543c.02 16.812-12 31.23-28.543 34.234-16.543 3-32.867-6.27-38.758-22.02-5.89-15.75.34-33.456 14.793-42.046 14.453-8.594 32.985-5.606 44.004 7.094a34.697 34.697 0 0 1 8.504 22.738zm0 0M382.332 99.797a19.8 19.8 0 0 1-.09 2.258c0 .953 0 145.007-.172 145.96.028.5-.03.997-.172 1.477a53.232 53.232 0 0 1-2.953 13.45c-8.476 24.43-31.504 40.8-57.36 40.788H182.739c-25.86.012-48.886-16.359-57.363-40.789a53.058 53.058 0 0 1-2.95-13.449 4.198 4.198 0 0 1-.171-1.476c-.176-1.649-.262-146.485-.262-148.22zm0 0" fill="#f0c419"/><path d="M252.16 0c147.528 0 182.238 86.781 182.238 182.238 0 147.782-9.68 172.14-34.71 190.914a120.62 120.62 0 0 0-43.391 60.746c-43.39-78.101 26.035-147.527 26.035-190.914 0-43.39 0-95.457-34.715-121.492-34.71-26.035-52.066-8.68-95.457-8.68s-60.746-17.355-95.457 8.68c-34.71 26.035-34.71 78.102-34.71 121.492 0 43.387 69.421 112.813 26.034 190.914a120.667 120.667 0 0 0-43.39-60.746C79.605 354.38 69.926 330.02 69.926 182.238 69.926 86.781 104.636 0 252.16 0zm0 0" fill="#2c2f38"/><g fill="#805333"><path d="M174.059 234.305h-17.356a8.676 8.676 0 0 1-8.676-8.676c0-4.793 3.883-8.68 8.676-8.68h17.356a8.68 8.68 0 0 1 8.68 8.68c0 4.789-3.887 8.676-8.68 8.676zm0 0M347.617 234.305h-17.355a8.676 8.676 0 0 1-8.676-8.676c0-4.793 3.883-8.68 8.676-8.68h17.355a8.68 8.68 0 0 1 8.68 8.68c0 4.789-3.887 8.676-8.68 8.676zm0 0M252.16 512a8.64 8.64 0 0 1-4.836-1.477c-2.172-1.457-21.195-14.765-21.195-33.234 0-18.473 19.023-31.781 21.195-33.238a8.678 8.678 0 0 1 9.676 0c2.168 1.457 21.195 14.765 21.195 33.238 0 18.469-19.027 31.777-21.195 33.234a8.644 8.644 0 0 1-4.84 1.477zm0-49.559a23.895 23.895 0 0 0-8.676 14.848 23.915 23.915 0 0 0 8.676 14.848 23.92 23.92 0 0 0 8.68-14.848 23.9 23.9 0 0 0-8.68-14.848zm0 0M195.832 470.172a57.23 57.23 0 0 1-25.453-7.067 8.68 8.68 0 0 1-4.348-8.644c.324-2.594 3.664-25.574 20.168-33.875 16.485-8.3 36.934 2.719 39.215 4a8.68 8.68 0 0 1 4.348 8.644c-.325 2.594-3.668 25.575-20.168 33.872a30.362 30.362 0 0 1-13.762 3.07zm-11.184-19.656a23.917 23.917 0 0 0 17.153 1.082 23.956 23.956 0 0 0 9.36-14.43A24.002 24.002 0 0 0 194 436.09a23.93 23.93 0 0 0-9.352 14.426zm0 0M309.07 470.172c-4.761.07-9.476-.98-13.761-3.07-16.504-8.297-19.844-31.278-20.168-33.872a8.68 8.68 0 0 1 4.347-8.644c2.282-1.277 22.735-12.281 39.215-3.996 16.504 8.297 19.844 31.277 20.172 33.87a8.693 8.693 0 0 1-4.348 8.645 57.261 57.261 0 0 1-25.457 7.067zm-15.324-33a23.893 23.893 0 0 0 9.36 14.422v.008a23.92 23.92 0 0 0 17.16-1.086 23.88 23.88 0 0 0-9.356-14.422 23.89 23.89 0 0 0-17.164 1.078zm0 0M278.371 402.484a8.68 8.68 0 0 1-3.617-16.574c24.293-11.129 29.547-39.957 29.598-40.25a8.68 8.68 0 0 1 9.976-6.996c4.676.79 7.856 5.184 7.137 9.871-.258 1.55-6.68 38.133-39.485 53.153a8.591 8.591 0 0 1-3.609.796zm0 0M225.953 402.484a8.6 8.6 0 0 1-3.61-.793c-32.796-15.02-39.222-51.601-39.484-53.152a8.677 8.677 0 0 1 7.137-9.871 8.68 8.68 0 0 1 9.977 6.992c.05.293 5.304 29.125 29.597 40.25a8.68 8.68 0 1 1-3.617 16.578zm0 0"/></g><path d="M252.16 459.934c-23.95-.012-43.355-19.43-43.355-43.38.004-23.949 19.418-43.363 43.367-43.366s43.371 19.406 43.379 43.355c-.028 23.953-19.438 43.36-43.39 43.39zm0-69.426c-12.273-.016-22.894 8.527-25.512 20.52-2.613 11.992 3.489 24.183 14.657 29.273 11.168 5.094 24.375 1.707 31.715-8.13 7.34-9.835 6.824-23.46-1.235-32.714a25.816 25.816 0 0 0-19.625-8.95zm0 0" fill="#cb8252"/><path d="M293.188 251.66c-7.012 13.723-28.899 15.664-40.852 15.664-11.98 0-33.84-1.941-40.852-15.664a176.708 176.708 0 0 0 40.852 5.121 176.285 176.285 0 0 0 40.851-5.12zm0 0M229.434 156.977a86.27 86.27 0 0 0-25.688-5.207 61.718 61.718 0 0 0-34.02 7.253c1.188-15.187 36.395-18.191 53.61-14.285a8.206 8.206 0 0 1 6.328 4.485 8.206 8.206 0 0 1-.23 7.754zm0 0M274.89 156.977a86.246 86.246 0 0 1 25.688-5.207 61.704 61.704 0 0 1 34.016 7.253c-1.188-15.187-36.395-18.191-53.606-14.285a8.206 8.206 0 0 0-6.098 12.238zm0 0M181.516 171.29s2.472 11.085 12.03 8.925c9.563-2.164 11.384 1.988 19.622 1.324a32.742 32.742 0 0 1 8.422.516 14.3 14.3 0 0 0 5.996.097c2.746-.734 2.508-3.922 1.547-5.996-3.813-8.219-14.535-8.82-22.383-7.906a78.427 78.427 0 0 1-10.129 2.043 27.129 27.129 0 0 1-9.805-5.043 16.52 16.52 0 0 1 .442 6.855c-.992 1.887-5.742-.816-5.742-.816zm0 0" fill="#2c2f38"/><path d="M226.129 188.148c0-10.273-7.774-18.601-17.36-18.601-9.582 0-17.355 8.328-17.355 18.601 0 10.274 7.774 18.602 17.356 18.602 9.585 0 17.359-8.328 17.359-18.602zm0 0" fill="#2c2f38"/><path d="M213.637 172.008c-4.48-1.703-9.492.547-11.196 5.023a8.678 8.678 0 1 0 11.195-5.023zm0 0" fill="#fff"/><path d="M322.8 171.29s-2.472 11.085-12.03 8.925c-9.563-2.164-11.383 1.988-19.622 1.324a32.742 32.742 0 0 0-8.421.516 14.299 14.299 0 0 1-5.997.097c-2.746-.734-2.507-3.922-1.546-5.996 3.812-8.219 14.535-8.82 22.382-7.906a78.427 78.427 0 0 0 10.13 2.043 27.097 27.097 0 0 0 9.804-5.043 16.586 16.586 0 0 0-.441 6.855c.996 1.887 5.742-.816 5.742-.816zm0 0" fill="#2c2f38"/><path d="M312.906 188.148c0-10.273-7.773-18.601-17.36-18.601-9.581 0-17.355 8.328-17.355 18.601 0 10.274 7.774 18.602 17.356 18.602 9.586 0 17.36-8.328 17.36-18.602zm0 0" fill="#2c2f38"/><path d="M301.887 177.035c-1.703-4.476-6.719-6.726-11.196-5.023a8.677 8.677 0 0 0-5.027 11.195 8.677 8.677 0 0 0 11.195 5.027 8.683 8.683 0 0 0 5.028-11.199zm0 0" fill="#fff"/></svg>