<svg height="512pt" viewBox="0 0 512 512" width="512pt" xmlns="http://www.w3.org/2000/svg"><path d="M512 504.145V512H0v-7.855a138.922 138.922 0 0 1 4.063-33.547l8.207-33.278c9.523-34.715 41.43-58.511 77.418-57.734h332.625c35.988-.777 67.894 23.02 77.417 57.734l8.207 33.278A138.922 138.922 0 0 1 512 504.145zm0 0" fill="#c03a2b"/><path d="M441.379 512H70.62l27.367-132.414 2.559-12.36a20.785 20.785 0 0 1 21.539-14.12h267.828a20.899 20.899 0 0 1 21.629 14.12l2.559 12.36zm0 0" fill="#e64c3c"/><path d="M388.414 132.414v114.758c.004 27.39-18.039 51.508-44.316 59.234H167.902c-26.277-7.726-44.32-31.844-44.316-59.234V132.414zm0 0" fill="#f0c419"/><path d="M476.813 132.414H35.188a8.833 8.833 0 0 1-8.567-6.68 8.827 8.827 0 0 1 4.399-9.93L65.94 97.106 98.867 79.45l32.93-17.656 33.016-17.656 74.945-40.164a35.19 35.19 0 0 1 32.484 0l74.945 40.164 33.016 17.656 32.93 17.656 32.926 17.656 34.921 18.7a8.827 8.827 0 0 1 4.399 9.93 8.833 8.833 0 0 1-8.567 6.68zm0 0" fill="#b19046"/><g fill="#e4c05c"><path d="M220.691 88.277a8.86 8.86 0 0 1-8.828 8.828H65.941L98.867 79.45h112.996c4.867.012 8.813 3.957 8.828 8.828zm0 0M446.059 97.105H256a8.829 8.829 0 0 1 0-17.656h157.133zm0 0M380.203 61.793H131.797l33.016-17.656h182.375zm0 0"/></g><path d="M344.277 512v-87.395c-.015-4.867-3.96-8.812-8.828-8.824a8.51 8.51 0 0 0-6.972 3.528 8.756 8.756 0 0 0-1.856 5.296V512zm0 0M185.379 446.852V512h-17.656v-65.148a8.86 8.86 0 0 1 8.828-8.829c.504.012 1.008.07 1.5.18a8.61 8.61 0 0 1 5.652 3.531 8.464 8.464 0 0 1 1.676 5.118zm0 0" fill="#802f34"/><path d="M361.93 434.96c-52.965-8.565-61.793-68.48-61.793-68.48s-8.828 8.563 0 59.918A115.684 115.684 0 0 1 282.484 512c0-17.121 0-17.121-26.484-51.36-26.484-34.242-26.484-94.16-26.484-94.16a120.606 120.606 0 0 1-61.793 85.598c35.312-34.238 0-85.598 0-136.96 0-51.36 17.656-85.602 44.14-85.602 26.48 0 26.48 8.566 44.137 8.566s17.656-8.566 44.137-8.566c26.484 0 44.14 34.242 44.14 85.601 0 51.363-8.828 85.602 17.653 119.844zm0 0M232.879 164.094a88.045 88.045 0 0 0-26.129-5.297 62.842 62.842 0 0 0-34.605 7.379c1.207-15.446 37.023-18.5 54.53-14.528a8.351 8.351 0 0 1 6.442 4.559 8.35 8.35 0 0 1-.238 7.887zm0 0" fill="#ecf0f1"/><path d="M229.516 191.395c0-10.454-7.903-18.926-17.653-18.926s-17.656 8.472-17.656 18.926c0 10.449 7.906 18.921 17.656 18.921s17.653-8.472 17.653-18.921zm0 0" fill="#2c2f38"/><path d="M216.813 174.973a8.827 8.827 0 1 0-6.278 16.5 8.828 8.828 0 0 0 11.39-5.11 8.833 8.833 0 0 0-5.113-11.39zm0 0" fill="#fff"/><path d="M279.121 164.094a88.07 88.07 0 0 1 26.129-5.297 62.842 62.842 0 0 1 34.605 7.379c-1.207-15.446-37.023-18.5-54.53-14.528a8.357 8.357 0 0 0-6.442 4.559 8.35 8.35 0 0 0 .238 7.887zm0 0" fill="#ecf0f1"/><path d="M317.793 191.395c0-10.454-7.902-18.926-17.656-18.926-9.75 0-17.653 8.472-17.653 18.926 0 10.449 7.903 18.921 17.653 18.921 9.754 0 17.656-8.472 17.656-18.921zm0 0" fill="#2c2f38"/><path d="M306.578 180.086a8.827 8.827 0 0 0-11.39-5.113 8.833 8.833 0 0 0-5.114 11.39c1.735 4.555 6.836 6.844 11.39 5.114 4.56-1.735 6.849-6.836 5.114-11.391zm0 0" fill="#fff"/></svg>