<svg height="512pt" viewBox="0 0 512 512" width="512pt" xmlns="http://www.w3.org/2000/svg"><path d="M113.875 106.11L125 44.226C129.305 18.715 151.383.027 177.258 0h157.484C360.617.027 382.695 18.715 387 44.227l11.125 61.882zm0 0" fill="#7f6e5d"/><path d="M512 504.145V512H0v-7.855a138.922 138.922 0 0 1 4.063-33.547l8.207-33.278c9.523-34.715 41.43-58.511 77.418-57.734h332.625c35.988-.777 67.894 23.02 77.417 57.734l8.207 33.278A138.922 138.922 0 0 1 512 504.145zm0 0" fill="#cbb292"/><path d="M185.379 283.836H326.62v94.398H185.38zm0 0" fill="#f29c1f"/><path d="M441.379 172.316a215.248 215.248 0 0 1-52.965 13.063H123.586a215.29 215.29 0 0 1-52.965-13.063c-35.312-17.656-26.484-44.14 0-52.968 88.277-8.825 123.586 26.484 185.379 26.484 70.621 0 97.105-35.309 185.379-26.484 26.484 8.828 35.312 35.312 0 52.968zm0 0" fill="#7f6e5d"/><path d="M385.941 106.285a62.03 62.03 0 0 1 2.473 17.3v123.587a61.747 61.747 0 0 1-61.793 61.793H185.38a61.747 61.747 0 0 1-61.793-61.793V123.586a63.265 63.265 0 0 1 2.473-17.477zm0 0" fill="#f0c419"/><path d="M441.379 119.348C353.105 110.523 326.62 145.832 256 145.832c-61.793 0-97.102-35.309-185.379-26.484a209.613 209.613 0 0 1 43.254-13.239A659.43 659.43 0 0 1 256 92.867a659.43 659.43 0 0 1 142.125 13.242 209.613 209.613 0 0 1 43.254 13.239zm0 0" fill="#cbb292"/><path d="M335.45 353.105c-37.52 7.5-40.696 36.543-43.434 42.458a17.473 17.473 0 0 0-9.532-2.735h-52.968a17.483 17.483 0 0 0-9.532 2.735c-2.738-5.915-5.914-34.958-43.433-42.458zm0 0" fill="#f0c419"/><path d="M441.379 512H70.62l27.367-132.414 2.559-12.36a20.785 20.785 0 0 1 21.539-14.12h54.465a75.806 75.806 0 0 1 47.847 26.48 44.252 44.252 0 0 1 4.414 7.152 17.444 17.444 0 0 1 9.532-2.738h35.312a17.444 17.444 0 0 1 9.531 2.738 44.252 44.252 0 0 1 4.415-7.152 75.806 75.806 0 0 1 47.847-26.48h54.465a20.899 20.899 0 0 1 21.629 14.12l2.559 12.36zm0 0" fill="#7f6e5d"/><g fill="#805333"><path d="M167.723 220.691a8.822 8.822 0 0 1-8.825 8.825 8.823 8.823 0 0 1-8.828-8.825 8.824 8.824 0 0 1 8.828-8.828 8.823 8.823 0 0 1 8.825 8.828zm0 0M167.723 247.172c0 4.875-3.95 8.828-8.825 8.828-4.878 0-8.828-3.953-8.828-8.828s3.95-8.828 8.828-8.828c4.875 0 8.825 3.953 8.825 8.828zm0 0M194.207 247.172a8.829 8.829 0 1 1-17.658-.002 8.829 8.829 0 0 1 17.658.002zm0 0M194.207 273.656a8.829 8.829 0 1 1-17.658-.001 8.829 8.829 0 0 1 17.658.001zm0 0M220.691 273.656a8.829 8.829 0 1 1-17.657-.001 8.829 8.829 0 0 1 17.657.001zm0 0M361.93 220.691a8.822 8.822 0 0 1-8.825 8.825 8.823 8.823 0 0 1-8.828-8.825 8.824 8.824 0 0 1 8.828-8.828 8.823 8.823 0 0 1 8.825 8.828zm0 0M361.93 247.172c0 4.875-3.95 8.828-8.825 8.828-4.878 0-8.828-3.953-8.828-8.828s3.95-8.828 8.828-8.828c4.875 0 8.825 3.953 8.825 8.828zm0 0M335.45 247.172a8.829 8.829 0 1 1-17.659-.002 8.829 8.829 0 0 1 17.658.002zm0 0M335.45 273.656a8.829 8.829 0 1 1-17.659-.001 8.829 8.829 0 0 1 17.658.001zm0 0M308.965 273.656a8.829 8.829 0 1 1-17.658-.001 8.829 8.829 0 0 1 17.658.001zm0 0"/></g><path d="M229.516 388.414l-8.563 34.074-.262 1.235s-70.62 17.656-88.277-70.618h44.137c37.52 7.5 49.523 27.715 52.262 33.633a10.7 10.7 0 0 1 .703 1.676zm0 0M379.586 353.105c-17.656 88.274-88.277 70.618-88.277 70.618l-.262-1.235-8.563-34.074a10.7 10.7 0 0 1 .703-1.676c2.739-5.918 14.743-26.133 52.262-33.633zm0 0" fill="#e64c3c"/><path d="M247.172 428.137V512h-17.656v-83.863a8.829 8.829 0 0 1 17.656 0zm0 0" fill="#5e5f62"/><path d="M282.484 476.691c0 4.875-3.953 8.825-8.828 8.825s-8.828-3.95-8.828-8.825c0-4.878 3.953-8.828 8.828-8.828s8.828 3.95 8.828 8.828zm0 0" fill="#e6e7e8"/><path d="M185.379 485.516h-52.965c-4.875 0-8.828-3.95-8.828-8.825a8.826 8.826 0 0 1 8.828-8.828h52.965a8.826 8.826 0 0 1 8.828 8.828c0 4.875-3.953 8.825-8.828 8.825zm0 0" fill="#5e5f62"/><path d="M291.309 401.656v17.653a19.26 19.26 0 0 1-.262 3.18 17.791 17.791 0 0 1-17.39 14.476h-35.313a17.791 17.791 0 0 1-17.39-14.477 19.26 19.26 0 0 1-.263-3.18v-17.652a17.93 17.93 0 0 1 8.121-14.918 17.444 17.444 0 0 1 9.532-2.738h35.312a17.444 17.444 0 0 1 9.531 2.738 17.93 17.93 0 0 1 8.122 14.918zm0 0" fill="#c03a2b"/><path d="M301.242 242.207c-4.867 15.023-27.77 22.406-40.172 24.574-12.425 2.18-35.441 4.203-45.12-8.273 14.464.87 28.98.101 43.273-2.29a201.154 201.154 0 0 0 42.02-14.011zm0 0M231.215 169.621a87.747 87.747 0 0 0-24.664-10.133 62.81 62.81 0 0 0-35.38.711c4.106-14.941 39.852-11.18 56.294-3.972a8.35 8.35 0 0 1 5.469 5.691 8.344 8.344 0 0 1-1.72 7.703zm0 0M229.516 186.98c0-10.453-7.903-18.925-17.653-18.925s-17.656 8.472-17.656 18.925c0 10.45 7.906 18.922 17.656 18.922s17.653-8.472 17.653-18.922zm0 0" fill="#2c2f38"/><path d="M216.813 170.559a8.833 8.833 0 0 0-11.391 5.113 8.827 8.827 0 0 0 5.113 11.39 8.833 8.833 0 0 0 11.39-5.113 8.833 8.833 0 0 0-5.113-11.39zm0 0" fill="#fff"/><path d="M279.84 171.473a49.234 49.234 0 0 1 24.86-17.32 35.398 35.398 0 0 1 36.304 11.527c-.137-.133.137-2.95.086-3.387a11.927 11.927 0 0 0-.918-3.316 16.754 16.754 0 0 0-4.469-5.84 35.932 35.932 0 0 0-16.39-7.496 44.904 44.904 0 0 0-24.083 1.191 37.029 37.029 0 0 0-12.664 7.465c-3.242 2.965-8.043 8.43-5.957 13.406a28.568 28.568 0 0 0 3.23 3.77zm0 0" fill="#2c2f38"/><path d="M317.793 186.98c0-10.453-7.902-18.925-17.656-18.925-9.75 0-17.653 8.472-17.653 18.925 0 10.45 7.903 18.922 17.653 18.922 9.754 0 17.656-8.472 17.656-18.922zm0 0" fill="#2c2f38"/><path d="M306.578 175.672a8.827 8.827 0 0 0-11.39-5.113 8.833 8.833 0 0 0-5.114 11.39 8.833 8.833 0 0 0 11.39 5.113c4.56-1.734 6.849-6.835 5.114-11.39zm0 0" fill="#fff"/></svg>