<svg height="512pt" viewBox="0 0 512 512" width="512pt" xmlns="http://www.w3.org/2000/svg"><path d="M421.164 185.379l-167.371 8.828-162.957-8.828c.105-2.496.43-4.977.973-7.414L126.41 27.809C129.883 11.57 144.238-.023 160.84 0h190.32c16.606-.023 30.961 11.57 34.43 27.809l34.601 150.156c.543 2.437.868 4.918.973 7.414zm0 0" fill="#7f8c8d"/><path d="M185.379 296.875H326.62v68.32H185.38zm0 0" fill="#f0c419"/><path d="M247.172 216.277l-8.828 92.688H150.07a26.539 26.539 0 0 1-24.453-16.332l-26.66-71.766.352-.176 139.035-13.242a8.849 8.849 0 0 1 8.828 8.828zm0 0M412.691 220.691l.352.176-26.66 71.766a26.539 26.539 0 0 1-24.453 16.332h-88.274l-13.242-92.688c.016-4.87 3.957-8.816 8.828-8.828zm0 0" fill="#bdc3c7"/><path d="M158.898 97.105h194.207c9.75 0 17.653 7.903 17.653 17.653v52.965c0 9.754-7.903 17.656-17.653 17.656H158.898c-9.753 0-17.656-7.902-17.656-17.656v-52.965c0-9.75 7.903-17.653 17.656-17.653zm0 0" fill="#f0c419"/><path d="M414.898 512H512v-7.855a138.922 138.922 0 0 0-4.063-33.547l-8.207-33.278c-9.523-34.715-41.43-58.511-77.418-57.734H89.688c-35.988-.777-67.894 23.02-77.417 57.734l-8.207 33.278A138.922 138.922 0 0 0 0 504.145V512zm0 0" fill="#d1d4d1"/><path d="M441.379 512h-97.102a330.102 330.102 0 0 1 11.914-88.012l62.5-21.89zm0 0" fill="#95a5a5"/><path d="M356.191 423.988A330.102 330.102 0 0 0 344.277 512H167.723a330.102 330.102 0 0 0-11.914-88.012l88.539 30.985a35.171 35.171 0 0 0 23.304 0zm0 0" fill="#7f8c8d"/><path d="M167.723 512H70.62L93.31 402.098l62.5 21.89A330.102 330.102 0 0 1 167.723 512zm0 0" fill="#95a5a5"/><path d="M418.691 402.098l-62.5 21.89-88.539 30.985a35.171 35.171 0 0 1-23.304 0l-88.54-30.985-62.5-21.89 7.239-34.871a20.785 20.785 0 0 1 21.539-14.122h267.828a20.899 20.899 0 0 1 21.629 14.122zm0 0" fill="#bdc3c7"/><path d="M273.656 17.656c0 9.75-7.906 17.653-17.656 17.653s-17.656-7.903-17.656-17.653S246.25 0 256 0s17.656 7.906 17.656 17.656zm0 0" fill="#95a5a5"/><g fill="#5e5f62"><path d="M211.863 256a8.829 8.829 0 1 1-17.658-.002 8.829 8.829 0 0 1 17.658.002zm0 0M185.379 273.656a8.829 8.829 0 1 1-17.658-.001 8.829 8.829 0 0 1 17.658.001zm0 0M158.898 256a8.829 8.829 0 1 1-17.657-.002 8.829 8.829 0 0 1 17.657.002zm0 0M370.758 256c0 4.875-3.953 8.828-8.828 8.828s-8.825-3.953-8.825-8.828 3.95-8.828 8.825-8.828 8.828 3.953 8.828 8.828zm0 0M344.277 273.656a8.829 8.829 0 1 1-17.658-.001 8.829 8.829 0 0 1 17.658.001zm0 0M317.793 256a8.829 8.829 0 1 1-17.658-.002 8.829 8.829 0 0 1 17.658.002zm0 0M256 432.55a8.826 8.826 0 0 1-8.828-8.827v-8.825c0-4.878 3.953-8.828 8.828-8.828s8.828 3.95 8.828 8.828v8.825A8.826 8.826 0 0 1 256 432.55zm0 0M220.691 423.723a8.823 8.823 0 0 1-8.828-8.825v-8.828a8.826 8.826 0 0 1 8.828-8.828c4.875 0 8.825 3.953 8.825 8.828v8.828a8.822 8.822 0 0 1-8.825 8.825zm0 0M185.379 414.898a8.829 8.829 0 0 1-8.828-8.828v-8.828a8.829 8.829 0 0 1 17.656 0v8.828a8.829 8.829 0 0 1-8.828 8.828zm0 0M291.309 423.723a8.822 8.822 0 0 1-8.825-8.825v-8.828c0-4.875 3.95-8.828 8.825-8.828a8.826 8.826 0 0 1 8.828 8.828v8.828a8.823 8.823 0 0 1-8.828 8.825zm0 0M326.621 414.898a8.829 8.829 0 0 1-8.828-8.828v-8.828a8.829 8.829 0 0 1 17.656 0v8.828a8.829 8.829 0 0 1-8.828 8.828zm0 0M220.691 97.105V61.793c0-4.875 3.95-8.828 8.825-8.828a8.826 8.826 0 0 1 8.828 8.828v35.312M273.656 97.105V61.793c0-4.875 3.953-8.828 8.828-8.828s8.825 3.953 8.825 8.828v35.312"/></g><path d="M417.281 209.566l-4.148 11.301h-.09l-.352-.176H282.484c-4.87.012-8.816 3.957-8.828 8.825v79.449h-35.312v-79.45c-.012-4.867-3.957-8.812-8.828-8.824H99.309l-.352.176h-.09l-4.148-11.3a50.71 50.71 0 0 1-3.883-24.188h330.328a50.71 50.71 0 0 1-3.883 24.187zm0 0" fill="#95a5a5"/><path d="M232.879 124.371a87.8 87.8 0 0 0-26.129-5.297 62.842 62.842 0 0 0-34.605 7.38c1.207-15.45 37.023-18.5 54.53-14.528a8.342 8.342 0 0 1 6.204 12.445zm0 0M229.516 151.668c0-10.45-7.903-18.922-17.653-18.922s-17.656 8.473-17.656 18.922c0 10.453 7.906 18.922 17.656 18.922s17.653-8.469 17.653-18.922zm0 0" fill="#2c2f38"/><path d="M216.813 135.25a8.827 8.827 0 0 0-11.391 5.113 8.823 8.823 0 0 0 5.113 11.387 8.827 8.827 0 1 0 6.278-16.5zm0 0" fill="#fff"/><path d="M279.121 124.371a87.824 87.824 0 0 1 26.129-5.297 62.842 62.842 0 0 1 34.605 7.38c-1.207-15.45-37.023-18.5-54.53-14.528a8.348 8.348 0 0 0-6.442 4.558 8.35 8.35 0 0 0 .238 7.887zm0 0M317.793 151.668c0-10.45-7.902-18.922-17.656-18.922-9.75 0-17.653 8.473-17.653 18.922 0 10.453 7.903 18.922 17.653 18.922 9.754 0 17.656-8.469 17.656-18.922zm0 0" fill="#2c2f38"/><path d="M306.578 140.36a8.828 8.828 0 0 0-11.39-5.11 8.827 8.827 0 0 0 6.277 16.5 8.827 8.827 0 0 0 5.113-11.39zm0 0" fill="#fff"/></svg>