<svg height="512pt" viewBox="0 0 512 512.005" width="512pt" xmlns="http://www.w3.org/2000/svg"><path d="M389.89 304.555l-259.124-.57-26.485-120.57L150.63 57.081l35.3-5.789h162.216l34.207 34.629 18.757 103.84zm0 0" fill="#f0c419"/><path d="M512.004 504.148v7.856h-512v-7.856a139.113 139.113 0 0 1 4.059-33.546l8.21-33.278c9.524-34.715 41.43-58.508 77.418-57.734h332.622c35.988-.774 67.898 23.02 77.417 57.734l8.211 33.278a138.922 138.922 0 0 1 4.063 33.546zm0 0" fill="#c03a2b"/><path d="M441.383 512.004H70.625L97.988 379.59l2.559-12.36a20.794 20.794 0 0 1 21.543-14.12h267.828a20.902 20.902 0 0 1 21.625 14.12l2.562 12.36zm0 0" fill="#e64c3c"/><path d="M238.348 356.64v155.364H220.69V356.64a7.945 7.945 0 0 1 .797-3.532 8.736 8.736 0 0 1 16.067 0c.53 1.098.8 2.309.793 3.532zm0 0" fill="#802f34"/><g fill="#e6e7e8"><path d="M291.313 494.348v17.656h-17.657v-17.656c0-4.875 3.953-8.825 8.828-8.825s8.829 3.95 8.829 8.825zm0 0M282.484 467.867a8.829 8.829 0 0 1-8.828-8.828v-8.828a8.829 8.829 0 0 1 17.656 0v8.828a8.829 8.829 0 0 1-8.828 8.828zm0 0M282.484 423.73a8.829 8.829 0 0 1-8.828-8.828v-8.828a8.829 8.829 0 0 1 17.656 0v8.828a8.829 8.829 0 0 1-8.828 8.828zm0 0"/></g><path d="M185.383 485.523a8.829 8.829 0 0 1-8.828-8.828v-8.828h-44.137v8.828a8.829 8.829 0 0 1-17.656 0v-8.828c.011-9.746 7.91-17.644 17.656-17.656h44.137c9.746.012 17.644 7.91 17.656 17.656v8.828a8.829 8.829 0 0 1-8.828 8.828zm0 0M388.418 485.523a8.826 8.826 0 0 1-8.828-8.828v-8.828h-44.14v8.828c0 4.875-3.95 8.828-8.825 8.828a8.826 8.826 0 0 1-8.828-8.828v-8.828c.012-9.746 7.906-17.644 17.652-17.656h44.14c9.747.012 17.645 7.91 17.653 17.656v8.828c0 4.875-3.949 8.828-8.824 8.828zm0 0" fill="#802f34"/><path d="M131.977 332.805a79.978 79.978 0 0 0 1.585 20.304c2.715 21.297 21.57 36.786 42.993 35.309 42.636 0 28.07-22.863 52.965-31.777a77.484 77.484 0 0 1 25.953-3.532h.53c61.087.176 26.13 35.309 78.919 35.309 21.422 1.477 40.273-14.012 42.988-35.309a76.75 76.75 0 0 0 1.59-19.953l-44.05-33.015a277.074 277.074 0 0 0-79.446-8.825 277.1 277.1 0 0 0-79.45 8.825zm0 0" fill="#e6e7e8"/><path d="M141.066 187.855a52.82 52.82 0 0 0 44.317 24.012h35.308c9.739-.027 17.63-7.918 17.657-17.656 0-9.75 7.902-17.656 17.656-17.656 9.75 0 17.652 7.906 17.652 17.656.07 9.723 7.934 17.586 17.656 17.656h35.313a52.818 52.818 0 0 0 44.313-24.012V156.43a49.008 49.008 0 0 0-6.887-8.477 52.47 52.47 0 0 0-37.426-15.535H185.383a52.82 52.82 0 0 0-44.317 24.012zm0 0" fill="#67b9cc"/><path d="M326.625 220.695h-35.313c-14.597-.07-26.414-11.886-26.484-26.484a8.47 8.47 0 0 0-2.531-6.125 8.765 8.765 0 0 0-12.422-.16 8.606 8.606 0 0 0-2.7 6.285c-.015 14.621-11.863 26.469-26.484 26.484h-35.308a61.52 61.52 0 0 1-51.707-28.02 8.871 8.871 0 0 1-1.434-4.82V156.43c.004-1.711.5-3.387 1.434-4.825a61.53 61.53 0 0 1 51.707-28.015h141.242a61.045 61.045 0 0 1 43.695 18.148 57.553 57.553 0 0 1 8.086 10 8.753 8.753 0 0 1 1.352 4.692v31.425c0 1.715-.496 3.391-1.43 4.825a61.529 61.529 0 0 1-51.703 28.015zm-70.621-52.965c14.598.067 26.414 11.883 26.48 26.48a8.489 8.489 0 0 0 2.536 6.126 8.642 8.642 0 0 0 6.292 2.703h35.313a43.911 43.911 0 0 0 35.484-17.937v-25.954a42.756 42.756 0 0 0-4.293-4.949 43.554 43.554 0 0 0-31.191-12.953H185.383a43.913 43.913 0 0 0-35.488 17.938v25.918a43.913 43.913 0 0 0 35.488 17.937h35.308a8.834 8.834 0 0 0 8.829-8.828c.074-14.594 11.886-26.41 26.484-26.48zm0 0" fill="#41767f"/><path d="M414.898 194.21c9.75 0 17.657 7.907 17.657 17.657s-7.907 17.656-17.657 17.656c8.606-.023 15.965 6.176 17.41 14.66 1.442 8.481-3.456 16.766-11.581 19.59a18.129 18.129 0 0 1 3 9.887c-.028 9.738-7.918 17.625-17.657 17.656a17.489 17.489 0 0 1-9.004-2.472c.106.82.164 1.644.176 2.472a17.57 17.57 0 0 1-11.828 16.594 18.1 18.1 0 0 1 3.004 9.887c0 9.75-7.906 17.656-17.656 17.656s-17.657-7.906-17.657-17.656a17.607 17.607 0 0 1-17.406-14.66c-1.445-8.48 3.453-16.766 11.582-19.59a18.1 18.1 0 0 1-3.004-9.887c.032-9.738 7.918-17.629 17.657-17.656.828.012 1.652.07 2.472.176A17.583 17.583 0 0 1 363 241.156a17.59 17.59 0 0 1 10.762-10.574 18.129 18.129 0 0 1-3-9.887c.027-9.738 7.914-17.629 17.656-17.656-9.742-.027-17.629-7.918-17.656-17.656 0-5.09 2.226-9.926 6.09-13.242a17.441 17.441 0 0 1-6.09-13.239 18.119 18.119 0 0 1 3-9.886A17.595 17.595 0 0 1 363 138.438a17.584 17.584 0 0 1 1.406-15.024c-.82.106-1.644.164-2.472.176-9.739-.027-17.625-7.914-17.657-17.652-9.738-.032-17.625-7.918-17.652-17.657.012-.828.07-1.652.176-2.472a17.489 17.489 0 0 1-9.004 2.472 17.647 17.647 0 0 1-15.363-9.004c-.758.106-1.524.164-2.293.176a17.576 17.576 0 0 1-16.598-11.828 18.119 18.119 0 0 1-9.887 3c-9.738-.027-17.625-7.918-17.652-17.656-.031 9.738-7.918 17.629-17.656 17.656a18.129 18.129 0 0 1-9.887-3 17.576 17.576 0 0 1-16.598 11.828 18.757 18.757 0 0 1-2.293-.176 17.64 17.64 0 0 1-15.36 9.004 17.468 17.468 0 0 1-9.003-2.472c.106.82.164 1.644.176 2.472-.031 9.739-7.918 17.625-17.656 17.657-.028 9.738-7.918 17.625-17.657 17.652a21.724 21.724 0 0 1-2.468-.176 17.597 17.597 0 0 1 1.402 15.024 17.586 17.586 0 0 1-10.762 10.578 18.119 18.119 0 0 1 3 9.886c0 5.09-2.222 9.926-6.09 13.239a17.442 17.442 0 0 1 6.09 13.242c-.027 9.738-7.914 17.629-17.652 17.656 9.738.027 17.625 7.918 17.652 17.656a18.129 18.129 0 0 1-3 9.887 17.58 17.58 0 0 1 10.762 10.574 17.596 17.596 0 0 1-1.402 15.024 21.724 21.724 0 0 1 2.468-.176c9.739.027 17.63 7.918 17.657 17.656a18.129 18.129 0 0 1-3 9.887c8.125 2.824 13.023 11.11 11.582 19.59-1.446 8.484-8.805 14.683-17.41 14.66 0 9.75-7.903 17.656-17.657 17.656-9.75 0-17.652-7.906-17.652-17.656a18.129 18.129 0 0 1 3-9.887 17.57 17.57 0 0 1-11.828-16.594c.011-.828.07-1.652.176-2.472a17.478 17.478 0 0 1-9.004 2.472c-9.739-.03-17.625-7.918-17.657-17.656a18.1 18.1 0 0 1 3.004-9.887c-8.129-2.824-13.027-11.109-11.582-19.59a17.607 17.607 0 0 1 17.406-14.66c-9.75 0-17.656-7.906-17.656-17.656s7.906-17.656 17.656-17.656c-9.75 0-17.656-7.902-17.656-17.656 0-9.75 7.906-17.653 17.656-17.653-9.07.008-16.671-6.859-17.582-15.882-.914-9.024 5.165-17.27 14.051-19.075.364-1.449.836-2.863 1.414-4.238a17.6 17.6 0 1 1 10.945-31.426c.829.012 1.653.07 2.473.176a17.451 17.451 0 0 1-2.472-9.004c.027-9.738 7.918-17.625 17.656-17.656.824.012 1.652.07 2.469.176a17.427 17.427 0 0 1-2.47-9.004c.028-9.739 7.915-17.625 17.653-17.653a26.472 26.472 0 0 1 7.746-18.738 26.456 26.456 0 0 1 18.739-7.746 25.893 25.893 0 0 1 17.742 6.887C186.504 6.399 194.637-.488 204 .027c9.363.516 16.688 8.258 16.691 17.633 0-9.75 7.907-17.656 17.657-17.656s17.656 7.906 17.656 17.656c0-9.75 7.902-17.656 17.652-17.656 9.754 0 17.656 7.906 17.656 17.656.004-9.375 7.333-17.117 16.692-17.633 9.363-.515 17.496 6.371 18.531 15.692a25.893 25.893 0 0 1 17.742-6.887c7.028-.008 13.77 2.777 18.739 7.746s7.754 11.711 7.746 18.738c9.738.028 17.625 7.914 17.656 17.653a17.468 17.468 0 0 1-2.473 9.004c.82-.106 1.645-.164 2.473-.176 9.738.031 17.625 7.918 17.652 17.656a17.447 17.447 0 0 1-2.468 9.004 21.724 21.724 0 0 1 2.468-.176 17.656 17.656 0 0 1 17.262 13.907c1.762 8.117-2.371 16.37-9.934 19.812.215.52.391 1.047.532 1.59h.968c9.75 0 17.657 7.906 17.657 17.656s-7.907 17.656-17.657 17.656c9.75 0 17.657 7.903 17.657 17.653 0 9.754-7.907 17.656-17.657 17.656zm0 0" fill="#b19046"/><path d="M297.734 242.762c-7.132 13.96-29.394 15.933-41.554 15.933-12.188 0-34.422-1.972-41.555-15.933a179.512 179.512 0 0 0 41.555 5.21 179.539 179.539 0 0 0 41.554-5.21zm0 0" fill="#2c2f38"/><path d="M229.52 173.742c0-10.449-7.907-18.922-17.657-18.922s-17.652 8.473-17.652 18.922c0 10.45 7.902 18.922 17.652 18.922s17.657-8.473 17.657-18.922zm0 0" fill="#35495e"/><path d="M216.813 157.32c-4.555-1.73-9.657.559-11.387 5.114a8.827 8.827 0 0 0 5.113 11.39 8.823 8.823 0 0 0 11.387-5.113 8.827 8.827 0 0 0-5.113-11.39zm0 0" fill="#fff"/><path d="M317.797 173.742c0-10.449-7.906-18.922-17.656-18.922s-17.657 8.473-17.657 18.922c0 10.45 7.907 18.922 17.657 18.922s17.656-8.473 17.656-18.922zm0 0" fill="#35495e"/><path d="M306.582 162.434c-1.734-4.555-6.836-6.844-11.39-5.114a8.827 8.827 0 0 0-5.114 11.39 8.827 8.827 0 0 0 11.39 5.114 8.833 8.833 0 0 0 5.114-11.39zm0 0" fill="#fff"/></svg>