<svg height="512pt" viewBox="0 0 512 512" width="512pt" xmlns="http://www.w3.org/2000/svg"><path d="M414.898 512H512v-7.855a138.922 138.922 0 0 0-4.063-33.547l-8.207-33.278c-9.523-34.715-41.43-58.511-77.418-57.734H89.688c-35.988-.777-67.894 23.02-77.417 57.734l-8.207 33.278A138.922 138.922 0 0 0 0 504.145V512zm0 0" fill="#c03a2b"/><path d="M441.379 512H70.62l27.367-132.414 2.559-12.36a18.997 18.997 0 0 1 15.625-13.417l36.105-.704h207.36l36.191.704a18.75 18.75 0 0 1 15.715 13.418zm0 0" fill="#2c2f38"/><path d="M308.965 406.07c0 29.25-23.711 52.965-52.965 52.965-29.25 0-52.965-23.715-52.965-52.965 0-29.254 23.715-52.965 52.965-52.965 29.254 0 52.965 23.711 52.965 52.965zm0 0" fill="#f0c419"/><path d="M97.105 220.691c.016 48.746 39.528 88.258 88.274 88.274H326.62c48.746-.016 88.258-39.528 88.277-88.274l-3.27-109.816C397.364 46.113 339.969-.008 273.657 0h-35.312C172.03-.008 114.637 46.113 100.37 110.875zm0 0" fill="#e64c3c"/><path d="M132.414 97.105h247.172c24.379 0 44.137 19.758 44.137 44.137v52.965c0 24.375-19.758 44.137-44.137 44.137H132.414c-24.375 0-44.137-19.762-44.137-44.137v-52.965c0-24.379 19.762-44.137 44.137-44.137zm0 0" fill="#67b9cc"/><path d="M185.379 308.965H326.62v44.14H185.38zm0 0" fill="#f29c1f"/><path d="M379.586 247.172H132.414c-29.238-.031-52.934-23.727-52.965-52.965v-52.965c.031-29.238 23.727-52.933 52.965-52.965h247.172c29.238.032 52.934 23.727 52.965 52.965v52.965c-.031 29.238-23.727 52.934-52.965 52.965zM132.414 105.93c-19.492.023-35.289 15.82-35.309 35.312v52.965c.02 19.492 15.817 35.29 35.31 35.309h247.17c19.493-.02 35.29-15.817 35.313-35.309v-52.965c-.023-19.492-15.82-35.289-35.312-35.312zm0 0" fill="#41767f"/><g fill="#e6e7e8"><path d="M123.586 211.863a8.829 8.829 0 0 1-8.828-8.828v-70.62a8.829 8.829 0 0 1 17.656 0v70.62a8.829 8.829 0 0 1-8.828 8.828zm0 0M388.414 211.863a8.829 8.829 0 0 1-8.828-8.828v-70.62a8.829 8.829 0 0 1 17.656 0v70.62a8.829 8.829 0 0 1-8.828 8.828zm0 0M176.55 158.898a8.83 8.83 0 0 1-6.238-15.07l17.653-17.656a8.828 8.828 0 0 1 12.375.11c3.406 3.402 3.453 8.91.11 12.374l-17.657 17.653a8.803 8.803 0 0 1-6.242 2.59zm0 0M176.55 203.035a8.827 8.827 0 0 1-6.238-15.07l61.793-61.793c3.461-3.344 8.97-3.297 12.375.11 3.403 3.402 3.45 8.91.106 12.374l-61.793 61.793a8.799 8.799 0 0 1-6.242 2.586zm0 0"/></g><path d="M206.21 424.164c-33.542-1.324-79.8-16.95-90.038-70.355-.531-2.293-.883-4.766-1.238-7.325-1.22-9.656 5.62-18.468 15.273-19.687 9.652-1.219 18.465 5.617 19.684 15.273a65.451 65.451 0 0 0 2.386 11.035c9.09 28.864 36.985 34.778 53.758 35.485M305.965 388.59c16.773-.707 44.578-6.707 53.672-35.485a65.826 65.826 0 0 0 2.383-11.035c1.257-9.644 10.07-16.457 19.718-15.242 9.649 1.215 16.5 10 15.328 19.656-.355 2.559-.707 5.032-1.238 7.325-10.328 53.406-56.582 69.03-90.039 70.355" fill="#bdc3c7"/><path d="M264.828 459.035V512h-17.656v-52.965a8.829 8.829 0 0 1 17.656 0zm0 0" fill="#2c3e50"/><path d="M256 467.863c-34.129 0-61.793-27.668-61.793-61.793 0-34.129 27.664-61.793 61.793-61.793s61.793 27.664 61.793 61.793c-.04 34.11-27.684 61.754-61.793 61.793zm0-105.933c-24.375 0-44.137 19.761-44.137 44.14 0 24.375 19.762 44.137 44.137 44.137s44.137-19.762 44.137-44.137c-.028-24.367-19.774-44.11-44.137-44.14zm0 0" fill="#d25627"/><path d="M256 423.723c-4.875 0-8.828-3.95-8.828-8.825v-17.656a8.829 8.829 0 0 1 17.656 0v17.656c0 4.875-3.953 8.825-8.828 8.825zm0 0" fill="#d25627"/></svg>