<svg height="512pt" viewBox="0 0 512.02 512" width="512pt" xmlns="http://www.w3.org/2000/svg"><path d="M326.629 379.598v-68.77H185.39v68.77" fill="#f29c1f"/><path d="M388.422 149.285v115.55a61.743 61.743 0 0 1-18.082 43.712 61.743 61.743 0 0 1-43.711 18.082H185.39a61.747 61.747 0 0 1-61.793-61.793v-115.55" fill="#f0c419"/><path d="M399.723 98.703l10.504-68.148a26.513 26.513 0 0 0-6.09-21.297A26.507 26.507 0 0 0 384.012.012h-256a26.51 26.51 0 0 0-20.13 9.246 26.513 26.513 0 0 0-6.089 21.297l10.504 68.058 72.723 41.903 156.324-15.082zm0 0" fill="#3b97d3"/><path d="M256.012 128.54a8.826 8.826 0 0 1-8.828-8.83V79.458a8.826 8.826 0 0 1 8.828-8.828c4.875 0 8.824 3.953 8.824 8.828v40.254c0 4.875-3.95 8.828-8.824 8.828zm0 0" fill="#9fc9d3"/><path d="M220.7 35.32c0 19.5-15.81 35.309-35.31 35.309-19.503 0-35.312-15.809-35.312-35.309S165.887.012 185.391.012c19.5 0 35.308 15.808 35.308 35.308zm0 0" fill="#f3d55b"/><path d="M344.285 61.805c0 14.625-11.855 26.48-26.48 26.48-14.63 0-26.485-11.855-26.485-26.48 0-14.63 11.856-26.485 26.485-26.485 14.625 0 26.48 11.856 26.48 26.485zm0 0" fill="#e64c3c"/><g fill="#e6e7e8"><path d="M238.355 198.629c0-17.063-11.855-30.895-26.484-30.895-14.625 0-26.48 13.832-26.48 30.895 0 17.066 11.855 30.898 26.48 30.898 14.629 0 26.484-13.832 26.484-30.898zm0 0M326.629 198.629c0-17.063-11.856-30.895-26.48-30.895s-26.485 13.832-26.485 30.895c0 17.066 11.86 30.898 26.484 30.898s26.48-13.832 26.48-30.898zm0 0M256.012 310.629c-64.36 0-65.106-46.04-65.106-46.5-.023-10.223 8.207-18.547 18.426-18.645 10.223-.097 18.606 8.07 18.777 18.29.38 3.07 6.735 9.656 27.903 9.656 21.164 0 27.523-6.594 27.922-10.078.66-9.711 8.558-17.352 18.289-17.688a18.577 18.577 0 0 1 18.89 18.465c0 .46-.746 46.5-65.101 46.5zm0 0"/></g><path d="M256.012 300.148c-52.36 0-52.969-34.957-52.969-35.312-.043-4.875 3.871-8.863 8.746-8.91s8.863 3.867 8.91 8.742c.106 1.957 1.989 17.824 35.313 17.824 33.484 0 35.218-16.023 35.312-17.851a9.318 9.318 0 0 1 9.031-8.516 8.736 8.736 0 0 1 8.622 8.71c0 .356-.61 35.313-52.965 35.313zm0 0" fill="#e64c3c"/><path d="M282.492 229.527c0 14.625-11.855 26.485-26.48 26.485-14.63 0-26.485-11.86-26.485-26.485s11.856-26.484 26.485-26.484c14.625 0 26.48 11.86 26.48 26.484zm0 0" fill="#e64c3c"/><path d="M256.84 167.734h-.828c132.41 0 203.031-44.136 203.031-70.62S370.77 119.71 256.012 119.71c-114.762 0-203.035-49.082-203.035-22.598s70.62 70.621 203.035 70.621zm0 0" fill="#2980ba"/><path d="M229.527 215.742c0 7.613-6.172 13.785-13.785 13.785-7.61 0-13.781-6.172-13.781-13.785 0-7.61 6.172-13.781 13.781-13.781 7.613 0 13.785 6.172 13.785 13.781zm0 0M308.977 215.742c0 7.613-6.172 13.785-13.786 13.785-7.613 0-13.78-6.172-13.78-13.785 0-7.61 6.167-13.781 13.78-13.781 7.614 0 13.786 6.172 13.786 13.781zm0 0" fill="#2c2f38"/><path d="M224.922 210.988c0 4.88-3.953 8.828-8.828 8.828s-8.828-3.949-8.828-8.828c0-4.875 3.953-8.824 8.828-8.824s8.828 3.95 8.828 8.824zm0 0M304.371 210.988c0 4.88-3.953 8.828-8.828 8.828s-8.828-3.949-8.828-8.828c0-4.875 3.953-8.824 8.828-8.824s8.828 3.95 8.828 8.824zm0 0" fill="#e6e7e8"/><path d="M512.012 504.152v7.86h-512v-7.86A120.541 120.541 0 0 1 33.82 418.88 82.853 82.853 0 0 1 89.7 397.25h332.62a82.853 82.853 0 0 1 55.88 21.629 120.545 120.545 0 0 1 33.812 85.273zm0 0" fill="#24ae5f"/><path d="M229.527 512.012H70.63l29.926-127.117a20.788 20.788 0 0 1 21.539-14.125h267.832a20.9 20.9 0 0 1 21.625 14.125l29.84 127.117H282.492" fill="#4fba6f"/><path d="M335.457 432.207v.355s-44.137 44.137-52.965 79.45h-52.965c-8.828-35.313-52.965-79.45-52.965-79.45v-.355c23.13-2.559 52.965-31.512 52.965-31.512h52.965s29.836 28.953 52.965 31.512zm0 0" fill="#ecf0f1"/><path d="M264.836 432.563v79.449h-17.652v-79.45a8.826 8.826 0 0 1 8.828-8.828c4.875 0 8.824 3.954 8.824 8.829zm0 0" fill="#95a5a5"/><path d="M186.492 370.492H322.77v32H186.492zm0 0" fill="#ecf0f1"/><path d="M361.941 380.566v33.368c0 16.246-11.918 19.863-26.484 18.273a186.493 186.493 0 0 1-52.965-18.273h-52.965a186.451 186.451 0 0 1-52.965 18.273c-14.566 1.59-26.484-2.027-26.484-18.273v-33.368a21.22 21.22 0 0 1 2.031-9.796c7.68-15.098 35.399-7.86 55.438 0a224.556 224.556 0 0 1 21.98 9.796h52.965a224.971 224.971 0 0 1 21.98-9.796c20.04-7.86 47.758-15.098 55.438 0a21.22 21.22 0 0 1 2.031 9.796zm0 0" fill="#e64c3c"/><path d="M247.184 361.941h17.652c9.754 0 17.656 7.903 17.656 17.657v35.308c0 9.75-7.902 17.656-17.656 17.656h-17.652c-9.75 0-17.657-7.906-17.657-17.656v-35.308c0-9.754 7.907-17.657 17.657-17.657zm0 0" fill="#c03a2b"/></svg>