<svg height="512pt" viewBox="0 0 512 512" width="512pt" xmlns="http://www.w3.org/2000/svg"><path d="M414.898 512H512v-7.855a138.922 138.922 0 0 0-4.063-33.547l-8.207-33.278c-9.523-34.715-41.43-58.511-77.418-57.734H89.688c-35.988-.777-67.894 23.02-77.417 57.734l-8.207 33.278A138.922 138.922 0 0 0 0 504.145V512zm0 0" fill="#2980ba"/><path d="M185.379 282.16H326.62v97.746H185.38zm0 0" fill="#f29c1f"/><path d="M388.414 180.965v66.207a61.747 61.747 0 0 1-61.793 61.793H185.38a61.747 61.747 0 0 1-61.793-61.793v-83.863a85.04 85.04 0 0 0 6.71-7.942 122.318 122.318 0 0 0 19.774-36.195c8.828-26.48 17.653-35.309 35.309-35.309s35.312 26.48 97.105 26.48 70.621-26.48 70.621-26.48a564.758 564.758 0 0 0 21.54 72.563c.183.367.332.75.44 1.148 1.677 3.973 3.353 7.68 5.032 10.946.793 1.675 1.676 3.175 2.469 4.59a40.366 40.366 0 0 0 5.828 7.855zm0 0M335.45 353.105A172.689 172.689 0 0 0 256 397.242a172.689 172.689 0 0 0-79.45-44.137zm0 0" fill="#f0c419"/><path d="M441.379 512H70.62l29.926-144.773a20.785 20.785 0 0 1 21.539-14.122h54.465A172.689 172.689 0 0 1 256 397.242a172.689 172.689 0 0 1 79.45-44.137h54.464a20.899 20.899 0 0 1 21.629 14.122zm0 0" fill="#3b97d3"/><g fill="#2fa8cc"><path d="M273.656 203.035a8.799 8.799 0 0 1-6.242-2.586A21.937 21.937 0 0 0 256 194.207a21.948 21.948 0 0 0-11.441 6.27c-3.47 3.351-8.985 3.296-12.387-.122s-3.434-8.933-.067-12.39A38.807 38.807 0 0 1 256 176.55a38.807 38.807 0 0 1 23.895 11.414 8.827 8.827 0 1 1-6.238 15.07zm0 0M176.64 191.734c.012.414-.019.828-.09 1.239a8.824 8.824 0 0 1-8.738 7.59 5.932 5.932 0 0 1-1.234-.086l-7.328-1.063-35.664-5.117v-8.918a84.587 84.587 0 0 0 6.71-7.945l30.368 4.328 8.383 1.234a8.83 8.83 0 0 1 7.594 8.738zm0 0M382.586 195.18l-9.621 1.324-20.215 2.91-7.328 1.063c-.406.07-.82.101-1.235.085a8.831 8.831 0 0 1-5.738-2.117 8.908 8.908 0 0 1-1.941-2.472 7.06 7.06 0 0 1-.973-3 9.063 9.063 0 0 1 .356-4.063.68.68 0 0 1 .086-.351 15.58 15.58 0 0 1 1.59-2.563 6.92 6.92 0 0 1 1.148-1.144 8.816 8.816 0 0 1 4.238-1.856l8.387-1.234 19.152-2.739a5.16 5.16 0 0 1 1.149-.09l3.004-.44c.183.366.332.753.44 1.148 1.677 3.972 3.353 7.68 5.032 10.945.793 1.68 1.676 3.18 2.469 4.594zm0 0"/><path d="M380.117 190.586a8.731 8.731 0 0 1-7.152 5.918l-20.215 2.91-7.328 1.063c-.406.07-.82.101-1.235.085a8.831 8.831 0 0 1-5.738-2.117 8.908 8.908 0 0 1-1.941-2.472 8.661 8.661 0 0 1-1.059-3 7.835 7.835 0 0 1 .442-4.063.68.68 0 0 1 .086-.351 15.58 15.58 0 0 1 1.59-2.563 6.92 6.92 0 0 1 1.148-1.144 8.816 8.816 0 0 1 4.238-1.856l8.387-1.234 19.152-2.739a5.16 5.16 0 0 1 1.149-.09 8.926 8.926 0 0 1 3.445.708c1.676 3.972 3.351 7.68 5.031 10.945zm0 0"/></g><path d="M291.309 512l-17.653-66.207h-35.312L229.516 512zm0 0" fill="#c03a2b"/><path d="M299.52 424.344l-18.098 18.094a26.6 26.6 0 0 1-18.711 7.769h-13.418a26.603 26.603 0 0 1-18.715-7.77l-18.098-18.093 17.407-30.414L256 397.242l40.094-4.047 4.414 32.368zm0 0" fill="#e64c3c"/><path d="M256 397.242a280.682 280.682 0 0 0-47.977 30.703 8.687 8.687 0 0 1-10.925.309c-14.082-10.684-48.856-40.14-55.856-75.149h35.309A172.689 172.689 0 0 1 256 397.242zm0 0M370.758 353.105c-7 35.008-41.774 64.465-55.856 75.149a8.687 8.687 0 0 1-10.925-.309A280.682 280.682 0 0 0 256 397.242a172.689 172.689 0 0 1 79.45-44.137zm0 0" fill="#e6e7e8"/><path d="M414.898 141.242a183.384 183.384 0 0 1-26.484 87.656v-25.863a40.484 40.484 0 0 1-5.828-7.855c-.793-1.414-1.676-2.914-2.469-4.594-1.68-3.266-3.355-6.973-5.031-10.945a6.395 6.395 0 0 0-.441-1.149 564.388 564.388 0 0 1-21.54-72.562s-8.828 26.484-70.62 26.484-79.45-26.484-97.106-26.484-26.48 8.828-35.309 35.312a122.25 122.25 0 0 1-19.773 36.192 84.587 84.587 0 0 1-6.711 7.945v44.137s-26.48-44.137-26.48-88.274C97.105 105.93 88.276 0 255.558 0H256c167.723 0 158.898 105.93 158.898 141.242zm0 0" fill="#f29c1f"/><path d="M297.734 260.414c-7.132 13.957-29.398 15.934-41.558 15.934-12.188 0-34.422-1.977-41.555-15.934a179.535 179.535 0 0 0 41.555 5.207 179.357 179.357 0 0 0 41.558-5.207zm0 0M229.516 195.805c0-10.45-7.903-18.922-17.653-18.922s-17.656 8.472-17.656 18.922c0 10.453 7.906 18.925 17.656 18.925s17.653-8.472 17.653-18.925zm0 0" fill="#2c2f38"/><path d="M216.813 179.387a8.827 8.827 0 0 0-11.391 5.113c-1.734 4.555.555 9.656 5.113 11.39a8.833 8.833 0 0 0 11.39-5.113 8.833 8.833 0 0 0-5.113-11.39zm0 0" fill="#fff"/><path d="M317.793 195.805c0-10.45-7.902-18.922-17.656-18.922-9.75 0-17.653 8.472-17.653 18.922 0 10.453 7.903 18.925 17.653 18.925 9.754 0 17.656-8.472 17.656-18.925zm0 0" fill="#2c2f38"/><path d="M306.578 184.5a8.827 8.827 0 0 0-11.39-5.113 8.833 8.833 0 0 0-5.114 11.39 8.833 8.833 0 0 0 11.39 5.114 8.827 8.827 0 0 0 5.114-11.391zm0 0" fill="#fff"/><path d="M203.035 238.344c-24.379 0-44.137-19.762-44.137-44.137s19.758-44.137 44.137-44.137c24.375 0 44.137 19.762 44.137 44.137-.027 24.363-19.774 44.11-44.137 44.137zm0-70.621c-14.625 0-26.484 11.859-26.484 26.484s11.86 26.484 26.484 26.484 26.48-11.859 26.48-26.484c-.015-14.621-11.863-26.465-26.48-26.484zm0 0M308.965 238.344c-24.375 0-44.137-19.762-44.137-44.137s19.762-44.137 44.137-44.137c24.379 0 44.14 19.762 44.14 44.137-.03 24.363-19.773 44.11-44.14 44.137zm0-70.621c-14.625 0-26.48 11.859-26.48 26.484s11.855 26.484 26.48 26.484 26.484-11.859 26.484-26.484c-.015-14.621-11.863-26.465-26.484-26.484zm0 0" fill="#2fa8cc"/></svg>