<svg height="512pt" viewBox="0 0 512 512" width="512pt" xmlns="http://www.w3.org/2000/svg"><path d="M185.379 292.05H326.62v77.966H185.38zm0 0" fill="#f29c1f"/><path d="M361.93 297.754v.09a60.83 60.83 0 0 1-35.309 11.12H185.38a60.83 60.83 0 0 1-35.309-11.12v-.09c-8.828-82.36-17.656-132.414 17.653-165.34h172.14c35.309 32.926 30.895 82.98 22.067 165.34zm0 0M414.898 512H512v-7.855a138.922 138.922 0 0 0-4.063-33.547l-8.207-33.278a75.418 75.418 0 0 0-46.168-51.644l-92.16-32.57H150.598l-92.16 32.57A75.427 75.427 0 0 0 12.27 437.32l-8.208 33.278A138.922 138.922 0 0 0 0 504.145V512zm0 0" fill="#f0c419"/><path d="M256 414.898c-66.531 0-114.555-49.804-119.813-55.484a8.446 8.446 0 0 1-2.277-6.437 8.451 8.451 0 0 1 3.23-6.016 9.885 9.885 0 0 1 13.301.894c4.68 5.055 47.399 49.387 105.559 49.387s100.883-44.332 105.559-49.387a9.872 9.872 0 0 1 13.3-.894 8.451 8.451 0 0 1 3.23 6.016 8.446 8.446 0 0 1-2.276 6.437c-5.258 5.68-53.282 55.484-119.813 55.484zm0 0" fill="#805333"/><g fill="#f29c1f"><path d="M220.691 485.516h-79.449a26.069 26.069 0 0 1-13.203-3.504c-4.129-2.496-5.488-7.848-3.05-12.016a8.828 8.828 0 0 1 11.972-3.215 8.502 8.502 0 0 0 4.281 1.082h79.45c4.87-.008 8.82-3.957 8.824-8.828a8.829 8.829 0 0 1 17.656 0c-.016 14.617-11.863 26.465-26.48 26.48zm0 0M370.758 485.516h-79.45c-14.617-.016-26.464-11.864-26.48-26.48a8.829 8.829 0 0 1 17.656 0c.004 4.87 3.954 8.82 8.825 8.827h79.449a8.492 8.492 0 0 0 4.281-1.082 8.828 8.828 0 0 1 11.973 3.215c2.437 4.168 1.078 9.52-3.051 12.016a26.058 26.058 0 0 1-13.203 3.504zm0 0"/><path d="M185.379 485.516c-4.875 0-8.828-3.95-8.828-8.825v-8.828a8.829 8.829 0 0 1 17.656 0v8.828c0 4.875-3.953 8.825-8.828 8.825zm0 0M326.621 485.516c-4.875 0-8.828-3.95-8.828-8.825v-8.828a8.829 8.829 0 0 1 17.656 0v8.828c0 4.875-3.953 8.825-8.828 8.825zm0 0"/></g><path d="M335.45 141.242c35.308 32.926 35.308 74.153 26.48 156.512v.09C353.105 380.293 388.414 512 388.414 512h52.965a852.54 852.54 0 0 1 12.184-126.324c8.12-55.438 15.71-108.754 5.472-164.985-3.09-17.039-10.242-48.023-18.89-79.625l-29.22-88.101a65.48 65.48 0 0 0-4.855-8.828C388.414 17.657 353.105 0 308.965 0 264.828 0 256 8.828 256 8.828S247.172 0 203.035 0s-79.45 17.656-97.105 44.137a65.48 65.48 0 0 0-4.856 8.828l-29.219 88.101c-8.648 31.602-15.8 62.586-18.89 79.625-10.238 56.23-2.649 109.547 5.472 164.985A852.54 852.54 0 0 1 70.621 512h52.965s35.312-131.707 26.484-214.156v-.09c-8.828-82.36-8.828-123.586 26.48-156.512zm0 0" fill="#2c2f38"/><path d="M440.145 141.066c-.586.102-1.176.16-1.766.176H73.62c-.59-.015-1.18-.074-1.766-.176a8.764 8.764 0 0 1-5.808-4.132 8.766 8.766 0 0 1-.813-7.079l21.188-70.62a8.72 8.72 0 0 1 8.387-6.27H417.19a8.72 8.72 0 0 1 8.387 6.27l21.188 70.62a8.751 8.751 0 0 1-.813 7.079 8.764 8.764 0 0 1-5.808 4.132zm0 0" fill="#c03a2b"/><path d="M301.11 255.45c-4.868 15.023-27.77 22.402-40.173 24.573-12.425 2.176-35.44 4.204-45.12-8.273 14.464.871 28.98.102 43.273-2.29a201.154 201.154 0 0 0 42.02-14.01zm0 0M231.082 182.863a87.747 87.747 0 0 0-24.664-10.133 62.81 62.81 0 0 0-35.379.711c4.102-14.941 39.852-11.18 56.293-3.972a8.35 8.35 0 0 1 5.469 5.691 8.344 8.344 0 0 1-1.719 7.703zm0 0M229.383 200.219c0-10.45-7.903-18.922-17.653-18.922-9.753 0-17.656 8.473-17.656 18.922 0 10.453 7.903 18.926 17.656 18.926 9.75 0 17.653-8.473 17.653-18.926zm0 0" fill="#2c2f38"/><path d="M216.68 183.8a8.827 8.827 0 0 0-11.39 5.114 8.823 8.823 0 0 0 5.112 11.387 8.828 8.828 0 0 0 11.391-5.11 8.833 8.833 0 0 0-5.113-11.39zm0 0" fill="#fff"/><path d="M279.707 184.715a49.194 49.194 0 0 1 24.86-17.32 35.398 35.398 0 0 1 36.304 11.527c-.137-.133.137-2.95.086-3.387a11.927 11.927 0 0 0-.918-3.316 16.754 16.754 0 0 0-4.469-5.84 35.932 35.932 0 0 0-16.39-7.496 44.904 44.904 0 0 0-24.082 1.191 36.967 36.967 0 0 0-12.664 7.465c-3.243 2.965-8.043 8.43-5.957 13.402a28.353 28.353 0 0 0 3.23 3.774zm0 0" fill="#2c2f38"/><path d="M317.66 200.219c0-10.45-7.906-18.922-17.656-18.922s-17.656 8.473-17.656 18.922c0 10.453 7.906 18.926 17.656 18.926s17.656-8.473 17.656-18.926zm0 0" fill="#2c2f38"/><path d="M306.445 188.914a8.827 8.827 0 0 0-11.39-5.113 8.833 8.833 0 0 0-5.114 11.39 8.833 8.833 0 0 0 11.391 5.114c4.555-1.735 6.844-6.836 5.113-11.39zm0 0" fill="#fff"/></svg>