<svg height="512pt" viewBox="0 0 512 512" width="512pt" xmlns="http://www.w3.org/2000/svg"><path d="M185.379 295.09H326.62v71.89H185.38zm0 0" fill="#f29c1f"/><path d="M414.898 512H512v-7.855a138.922 138.922 0 0 0-4.063-33.547l-8.207-33.278c-9.523-34.715-41.43-58.511-77.418-57.734H89.688c-35.988-.777-67.894 23.02-77.417 57.734l-8.207 33.278A138.922 138.922 0 0 0 0 504.145V512zm0 0" fill="#e57e25"/><path d="M441.379 512H70.62l29.906-144.746c3.063-9.14 11.989-14.992 21.59-14.149h267.82a20.844 20.844 0 0 1 21.59 14.149zm0 0" fill="#2c2f38"/><path d="M388.414 114.758v132.414a61.747 61.747 0 0 1-61.793 61.793H185.38a61.747 61.747 0 0 1-61.793-61.793V114.758zm0 0" fill="#f0c419"/><path d="M391.945 132.414h-271.89a17.686 17.686 0 0 1-13.989-6.934 17.672 17.672 0 0 1-3.046-15.312l20.656-77.418C128.824 13.434 146.32-.008 166.312 0h179.375c19.993-.008 37.489 13.434 42.637 32.75l20.656 77.418a17.683 17.683 0 0 1-17.035 22.246zm0 0" fill="#e57e25"/><path d="M264.828 61.793v70.621h-17.656V61.793a8.829 8.829 0 0 1 17.656 0zm0 0M264.828 0v17.656a8.829 8.829 0 0 1-17.656 0V0zm0 0" fill="#f29c1f"/><path d="M397.242 512H114.758s35.312-52.965 35.312-88.277v-70.618h35.309v70.618H326.62v-70.618h35.309v70.618c0 35.312 35.312 88.277 35.312 88.277zm0 0" fill="#d25627"/><g fill="#2c2f38"><path d="M297.734 247.172c-7.132 13.957-29.398 15.933-41.558 15.933-12.188 0-34.422-1.976-41.555-15.933a179.535 179.535 0 0 0 41.555 5.207 179.356 179.356 0 0 0 41.558-5.207zm0 0M232.879 155.27a87.8 87.8 0 0 0-26.129-5.297 62.774 62.774 0 0 0-34.605 7.379c1.207-15.45 37.023-18.504 54.53-14.532a8.36 8.36 0 0 1 6.442 4.559 8.359 8.359 0 0 1-.238 7.89zm0 0M229.516 182.566c0-10.453-7.903-18.925-17.653-18.925s-17.656 8.472-17.656 18.925c0 10.45 7.906 18.922 17.656 18.922s17.653-8.472 17.653-18.922zm0 0"/></g><path d="M216.813 166.145a8.827 8.827 0 0 0-11.391 5.113 8.827 8.827 0 0 0 5.113 11.39 8.833 8.833 0 0 0 11.39-5.113 8.833 8.833 0 0 0-5.113-11.39zm0 0" fill="#fff"/><path d="M279.121 155.27a87.824 87.824 0 0 1 26.129-5.297 62.774 62.774 0 0 1 34.605 7.379c-1.207-15.45-37.023-18.504-54.53-14.532a8.366 8.366 0 0 0-6.442 4.559 8.359 8.359 0 0 0 .238 7.89zm0 0M317.793 182.566c0-10.453-7.902-18.925-17.656-18.925-9.75 0-17.653 8.472-17.653 18.925 0 10.45 7.903 18.922 17.653 18.922 9.754 0 17.656-8.472 17.656-18.922zm0 0" fill="#2c2f38"/><path d="M306.578 171.258a8.833 8.833 0 0 0-11.39-5.113 8.833 8.833 0 0 0-5.114 11.39c1.735 4.555 6.836 6.844 11.39 5.113a8.827 8.827 0 0 0 5.114-11.39zm0 0" fill="#fff"/></svg>