<svg height="512pt" viewBox="0 0 512 512" width="512pt" xmlns="http://www.w3.org/2000/svg"><path d="M185.379 291.309H326.62v79.449H185.38zm0 0" fill="#f29c1f"/><path d="M414.898 512H512v-7.855a138.922 138.922 0 0 0-4.063-33.547l-8.207-33.278c-9.523-34.715-41.43-58.511-77.418-57.734H89.688c-35.988-.777-67.894 23.02-77.417 57.734l-8.207 33.278A138.922 138.922 0 0 0 0 504.145V512zm0 0" fill="#2c3e50"/><path d="M441.379 512H70.62l29.926-144.773a20.785 20.785 0 0 1 21.539-14.122h267.828a20.899 20.899 0 0 1 21.629 14.122zm0 0" fill="#35495e"/><path d="M388.414 247.172a61.747 61.747 0 0 1-61.793 61.793H185.38a61.747 61.747 0 0 1-61.793-61.793v-52.965h264.828zm0 0" fill="#f0c419"/><path d="M417.633 94.809a48.05 48.05 0 0 0-2.735-6.532c-12.449-24.984-35.312-35.312-44.14-61.793a31.352 31.352 0 0 0-26.48 17.653s0-26.48-35.313-26.48A77.327 77.327 0 0 1 256 0a215.547 215.547 0 0 1-61.793 8.828c-35.309 0-44.137 26.48-44.137 26.48a27.358 27.358 0 0 0-17.656-8.824c0 26.48-22.863 27.98-35.309 52.965a100.818 100.818 0 0 0-8.3 20.215s-.086 0 0 .086zm0 0" fill="#805333"/><path d="M114.758 88.277h282.484c19.5 0 35.309 15.809 35.309 35.309v88.277c0 19.5-15.809 35.309-35.309 35.309H114.758c-19.5 0-35.309-15.809-35.309-35.309v-88.277c0-19.5 15.809-35.309 35.309-35.309zm0 0" fill="#2c3e50"/><path d="M158.898 88.277h194.207c24.375 0 44.137 19.762 44.137 44.137v70.621c0 24.375-19.762 44.137-44.137 44.137H158.898c-24.378 0-44.14-19.762-44.14-44.137v-70.62c0-24.376 19.762-44.138 44.14-44.138zm0 0" fill="#35495e"/><path d="M238.344 167.723c0 24.379-19.762 44.14-44.137 44.14s-44.137-19.761-44.137-44.14c0-24.375 19.762-44.137 44.137-44.137s44.137 19.762 44.137 44.137zm0 0" fill="#2c3e50"/><path d="M220.691 167.723c0 14.629-11.859 26.484-26.484 26.484s-26.484-11.855-26.484-26.484c0-14.625 11.859-26.48 26.484-26.48s26.484 11.855 26.484 26.48zm0 0" fill="#90bae1"/><path d="M361.93 167.723c0 24.379-19.758 44.14-44.137 44.14-24.375 0-44.137-19.761-44.137-44.14 0-24.375 19.762-44.137 44.137-44.137 24.379 0 44.137 19.762 44.137 44.137zm0 0" fill="#2c3e50"/><g fill="#bdc3c7"><path d="M215.48 420.281c-46.695-24.453-47.757-65.324-47.757-67.176H150.07c0 2.118.618 53.227 57.203 82.891a8.54 8.54 0 0 1 4.59 7.68V512h17.653v-68.324a26.358 26.358 0 0 0-14.036-23.395zm0 0M361.93 353.105c0 2.118-.618 53.227-57.203 82.891a8.54 8.54 0 0 0-4.59 7.68V512h-17.653v-68.324a26.358 26.358 0 0 1 14.036-23.395c47.226-24.719 47.757-66.734 47.757-67.176zm0 0M194.207 353.105s8.828 44.137 61.793 44.137 61.793-44.137 61.793-44.137"/></g><path d="M264.828 432.55V512h-17.656v-79.45a8.829 8.829 0 0 1 17.656 0zm0 0" fill="#fff"/><path d="M344.277 167.723c0 14.629-11.859 26.484-26.484 26.484s-26.484-11.855-26.484-26.484c0-14.625 11.859-26.48 26.484-26.48s26.484 11.855 26.484 26.48zm0 0" fill="#90bae1"/></svg>