<svg height="512pt" viewBox="0 0 512 512" width="512pt" xmlns="http://www.w3.org/2000/svg"><path d="M414.898 512H512v-7.855a138.922 138.922 0 0 0-4.063-33.547l-8.207-33.278c-9.523-34.715-41.43-58.511-77.418-57.734H89.688c-35.988-.777-67.894 23.02-77.417 57.734l-8.207 33.278A138.922 138.922 0 0 0 0 504.145V512zm0 0" fill="#35495e"/><path d="M512 132.414s-26.484 44.137-123.586 61.793H123.586C26.484 176.551 0 132.414 0 132.414l58.113-26.484H441.38zm0 0" fill="#2c3e50"/><path d="M185.379 299.035H326.62v70.356H185.38zm0 0" fill="#f29c1f"/><path d="M388.414 146.625v100.547a60.734 60.734 0 0 1-12.27 36.812L324.68 313.38H182.555l-46.785-29.484a60.955 60.955 0 0 1-12.184-36.723V146.625zm0 0" fill="#f0c419"/><path d="M128.531 86.156l32.133-70.62A26.58 26.58 0 0 1 184.762 0h142.476a26.59 26.59 0 0 1 24.102 15.535l32.129 70.621-129.676 48.555zm0 0M441.379 512H70.62l29.906-144.746c3.063-9.14 11.989-14.992 21.59-14.149h267.82a20.844 20.844 0 0 1 21.59 14.149zm0 0" fill="#2c3e50"/><path d="M255.648 273.656c26.48 0 26.48 44.137 97.102 44.137s61.793-35.309 61.793-35.309c-26.48 17.653-61.793-8.828-88.273-35.312-26.485-26.48-61.793-8.828-70.622-8.828H256c-8.828 0-44.137-17.653-70.621 8.828-26.48 26.484-61.793 52.965-88.274 35.312 0 0-8.828 35.309 61.793 35.309 70.618 0 70.618-44.137 97.102-44.137zm0 0" fill="#2c2f38"/><path d="M150.07 353.105l33.016 49.61h145.828l33.016-49.61zm0 0" fill="#e6e7e8"/><path d="M256 158.898a578.682 578.682 0 0 0 185.379-26.484 127.807 127.807 0 0 1 70.621 0c0-35.309-44.137-61.793-88.277-52.965A1081.645 1081.645 0 0 1 256 97.105 1081.645 1081.645 0 0 1 88.277 79.45C44.137 70.621 0 97.105 0 132.414a127.807 127.807 0 0 1 70.621 0A578.682 578.682 0 0 0 256 158.898zm0 0" fill="#35495e"/><path d="M291.309 388.414s64.082 8.828 79.449 70.621c0 0-52.965 8.828-52.965 52.965 0 0-61.793-26.484-61.793-105.93C256 485.516 194.207 512 194.207 512c0-44.137-52.965-52.965-52.965-52.965 15.367-61.793 79.45-70.62 79.45-70.62zm0 0" fill="#e64c3c"/><path d="M267.527 406.07h-23.054c-8.63 0-15.996-6.242-17.414-14.754l-2.942-17.656a17.652 17.652 0 0 1 17.414-20.555h28.938a17.652 17.652 0 0 1 17.414 20.555l-2.942 17.656c-1.418 8.512-8.785 14.754-17.414 14.754zm0 0" fill="#c03a2b"/><path d="M232.879 172.922a87.922 87.922 0 0 0-26.129-5.297 62.842 62.842 0 0 0-34.605 7.379c1.207-15.445 37.023-18.5 54.53-14.527a8.351 8.351 0 0 1 6.442 4.558 8.35 8.35 0 0 1-.238 7.887zm0 0M229.516 200.219c0-10.45-7.903-18.922-17.653-18.922s-17.656 8.473-17.656 18.922c0 10.453 7.906 18.926 17.656 18.926s17.653-8.473 17.653-18.926zm0 0" fill="#2c2f38"/><path d="M216.813 183.8a8.827 8.827 0 1 0-6.278 16.5 8.827 8.827 0 1 0 6.278-16.5zm0 0" fill="#fff"/><path d="M279.121 172.922a87.947 87.947 0 0 1 26.129-5.297 62.842 62.842 0 0 1 34.605 7.379c-1.207-15.445-37.023-18.5-54.53-14.527a8.357 8.357 0 0 0-6.442 4.558 8.35 8.35 0 0 0 .238 7.887zm0 0M317.793 200.219c0-10.45-7.902-18.922-17.656-18.922-9.75 0-17.653 8.473-17.653 18.922 0 10.453 7.903 18.926 17.653 18.926 9.754 0 17.656-8.473 17.656-18.926zm0 0" fill="#2c2f38"/><path d="M306.578 188.914a8.827 8.827 0 0 0-11.39-5.113c-4.555 1.734-6.844 6.832-5.114 11.387 1.735 4.558 6.836 6.847 11.39 5.113a8.823 8.823 0 0 0 5.114-11.387zm0 0" fill="#fff"/></svg>