<svg height="512pt" viewBox="0 0 512 512" width="512pt" xmlns="http://www.w3.org/2000/svg"><path d="M187.035 288.344h141.242v85.383H187.035zm0 0" fill="#f29c1f"/><path d="M414.898 512H512v-7.855a93.907 93.907 0 0 0-4.063-27.454l-8.207-39.37c-9.523-34.716-41.43-58.512-77.418-57.735H89.688c-35.988-.777-67.894 23.02-77.417 57.734l-8.207 39.371A93.907 93.907 0 0 0 0 504.145V512zm0 0" fill="#f0c419"/><path d="M167.723 467.863l-8.825 8.828 8.825 17.653V512H70.62l29.926-144.773a20.785 20.785 0 0 1 21.539-14.122h27.984s0 35.31 17.653 52.965c0 0-26.48 17.653-17.653 35.309a109.183 109.183 0 0 0 17.653 26.484zm0 0M441.379 512h-97.102v-17.656l8.828-17.653-8.828-8.828a109.183 109.183 0 0 0 17.653-26.484c8.828-17.656-17.653-35.309-17.653-35.309 17.653-17.656 17.653-52.965 17.653-52.965h27.984a20.899 20.899 0 0 1 21.629 14.122zm0 0" fill="#b19046"/><path d="M361.93 441.379a109.183 109.183 0 0 1-17.653 26.484l8.828 8.828-8.828 17.653V512H167.723v-17.656l-8.825-17.653 8.825-8.828a109.183 109.183 0 0 1-17.653-26.484c-8.828-17.656 17.653-35.309 17.653-35.309-17.653-17.656-17.653-52.965-17.653-52.965h211.86s0 35.31-17.653 52.965c0 0 26.48 17.653 17.653 35.309zm0 0" fill="#f0c419"/><path d="M406.07 105.93s8.828 44.14 35.309 52.968c21.851 8.332 36.023 29.59 35.312 52.965 0 0-44.14-17.656-35.312 26.48 0 0-44.137-17.652-52.965-52.964l-17.93-60.414zm0 0" fill="#c03a2b"/><path d="M220.691 0h70.618a8.826 8.826 0 0 1 8.828 8.828v35.309h-88.274V8.828A8.826 8.826 0 0 1 220.691 0zm0 0" fill="#f29c1f"/><path d="M129.59 70.621a61.531 61.531 0 0 1 55.789-35.312H326.62a61.531 61.531 0 0 1 55.79 35.312l6.003 52.965v123.586a61.747 61.747 0 0 1-61.793 61.793H185.38a61.747 61.747 0 0 1-61.793-61.793V123.586zm0 0" fill="#f0c419"/><path d="M282.492 171.035a8.625 8.625 0 0 1-6.785-3.347l-35.312-44.633a9.666 9.666 0 0 1 1.12-13.118 8.516 8.516 0 0 1 6.477-2.128 8.52 8.52 0 0 1 5.957 3.308l35.309 44.637c3.125 3.988 2.633 9.71-1.121 13.117a8.5 8.5 0 0 1-5.645 2.164zm0 0M335.441 171.035a8.501 8.501 0 0 1-5.652-2.164 9.667 9.667 0 0 1-1.121-13.117l35.312-44.637a8.502 8.502 0 0 1 12.43-1.18 9.666 9.666 0 0 1 1.121 13.118l-35.308 44.632a8.623 8.623 0 0 1-6.782 3.348zm0 0" fill="#35495e"/><g fill="#805333"><path d="M238.344 423.723c-4.875 0-8.828-3.95-8.828-8.825v-8.828a8.829 8.829 0 0 1 17.656 0v8.828c0 4.875-3.953 8.825-8.828 8.825zm0 0M273.656 423.723c-4.875 0-8.828-3.95-8.828-8.825v-8.828a8.829 8.829 0 0 1 17.656 0v8.828c0 4.875-3.953 8.825-8.828 8.825zm0 0M211.863 450.207a8.829 8.829 0 0 1-8.828-8.828v-8.828a8.829 8.829 0 0 1 17.656 0v8.828a8.829 8.829 0 0 1-8.828 8.828zm0 0M256 459.035a8.829 8.829 0 0 1-8.828-8.828v-8.828a8.829 8.829 0 0 1 17.656 0v8.828a8.829 8.829 0 0 1-8.828 8.828zm0 0M300.137 450.207a8.829 8.829 0 0 1-8.828-8.828v-8.828a8.829 8.829 0 0 1 17.656 0v8.828a8.829 8.829 0 0 1-8.828 8.828zm0 0M229.516 485.516a8.822 8.822 0 0 1-8.825-8.825v-8.828c0-4.875 3.95-8.828 8.825-8.828a8.826 8.826 0 0 1 8.828 8.828v8.828a8.823 8.823 0 0 1-8.828 8.825zm0 0M282.484 485.516c-4.875 0-8.828-3.95-8.828-8.825v-8.828c0-4.875 3.953-8.828 8.828-8.828s8.825 3.953 8.825 8.828v8.828a8.822 8.822 0 0 1-8.825 8.825zm0 0"/></g><path d="M123.586 70.621h264.828c9.75 0 17.656 7.902 17.656 17.656v17.653c0 9.754-7.906 17.656-17.656 17.656H123.586c-9.75 0-17.656-7.902-17.656-17.656V88.277c0-9.754 7.906-17.656 17.656-17.656zm0 0" fill="#e64c3c"/><path d="M282.484 158.898h52.965c4.875 0 8.828 3.95 8.828 8.825v26.484c0 9.75-7.906 17.656-17.656 17.656H291.31c-9.75 0-17.653-7.906-17.653-17.656v-26.484c0-4.875 3.953-8.825 8.828-8.825zm0 0" fill="#2c3e50"/><path d="M301.242 242.207c-4.867 15.023-27.77 22.406-40.172 24.574-12.425 2.176-35.441 4.203-45.12-8.273 14.464.87 28.98.101 43.273-2.29a201.154 201.154 0 0 0 42.02-14.011zm0 0" fill="#2c2f38"/><path d="M231.215 169.621a87.747 87.747 0 0 0-24.664-10.133 62.81 62.81 0 0 0-35.38.711c4.102-14.941 39.852-11.18 56.294-3.972a8.35 8.35 0 0 1 5.469 5.691 8.344 8.344 0 0 1-1.72 7.703zm0 0" fill="#805333"/><path d="M229.516 186.98c0-10.453-7.903-18.925-17.653-18.925s-17.656 8.472-17.656 18.925c0 10.45 7.906 18.922 17.656 18.922s17.653-8.472 17.653-18.922zm0 0" fill="#2c2f38"/><path d="M216.813 170.559c-4.56-1.735-9.657.554-11.391 5.113s.555 9.656 5.113 11.39a8.833 8.833 0 0 0 11.39-5.113 8.833 8.833 0 0 0-5.113-11.39zm0 0" fill="#fff"/></svg>