<svg height="512pt" viewBox="0 0 512 512" width="512pt" xmlns="http://www.w3.org/2000/svg"><path d="M414.898 512H512v-7.855a138.922 138.922 0 0 0-4.063-33.547l-8.207-33.278c-9.523-34.715-41.43-58.511-77.418-57.734H89.688c-35.988-.777-67.894 23.02-77.417 57.734l-8.207 33.278A138.922 138.922 0 0 0 0 504.145V512zm0 0" fill="#67b9cc"/><path d="M150.07 459.035c0 26.48-26.484 52.965-26.484 52.965H70.62l29.926-144.773a17.08 17.08 0 0 1 11.21-12.004 123.43 123.43 0 0 0 29.485 68.5zm0 0M441.379 512h-52.965s-26.484-26.484-26.484-52.965l8.828-35.312a123.654 123.654 0 0 0 29.484-68.59 17.488 17.488 0 0 1 11.301 12.094zm0 0" fill="#2fa8cc"/><path d="M388.414 512H123.586s26.484-26.484 26.484-52.965h93.926A50.531 50.531 0 0 1 256 476.691a50.531 50.531 0 0 1 12.004-17.656h93.926c0 26.48 26.484 52.965 26.484 52.965zm0 0" fill="#e57e25"/><path d="M388.414 123.586v123.586a53.319 53.319 0 0 1-.617 8.387H124.203a53.319 53.319 0 0 1-.617-8.387V123.586zm0 0" fill="#f0c419"/><path d="M114.758 70.621h282.484c9.75 0 17.656 7.902 17.656 17.656v17.653c0 9.754-7.906 17.656-17.656 17.656H114.758c-9.75 0-17.653-7.902-17.653-17.656V88.277c0-9.754 7.903-17.656 17.653-17.656zm0 0" fill="#35495e"/><g fill="#2c3e50"><path d="M194.207 0h123.586c39.004 0 70.621 31.617 70.621 70.621H123.586C123.586 31.617 155.203 0 194.207 0zm0 0M141.242 105.93v17.656h-17.656V105.93c0-4.875 3.953-8.825 8.828-8.825s8.828 3.95 8.828 8.825zm0 0M176.55 105.93v17.656h-17.652V105.93a8.822 8.822 0 0 1 8.825-8.825 8.823 8.823 0 0 1 8.828 8.825zm0 0M211.863 105.93v17.656h-17.656V105.93c0-4.875 3.953-8.825 8.828-8.825s8.828 3.95 8.828 8.825zm0 0M247.172 105.93v17.656h-17.656V105.93c0-4.875 3.953-8.825 8.828-8.825s8.828 3.95 8.828 8.825zm0 0M282.484 105.93v17.656h-17.656V105.93c0-4.875 3.953-8.825 8.828-8.825s8.828 3.95 8.828 8.825zm0 0M317.793 105.93v17.656h-17.656V105.93c0-4.875 3.953-8.825 8.828-8.825s8.828 3.95 8.828 8.825zm0 0M353.105 105.93v17.656H335.45V105.93c0-4.875 3.953-8.825 8.828-8.825s8.828 3.95 8.828 8.825zm0 0M388.414 105.93v17.656h-17.656V105.93c0-4.875 3.953-8.825 8.828-8.825s8.828 3.95 8.828 8.825zm0 0"/></g><path d="M414.898 326.621a30.841 30.841 0 0 0-17.656-8.828 100.107 100.107 0 0 1 3 37.34 123.654 123.654 0 0 1-29.484 68.59 27.327 27.327 0 0 0-8.828-17.653s-9.707 22.246-61.793 35.309a67.197 67.197 0 0 0-32.133 17.656A50.531 50.531 0 0 0 256 476.691a50.531 50.531 0 0 0-12.004-17.656 67.197 67.197 0 0 0-32.133-17.656c-52.082-13.063-61.793-35.309-61.793-35.309a27.327 27.327 0 0 0-8.828 17.653 123.43 123.43 0 0 1-29.484-68.5 100.746 100.746 0 0 1 3-37.43 30.819 30.819 0 0 0-17.653 8.828c-8.828-35.312 17.653-79.45 52.965-79.45 35.309 0 35.309-26.48 61.793-26.48 26.48 0 35.309 8.825 44.137 8.825s17.656-8.825 44.137-8.825c26.484 0 26.484 26.48 61.793 26.48 35.312 0 61.793 44.138 52.968 79.45zm0 0" fill="#e6e7e8"/><path d="M243.996 459.035H150.07l-8.828-35.312a27.327 27.327 0 0 1 8.828-17.653s9.711 22.246 61.793 35.309a67.197 67.197 0 0 1 32.133 17.656zm0 0M370.758 423.723l-8.828 35.312h-93.926a67.197 67.197 0 0 1 32.133-17.656c52.086-13.063 61.793-35.309 61.793-35.309a27.327 27.327 0 0 1 8.828 17.653zm0 0" fill="#f29c1f"/><path d="M297.734 251.586c-7.132 13.957-29.398 15.934-41.558 15.934-12.188 0-34.422-1.977-41.555-15.934a179.535 179.535 0 0 0 41.555 5.207 179.357 179.357 0 0 0 41.558-5.207zm0 0M232.879 159.68a87.917 87.917 0 0 0-26.129-5.293 62.774 62.774 0 0 0-34.605 7.379c1.207-15.45 37.023-18.504 54.53-14.532a8.351 8.351 0 0 1 6.442 4.559 8.35 8.35 0 0 1-.238 7.887zm0 0M229.516 186.98c0-10.453-7.903-18.925-17.653-18.925s-17.656 8.472-17.656 18.925c0 10.45 7.906 18.922 17.656 18.922s17.653-8.472 17.653-18.922zm0 0" fill="#2c2f38"/><path d="M216.813 170.559a8.833 8.833 0 0 0-11.391 5.113 8.827 8.827 0 0 0 5.113 11.39 8.833 8.833 0 0 0 11.39-5.113 8.833 8.833 0 0 0-5.113-11.39zm0 0" fill="#fff"/><path d="M279.121 159.68a87.942 87.942 0 0 1 26.129-5.293 62.774 62.774 0 0 1 34.605 7.379c-1.207-15.45-37.023-18.504-54.53-14.532a8.357 8.357 0 0 0-6.442 4.559 8.35 8.35 0 0 0 .238 7.887zm0 0M317.793 186.98c0-10.453-7.902-18.925-17.656-18.925-9.75 0-17.653 8.472-17.653 18.925 0 10.45 7.903 18.922 17.653 18.922 9.754 0 17.656-8.472 17.656-18.922zm0 0" fill="#2c2f38"/><path d="M306.578 175.672a8.827 8.827 0 0 0-11.39-5.113 8.833 8.833 0 0 0-5.114 11.39 8.833 8.833 0 0 0 11.39 5.113c4.56-1.734 6.849-6.835 5.114-11.39zm0 0" fill="#fff"/></svg>