<svg height="512pt" viewBox="0 0 512 512" width="512pt" xmlns="http://www.w3.org/2000/svg"><path d="M414.898 512H512v-7.855a138.922 138.922 0 0 0-4.063-33.547l-8.207-33.278c-9.523-34.715-41.43-58.511-77.418-57.734H89.688c-35.988-.777-67.894 23.02-77.417 57.734l-8.207 33.278A138.922 138.922 0 0 0 0 504.145V512zm0 0" fill="#35495e"/><path d="M441.379 512H70.62l29.926-144.773a17.779 17.779 0 0 1 12.8-12.622v-.09a27.785 27.785 0 0 1 8.739-1.41h267.828a20.899 20.899 0 0 1 21.629 14.122zm0 0" fill="#2c3e50"/><path d="M185.379 295.066H326.62v71.938H185.38zm0 0" fill="#f29c1f"/><path d="M256.973 112.285l-.973 2.473v194.207h-70.621a61.747 61.747 0 0 1-61.793-61.793v-44.137c26.484-17.656 35.312-79.45 61.793-97.105 16.95-11.297 44.578-4.59 71.594 6.355zm0 0" fill="#f0c419"/><path d="M388.414 194.207v52.965a61.747 61.747 0 0 1-61.793 61.793H256V114.758l.973-2.473c15.359 6.18 30.367 13.684 43.164 20.13a471.238 471.238 0 0 1 88.277 61.792zm0 0" fill="#bdc3c7"/><path d="M432.55 141.242c.075 9.301-.546 18.598-1.85 27.805a60.895 60.895 0 0 1-7.77 23.305c-11.121 17.48-28.692 7.683-34.516 1.855a471.238 471.238 0 0 0-88.277-61.793c-12.797-6.445-27.805-13.95-43.164-20.129-27.016-10.945-54.645-17.652-71.594-6.355-26.48 17.656-35.309 79.449-61.793 97.105v17.656s-26.219-24.629-35.309-88.277c-7.593-53.23 10.946-73.71 33.192-83.95a103.764 103.764 0 0 1 10.945-4.327 29.338 29.338 0 0 0 9.18-5.649C156.426 26.043 175.492 0 256 0c97.105 0 176.55 61.793 176.55 141.242zm0 0" fill="#67b9cc"/><path d="M147.863 80.156a8.785 8.785 0 0 1-6.27 2.649 8.917 8.917 0 0 1-6.265-2.649 48.948 48.948 0 0 1-13.86-31.691 103.764 103.764 0 0 1 10.946-4.328 29.338 29.338 0 0 0 9.18-5.649 9.31 9.31 0 0 1-.883 4.063c-5.824 11.652 6.976 24.98 7.152 25.156a8.796 8.796 0 0 1 0 12.45zm0 0" fill="#d1d4d1"/><path d="M282.484 273.656H256A8.829 8.829 0 0 1 256 256h22.828l15.07-15.07a8.813 8.813 0 0 1 6.239-2.586h17.656a8.829 8.829 0 0 1 0 17.656h-14l-15.07 15.07a8.813 8.813 0 0 1-6.239 2.586zm0 0" fill="#67b9cc"/><path d="M317.793 264.828a8.829 8.829 0 0 1-8.828-8.828v-17.656a8.829 8.829 0 0 1 17.656 0V256a8.829 8.829 0 0 1-8.828 8.828zm0 0" fill="#67b9cc"/><path d="M256 256v17.656h-31.691a20.891 20.891 0 0 0-15.008 6.266 8.951 8.951 0 0 1-12.535 0 8.9 8.9 0 0 1 0-12.535A38.902 38.902 0 0 1 224.309 256zm0 0" fill="#2c2f38"/><path d="M430.7 169.047a60.895 60.895 0 0 1-7.77 23.305 11.217 11.217 0 0 1-1.59-2.383C372.082 78.832 224.574 61.883 223.074 61.703a8.783 8.783 0 0 1-6.246-13.941 8.783 8.783 0 0 1 8.098-3.535c6.18.617 147.332 16.683 205.773 124.82zm0 0" fill="#d1d4d1"/><path d="M361.93 353.105l-27.684 34.602a29.635 29.635 0 0 1-22.992 9.535H200.75a29.638 29.638 0 0 1-22.996-9.535l-27.684-34.602zm0 0" fill="#2c2f38"/><g fill="#67b9cc"><path d="M353.105 450.207h-79.449a8.829 8.829 0 0 1 0-17.656h73.989l6.39-12.774a8.816 8.816 0 0 1 7.895-4.879h26.484c4.875 0 8.828 3.95 8.828 8.825a8.826 8.826 0 0 1-8.828 8.828h-21.027L361 445.328a8.823 8.823 0 0 1-7.895 4.879zm0 0"/><path d="M388.414 441.379a8.829 8.829 0 0 1-8.828-8.828v-17.653c0-4.878 3.953-8.828 8.828-8.828s8.828 3.95 8.828 8.828v17.653a8.829 8.829 0 0 1-8.828 8.828zm0 0M361.93 512h-19.86l-19.863-26.484h-48.55c-4.876 0-8.829-3.95-8.829-8.825a8.826 8.826 0 0 1 8.828-8.828h52.965a8.933 8.933 0 0 1 7.063 3.532l26.48 35.308A9.048 9.048 0 0 1 361.93 512zm0 0M264.828 512h-18.45l-31.425-70.621H150.07a8.84 8.84 0 0 1-8.3-5.914l-27.98-79.45c-.18-.44-.267-.882-.442-1.41v-.09a27.785 27.785 0 0 1 8.738-1.41h9.445l24.805 70.618h64.355a8.717 8.717 0 0 1 8.032 5.21l35.312 79.446a8.98 8.98 0 0 1 .793 3.621zm0 0M231.215 178.45a87.747 87.747 0 0 0-24.664-10.134 62.81 62.81 0 0 0-35.38.711c4.106-14.941 39.852-11.18 56.294-3.972a8.35 8.35 0 0 1 5.469 5.691 8.344 8.344 0 0 1-1.72 7.703zm0 0"/></g><path d="M229.516 195.805c0-10.45-7.903-18.922-17.653-18.922s-17.656 8.472-17.656 18.922c0 10.453 7.906 18.925 17.656 18.925s17.653-8.472 17.653-18.925zm0 0" fill="#2c2f38"/><path d="M216.813 179.387a8.827 8.827 0 0 0-11.391 5.113c-1.734 4.555.555 9.656 5.113 11.39a8.833 8.833 0 0 0 11.39-5.113 8.833 8.833 0 0 0-5.113-11.39zm0 0" fill="#fff"/><path d="M279.84 180.3a49.21 49.21 0 0 1 24.86-17.32 35.398 35.398 0 0 1 36.304 11.528c-.137-.133.137-2.95.086-3.387a11.927 11.927 0 0 0-.918-3.316 16.754 16.754 0 0 0-4.469-5.84 35.932 35.932 0 0 0-16.39-7.496 44.904 44.904 0 0 0-24.083 1.191 36.967 36.967 0 0 0-12.664 7.465c-3.242 2.965-8.043 8.43-5.957 13.402a28.353 28.353 0 0 0 3.23 3.774zm0 0" fill="#67b9cc"/><path d="M317.793 195.805c0-10.45-7.902-18.922-17.656-18.922-9.75 0-17.653 8.472-17.653 18.922 0 10.453 7.903 18.925 17.653 18.925 9.754 0 17.656-8.472 17.656-18.925zm0 0" fill="#e64c3c"/><path d="M306.578 184.5a8.827 8.827 0 0 0-11.39-5.113 8.833 8.833 0 0 0-5.114 11.39 8.833 8.833 0 0 0 11.39 5.114 8.827 8.827 0 0 0 5.114-11.391zm0 0" fill="#fff"/></svg>