<svg height="512pt" viewBox="0 0 512 512" width="512pt" xmlns="http://www.w3.org/2000/svg"><path d="M414.898 512H512v-7.855a138.922 138.922 0 0 0-4.063-33.547l-8.207-33.278c-9.523-34.715-41.43-58.511-77.418-57.734H89.688c-35.988-.777-67.894 23.02-77.417 57.734l-8.207 33.278A138.922 138.922 0 0 0 0 504.145V512zm0 0" fill="#35495e"/><path d="M185.379 292.016H326.62v78.039H185.38zm0 0" fill="#bdc3c7"/><path d="M344.277 353.105h45.637a20.899 20.899 0 0 1 21.629 14.122L441.379 512H70.62l29.926-144.773a20.785 20.785 0 0 1 21.539-14.122zm0 0" fill="#2c3e50"/><path d="M388.414 194.207v52.965a61.747 61.747 0 0 1-61.793 61.793H185.38a61.747 61.747 0 0 1-61.793-61.793v-44.137c26.484-17.656 35.312-97.105 61.793-114.758 26.484-17.656 79.45 8.828 114.758 26.48 52.968 26.485 70.62 70.622 88.277 79.45zm0 0" fill="#e6e7e8"/><path d="M238.344 282.484a8.829 8.829 0 0 1-8.828-8.828V256a8.829 8.829 0 0 1 17.656 0v17.656a8.829 8.829 0 0 1-8.828 8.828zm0 0" fill="#bdc3c7"/><path d="M344.277 353.105S326.621 397.242 256 397.242s-88.277-44.137-88.277-44.137zm0 0" fill="#e6e7e8"/><path d="M247.172 432.55h17.656c9.75 0 17.656 7.907 17.656 17.657v26.484h-52.968v-26.484c0-9.75 7.906-17.656 17.656-17.656zm0 0" fill="#bdc3c7"/><path d="M229.516 467.863h52.968c19.5 0 35.309 15.809 35.309 35.309V512H194.207v-8.828c0-19.5 15.809-35.309 35.309-35.309zm0 0" fill="#e6e7e8"/><path d="M432.55 141.242c0 79.45-33.015 58.528-44.136 52.965-17.656-8.828-35.309-35.309-88.277-61.793-35.309-17.656-88.274-44.137-114.758-26.484-26.48 17.656-35.309 79.449-61.793 97.105v17.656s-26.219-24.629-35.309-88.277c-7.593-53.23 10.946-73.71 33.192-83.95a103.764 103.764 0 0 1 10.945-4.327 27.687 27.687 0 0 0 8.914-5.473C156.16 26.304 175.051 0 256 0c97.105 0 176.55 61.793 176.55 141.242zm0 0" fill="#35495e"/><path d="M147.773 78.477a8.75 8.75 0 0 1-6.265 2.648 8.902 8.902 0 0 1-6.27-2.648 49.515 49.515 0 0 1-13.77-30.012 103.764 103.764 0 0 1 10.946-4.328 27.687 27.687 0 0 0 8.914-5.473 6.375 6.375 0 0 1-.703 2.207c-5.828 11.652 6.973 25.07 7.148 25.16a8.79 8.79 0 0 1 0 12.446zm0 0" fill="#e6e7e8"/><g fill="#2c2f38"><path d="M291.309 282.484c-4.711 0-8.59-3.699-8.817-8.406-.508-3.242-6.656-9.25-26.492-9.25h-35.309c-4.878 0-8.828-3.953-8.828-8.828s3.95-8.828 8.828-8.828H256c43.637 0 44.137 25.402 44.137 26.484a8.826 8.826 0 0 1-8.828 8.828zm0 0M232.879 164.094a88.045 88.045 0 0 0-26.129-5.297 62.842 62.842 0 0 0-34.605 7.379c1.207-15.446 37.023-18.5 54.53-14.528a8.351 8.351 0 0 1 6.442 4.559 8.35 8.35 0 0 1-.238 7.887zm0 0M229.516 191.395c0-10.454-7.903-18.926-17.653-18.926s-17.656 8.472-17.656 18.926c0 10.449 7.906 18.921 17.656 18.921s17.653-8.472 17.653-18.921zm0 0"/></g><path d="M216.813 174.973a8.827 8.827 0 1 0-6.278 16.5 8.828 8.828 0 0 0 11.39-5.11 8.833 8.833 0 0 0-5.113-11.39zm0 0" fill="#fff"/><path d="M279.121 164.094a88.07 88.07 0 0 1 26.129-5.297 62.842 62.842 0 0 1 34.605 7.379c-1.207-15.446-37.023-18.5-54.53-14.528a8.357 8.357 0 0 0-6.442 4.559 8.35 8.35 0 0 0 .238 7.887zm0 0M317.793 191.395c0-10.454-7.902-18.926-17.656-18.926-9.75 0-17.653 8.472-17.653 18.926 0 10.449 7.903 18.921 17.653 18.921 9.754 0 17.656-8.472 17.656-18.921zm0 0" fill="#2c2f38"/><path d="M306.578 180.086a8.827 8.827 0 0 0-11.39-5.113 8.833 8.833 0 0 0-5.114 11.39c1.735 4.555 6.836 6.844 11.39 5.114 4.56-1.735 6.849-6.836 5.114-11.391zm0 0" fill="#fff"/></svg>