<svg height="512pt" viewBox="0 0 512 512" width="512pt" xmlns="http://www.w3.org/2000/svg"><path d="M115.2 88.098C119.792 38.156 161.706-.047 211.862 0h88.274c50.156-.047 92.07 38.156 96.664 88.098zm0 0" fill="#35495e"/><path d="M397.242 97.105v44.489c-31.16-12.535-73.18-16.86-141.242-16.86s-110.078 4.325-141.242 16.86V97.105c0-3.003.176-6.003.441-9.007C119.438 86.156 156.691 70.62 256 70.62s136.563 15.535 140.8 17.477c.266 3.004.442 6.004.442 9.007zm0 0" fill="#7f8c8d"/><path d="M185.379 284.473H326.62v93.125H185.38zm0 0" fill="#f29c1f"/><path d="M388.414 135.945v111.227a61.747 61.747 0 0 1-61.793 61.793H185.38a61.747 61.747 0 0 1-61.793-61.793V135.945zm0 0" fill="#f0c419"/><path d="M414.898 512H512v-7.855a138.922 138.922 0 0 0-4.063-33.547l-8.207-33.278c-9.523-34.715-41.43-58.511-77.418-57.734H89.688c-35.988-.777-67.894 23.02-77.417 57.734l-8.207 33.278A138.922 138.922 0 0 0 0 504.145V512zm0 0" fill="#2c3e50"/><path d="M256 353.105c-24.629 0-49.168 30.012-61.793 48.196a111.142 111.142 0 0 1-26.484-48.196zm0 0M344.277 353.105a111.142 111.142 0 0 1-26.484 48.196c-12.625-18.184-37.164-48.196-61.793-48.196zm0 0" fill="#e6e7e8"/><path d="M441.379 512H70.62l29.926-144.773a20.785 20.785 0 0 1 21.539-14.122h45.637a111.142 111.142 0 0 0 26.484 48.196 207.43 207.43 0 0 0 46.078 39.37c2.297 1.59 4.68 3.005 7.152 4.505h.09c2.735 1.676 5.473 3.355 8.473 5.031 2.648-1.414 5.031-2.914 7.504-4.324.09 0 .09 0 .09-.09a215.398 215.398 0 0 0 54.199-44.492 111.142 111.142 0 0 0 26.484-48.196h45.637a20.899 20.899 0 0 1 21.629 14.122zm0 0" fill="#35495e"/><path d="M397.242 166.664c-35.312-19.86-97.105-19.86-141.242-19.86s-105.93 0-141.242 19.86c-32.66 18.45-69.559 10.242-35.309-17.652a133.442 133.442 0 0 1 35.309-20.66c31.164-12.536 73.18-16.86 141.242-16.86s110.082 4.324 141.242 16.86a133.442 133.442 0 0 1 35.309 20.66c34.254 27.894-2.649 36.101-35.309 17.652zm0 0" fill="#2c3e50"/><path d="M203.035 247.172a8.829 8.829 0 0 1 0-17.656 66.705 66.705 0 0 0 22.535-7.895c18.438-9.2 31.727-3.3 36.672 1.656 3.414 3.399 3.469 8.914.125 12.383-3.347 3.469-8.86 3.613-12.379.324-.5-.398-5.625-4.011-16.523 1.43a74.62 74.62 0 0 1-30.43 9.758zm0 0" fill="#2c2f38"/><path d="M308.965 247.172a74.638 74.638 0 0 1-30.43-9.758c-11.254-5.629-16.34-1.578-16.558-1.406a9.027 9.027 0 0 1-12.329-.7 8.627 8.627 0 0 1 .11-12.03c4.945-4.958 18.234-10.856 36.672-1.657a65.371 65.371 0 0 0 22.722 7.895c4.813.195 8.602 4.187 8.547 9.007a8.749 8.749 0 0 1-8.734 8.649zm0 0" fill="#2c2f38"/><path d="M317.793 401.3A220.843 220.843 0 0 1 256 450.208a220.843 220.843 0 0 1-61.793-48.906c12.625-18.184 37.164-48.196 61.793-48.196s49.168 30.012 61.793 48.196zm0 0" fill="#955ba5"/><path d="M238.344 353.105h35.312v26.48c0 9.75-7.906 17.657-17.656 17.657s-17.656-7.906-17.656-17.656zm0 0" fill="#b49aca"/><g fill="#7f8c8d"><path d="M256 450.207a191.096 191.096 0 0 1-36.016 20.566c-1.855.797-3.797 1.59-5.738 2.387-.797.352-1.59.703-2.383.969V512h-17.656v-44.227a8.793 8.793 0 0 1 5.297-8.03c.23-.106.465-.192.707-.266a169.829 169.829 0 0 0 11.121-4.149 249.563 249.563 0 0 0 28.953-14.656c2.297 1.59 4.68 3.004 7.153 4.504h.09c2.734 1.676 5.472 3.355 8.472 5.031zm0 0M388.414 406.07a8.857 8.857 0 0 1-8.828 8.828 37.925 37.925 0 0 0-19.066 5.207 23.169 23.169 0 0 0 7.68 23.836 8.877 8.877 0 0 1 2.382 8.043 8.884 8.884 0 0 1-5.383 6.434c-1.765.703-44.668 17.832-71.062 26.656A29.6 29.6 0 0 0 273.657 512H256c.523-19.96 13.523-37.445 32.484-43.695 18.008-6.004 44.493-16.243 59.235-21.98a38.352 38.352 0 0 1-2.473-35.4 9.727 9.727 0 0 1 1.59-2.296 44 44 0 0 1 23.746-10.594 114.312 114.312 0 0 0-7.77-41.047 8.631 8.631 0 0 1-.882-3.883h18.363a150.687 150.687 0 0 1 8.121 52.965zm0 0"/><path d="M219.984 470.773c-1.855.797-3.797 1.59-5.738 2.387-.797.352-1.59.703-2.383.969v8.21h-.265a8.436 8.436 0 0 1-2.914-.53 591.575 591.575 0 0 1-14.477-5.207c-23.129-8.473-47.14-18.098-47.402-18.184a8.868 8.868 0 0 1-5.383-6.434 8.864 8.864 0 0 1 2.379-8.043c7-5.761 10-15.074 7.68-23.836a37.914 37.914 0 0 0-19.067-5.207 8.857 8.857 0 0 1-8.828-8.828c-.48-18 2.273-35.937 8.121-52.965h18.363a8.631 8.631 0 0 1-.882 3.883 113.545 113.545 0 0 0-7.77 41.047 44 44 0 0 1 23.746 10.594 9.727 9.727 0 0 1 1.59 2.297 38.352 38.352 0 0 1-2.473 35.398c8.918 3.531 22.156 8.649 35.223 13.418 4.059 1.586 8.031 3 11.828 4.414l3.18 1.059a8.773 8.773 0 0 1 5.472 5.558zm0 0"/></g><path d="M297.734 260.414c-7.132 13.957-29.398 15.934-41.558 15.934-12.188 0-34.422-1.977-41.555-15.934a179.535 179.535 0 0 0 41.555 5.207 179.357 179.357 0 0 0 41.558-5.207zm0 0M232.879 168.508a87.922 87.922 0 0 0-26.129-5.297 62.842 62.842 0 0 0-34.605 7.379c1.207-15.445 37.023-18.5 54.53-14.528a8.351 8.351 0 0 1 6.442 4.56 8.35 8.35 0 0 1-.238 7.886zm0 0M229.516 195.805c0-10.45-7.903-18.922-17.653-18.922s-17.656 8.472-17.656 18.922c0 10.453 7.906 18.925 17.656 18.925s17.653-8.472 17.653-18.925zm0 0" fill="#2c2f38"/><path d="M216.813 179.387a8.827 8.827 0 0 0-11.391 5.113c-1.734 4.555.555 9.656 5.113 11.39a8.833 8.833 0 0 0 11.39-5.113 8.833 8.833 0 0 0-5.113-11.39zm0 0" fill="#fff"/><path d="M279.121 168.508a87.947 87.947 0 0 1 26.129-5.297 62.842 62.842 0 0 1 34.605 7.379c-1.207-15.445-37.023-18.5-54.53-14.528a8.357 8.357 0 0 0-6.442 4.56 8.35 8.35 0 0 0 .238 7.886zm0 0M317.793 195.805c0-10.45-7.902-18.922-17.656-18.922-9.75 0-17.653 8.472-17.653 18.922 0 10.453 7.903 18.925 17.653 18.925 9.754 0 17.656-8.472 17.656-18.925zm0 0" fill="#2c2f38"/><path d="M306.578 184.5a8.827 8.827 0 0 0-11.39-5.113 8.833 8.833 0 0 0-5.114 11.39 8.833 8.833 0 0 0 11.39 5.114 8.827 8.827 0 0 0 5.114-11.391zm0 0" fill="#fff"/></svg>