<svg height="512pt" viewBox="0 0 512 512" width="512pt" xmlns="http://www.w3.org/2000/svg"><path d="M414.898 512H512v-7.855a138.922 138.922 0 0 0-4.063-33.547l-8.207-33.278c-9.523-34.715-41.43-58.511-77.418-57.734H89.688c-35.988-.777-67.894 23.02-77.417 57.734l-8.207 33.278A138.922 138.922 0 0 0 0 504.145V512zm0 0" fill="#c03a2b"/><path d="M185.379 303.027H326.62v56.016H185.38zm0 0" fill="#f29c1f"/><path d="M414.898 180.965V150.07c-.015-68.25-55.34-123.574-123.59-123.586h-70.617c-68.25.012-123.574 55.336-123.586 123.586v30.895zm0 0" fill="#b19046"/><path d="M388.414 154.484c0 1.942-.09 96.575-.351 98.516-2.907 31.746-29.563 56.027-61.442 55.965H185.38c-32.012.031-58.734-24.426-61.527-56.32-.176-1.766-.266-96.31-.266-98.16l131.312-75.036zm0 0" fill="#f0c419"/><path d="M291.309 70.621V17.656c0-9.75-7.903-17.656-17.653-17.656h-35.312c-9.75 0-17.653 7.906-17.653 17.656v52.965" fill="#f3d55b"/><path d="M388.063 253a43.39 43.39 0 0 0 .351-5.828v-46.25a17.755 17.755 0 0 0-4.445-11.797c-51.375-57.48-110.653-82.594-128.5-83.195h-.617c-18.352 1.03-75.942 26.218-126.805 83.175a17.822 17.822 0 0 0-4.461 11.829v46.238c0 1.855.09 3.707.266 5.473-33.368 11.21-70.18-6.356-62.059-38.84 4.062-16.418 19.687-34.782 37.781-52.348 7.77-7.504 16.067-14.918 24.012-21.894 13.508-11.915 26.394-22.774 35.312-31.688a168.003 168.003 0 0 1 61.793-37.164 115.643 115.643 0 0 1 34.16-6.977H256a118.027 118.027 0 0 1 35.133 7.328 166.957 166.957 0 0 1 60.824 36.813c9.18 9.18 22.508 20.39 36.457 32.66 7.504 6.621 15.094 13.508 22.422 20.48.344.301.668.626.973.973 17.832 17.477 33.191 35.485 37.25 51.817 8.035 32.132-27.895 49.699-60.996 39.195zm0 0" fill="#f3d55b"/><path d="M350.07 353.105v63.434a7.6 7.6 0 0 0-2.613.399A345.222 345.222 0 0 1 256 432.278a345.352 345.352 0 0 1-91.453-15.34 8.026 8.026 0 0 0-2.613-.399v-63.434zm0 0" fill="#e6e7e8"/><path d="M441.379 512H70.62l2.914-14.125 4.856-23.305 22.156-107.343a20.785 20.785 0 0 1 21.539-14.122h54.465v56.583c.75-.012 1.5.109 2.207.355A277.584 277.584 0 0 0 256 423.723a277.584 277.584 0 0 0 77.242-13.68 6.07 6.07 0 0 1 2.207-.355v-56.583h54.465a20.899 20.899 0 0 1 21.629 14.122l22.156 107.433 4.766 23.215zm0 0" fill="#e4c05c"/><g fill="#805333"><path d="M158.898 308.965a8.826 8.826 0 0 1-8.828-8.828v-70.621a8.823 8.823 0 0 1 8.828-8.825 8.822 8.822 0 0 1 8.825 8.825v70.62c0 4.876-3.95 8.829-8.825 8.829zm0 0M194.207 317.793a8.829 8.829 0 0 1-8.828-8.828v-35.309a8.829 8.829 0 0 1 17.656 0v35.309a8.829 8.829 0 0 1-8.828 8.828zm0 0M229.516 317.793c-4.875 0-8.825-3.953-8.825-8.828v-17.656a8.822 8.822 0 0 1 8.825-8.825 8.823 8.823 0 0 1 8.828 8.825v17.656a8.826 8.826 0 0 1-8.828 8.828zm0 0M353.105 308.965a8.826 8.826 0 0 1-8.828-8.828v-70.621a8.823 8.823 0 0 1 8.828-8.825 8.822 8.822 0 0 1 8.825 8.825v70.62c0 4.876-3.95 8.829-8.825 8.829zm0 0M317.793 317.793a8.829 8.829 0 0 1-8.828-8.828v-35.309a8.829 8.829 0 0 1 17.656 0v35.309a8.829 8.829 0 0 1-8.828 8.828zm0 0M282.484 317.793a8.829 8.829 0 0 1-8.828-8.828v-17.656c0-4.875 3.953-8.825 8.828-8.825s8.825 3.95 8.825 8.825v17.656c0 4.875-3.95 8.828-8.825 8.828zm0 0"/></g><path d="M339.773 426.371a6.674 6.674 0 0 1-1.41.621A297.823 297.823 0 0 1 256 441.38a297.796 297.796 0 0 1-82.36-14.387 6.618 6.618 0 0 1-1.413-.62 8.802 8.802 0 0 1-4.59-10.09 8.81 8.81 0 0 1 8.914-6.594c.75-.012 1.5.109 2.207.355A277.584 277.584 0 0 0 256 423.723a277.584 277.584 0 0 0 77.242-13.68 6.07 6.07 0 0 1 2.207-.355 8.807 8.807 0 0 1 8.914 6.593 8.802 8.802 0 0 1-4.59 10.09zm0 0M148.922 429.992v.09a9.173 9.173 0 0 1-1.676 3.793 366.888 366.888 0 0 1-68.504 62.41 8.628 8.628 0 0 1-5.207 1.59l4.856-23.305a314.764 314.764 0 0 0 54.554-51.11 8.822 8.822 0 0 1 10.625-3.19 8.83 8.83 0 0 1 5.352 9.722zm0 0M438.465 497.875a8.628 8.628 0 0 1-5.207-1.59 366.743 366.743 0 0 1-68.5-62.41c-2.953-3.898-2.18-9.453 1.719-12.402a8.852 8.852 0 0 1 12.402 1.722 315.399 315.399 0 0 0 54.82 51.465zm0 0" fill="#b19046"/><path d="M176.55 353.105v61.793a17.125 17.125 0 0 1-4.323 11.473 17.405 17.405 0 0 1-13.329 6.18h-8.828c-9.738-.028-17.629-7.914-17.656-17.653v-61.793zm0 0M379.586 353.105v61.793c-.027 9.739-7.914 17.625-17.656 17.653h-8.825a17.407 17.407 0 0 1-13.332-6.18 17.125 17.125 0 0 1-4.324-11.473v-61.793zm0 0" fill="#f3d55b"/><path d="M264.828 388.414a8.829 8.829 0 1 1-17.658-.002 8.829 8.829 0 0 1 17.658.002zm0 0M238.344 397.242a8.826 8.826 0 0 1-8.828 8.828c-4.875 0-8.825-3.953-8.825-8.828s3.95-8.828 8.825-8.828a8.826 8.826 0 0 1 8.828 8.828zm0 0M291.309 397.242c0 4.875-3.95 8.828-8.825 8.828a8.829 8.829 0 0 1 0-17.656c4.875 0 8.825 3.953 8.825 8.828zm0 0" fill="#95a5a5"/><path d="M264.828 476.691V512h-17.656v-35.309c0-4.878 3.953-8.828 8.828-8.828s8.828 3.95 8.828 8.828zm0 0" fill="#b19046"/><path d="M297.734 247.172c-7.132 13.957-29.398 15.933-41.558 15.933-12.188 0-34.422-1.976-41.555-15.933a179.535 179.535 0 0 0 41.555 5.207 179.356 179.356 0 0 0 41.558-5.207zm0 0" fill="#2c2f38"/><path d="M232.879 155.27a87.8 87.8 0 0 0-26.129-5.297 62.774 62.774 0 0 0-34.605 7.379c1.207-15.45 37.023-18.504 54.53-14.532a8.36 8.36 0 0 1 6.442 4.559 8.359 8.359 0 0 1-.238 7.89zm0 0" fill="#805333"/><path d="M229.516 182.566c0-10.453-7.903-18.925-17.653-18.925s-17.656 8.472-17.656 18.925c0 10.45 7.906 18.922 17.656 18.922s17.653-8.472 17.653-18.922zm0 0" fill="#2c2f38"/><path d="M216.813 166.145a8.827 8.827 0 0 0-11.391 5.113 8.827 8.827 0 0 0 5.113 11.39 8.833 8.833 0 0 0 11.39-5.113 8.833 8.833 0 0 0-5.113-11.39zm0 0" fill="#fff"/><path d="M279.121 155.27a87.824 87.824 0 0 1 26.129-5.297 62.774 62.774 0 0 1 34.605 7.379c-1.207-15.45-37.023-18.504-54.53-14.532a8.366 8.366 0 0 0-6.442 4.559 8.359 8.359 0 0 0 .238 7.89zm0 0" fill="#805333"/><path d="M317.793 182.566c0-10.453-7.902-18.925-17.656-18.925-9.75 0-17.653 8.472-17.653 18.925 0 10.45 7.903 18.922 17.653 18.922 9.754 0 17.656-8.472 17.656-18.922zm0 0" fill="#2c2f38"/><path d="M306.578 171.258a8.833 8.833 0 0 0-11.39-5.113 8.833 8.833 0 0 0-5.114 11.39c1.735 4.555 6.836 6.844 11.39 5.113a8.827 8.827 0 0 0 5.114-11.39zm0 0" fill="#fff"/></svg>