<svg height="512pt" viewBox="0 0 512 512" width="512pt" xmlns="http://www.w3.org/2000/svg"><path d="M123.586 132.414H88.277V88.277C88.293 39.531 127.805.02 176.551 0h158.898c48.746.02 88.258 39.531 88.274 88.277v44.137zm0 0M441.379 141.242h17.656c9.75 0 17.656 7.903 17.656 17.656v35.309c0 9.75-7.906 17.656-17.656 17.656H52.965c-9.75 0-17.656-7.906-17.656-17.656v-35.309c0-9.753 7.906-17.656 17.656-17.656zm0 0" fill="#bdc3c7"/><path d="M388.414 229.516h35.309c9.742-.028 17.629-7.914 17.656-17.653v-70.62c-.027-9.74-7.914-17.63-17.656-17.657H88.277c-9.738.027-17.629 7.918-17.656 17.656v70.621c.027 9.739 7.918 17.625 17.656 17.653zm0 0" fill="#e6e7e8"/><path d="M185.379 295.82H326.62v70.426H185.38zm0 0" fill="#f29c1f"/><path d="M414.898 512H512v-7.855a138.922 138.922 0 0 0-4.063-33.547l-8.207-33.278c-9.523-34.715-41.43-58.511-77.418-57.734H89.688c-35.988-.777-67.894 23.02-77.417 57.734l-8.207 33.278A138.922 138.922 0 0 0 0 504.145V512zm0 0" fill="#527f72"/><path d="M441.379 512H70.62L98.25 378.262l2.297-11.035a16.49 16.49 0 0 1 9.621-11.297 24.997 24.997 0 0 1 11.918-2.825h267.828a27.16 27.16 0 0 1 11.918 2.645v.09a16.732 16.732 0 0 1 9.711 11.387l2.207 10.949zm0 0" fill="#95a5a5"/><path d="M388.414 97.105v150.067a61.747 61.747 0 0 1-61.793 61.793H185.38a61.747 61.747 0 0 1-61.793-61.793V97.105zm0 0" fill="#f0c419"/><path d="M388.414 97.105v88.274c-35.309-8.828-35.309-35.309-35.309-35.309a74.126 74.126 0 0 1-70.62-26.484c-52.97 8.828-70.622-26.48-105.934-17.656-35.309 8.828-26.48 79.449-26.48 79.449-26.485-17.656-26.485-52.965-26.485-52.965V97.105c.707-34.253 31.602-61.796 69.648-61.796h125.532c38.046 0 68.941 27.543 69.648 61.796zm0 0" fill="#2c2f38"/><path d="M264.828 61.793a8.829 8.829 0 0 1-17.656 0 29.745 29.745 0 0 0-19.422-26.484h28.34a42.61 42.61 0 0 1 8.738 26.484zm0 0" fill="#7f8c8d"/><path d="M353.105 353.105a8.59 8.59 0 0 1-.62 3.266c-.794 2.027-20.743 49.7-96.485 49.7s-95.691-47.673-96.484-49.7a8.59 8.59 0 0 1-.621-3.266h18.804c5.473 9.446 25.512 35.31 78.301 35.31 52.879 0 72.828-25.864 78.39-35.31zm0 0" fill="#2c2f38"/><g fill="#7f8c8d"><path d="M187.234 416.75a8.951 8.951 0 0 1-12.535 0 51.148 51.148 0 0 0-29.043-15.094 54.383 54.383 0 0 1-47.406-23.394l2.297-11.035a16.49 16.49 0 0 1 9.621-11.297c.102.523.16 1.054.176 1.586 0 20.921 23.129 26.484 35.312 26.484 20.742 0 39.457 18.184 41.578 20.215a8.9 8.9 0 0 1 0 12.535zm0 0M413.75 378.176a54.348 54.348 0 0 1-47.406 23.48A51.148 51.148 0 0 0 337.3 416.75a8.951 8.951 0 0 1-12.535 0 8.9 8.9 0 0 1 0-12.535c2.12-2.031 20.836-20.215 41.578-20.215 12.183 0 35.312-5.563 35.312-26.484.008-.563.07-1.121.176-1.676a16.732 16.732 0 0 1 9.711 11.387zm0 0M203.035 485.516a8.826 8.826 0 0 1-6.242-15.067 59.695 59.695 0 0 0 15.07-37.898 8.826 8.826 0 0 1 8.828-8.828c4.875 0 8.825 3.953 8.825 8.828a77.615 77.615 0 0 1-20.239 50.379 8.796 8.796 0 0 1-6.242 2.586zm0 0M308.965 485.516a8.796 8.796 0 0 1-6.242-2.586 77.615 77.615 0 0 1-20.239-50.38 8.826 8.826 0 0 1 8.813-8.84c4.875-.007 8.836 3.942 8.84 8.817a60.42 60.42 0 0 0 15.07 37.922 8.826 8.826 0 0 1-6.242 15.066zm0 0"/></g><path d="M297.734 247.172c-7.132 13.957-29.398 15.933-41.558 15.933-12.188 0-34.422-1.976-41.555-15.933a179.535 179.535 0 0 0 41.555 5.207 179.356 179.356 0 0 0 41.558-5.207zm0 0M232.879 155.27a87.8 87.8 0 0 0-26.129-5.297 62.774 62.774 0 0 0-34.605 7.379c1.207-15.45 37.023-18.504 54.53-14.532a8.36 8.36 0 0 1 6.442 4.559 8.359 8.359 0 0 1-.238 7.89zm0 0M229.516 182.566c0-10.453-7.903-18.925-17.653-18.925s-17.656 8.472-17.656 18.925c0 10.45 7.906 18.922 17.656 18.922s17.653-8.472 17.653-18.922zm0 0" fill="#2c2f38"/><path d="M216.813 166.145a8.827 8.827 0 0 0-11.391 5.113 8.827 8.827 0 0 0 5.113 11.39 8.833 8.833 0 0 0 11.39-5.113 8.833 8.833 0 0 0-5.113-11.39zm0 0" fill="#fff"/><path d="M279.121 155.27a87.824 87.824 0 0 1 26.129-5.297 62.774 62.774 0 0 1 34.605 7.379c-1.207-15.45-37.023-18.504-54.53-14.532a8.366 8.366 0 0 0-6.442 4.559 8.359 8.359 0 0 0 .238 7.89zm0 0M317.793 182.566c0-10.453-7.902-18.925-17.656-18.925-9.75 0-17.653 8.472-17.653 18.925 0 10.45 7.903 18.922 17.653 18.922 9.754 0 17.656-8.472 17.656-18.922zm0 0" fill="#2c2f38"/><path d="M306.578 171.258a8.833 8.833 0 0 0-11.39-5.113 8.833 8.833 0 0 0-5.114 11.39c1.735 4.555 6.836 6.844 11.39 5.113a8.827 8.827 0 0 0 5.114-11.39zm0 0" fill="#fff"/></svg>