<svg height="512pt" viewBox="0 0 512 512" width="512pt" xmlns="http://www.w3.org/2000/svg"><path d="M423.723 229.516v-82.801a136.348 136.348 0 0 0-1.586-18.098c.086-.086.086-.176 0-.176C411.434 54.68 348.187-.03 273.657 0h-35.313c-74.531-.031-137.778 54.68-148.48 128.441-.087 0-.087.09 0 .176a143.936 143.936 0 0 0-1.587 21.453v79.446zm0 0" fill="#3b97d3"/><path d="M106.484 117.516h292.414v158.898H106.484zm0 0" fill="#f0c419"/><path d="M414.898 512H512v-7.855a138.922 138.922 0 0 0-4.063-33.547l-8.207-33.278c-9.523-34.715-41.43-58.511-77.418-57.734H89.688c-35.988-.777-67.894 23.02-77.417 57.734l-8.207 33.278A138.922 138.922 0 0 0 0 504.145V512zm0 0" fill="#bdc3c7"/><path d="M185.379 294.563H326.62v72.945H185.38zm0 0" fill="#f29c1f"/><path d="M441.379 512H70.62l11.918-57.555 6.09-29.398 11.918-57.82a20.785 20.785 0 0 1 21.539-14.122h267.828a20.899 20.899 0 0 1 21.629 14.122l11.918 57.82 6.09 29.398zm0 0" fill="#e6e7e8"/><g fill="#ecf0f1"><path d="M185.379 203.035h-17.656c-4.875 0-8.825-3.953-8.825-8.828s3.95-8.828 8.825-8.828h17.656a8.829 8.829 0 0 1 0 17.656zm0 0M185.379 238.344h-61.793a8.826 8.826 0 0 1-8.828-8.828c0-4.875 3.953-8.825 8.828-8.825h61.793c4.875 0 8.828 3.95 8.828 8.825a8.826 8.826 0 0 1-8.828 8.828zm0 0M344.277 203.035h-17.656a8.829 8.829 0 0 1 0-17.656h17.656a8.829 8.829 0 0 1 0 17.656zm0 0M388.414 238.344h-61.793a8.826 8.826 0 0 1-8.828-8.828c0-4.875 3.953-8.825 8.828-8.825h61.793c4.875 0 8.828 3.95 8.828 8.825a8.826 8.826 0 0 1-8.828 8.828zm0 0"/></g><path d="M194.117 401.656a10.295 10.295 0 0 1-6.09 10.856 6.644 6.644 0 0 1-2.648.797c-.707.086-69.121 10.238-97.191 38.312a9.638 9.638 0 0 1-5.649 2.824l6.09-29.398a246.896 246.896 0 0 1 78.3-29.305c8.829-1.855 14.743-2.648 15.536-2.828a10.29 10.29 0 0 1 7.644 1.953 10.268 10.268 0 0 1 4.008 6.79zm0 0M429.55 454.445a9.599 9.599 0 0 1-5.738-2.824c-28.16-28.16-96.484-38.226-97.19-38.312a6.644 6.644 0 0 1-2.65-.797 10.272 10.272 0 0 1-5.8-12.23 10.28 10.28 0 0 1 11.363-7.368c.793.18 6.707.973 15.535 2.828a247.425 247.425 0 0 1 78.39 29.305zm0 0" fill="#3b97d3"/><path d="M132.414 353.105a152.316 152.316 0 0 0 26.484 35.31s53.946 52.964 97.102 52.964 97.105-52.965 97.105-52.965a152.41 152.41 0 0 0 26.48-35.309H335.45S291.31 406.07 256 406.07s-79.45-52.965-79.45-52.965zm0 0" fill="#2980ba"/><path d="M297.734 229.516c-7.132 13.96-29.398 15.933-41.558 15.933-12.188 0-34.422-1.972-41.555-15.933a179.539 179.539 0 0 0 41.555 5.21 179.36 179.36 0 0 0 41.558-5.21zm0 0M232.879 142.027a87.8 87.8 0 0 0-26.129-5.297 62.808 62.808 0 0 0-34.605 7.38c1.207-15.45 37.023-18.505 54.53-14.532a8.356 8.356 0 0 1 6.442 4.563 8.351 8.351 0 0 1-.238 7.886zm0 0M229.516 169.324c0-10.449-7.903-18.922-17.653-18.922s-17.656 8.473-17.656 18.922 7.906 18.922 17.656 18.922 17.653-8.473 17.653-18.922zm0 0" fill="#2c2f38"/><path d="M216.813 152.902a8.833 8.833 0 0 0-11.391 5.114 8.833 8.833 0 0 0 5.113 11.39 8.827 8.827 0 0 0 11.39-5.113c1.731-4.555-.558-9.656-5.113-11.39zm0 0" fill="#fff"/><path d="M279.121 142.027a87.824 87.824 0 0 1 26.129-5.297 62.808 62.808 0 0 1 34.605 7.38c-1.207-15.45-37.023-18.505-54.53-14.532a8.362 8.362 0 0 0-6.442 4.563 8.351 8.351 0 0 0 .238 7.886zm0 0M317.793 169.324c0-10.449-7.902-18.922-17.656-18.922-9.75 0-17.653 8.473-17.653 18.922s7.903 18.922 17.653 18.922c9.754 0 17.656-8.473 17.656-18.922zm0 0" fill="#2c2f38"/><path d="M306.578 158.016a8.833 8.833 0 0 0-11.39-5.114 8.833 8.833 0 0 0-5.114 11.391c1.735 4.559 6.832 6.848 11.39 5.113s6.849-6.832 5.114-11.39zm0 0" fill="#fff"/><path d="M167.723 203.035h-44.137a8.829 8.829 0 0 1 0-17.656h35.312v-61.793c0-4.875 3.95-8.828 8.825-8.828a8.826 8.826 0 0 1 8.828 8.828v70.621a8.826 8.826 0 0 1-8.828 8.828zm0 0M388.414 203.035h-44.137a8.829 8.829 0 0 1-8.828-8.828v-70.621a8.829 8.829 0 0 1 17.656 0v61.793h35.31a8.829 8.829 0 0 1 0 17.656zm0 0" fill="#ecf0f1"/><path d="M370.758 88.277H141.242C112 88.301 88.301 112 88.277 141.242v88.274c.004 43.879 35.57 79.445 79.446 79.449h176.554c43.875-.004 79.446-35.57 79.446-79.45v-88.273C423.699 112 400 88.301 370.758 88.277zm17.656 150.067a35.3 35.3 0 0 1-35.309 35.312H158.898a35.3 35.3 0 0 1-35.313-35.312V150.07c-.007-7.027 2.778-13.77 7.747-18.738s11.711-7.754 18.738-7.746h211.86c7.027-.008 13.77 2.777 18.738 7.746s7.754 11.711 7.746 18.738zm0 0" fill="#e6e7e8"/></svg>