<svg height="512pt" viewBox="-4 0 512 512.211" width="512pt" xmlns="http://www.w3.org/2000/svg"><path d="M407.969 503.32h95.46v-7.722a136.766 136.766 0 0 0-3.991-32.977l-8.07-32.715c-9.364-34.125-40.731-57.515-76.106-56.754H88.273c-35.378-.761-66.746 22.63-76.105 56.754l-8.07 32.715a136.571 136.571 0 0 0-3.993 32.977v7.722zm0 0" fill="#f0c419"/><path d="M312.512 0c-78.102 0-69.422 26.035-86.778 26.035 0 0-27.597-12.672-78.101 0-34.715 8.676-69.426 34.711-60.746 95.457 0 0-26.989 33.668-15.535 89.207A183.111 183.111 0 0 0 79.942 235c-11.106 26.727-27.77 60.05-27.77 60.05a81.117 81.117 0 0 0 42.262-16.921 108.957 108.957 0 0 0 .175 18.309 96.934 96.934 0 0 0 18.309 50.68l.176.956a26.533 26.533 0 0 1 7.027-.957h263.29s50.593-52.066 50.593-156.203C434.004 86.781 390.614 0 312.512 0zm65.953 263.117c-8.488 24.356-31.48 40.66-57.274 40.613H182.344c-24.27.036-46.223-14.406-55.801-36.71v-.086a59.074 59.074 0 0 1-4.86-21.172 18.322 18.322 0 0 1-.085-2.172v-.086c16.488-32.281 21.261-72.027 26.035-95.977 8.676-43.39 34.71-60.746 52.066-60.746s60.746 26.031 104.137 34.711c41.738 8.332 75.496 72.98 77.926 124.27a60.353 60.353 0 0 1-3.297 17.355zm0 0" fill="#f3d55b"/><path d="M338.547 347.117h44.863a20.55 20.55 0 0 1 21.262 13.887l29.332 142.316H69.53L98.95 361.004a18.075 18.075 0 0 1 14.145-12.93 26.533 26.533 0 0 1 7.027-.957zm0 0" fill="#4482c3"/><path d="M182.344 295.05H321.19v60.747H182.344zm0 0" fill="#f29c1f"/><path d="M88.621 214c-1.734 5.207-4.164 11.453-7.203 18.656A8.198 8.198 0 0 1 79.941 235a183.111 183.111 0 0 1-8.59-24.3c.262-.778.52-1.56.782-2.255A8.7 8.7 0 0 1 88.62 214zm0 0M131.664 258.344c-1.648 2.949-3.297 5.898-5.121 8.59v.086a105.834 105.834 0 0 1-25.426 27.945 8.495 8.495 0 0 1-5.469 1.648 2.16 2.16 0 0 1-1.039-.176 108.957 108.957 0 0 1-.175-18.308 99.59 99.59 0 0 0 21.957-28.117 9.169 9.169 0 0 1 5.293-4.25 8.809 8.809 0 0 1 6.421.781 8.696 8.696 0 0 1 4.223 5.164 8.71 8.71 0 0 1-.664 6.637zm0 0" fill="#b19046"/><path d="M338.547 347.117v8.68a26.92 26.92 0 0 1-16.402 24.992l-60.747 25.168a25.534 25.534 0 0 1-19.265 0l-60.746-25.168a26.922 26.922 0 0 1-16.399-24.992v-8.68zm0 0" fill="#f0c419"/><path d="M295.16 512a8.661 8.661 0 0 1-7.976-5.262l-23.782-55.484h-23.27l-23.777 55.484a8.69 8.69 0 0 1-6.96 5.403 8.674 8.674 0 0 1-8.098-3.47 8.668 8.668 0 0 1-.89-8.765l26.03-60.746a8.676 8.676 0 0 1 7.973-5.262h34.711a8.674 8.674 0 0 1 7.977 5.262l26.035 60.746A8.682 8.682 0 0 1 295.16 512zm0 0" fill="#fff"/><path d="M147.633 503.32h-34.715a42.871 42.871 0 0 1-8.676-26.03c0-4.794 3.883-8.68 8.676-8.68s8.68 3.886 8.68 8.68c.043 14.358 11.672 25.991 26.035 26.03zm0 0M399.293 477.29a42.875 42.875 0 0 1-8.68 26.03h-34.71c14.359-.039 25.992-11.672 26.035-26.03 0-4.794 3.882-8.68 8.675-8.68s8.68 3.886 8.68 8.68zm0 0" fill="#285680"/><path d="M381.762 245.762c-1.336 32.457-28.086 58.058-60.57 57.968H182.343c-33.328.032-60.446-26.816-60.746-60.14v-.086c16.488-32.281 21.261-72.027 26.035-95.977 8.676-43.39 34.71-60.746 52.066-60.746s60.746 26.031 104.137 34.711c41.738 8.332 75.496 72.98 77.926 124.27zm0 0" fill="#f0c419"/><g fill="#2c2f38"><path d="M292.793 251.66c-7.012 13.723-28.898 15.664-40.852 15.664-11.98 0-33.84-1.941-40.851-15.664a176.708 176.708 0 0 0 40.851 5.121 176.285 176.285 0 0 0 40.852-5.12zm0 0M229.04 156.977a86.27 86.27 0 0 0-25.688-5.207 61.718 61.718 0 0 0-34.02 7.253c1.188-15.187 36.398-18.191 53.61-14.285a8.206 8.206 0 0 1 6.328 4.485 8.206 8.206 0 0 1-.23 7.754zm0 0M274.496 156.977a86.246 86.246 0 0 1 25.688-5.207 61.704 61.704 0 0 1 34.015 7.253c-1.187-15.187-36.394-18.191-53.605-14.285a8.212 8.212 0 0 0-6.332 4.485 8.217 8.217 0 0 0 .234 7.754zm0 0M181.121 171.29s2.473 11.085 12.031 8.925c9.563-2.164 11.383 1.988 19.621 1.324a32.742 32.742 0 0 1 8.422.516 14.3 14.3 0 0 0 5.996.097c2.746-.734 2.512-3.922 1.547-5.996-3.812-8.219-14.535-8.82-22.383-7.906a78.427 78.427 0 0 1-10.128 2.043 27.129 27.129 0 0 1-9.805-5.043 16.52 16.52 0 0 1 .441 6.855c-.992 1.887-5.742-.816-5.742-.816zm0 0"/><path d="M225.734 188.148c0-10.273-7.773-18.601-17.355-18.601-9.586 0-17.36 8.328-17.36 18.601 0 10.274 7.774 18.602 17.36 18.602 9.582 0 17.355-8.328 17.355-18.602zm0 0"/></g><path d="M213.242 172.008c-4.48-1.703-9.492.547-11.195 5.023a8.678 8.678 0 1 0 11.195-5.023zm0 0" fill="#fff"/><path d="M322.406 171.29s-2.472 11.085-12.031 8.925c-9.563-2.164-11.383 1.988-19.621 1.324a32.742 32.742 0 0 0-8.422.516 14.299 14.299 0 0 1-5.996.097c-2.746-.734-2.508-3.922-1.547-5.996 3.813-8.219 14.535-8.82 22.383-7.906a78.427 78.427 0 0 0 10.129 2.043 27.097 27.097 0 0 0 9.804-5.043 16.586 16.586 0 0 0-.44 6.855c.995 1.887 5.741-.816 5.741-.816zm0 0" fill="#2c2f38"/><path d="M312.512 188.148c0-10.273-7.774-18.601-17.36-18.601-9.582 0-17.355 8.328-17.355 18.601 0 10.274 7.773 18.602 17.355 18.602 9.586 0 17.36-8.328 17.36-18.602zm0 0" fill="#2c2f38"/><path d="M301.484 177.035a8.677 8.677 0 0 0-11.195-5.027c-4.48 1.703-6.73 6.715-5.027 11.195s6.715 6.73 11.195 5.027 6.73-6.718 5.027-11.195zm0 0" fill="#fff"/></svg>