<svg height="512pt" viewBox="0 0 512 512" width="512pt" xmlns="http://www.w3.org/2000/svg"><path d="M414.898 512H512v-7.855a138.922 138.922 0 0 0-4.063-33.547l-8.207-33.278c-9.523-34.715-41.43-58.511-77.418-57.734H89.688c-35.988-.777-67.894 23.02-77.417 57.734l-8.207 33.278A138.922 138.922 0 0 0 0 504.145V512zm0 0" fill="#e64c3c"/><path d="M105.93 132.414a31.356 31.356 0 0 1-26.48 17.656l-44.583-16.683c-1.554-40.02 18.95-77.672 53.41-98.078C150.07 0 256 0 256 0zm0 0" fill="#c03a2b"/><path d="M88.277 176.55c0 24.38-19.761 44.141-44.14 44.141C19.762 220.691 0 200.93 0 176.551c0-24.375 19.762-44.137 44.137-44.137 24.379 0 44.14 19.762 44.14 44.137zm0 0" fill="#f5efca"/><path d="M387.18 102.578C380.203 84.57 342.773 0 256 0c0 0-3.266 0-8.914.266C166.664 5.828 131.53 85.187 124.82 102.578zm0 0" fill="#e64c3c"/><path d="M111.668 355.223a17.13 17.13 0 0 0-11.121 12.004l-2.559 12.359L70.621 512H441.38l-27.277-132.414-2.559-12.36a17.55 17.55 0 0 0-11.211-12.093" fill="#c03a2b"/><path d="M388.414 120.23v126.942a61.388 61.388 0 0 1-4.68 23.57H128.266a61.388 61.388 0 0 1-4.68-23.57V120.23zm0 0" fill="#f0c419"/><path d="M385.344 155.238l-32.696-5.77a556.233 556.233 0 0 0-193.296 0l-32.696 5.77a17.645 17.645 0 0 1-14.418-3.86 17.664 17.664 0 0 1-6.308-13.526v-17.11a17.66 17.66 0 0 1 14.59-17.39l38.832-6.852a556.233 556.233 0 0 1 193.296 0l38.832 6.852a17.66 17.66 0 0 1 14.59 17.39v17.11a17.664 17.664 0 0 1-6.308 13.527c-4 3.355-9.278 4.77-14.418 3.86zm0 0" fill="#f9eab0"/><path d="M256 512a64.19 64.19 0 0 1 44.137-44.137c52.093-13.023 61.793-35.312 61.793-35.312a27.345 27.345 0 0 1 8.828 17.656 133.686 133.686 0 0 0 26.484-114.758 30.818 30.818 0 0 1 17.656 8.828c8.825-35.312-17.656-79.449-52.968-79.449-35.309 0-35.309-26.484-61.793-26.484-26.48 0-35.309 8.828-44.137 8.828s-17.656-8.828-44.137-8.828c-26.484 0-26.484 26.484-61.793 26.484-35.312 0-61.793 44.137-52.965 79.45a30.795 30.795 0 0 1 17.653-8.829 133.686 133.686 0 0 0 26.484 114.758 27.345 27.345 0 0 1 8.828-17.656s9.7 22.289 61.793 35.312A64.19 64.19 0 0 1 256 512zm0 0" fill="#e6e7e8"/><path d="M311.957 318.836a87.62 87.62 0 0 1-41.43-12.73 45.304 45.304 0 0 0-14.527-5.97 45.304 45.304 0 0 0-14.527 5.97c-17.211 9.023-43.223 22.652-78.293 1.601a8.827 8.827 0 0 1-2.97-12.078c2.497-4.16 7.88-5.527 12.056-3.059 26.574 15.922 44.863 6.356 61.011-2.105a51.135 51.135 0 0 1 22.723-7.98 51.135 51.135 0 0 1 22.723 7.98c16.156 8.465 34.449 18.05 61.011 2.105 4.176-2.468 9.559-1.101 12.055 3.059a8.827 8.827 0 0 1-2.969 12.078 70.759 70.759 0 0 1-36.863 11.129zm0 0" fill="#bdc3c7"/><path d="M232.879 168.508a87.922 87.922 0 0 0-26.129-5.297 62.842 62.842 0 0 0-34.605 7.379c1.207-15.445 37.023-18.5 54.53-14.528a8.351 8.351 0 0 1 6.442 4.56 8.35 8.35 0 0 1-.238 7.886zm0 0M229.516 195.805c0-10.45-7.903-18.922-17.653-18.922s-17.656 8.472-17.656 18.922c0 10.453 7.906 18.925 17.656 18.925s17.653-8.472 17.653-18.925zm0 0" fill="#2c2f38"/><path d="M216.813 179.387a8.827 8.827 0 0 0-11.391 5.113c-1.734 4.555.555 9.656 5.113 11.39a8.833 8.833 0 0 0 11.39-5.113 8.833 8.833 0 0 0-5.113-11.39zm0 0" fill="#fff"/><path d="M279.121 168.508a87.947 87.947 0 0 1 26.129-5.297 62.842 62.842 0 0 1 34.605 7.379c-1.207-15.445-37.023-18.5-54.53-14.528a8.357 8.357 0 0 0-6.442 4.56 8.35 8.35 0 0 0 .238 7.886zm0 0M317.793 195.805c0-10.45-7.902-18.922-17.656-18.922-9.75 0-17.653 8.472-17.653 18.922 0 10.453 7.903 18.925 17.653 18.925 9.754 0 17.656-8.472 17.656-18.925zm0 0" fill="#2c2f38"/><path d="M306.578 184.5a8.827 8.827 0 0 0-11.39-5.113 8.833 8.833 0 0 0-5.114 11.39 8.833 8.833 0 0 0 11.39 5.114 8.827 8.827 0 0 0 5.114-11.391zm0 0" fill="#fff"/></svg>