<svg height="512pt" viewBox="0 0 512 512" width="512pt" xmlns="http://www.w3.org/2000/svg"><path d="M97.633 380.996L88.277 511.73H0v-7.855a138.866 138.866 0 0 1 4.063-33.543l8.207-33.281c9.523-34.715 41.43-58.508 77.418-57.735zm0 0M512 503.875v7.855h-88.277l-9.532-131.882 1.766-.532h6.356c35.988-.773 67.894 23.02 77.417 57.735l8.208 33.281A138.866 138.866 0 0 1 512 503.875zm0 0" fill="#e57e25"/><path d="M441.379 511.73H70.62l27.012-130.734.265-1.148a386.112 386.112 0 0 0 79.184 14.035c5.648.441 11.563.883 17.742 1.238 18.008 1.234 38.313 1.852 61.176 1.852 22.953 0 43.254-.618 61.176-1.852 6.18-.355 12.094-.797 17.742-1.238a387.319 387.319 0 0 0 79.273-14.035zm0 0" fill="#f29c1f"/><path d="M433.7 132.145h34.163a8.829 8.829 0 0 1 8.828 8.828v88.277a8.829 8.829 0 0 1-8.828 8.828H44.137a8.829 8.829 0 0 1-8.828-8.828v-88.277a8.829 8.829 0 0 1 8.828-8.828zm0 0" fill="#7f6e5d"/><path d="M430.707 357.504a8.899 8.899 0 0 1 5.367 8.246 8.895 8.895 0 0 1-5.504 8.152c-4.054 1.754-8.883 3.586-14.613 5.414l-1.766.532C386.383 388.5 338.098 396.973 256 396.973c-82.008 0-130.297-8.473-158.102-17.125a23.722 23.722 0 0 1-1.855-.532c-5.73-1.828-10.559-3.66-14.613-5.414a8.895 8.895 0 0 1-5.504-8.152 8.899 8.899 0 0 1 5.367-8.246 114.462 114.462 0 0 0 33.465-22.324v-37.43A158.216 158.216 0 0 1 70.62 185.648C70.473 83.266 153.351.148 255.731 0c102.382-.148 185.5 82.73 185.648 185.11a158.31 158.31 0 0 1-44.137 112.64v37.43a114.462 114.462 0 0 0 33.465 22.324zm0 0" fill="#b19046"/><path d="M344.277 185.11c0 48.753-39.523 88.277-88.277 88.277s-88.277-39.524-88.277-88.278c0-48.75 39.523-88.273 88.277-88.273s88.277 39.523 88.277 88.273zm0 0" fill="#f0c419"/><path d="M256 361.664c-2.938 0-72.371-.105-99.895-9.285a8.829 8.829 0 0 1 5.586-16.742c24.836 8.277 93.621 8.37 94.309 8.37.691 0 69.492-.1 94.309-8.37a8.832 8.832 0 0 1 8.824 1.629 8.828 8.828 0 1 1-3.234 15.113c-27.528 9.18-96.958 9.285-99.899 9.285zm0 0" fill="#b19046"/><path d="M220.691 511.73h-52.968l52.968-70.62h52.965zm0 0" fill="#805333"/><path d="M238.344 441.11h52.965l52.968 70.62H291.31L256 464.68zm0 0" fill="#805333"/><path d="M334.918 393.883c.09.586.09 1.18 0 1.765a61.178 61.178 0 0 1-39.898 50.407 59.506 59.506 0 0 1-21.364 3.882h-35.312a59.506 59.506 0 0 1-21.364-3.882 61.178 61.178 0 0 1-39.898-50.407 5.817 5.817 0 0 1 0-1.765c5.648.441 11.563.883 17.742 1.238 3.363 21.422 21.836 37.2 43.52 37.164h35.312c21.684.035 40.156-15.742 43.52-37.164 6.18-.355 12.094-.797 17.742-1.238zm0 0" fill="#7f6e5d"/><g fill="#2c2f38"><path d="M297.734 229.25c-7.132 13.957-29.398 15.93-41.558 15.93-12.188 0-34.422-1.973-41.555-15.93a179.535 179.535 0 0 0 41.555 5.207 179.568 179.568 0 0 0 41.558-5.207zm0 0M232.879 137.344a87.922 87.922 0 0 0-26.129-5.297 62.842 62.842 0 0 0-34.605 7.379c1.207-15.45 37.023-18.5 54.53-14.528a8.342 8.342 0 0 1 6.204 12.446zm0 0M229.516 164.64c0-10.449-7.903-18.921-17.653-18.921s-17.656 8.472-17.656 18.922c0 10.453 7.906 18.925 17.656 18.925s17.653-8.472 17.653-18.925zm0 0"/></g><path d="M216.813 148.223a8.827 8.827 0 1 0-6.278 16.5 8.827 8.827 0 1 0 6.278-16.5zm0 0" fill="#fff"/><path d="M279.121 137.344a87.947 87.947 0 0 1 26.129-5.297 62.842 62.842 0 0 1 34.605 7.379c-1.207-15.45-37.023-18.5-54.53-14.528a8.348 8.348 0 0 0-6.442 4.559 8.35 8.35 0 0 0 .238 7.887zm0 0M317.793 164.64c0-10.449-7.902-18.921-17.656-18.921-9.75 0-17.653 8.472-17.653 18.922 0 10.453 7.903 18.925 17.653 18.925 9.754 0 17.656-8.472 17.656-18.925zm0 0" fill="#2c2f38"/><path d="M306.578 153.336a8.827 8.827 0 0 0-11.39-5.113 8.827 8.827 0 0 0 6.277 16.5c4.555-1.73 6.844-6.832 5.113-11.387zm0 0" fill="#fff"/><path d="M256 61.523c-68.254 0-123.586 55.332-123.586 123.586 0 68.258 55.332 123.59 123.586 123.59s123.586-55.332 123.586-123.59C379.574 116.863 324.25 61.54 256 61.523zm0 211.864c-48.754 0-88.277-39.524-88.277-88.278 0-48.75 39.523-88.273 88.277-88.273s88.277 39.523 88.277 88.273c-.02 48.75-39.53 88.262-88.277 88.278zm0 0" fill="#805333"/></svg>