<svg height="512pt" viewBox="0 0 512 512" width="512pt" xmlns="http://www.w3.org/2000/svg"><path d="M414.898 512H512v-7.855a138.922 138.922 0 0 0-4.063-33.547l-8.207-33.278c-9.523-34.715-41.43-58.511-77.418-57.734H89.688c-35.988-.777-67.894 23.02-77.417 57.734l-8.207 33.278A138.922 138.922 0 0 0 0 504.145V512zm0 0" fill="#4fba6f"/><path d="M441.379 512H70.62l11.828-57.29 5.031-24.1 10.508-51.024 1.762-8.387 10.594-26.48h136.828l17.656-.09h136.297l11.21 26.484 1.767 8.473 10.503 51.023 4.946 24.188zm0 0" fill="#4c8056"/><path d="M326.621 336.55V512H185.38V336.55zm0 0" fill="#2c2f38"/><path d="M238.344 372.79h35.312V512h-35.312zm0 0" fill="#2c2f38"/><g fill="#f0c419"><path d="M189.793 459.121a8.836 8.836 0 0 1-8.828 8.742h-.086a55.992 55.992 0 0 1-40.434-13.242c-1.058-1.148-2.117-2.297-3.09-3.441-1.5-1.59-3-3.27-4.675-4.77a26.64 26.64 0 0 0-20.746-4.765 45.231 45.231 0 0 0-26.13 11.21 7.48 7.48 0 0 1-3.355 1.856l5.031-24.102a63.613 63.613 0 0 1 22.688-6.53 43.163 43.163 0 0 1 33.988 8.913 88.344 88.344 0 0 1 6.356 6.446c.793.882 1.675 1.855 2.558 2.738a40.203 40.203 0 0 0 27.985 8.031 8.808 8.808 0 0 1 6.226 2.637 8.801 8.801 0 0 1 2.512 6.277zm0 0M429.55 454.797a8.606 8.606 0 0 1-3.355-1.942 45.231 45.231 0 0 0-26.129-11.21 26.543 26.543 0 0 0-20.746 4.765c-1.675 1.5-3.175 3.18-4.675 4.77-.973 1.144-2.032 2.293-3.004 3.351a55.973 55.973 0 0 1-40.52 13.332h-.086a8.829 8.829 0 0 1-8.87-8.785c-.028-4.875 3.905-8.848 8.78-8.871a40.166 40.166 0 0 0 28.075-8.121c.792-.793 1.675-1.766 2.468-2.648a88.344 88.344 0 0 1 6.356-6.446 43.599 43.599 0 0 1 33.988-8.914 63.532 63.532 0 0 1 22.773 6.531zm0 0"/><path d="M194.207 337.48V512h-17.656V337.48c0-4.878 3.953-8.828 8.828-8.828s8.828 3.95 8.828 8.828zm0 0M335.45 337.48V512h-17.657V337.48c0-4.878 3.953-8.828 8.828-8.828s8.828 3.95 8.828 8.828zm0 0M247.172 337.48V512h-17.656V337.48c0-4.878 3.953-8.828 8.828-8.828s8.828 3.95 8.828 8.828zm0 0M282.484 337.48V512h-17.656V337.48c0-4.878 3.953-8.828 8.828-8.828s8.828 3.95 8.828 8.828zm0 0"/></g><path d="M97.105 291.309c-35.312-70.618-8.828-70.618-8.828-167.723C88.277 70.62 114.757 0 256 0s167.723 70.621 167.723 123.586c0 97.105 26.484 105.93-8.825 167.723l-10.668 43.773-284.324 4.043zm0 0" fill="#2c2f38"/><path d="M356.281 301.46h.09a62.07 62.07 0 0 0 32.043-54.288v-61.793c0-20.656-19.226-24.848-35.36-27.828a33.397 33.397 0 0 1-19.366-8.965 45.511 45.511 0 0 1-8.165-22.332c-7.832-39.3-56.53-45.52-86.382-30.41-38.106 19.293-59.313 70.222-102.07 79.312a17.37 17.37 0 0 0-13.485 17.11v54.906a61.86 61.86 0 0 0 32.133 54.289l66.074 30.898h81.289zm0 0" fill="#f0c419"/><path d="M291.309 264.828a8.829 8.829 0 0 1-8.032-5.172A62.368 62.368 0 0 0 256 256h-35.309c-4.879 0-8.828-3.953-8.828-8.828s3.95-8.828 8.828-8.828H256c36.484 0 44.137 9.605 44.137 17.656a8.826 8.826 0 0 1-8.828 8.828zm0 0" fill="#2c2f38"/><path d="M432.55 308.965c-2.843 4.7-5.41 9.562-7.679 14.566l-.086.09a105.99 105.99 0 0 0-9.887 38.309c0 9.754-7.906 17.656-17.656 17.656s-17.656-7.902-17.656-17.656a8.75 8.75 0 0 1 .176-2.117h-.262c-1.234 11.68-11.387 20.351-23.113 19.738-11.73-.61-20.926-10.29-20.938-22.035v-4.41c0 14.624-11.86 26.48-26.484 26.48s-26.48-11.856-26.48-26.48c0 14.624-11.86 26.48-26.485 26.48s-26.484-11.856-26.484-26.48c0 14.624-11.856 26.48-26.48 26.48s-26.485-11.856-26.485-26.48v4.41c-.012 11.746-9.207 21.425-20.934 22.035-11.73.613-21.883-8.059-23.113-19.738h-.266c.102.703.16 1.41.176 2.117 0 9.754-7.906 17.656-17.656 17.656s-17.653-7.902-17.653-17.656a94.467 94.467 0 0 0-9.71-38.223 115.931 115.931 0 0 0-7.946-14.742c0-9.75 7.903-17.656 17.656-17.656 9.75 0 17.653 7.906 17.653 17.656 0-9.75 7.906-17.656 17.656-17.656s17.656 7.906 17.656 17.656a14.06 14.06 0 0 1-.355 3.355l.883.09c2.77-13.297 15.14-22.347 28.648-20.96 13.508 1.39 23.781 12.765 23.79 26.343 0-14.625 11.855-26.484 26.48-26.484 14.629 0 26.484 11.859 26.484 26.484 0-14.625 11.855-26.484 26.484-26.484 14.625 0 26.48 11.859 26.48 26.484.009-13.578 10.282-24.953 23.79-26.344 13.508-1.386 25.879 7.664 28.648 20.961l.883-.09a14.06 14.06 0 0 1-.355-3.355c0-9.75 7.906-17.656 17.656-17.656s17.656 7.906 17.656 17.656c0-9.75 7.903-17.656 17.656-17.656 9.75 0 17.653 7.906 17.653 17.656zm0 0" fill="#f9eab0"/><path d="M232.879 159.68a87.917 87.917 0 0 0-26.129-5.293 62.774 62.774 0 0 0-34.605 7.379c1.207-15.45 37.023-18.504 54.53-14.532a8.351 8.351 0 0 1 6.442 4.559 8.35 8.35 0 0 1-.238 7.887zm0 0M229.516 186.98c0-10.453-7.903-18.925-17.653-18.925s-17.656 8.472-17.656 18.925c0 10.45 7.906 18.922 17.656 18.922s17.653-8.472 17.653-18.922zm0 0" fill="#2c2f38"/><path d="M216.813 170.559a8.833 8.833 0 0 0-11.391 5.113 8.827 8.827 0 0 0 5.113 11.39 8.833 8.833 0 0 0 11.39-5.113 8.833 8.833 0 0 0-5.113-11.39zm0 0" fill="#fff"/><path d="M279.121 159.68a87.942 87.942 0 0 1 26.129-5.293 62.774 62.774 0 0 1 34.605 7.379c-1.207-15.45-37.023-18.504-54.53-14.532a8.357 8.357 0 0 0-6.442 4.559 8.35 8.35 0 0 0 .238 7.887zm0 0M317.793 186.98c0-10.453-7.902-18.925-17.656-18.925-9.75 0-17.653 8.472-17.653 18.925 0 10.45 7.903 18.922 17.653 18.922 9.754 0 17.656-8.472 17.656-18.922zm0 0" fill="#2c2f38"/><path d="M306.578 175.672a8.827 8.827 0 0 0-11.39-5.113 8.833 8.833 0 0 0-5.114 11.39 8.833 8.833 0 0 0 11.39 5.113c4.56-1.734 6.849-6.835 5.114-11.39zm0 0" fill="#fff"/></svg>