<svg height="512pt" viewBox="0 0 512 512" width="512pt" xmlns="http://www.w3.org/2000/svg"><path d="M185.379 291.121H326.62v79.828H185.38zm0 0" fill="#f29c1f"/><path d="M414.898 512H512v-7.855a138.922 138.922 0 0 0-4.063-33.547l-8.207-33.278c-9.523-34.715-41.43-58.511-77.418-57.734H89.688c-35.988-.777-67.894 23.02-77.417 57.734l-8.207 33.278A138.922 138.922 0 0 0 0 504.145V512zm0 0" fill="#d1d4d1"/><path d="M335.45 353.105s-13.243 57.38-66.208 66.204c-5.828-.97-28.957 1.945-34.074 0-42.02-15.36-58.617-66.204-58.617-66.204zm0 0" fill="#f0c419"/><path d="M441.379 512H70.62l29.926-144.773a18.549 18.549 0 0 1 14.21-13.153 28.154 28.154 0 0 1 7.329-.969h54.465s21.011 42.016 63.031 57.38A86.446 86.446 0 0 0 256 414.897c52.965-8.828 79.45-61.793 79.45-61.793h54.464c2.477 0 4.938.325 7.328.97a18.676 18.676 0 0 1 14.301 13.152zm0 0" fill="#e6e7e8"/><path d="M397.242 354.074V512H361.93V353.105h27.984c2.477 0 4.938.325 7.328.97zm0 0M150.07 353.105V512h-35.312V354.074a28.154 28.154 0 0 1 7.328-.969zm0 0" fill="#4fba6f"/><path d="M256 414.898V512h-17.656v-97.102a8.527 8.527 0 0 1 1.238-4.414A86.446 86.446 0 0 0 256 414.898zm0 0" fill="#d1d4d1"/><path d="M291.309 476.691h-8.825a8.829 8.829 0 0 1 0-17.656h8.825c4.878 0 8.828 3.953 8.828 8.828s-3.95 8.828-8.828 8.828zm0 0" fill="#95a5a5"/><path d="M388.414 120.055v127.117a61.747 61.747 0 0 1-61.793 61.793H185.38a61.747 61.747 0 0 1-61.793-61.793V120.055zm0 0" fill="#f0c419"/><path d="M363.52 76.184L328.12 17.125A35.523 35.523 0 0 0 297.844 0h-83.688a35.523 35.523 0 0 0-30.277 17.125L148.48 76.184zm0 0" fill="#4c8056"/><path d="M280.988 49.32a824.254 824.254 0 0 0 119.813 36.242c8.488 2.028 14.234 9.938 13.543 18.637a229.379 229.379 0 0 1-3.906 28.91 17.59 17.59 0 0 1-7.637 11.172 17.587 17.587 0 0 1-13.313 2.434A740.36 740.36 0 0 0 256 132.887a740.007 740.007 0 0 0-133.488 13.828 17.589 17.589 0 0 1-13.313-2.438 17.573 17.573 0 0 1-7.637-11.168 229.379 229.379 0 0 1-3.906-28.91c-.691-8.699 5.055-16.61 13.543-18.64A823.755 823.755 0 0 0 231.012 49.32a62.767 62.767 0 0 1 49.976 0zm0 0" fill="#4fba6f"/><path d="M379.586 406.07a147.406 147.406 0 0 0-79.45 26.48h-88.273a147.406 147.406 0 0 0-79.449-26.48 66.2 66.2 0 0 1 26.484-52.965h17.653s21.011 42.016 63.031 57.38A86.446 86.446 0 0 0 256 414.897c52.965-8.828 79.45-61.793 79.45-61.793h17.655a66.207 66.207 0 0 1 26.48 52.965zm0 0" fill="#ecf0f1"/><g fill="#2c2f38"><path d="M297.734 251.586c-7.132 13.957-29.398 15.934-41.558 15.934-12.188 0-34.422-1.977-41.555-15.934a179.535 179.535 0 0 0 41.555 5.207 179.357 179.357 0 0 0 41.558-5.207zm0 0M232.879 159.68a87.917 87.917 0 0 0-26.129-5.293 62.774 62.774 0 0 0-34.605 7.379c1.207-15.45 37.023-18.504 54.53-14.532a8.351 8.351 0 0 1 6.442 4.559 8.35 8.35 0 0 1-.238 7.887zm0 0M229.516 186.98c0-10.453-7.903-18.925-17.653-18.925s-17.656 8.472-17.656 18.925c0 10.45 7.906 18.922 17.656 18.922s17.653-8.472 17.653-18.922zm0 0"/></g><path d="M216.813 170.559a8.833 8.833 0 0 0-11.391 5.113 8.827 8.827 0 0 0 5.113 11.39 8.833 8.833 0 0 0 11.39-5.113 8.833 8.833 0 0 0-5.113-11.39zm0 0" fill="#fff"/><path d="M279.121 159.68a87.942 87.942 0 0 1 26.129-5.293 62.774 62.774 0 0 1 34.605 7.379c-1.207-15.45-37.023-18.504-54.53-14.532a8.357 8.357 0 0 0-6.442 4.559 8.35 8.35 0 0 0 .238 7.887zm0 0M317.793 186.98c0-10.453-7.902-18.925-17.656-18.925-9.75 0-17.653 8.472-17.653 18.925 0 10.45 7.903 18.922 17.653 18.922 9.754 0 17.656-8.472 17.656-18.922zm0 0" fill="#2c2f38"/><path d="M306.578 175.672a8.827 8.827 0 0 0-11.39-5.113 8.833 8.833 0 0 0-5.114 11.39 8.833 8.833 0 0 0 11.39 5.113c4.56-1.734 6.849-6.835 5.114-11.39zm0 0" fill="#fff"/></svg>