<svg height="512pt" viewBox="0 0 512 512" width="512pt" xmlns="http://www.w3.org/2000/svg"><path d="M414.898 512H512v-7.855a138.922 138.922 0 0 0-4.063-33.547l-8.207-33.278c-9.523-34.715-41.43-58.511-77.418-57.734H89.688c-35.988-.777-67.894 23.02-77.417 57.734l-8.207 33.278A138.922 138.922 0 0 0 0 504.145V512zm0 0" fill="#3b97d3"/><path d="M185.379 294.16H326.62v73.75H185.38zm0 0" fill="#f29c1f"/><path d="M123.586 238.344s-44.137-17.653-44.137-97.102C79.45 61.793 134.781 0 229.516 0c49.093 0 84.168 8.266 123.59 35.309 36.648 25.148 79.445 44.14 79.445 105.933 0 79.45-43.059 97.102-43.059 97.102" fill="#804537"/><path d="M388.414 193.156v54.016c0 34.129-27.664 61.793-61.793 61.793H185.38c-34.125 0-61.793-27.664-61.793-61.793v-61.793c0-17.656 17.656-44.137 88.277-52.965 70.621-8.828 88.274-44.137 88.274-44.137a119.25 119.25 0 0 0 66.054 72.13 35.625 35.625 0 0 1 22.223 32.75zm0 0" fill="#f0c419"/><path d="M165.074 143.094a30.54 30.54 0 0 0-6.176 18.715v29.484c-.777 15.422 11.063 28.562 26.48 29.398h33.9a24.57 24.57 0 0 0 15.449-5.562 29.108 29.108 0 0 0 9.62-14.566 11.959 11.959 0 0 1 23.305 0 26.787 26.787 0 0 0 25.07 20.128h33.9c15.417-.836 27.257-13.976 26.483-29.398v-29.484a28.546 28.546 0 0 0-1.148-8.297l-28.074-21.098h-112.02zm0 0" fill="#9fc9d3"/><path d="M256 459.035V512H70.621l29.926-144.773a20.785 20.785 0 0 1 21.539-14.122h1.5c8.828 61.793 44.137 52.965 79.45 52.965 1.148 0 2.206.086 3.265.176 1.058.086 2.117.266 3.18.442.968.175 2.027.44 3 .707 1.015.27 2.019.593 3 .968a36.08 36.08 0 0 1 5.296 2.473c.825.418 1.621.89 2.383 1.414 1.063.703 2.121 1.41 3.004 2.117.86.598 1.688 1.246 2.469 1.942a58.883 58.883 0 0 1 6.71 6.53c1.325 1.505 2.65 3.18 3.884 4.77 2.914 3.852 5.57 7.891 7.945 12.094.531.883.973 1.766 1.414 2.559a197.588 197.588 0 0 1 3.09 6.18c.351.792.703 1.59.969 2.296.32.559.585 1.153.796 1.766a66.949 66.949 0 0 1 2.559 6.531zm0 0" fill="#4482c3"/><path d="M388.414 353.105c-8.828 61.793-44.137 52.965-79.45 52.965-20.921 0-35.573 18.535-44.136 33.633A121.73 121.73 0 0 0 256 459.035a121.73 121.73 0 0 0-8.828-19.332c-8.563-15.098-23.215-33.633-44.137-33.633-35.312 0-70.62 8.828-79.45-52.965h79.45a215.851 215.851 0 0 1 44.137 29.305A23.595 23.595 0 0 1 256 397.242a23.595 23.595 0 0 1 8.828-14.832 215.851 215.851 0 0 1 44.137-29.305zm0 0" fill="#3b97d3"/><path d="M308.965 353.105S256 379.585 256 397.242c0-17.656-52.965-44.137-52.965-44.137zm0 0" fill="#f0c419"/><path d="M441.379 512H256v-52.965a106.558 106.558 0 0 1 4.324-10.594 206.571 206.571 0 0 1 3.09-6.18c.441-.792.973-1.675 1.414-2.558a108.572 108.572 0 0 1 7.945-12.094c1.235-1.59 2.559-3.265 3.883-4.77a58.564 58.564 0 0 1 6.711-6.53 26.315 26.315 0 0 1 2.469-1.942 23.252 23.252 0 0 1 3.004-2.117 20.897 20.897 0 0 1 2.383-1.414 41.06 41.06 0 0 1 5.297-2.473c.98-.375 1.984-.699 3-.968.972-.266 2.03-.532 3.003-.707 1.059-.176 2.118-.356 3.176-.442 1.059-.09 2.207-.176 3.266-.176 35.312 0 70.62 8.828 79.45-52.965h1.5a20.899 20.899 0 0 1 21.628 14.122zm0 0" fill="#4482c3"/><path d="M194.207 176.55a8.823 8.823 0 0 1-8.152-5.448 8.822 8.822 0 0 1 1.91-9.618l35.312-35.312a8.828 8.828 0 0 1 12.48 12.484l-35.308 35.309a8.796 8.796 0 0 1-6.242 2.586zm0 0M247.172 167.723a8.817 8.817 0 0 1-8.152-5.45 8.822 8.822 0 0 1 1.91-9.617l26.484-26.484a8.828 8.828 0 0 1 12.375.11c3.406 3.402 3.453 8.91.106 12.374l-26.48 26.48a8.783 8.783 0 0 1-6.243 2.587zm0 0" fill="#e6e7e8"/><path d="M114.77 132.395a8.82 8.82 0 0 1-6.25-15.051c1.16-1.164 29.109-28.586 84.238-37.774 47.922-7.992 64.605-31.328 64.77-31.57a8.873 8.873 0 0 1 12.242-2.3c4.011 2.702 5.09 8.136 2.406 12.163-.809 1.215-20.422 29.774-76.516 39.121a146.932 146.932 0 0 0-74.672 32.871 8.83 8.83 0 0 1-6.218 2.54zm0 0" fill="#cc6f56"/><path d="M326.621 229.516h-33.898c-15.844-.332-29.54-11.141-33.543-26.473a3.262 3.262 0 0 0-3.223-2.59 3.263 3.263 0 0 0-3.168 2.66 37.62 37.62 0 0 1-12.547 18.903 33.342 33.342 0 0 1-20.965 7.5H185.38c-20.281-.856-36.059-17.938-35.309-38.223v-29.484a39.512 39.512 0 0 1 8.024-24.114 8.807 8.807 0 0 1 5.02-3.203l29.128-10.683a8.993 8.993 0 0 1 1.965-.223h129.676c1.914 0 3.773.617 5.305 1.766l28.07 21.097a8.83 8.83 0 0 1 3.156 4.535 37.452 37.452 0 0 1 1.516 10.825v29.484c.75 20.285-15.028 37.367-35.309 38.223zM256 182.465a21.198 21.198 0 0 1 20.102 15.547 17.985 17.985 0 0 0 16.62 13.851h33.9c10.519-.875 18.382-10.039 17.655-20.57v-29.484a22.296 22.296 0 0 0-.214-3.188l-23.125-17.379H195.198l-24.734 9.68a22.42 22.42 0 0 0-2.742 10.887v29.484c-.727 10.531 7.136 19.695 17.656 20.57h33.898a15.694 15.694 0 0 0 9.871-3.578 20.132 20.132 0 0 0 6.723-10.207A21.236 21.236 0 0 1 256 182.465zm0 0" fill="#35495e"/><path d="M264.828 382.41V512h-17.656V382.41A23.595 23.595 0 0 1 256 397.242a23.595 23.595 0 0 1 8.828-14.832zm0 0" fill="#285680"/><g fill="#2c2f38"><path d="M297.734 251.586c-7.132 13.957-29.398 15.934-41.558 15.934-12.188 0-34.422-1.977-41.555-15.934a179.535 179.535 0 0 0 41.555 5.207 179.357 179.357 0 0 0 41.558-5.207zm0 0M232.879 159.68a87.917 87.917 0 0 0-26.129-5.293 62.774 62.774 0 0 0-34.605 7.379c1.207-15.45 37.023-18.504 54.53-14.532a8.351 8.351 0 0 1 6.442 4.559 8.35 8.35 0 0 1-.238 7.887zm0 0M229.516 186.98c0-10.453-7.903-18.925-17.653-18.925s-17.656 8.472-17.656 18.925c0 10.45 7.906 18.922 17.656 18.922s17.653-8.472 17.653-18.922zm0 0"/></g><path d="M216.813 170.559a8.833 8.833 0 0 0-11.391 5.113 8.827 8.827 0 0 0 5.113 11.39 8.833 8.833 0 0 0 11.39-5.113 8.833 8.833 0 0 0-5.113-11.39zm0 0" fill="#fff"/><path d="M279.121 159.68a87.942 87.942 0 0 1 26.129-5.293 62.774 62.774 0 0 1 34.605 7.379c-1.207-15.45-37.023-18.504-54.53-14.532a8.357 8.357 0 0 0-6.442 4.559 8.35 8.35 0 0 0 .238 7.887zm0 0M317.793 186.98c0-10.453-7.902-18.925-17.656-18.925-9.75 0-17.653 8.472-17.653 18.925 0 10.45 7.903 18.922 17.653 18.922 9.754 0 17.656-8.472 17.656-18.922zm0 0" fill="#2c2f38"/><path d="M306.578 175.672a8.827 8.827 0 0 0-11.39-5.113 8.833 8.833 0 0 0-5.114 11.39 8.833 8.833 0 0 0 11.39 5.113c4.56-1.734 6.849-6.835 5.114-11.39zm0 0" fill="#fff"/></svg>