<svg height="512pt" viewBox="0 0 512 512" width="512pt" xmlns="http://www.w3.org/2000/svg"><path d="M414.898 512H512v-7.855a138.922 138.922 0 0 0-4.063-33.547l-8.207-33.278c-9.523-34.715-41.43-58.511-77.418-57.734H89.688c-35.988-.777-67.894 23.02-77.417 57.734l-8.207 33.278A138.922 138.922 0 0 0 0 504.145V512zm0 0" fill="#c03a2b"/><path d="M185.379 292.262H326.62v77.543H185.38zm0 0" fill="#f29c1f"/><path d="M388.414 107.434v139.738a61.747 61.747 0 0 1-61.793 61.793H185.38a61.747 61.747 0 0 1-61.793-61.793V107.344" fill="#f0c419"/><path d="M450.117 176.55l-2.117-.265c-68.68-9.265-77.508-44.137-94.984-70.355C335.359 79.45 300.136 70.62 256 70.62s-79.45 8.828-97.102 35.309c-17.48 26.218-26.308 61.09-94.988 70.355l-2.117.266c-70.09 8.742-27.102-51.992 51.2-61.528h.089l32.926-80.683C153.78 13.68 173.547 0 195.62 0H316.38c22.074 0 41.84 13.68 49.613 34.34l32.926 80.683h.09c78.21 9.536 121.203 70.27 51.11 61.528zm0 0" fill="#805333"/><path d="M448 176.285a320.247 320.247 0 0 1-94.984-17.387A301.606 301.606 0 0 0 256 141.242a301.909 301.909 0 0 0-97.102 17.656 320.272 320.272 0 0 1-94.988 17.387c68.68-9.265 77.508-44.137 94.988-70.355C176.551 79.45 211.863 70.62 256 70.62s79.36 8.828 97.016 35.309c17.476 26.218 26.304 61.09 94.984 70.355zm0 0" fill="#cb8252"/><path d="M441.379 512H70.62l29.926-144.773a20.785 20.785 0 0 1 21.539-14.122h267.828a20.899 20.899 0 0 1 21.629 14.122zm0 0" fill="#d25627"/><path d="M238.344 353.105h35.312V512h-35.312zm0 0" fill="#c03a2b"/><path d="M229.516 357.516h17.656V512h-17.656zm0 0M264.828 357.516h17.656V512h-17.656zm0 0" fill="#e57e25"/><path d="M256 353.105l-52.965 52.965-52.965-52.965zm0 0M361.93 353.105l-52.965 52.965L256 353.105zm0 0" fill="#805333"/><g fill="#2c2f38"><path d="M297.734 260.414c-7.132 13.957-29.398 15.934-41.558 15.934-12.188 0-34.422-1.977-41.555-15.934a179.535 179.535 0 0 0 41.555 5.207 179.357 179.357 0 0 0 41.558-5.207zm0 0M232.879 168.508a87.922 87.922 0 0 0-26.129-5.297 62.842 62.842 0 0 0-34.605 7.379c1.207-15.445 37.023-18.5 54.53-14.528a8.351 8.351 0 0 1 6.442 4.56 8.35 8.35 0 0 1-.238 7.886zm0 0M279.121 168.508a87.947 87.947 0 0 1 26.129-5.297 62.842 62.842 0 0 1 34.605 7.379c-1.207-15.445-37.023-18.5-54.53-14.528a8.357 8.357 0 0 0-6.442 4.56 8.35 8.35 0 0 0 .238 7.886zm0 0M184.137 183.07s2.515 11.278 12.238 9.078c9.727-2.199 11.582 2.024 19.96 1.348a33.339 33.339 0 0 1 8.567.524c2.004.464 4.082.5 6.102.097 2.789-.746 2.55-3.988 1.57-6.094-3.875-8.363-14.785-8.972-22.77-8.043a79.623 79.623 0 0 1-10.3 2.075 27.656 27.656 0 0 1-9.977-5.125c.637 2.265.793 4.64.45 6.972-1.008 1.918-5.84-.832-5.84-.832zm0 0"/><path d="M229.516 200.219c0-10.45-7.903-18.922-17.653-18.922s-17.656 8.473-17.656 18.922c0 10.453 7.906 18.926 17.656 18.926s17.653-8.473 17.653-18.926zm0 0"/></g><path d="M216.813 183.8a8.827 8.827 0 1 0-6.278 16.5 8.827 8.827 0 1 0 6.278-16.5zm0 0" fill="#fff"/><path d="M327.855 183.07s-2.511 11.278-12.238 9.078c-9.722-2.199-11.578 2.024-19.957 1.348a33.328 33.328 0 0 0-8.566.524c-2.004.464-4.082.5-6.102.097-2.793-.746-2.55-3.988-1.574-6.094 3.879-8.363 14.789-8.972 22.77-8.043a79.814 79.814 0 0 0 10.304 2.075 27.607 27.607 0 0 0 9.973-5.125 16.743 16.743 0 0 0-.445 6.972c1.011 1.918 5.835-.832 5.835-.832zm0 0" fill="#2c2f38"/><path d="M317.79 200.219c0-10.45-7.903-18.922-17.653-18.922-9.754 0-17.657 8.473-17.657 18.922 0 10.453 7.903 18.926 17.657 18.926 9.75 0 17.652-8.473 17.652-18.926zm0 0" fill="#2c2f38"/><path d="M306.574 188.914a8.827 8.827 0 1 0-16.5 6.277c1.73 4.555 6.832 6.844 11.387 5.11a8.823 8.823 0 0 0 5.113-11.387zm0 0" fill="#fff"/></svg>