<svg height="512pt" viewBox="0 0 512 512" width="512pt" xmlns="http://www.w3.org/2000/svg"><path d="M414.898 512H512v-7.855a138.922 138.922 0 0 0-4.063-33.547l-8.207-33.278c-9.523-34.715-41.43-58.511-77.418-57.734H89.688c-35.988-.777-67.894 23.02-77.417 57.734l-8.207 33.278A138.922 138.922 0 0 0 0 504.145V512zm0 0" fill="#f0c419"/><path d="M441.379 512H406.07a150.377 150.377 0 0 0-35.312-61.793c0 17.656-26.48 35.309-26.48 35.309A43.608 43.608 0 0 1 353.104 512H167.723c17.656 0 17.656-26.484 26.484-35.309 8.828-8.828 52.965 8.825 79.45 0 26.48-8.828 8.827-17.656 8.827-17.656a68.921 68.921 0 0 0 44.137-17.656c17.656-17.656 0-44.137 0-44.137l-.883-1.765a51.325 51.325 0 0 0 18.54-15.891c44.136 8.828 45.636-26.48 45.636-26.48a20.899 20.899 0 0 1 21.629 14.12zm0 0" fill="#b19046"/><path d="M325.738 395.477l.883 1.765s17.656 26.48 0 44.137a68.921 68.921 0 0 1-44.137 17.656s17.653 8.828-8.828 17.656c-26.484 8.825-70.62-8.828-79.449 0-8.828 8.825-8.828 35.309-26.484 35.309H70.62l29.926-144.773a20.785 20.785 0 0 1 21.539-14.122h267.828s-1.5 35.31-45.637 26.48a51.325 51.325 0 0 1-18.539 15.892zm0 0" fill="#f3d55b"/><path d="M406.07 512h-52.965a43.608 43.608 0 0 0-8.828-26.484s26.48-17.653 26.48-35.309A150.377 150.377 0 0 1 406.07 512zm0 0M414.898 300.137s20.743 52.968-24.984 52.968c0 0-1.5 35.31-45.637 26.48a51.325 51.325 0 0 1-18.539 15.892 32.617 32.617 0 0 1-25.601 1.765s-8.828 26.48-44.137 26.48-44.137-26.48-44.137-26.48c-26.484 8.828-44.14-17.656-44.14-17.656-44.137 8.828-45.637-26.48-45.637-26.48-45.727 0-24.98-52.97-24.98-52.97-35.313-8.827-35.313-61.792-8.829-88.273 26.48-26.484 8.828-88.277 26.48-150.07C132.415 0 167.724 0 194.208 0S238.344 8.828 256 8.828 291.309 0 317.793 0s61.793 0 79.45 61.793 0 123.586 26.48 150.07c26.484 26.48 26.484 79.446-8.825 88.274zm0 0" fill="#2c2f38"/><path d="M146.883 152.805c-.047.48-.086.949-.13 1.414-1.57 18.152-7.257 53.683 12.145 63.875 17.653 9.27 26.48-9.27 52.965-9.27 26.48 0 26.48 9.27 44.137 9.27s17.656-9.27 44.137-9.27c26.484 0 35.312 18.543 52.968 9.27 17.653-9.278 8.825-64.91 8.825-64.91-26.48-9.27-70.621-46.364-70.621-46.364a96.58 96.58 0 0 1-8.825 27.817 89.417 89.417 0 0 1-44.14-46.36 40.805 40.805 0 0 0-26.48 37.09s-17.657-18.547-35.313-18.547c-21.496 0-27.906 27.832-29.668 45.985zm0 0" fill="#f0c419"/><path d="M300.137 273.656a73.871 73.871 0 0 1-24.86-4.87A56.937 56.937 0 0 0 256 264.827a56.937 56.937 0 0 0-19.277 3.957 73.852 73.852 0 0 1-24.86 4.871c-37.086 0-48.476-9.508-50.379-11.414a8.83 8.83 0 1 1 3.863-14.95 8.84 8.84 0 0 1 8.614 2.466v-.008c.082 0 8.91 6.25 37.902 6.25a56.895 56.895 0 0 0 19.274-3.957A73.875 73.875 0 0 1 256 247.172a73.875 73.875 0 0 1 24.863 4.871A56.895 56.895 0 0 0 300.137 256c29.617 0 38.191-6.527 38.273-6.594a8.612 8.612 0 0 1 6.184-2.496 8.62 8.62 0 0 1 6.113 2.672 9.038 9.038 0 0 1-.191 12.656c-1.903 1.91-13.293 11.418-50.38 11.418zm0 0" fill="#5e5f62"/><path d="M232.879 142.027a87.8 87.8 0 0 0-26.129-5.297 62.808 62.808 0 0 0-34.605 7.38c1.207-15.45 37.023-18.505 54.53-14.532a8.356 8.356 0 0 1 6.442 4.563 8.351 8.351 0 0 1-.238 7.886zm0 0M229.516 169.324c0-10.449-7.903-18.922-17.653-18.922s-17.656 8.473-17.656 18.922 7.906 18.922 17.656 18.922 17.653-8.473 17.653-18.922zm0 0" fill="#2c2f38"/><path d="M216.813 152.902a8.833 8.833 0 0 0-11.391 5.114 8.833 8.833 0 0 0 5.113 11.39 8.827 8.827 0 0 0 11.39-5.113c1.731-4.555-.558-9.656-5.113-11.39zm0 0" fill="#fff"/><path d="M279.121 142.027a87.824 87.824 0 0 1 26.129-5.297 62.808 62.808 0 0 1 34.605 7.38c-1.207-15.45-37.023-18.505-54.53-14.532a8.362 8.362 0 0 0-6.442 4.563 8.351 8.351 0 0 0 .238 7.886zm0 0M317.793 169.324c0-10.449-7.902-18.922-17.656-18.922-9.75 0-17.653 8.473-17.653 18.922s7.903 18.922 17.653 18.922c9.754 0 17.656-8.473 17.656-18.922zm0 0" fill="#2c2f38"/><path d="M306.578 158.016a8.833 8.833 0 0 0-11.39-5.114 8.833 8.833 0 0 0-5.114 11.391c1.735 4.559 6.832 6.848 11.39 5.113s6.849-6.832 5.114-11.39zm0 0" fill="#fff"/></svg>