<svg height="512pt" viewBox="0 0 512 512" width="512pt" xmlns="http://www.w3.org/2000/svg"><path d="M503.172 132.414c0 17.656-27.453 44.137-79.45 61.793H88.278C36.281 176.551 8.828 150.07 8.828 132.414c0-11.035 17.125-18.539 40.695-18.45h.086a132.762 132.762 0 0 1 47.496 9.622c44.137 17.656 114.758 17.656 158.895 17.656s114.758 0 158.898-17.656a132.724 132.724 0 0 1 47.493-9.621h.086c23.57-.09 40.695 7.414 40.695 18.45zm0 0" fill="#3d324c"/><path d="M414.898 123.586s8.825 114.758 26.48 150.07c17.657 35.309 17.657 79.45-44.136 79.45H114.758c-61.793 0-61.793-44.141-44.137-79.45 17.656-35.312 26.484-150.07 26.484-150.07zm0 0" fill="#5e5f62"/><path d="M185.379 282.484H326.62v97.102H185.38zm0 0" fill="#24ae5f"/><path d="M414.898 512H512v-7.855a138.922 138.922 0 0 0-4.063-33.547l-8.207-33.278c-9.523-34.715-41.43-58.511-77.418-57.734H89.688c-35.988-.777-67.894 23.02-77.417 57.734l-8.207 33.278A138.922 138.922 0 0 0 0 504.145V512zm0 0" fill="#b49aca"/><path d="M406.07 114.758l-49.02-91.035A43.626 43.626 0 0 0 318.927 0H193.074a43.626 43.626 0 0 0-38.125 23.723l-49.02 91.035" fill="#955ba5"/><path d="M344.54 138.238c.929 24.18 10.589 47.2 27.19 64.797 0 0-12.007 48.024 8.563 74.77a61.601 61.601 0 0 1-53.672 31.16H185.38a61.527 61.527 0 0 1-53.23-30.453c21.273-26.575 9.093-75.477 9.093-75.477a99.81 99.81 0 0 0 27.188-64.707zm0 0" fill="#4fba6f"/><path d="M49.523 113.965c-3.53.527-5.386.793-5.386.793M229.516 353.102V512H70.62l29.926-144.773a17.971 17.971 0 0 1 13.062-12.711v-.09a26.25 26.25 0 0 1 8.477-1.32c33.898 17.652 27.984 70.617 63.293 61.792a44.398 44.398 0 0 0 21.805-13.418c1.414-1.59 2.824-3.18 4.062-4.855a77.011 77.011 0 0 0 7.238-11.566c.793-1.5 1.5-2.914 2.207-4.414a113 113 0 0 0 4.942-12.711c.265-.793.531-1.59.707-2.293a5.06 5.06 0 0 0 .351-1.063c.356-1.058.618-2.117.883-3.09a80.028 80.028 0 0 0 1.942-8.386zm0 0" fill="#7d6599"/><path d="M229.516 353.105v.176c-.176.793-.703 3.883-1.942 8.207-.265.973-.527 2.032-.883 3.09a5.06 5.06 0 0 1-.351 1.063c-.176.703-.442 1.5-.707 2.293a113 113 0 0 1-4.942 12.71c-.707 1.415-1.414 2.915-2.207 4.415a77.011 77.011 0 0 1-7.238 11.566c-1.238 1.676-2.648 3.266-4.062 4.855a44.398 44.398 0 0 1-21.805 13.418c-35.309 8.825-29.395-44.14-63.293-61.793zm0 0" fill="#955ba5"/><path d="M441.379 512H229.516V353.102l52.968.003s8.825 52.965 44.137 61.793c35.309 8.825 29.395-44.14 63.293-61.793 2.879-.02 5.742.426 8.477 1.32a18.218 18.218 0 0 1 13.152 12.802zm0 0" fill="#7d6599"/><path d="M389.914 353.105c-33.898 17.653-27.984 70.618-63.293 61.793-35.312-8.828-44.137-61.793-44.137-61.793zm0 0" fill="#955ba5"/><path d="M467.863 114.758s-1.855-.266-5.386-.793" fill="#7d6599"/><path d="M220.7 70.621a8.826 8.826 0 0 1-8.602-6.797 8.82 8.82 0 0 1 4.644-9.926l52.965-26.484c4.36-2.18 9.664-.414 11.844 3.95 2.18 4.359.414 9.663-3.946 11.843l-52.968 26.484a8.882 8.882 0 0 1-3.938.93zm0 0M300.148 70.621a8.826 8.826 0 0 1-8.601-6.797 8.816 8.816 0 0 1 4.644-9.926l17.653-8.828c4.363-2.183 9.664-.414 11.847 3.946 2.18 4.363.41 9.664-3.949 11.847l-17.656 8.828a8.882 8.882 0 0 1-3.938.93zm0 0" fill="#b49aca"/><path d="M326.621 256a8.829 8.829 0 0 1-8.828-8.828v-8.828a8.829 8.829 0 0 1 17.656 0v8.828a8.829 8.829 0 0 1-8.828 8.828zm0 0" fill="#2c2f38"/><path d="M462.39 113.965a132.724 132.724 0 0 0-47.492 9.62 263.56 263.56 0 0 1-70.359 14.653c-31.687 3.004-64.176 3.004-88.539 3.004-24.188 0-56.23 0-87.57-2.914a262.622 262.622 0 0 1-71.325-14.742 132.762 132.762 0 0 0-47.496-9.621A1813.264 1813.264 0 0 1 256 97.105a1813.264 1813.264 0 0 1 206.39 16.86zm0 0" fill="#7d6599"/><g fill="#3d324c"><path d="M220.691 353.105h17.653V512H220.69zm0 0M282.484 423.723V512h-17.656v-88.277c0-4.875 3.953-8.825 8.828-8.825s8.828 3.95 8.828 8.825zm0 0"/><path d="M238.258 353.105c.086.176 0 .262 0 .442a125.618 125.618 0 0 1-8.742 27.98c-7.325 16.598-20.215 35.489-42.016 40.871a39.083 39.083 0 0 1-9.625 1.325c-19.508 0-28.07-17.477-35.043-31.868-6.094-12.535-12.36-25.421-24.809-31.953a8.585 8.585 0 0 1-4.414-5.386v-.09a26.25 26.25 0 0 1 8.477-1.32h16.332a102.423 102.423 0 0 1 20.3 30.984c8.919 18.45 12.802 24.097 24.544 21.273 25.246-6.355 34.867-42.37 36.988-52.258zm0 0M398.39 354.426a8.525 8.525 0 0 1-4.413 5.476c-12.45 6.532-18.715 19.418-24.809 31.953-6.973 14.391-15.535 31.868-35.043 31.868a39.026 39.026 0 0 1-9.621-1.325c-40.52-10.062-50.32-66.468-50.762-68.851 0-.18-.086-.266 0-.442h18.008c2.121 9.887 11.742 45.903 36.988 52.258 11.742 2.825 15.625-2.824 24.543-21.273a102.423 102.423 0 0 1 20.301-30.985h16.332c2.879-.02 5.742.426 8.477 1.32zm0 0"/></g><path d="M301.242 246.621c-4.867 15.024-27.77 22.402-40.172 24.574-12.425 2.176-35.441 4.203-45.12-8.273 14.464.871 28.98.101 43.273-2.29a201.154 201.154 0 0 0 42.02-14.01zm0 0M231.215 174.035a87.747 87.747 0 0 0-24.664-10.133 62.81 62.81 0 0 0-35.38.711c4.106-14.941 39.852-11.18 56.294-3.972a8.35 8.35 0 0 1 5.469 5.691 8.344 8.344 0 0 1-1.72 7.703zm0 0M229.516 191.395c0-10.454-7.903-18.926-17.653-18.926s-17.656 8.472-17.656 18.926c0 10.449 7.906 18.921 17.656 18.921s17.653-8.472 17.653-18.921zm0 0" fill="#2c2f38"/><path d="M216.813 174.973a8.827 8.827 0 1 0-6.278 16.5 8.828 8.828 0 0 0 11.39-5.11 8.833 8.833 0 0 0-5.113-11.39zm0 0" fill="#fff"/><path d="M279.84 175.887a49.21 49.21 0 0 1 24.86-17.32 35.398 35.398 0 0 1 36.304 11.527c-.137-.133.137-2.95.086-3.387a11.927 11.927 0 0 0-.918-3.316 16.754 16.754 0 0 0-4.469-5.84 35.932 35.932 0 0 0-16.39-7.496 44.904 44.904 0 0 0-24.083 1.191 37.029 37.029 0 0 0-12.664 7.465c-3.242 2.965-8.043 8.43-5.957 13.402a28.353 28.353 0 0 0 3.23 3.774zm0 0" fill="#2c2f38"/><path d="M317.793 191.395c0-10.454-7.902-18.926-17.656-18.926-9.75 0-17.653 8.472-17.653 18.926 0 10.449 7.903 18.921 17.653 18.921 9.754 0 17.656-8.472 17.656-18.921zm0 0" fill="#2c2f38"/><path d="M306.578 180.086a8.827 8.827 0 0 0-11.39-5.113 8.833 8.833 0 0 0-5.114 11.39c1.735 4.555 6.836 6.844 11.39 5.114 4.56-1.735 6.849-6.836 5.114-11.391zm0 0" fill="#fff"/></svg>