<svg height="512pt" viewBox="0 0 512 512.001" width="512pt" xmlns="http://www.w3.org/2000/svg"><path d="M185.379 291.313H326.62v79.445H185.38zm0 0" fill="#bdc3c7"/><path d="M414.898 512H512v-7.855a139.057 139.057 0 0 0-4.059-33.543l-8.21-33.282c-9.524-34.715-41.43-58.508-77.419-57.734H89.688c-35.988-.774-67.894 23.02-77.417 57.734l-8.207 33.282A138.866 138.866 0 0 0 0 504.145V512zm0 0" fill="#35495e"/><path d="M441.379 512H70.62l29.926-144.77a20.788 20.788 0 0 1 21.539-14.125h267.828a20.902 20.902 0 0 1 21.629 14.125zm0 0" fill="#2c3e50"/><path d="M158.898 353.105h194.207l-79.449 61.793L256 450.207l-17.656-35.309zm0 0" fill="#e6e7e8"/><path d="M163.133 68.59C175.676 27.82 213.343 0 256 0s80.324 27.82 92.867 68.59" fill="#2c3e50"/><path d="M388.414 247.172s17.656-35.309 17.656-97.102c0-61.793-52.965-97.113-150.07-97.113-97.102 0-150.066 35.32-150.066 97.113s17.652 97.102 17.652 97.102zm0 0" fill="#35495e"/><path d="M388.414 238.348v8.824a61.763 61.763 0 0 1-18.086 43.71 61.75 61.75 0 0 1-43.707 18.083H185.38a61.75 61.75 0 0 1-43.707-18.082 61.763 61.763 0 0 1-18.086-43.711v-35.309c0-35.312 35.312-79.449 79.45-70.62 44.136 8.827 105.929-26.485 105.929-26.485a57.026 57.026 0 0 0 26.484 44.14c26.485 17.653 52.965 52.965 52.965 79.45zm0 0" fill="#e6e7e8"/><path d="M238.344 282.484c-4.875 0-8.824-3.953-8.824-8.828V256c0-4.875 3.949-8.828 8.824-8.828a8.826 8.826 0 0 1 8.828 8.828v17.656a8.826 8.826 0 0 1-8.828 8.828zm0 0M273.656 282.484a8.829 8.829 0 0 1-8.828-8.828V256a8.829 8.829 0 0 1 17.656 0v17.656a8.829 8.829 0 0 1-8.828 8.828zm0 0" fill="#bdc3c7"/><g fill="#e64c3c"><path d="M361.934 353.105a8.697 8.697 0 0 1-3.446 6.973l-62.941 48.906-14.918 11.653-1.676 3.265-15.098 30.278a8.78 8.78 0 0 1-15.71 0l-15.094-30.278-1.68-3.265-14.918-11.653-62.941-48.906a8.693 8.693 0 0 1-3.442-6.973h23.215l70.004 54.465c.176.09.266.266.441.352.477.344.895.762 1.235 1.238.133.067.254.156.355.266l.793 1.324c.153.215.274.453.356.703l9.531 18.98 9.535-18.98c.11-.308.258-.605.442-.883.265-.351.527-.793.793-1.144 0-.09.09-.18.265-.266.18-.258.387-.492.617-.707.332-.32.688-.613 1.059-.883l70.004-54.465zm0 0"/><path d="M247.172 414.898c-.012 4.868-3.957 8.813-8.828 8.829-1.852 0-3.617.086-5.293.175a33.954 33.954 0 0 0-24.809 10.153 31.519 31.519 0 0 0-5.472 23.039.714.714 0 0 1 .09.265c.1.524.16 1.055.175 1.586a7.613 7.613 0 0 1-.265 2.121 7.878 7.878 0 0 1-.708 1.852 5.506 5.506 0 0 1-.968 1.504.473.473 0 0 1-.266.351 4.363 4.363 0 0 1-1.148 1.059c-.442.43-.946.79-1.5 1.059-.516.246-1.043.453-1.59.62-.281.11-.578.169-.883.177-.484.148-.992.21-1.5.175a8.73 8.73 0 0 1-4.68-1.324c-16.922-8.191-37.136-5.18-50.933 7.59a8.694 8.694 0 0 1-6.18 2.562 9.637 9.637 0 0 1-3.441-.707 8.858 8.858 0 0 1-5.387-8.12V353.104h17.656v97.985a62.72 62.72 0 0 1 35.93-6.356 53.46 53.46 0 0 1 8.031 1.5 43.783 43.783 0 0 1 4.504-15.886 39.568 39.568 0 0 1 4.766-7.328 43.967 43.967 0 0 1 21.98-14.036 75.566 75.566 0 0 1 21.89-2.914 8.586 8.586 0 0 1 4.946 1.5c.176.09.266.266.441.352.477.344.895.762 1.235 1.238.133.067.254.156.355.266l.793 1.324c.153.215.274.453.356.703.46 1.09.699 2.262.703 3.445zm0 0M388.414 353.105v114.758a8.715 8.715 0 0 1-5.473 8.121 7.368 7.368 0 0 1-3.355.707 8.874 8.874 0 0 1-6.266-2.562 45.454 45.454 0 0 0-50.847-7.59 9.715 9.715 0 0 1-4.68 1.324 9.631 9.631 0 0 1-2.293-.265 6.177 6.177 0 0 1-1.59-.707h-.09a.3.3 0 0 1-.175-.086c-.43-.235-.844-.5-1.235-.797a1.823 1.823 0 0 1-.441-.352 5.44 5.44 0 0 1-.973-1.058 2.403 2.403 0 0 1-.441-.532 7.746 7.746 0 0 1-.528-.882 2.958 2.958 0 0 1-.53-1.325 7.586 7.586 0 0 1-.532-2.824c.02-.59.078-1.18.18-1.765a31.471 31.471 0 0 0-5.387-23.215 33.951 33.951 0 0 0-24.805-10.153c-1.68-.09-3.445-.175-5.297-.175a8.817 8.817 0 0 1-8.12-12.274l.527-1.058c.214-.336.453-.66.707-.97 0-.09.09-.179.265-.265.18-.258.387-.492.617-.707.332-.32.688-.613 1.059-.883a8.594 8.594 0 0 1 4.945-1.5 75.548 75.548 0 0 1 21.89 2.914 43.967 43.967 0 0 1 21.981 14.036 39.587 39.587 0 0 1 4.77 7.328 43.854 43.854 0 0 1 4.5 15.886 53.42 53.42 0 0 1 8.035-1.5 62.706 62.706 0 0 1 35.926 6.356v-97.985zm0 0"/><path d="M194.215 467.863a8.828 8.828 0 0 1-7.903-4.879l-17.656-35.312c-2.18-4.36-.414-9.664 3.95-11.844 4.359-2.18 9.664-.414 11.843 3.95l17.656 35.308a8.831 8.831 0 0 1-7.89 12.777zm0 0M317.785 467.863c-3.058-.004-5.898-1.59-7.504-4.191s-1.75-5.852-.383-8.586l17.653-35.309a8.836 8.836 0 0 1 7.37-4.863 8.825 8.825 0 0 1 8.423 12.758l-17.653 35.312a8.834 8.834 0 0 1-7.906 4.88zm0 0M256 264.828c-36.477 0-44.137-9.601-44.137-17.656a8.826 8.826 0 0 1 16.86-3.652A62.423 62.423 0 0 0 256 247.172c9.25.828 18.57-.422 27.277-3.652a8.826 8.826 0 0 1 16.86 3.652c0 8.055-7.657 17.656-44.137 17.656zm0 0"/></g><path d="M232.879 164.098a87.8 87.8 0 0 0-26.129-5.297 62.774 62.774 0 0 0-34.605 7.379c1.207-15.45 37.023-18.504 54.53-14.532a8.35 8.35 0 0 1 6.204 12.45zm0 0M279.121 164.098a87.824 87.824 0 0 1 26.129-5.297 62.774 62.774 0 0 1 34.605 7.379c-1.207-15.45-37.023-18.504-54.53-14.532a8.35 8.35 0 0 0-6.438 4.563 8.34 8.34 0 0 0 .234 7.887zm0 0M184.14 178.656s2.512 11.278 12.239 9.078c9.723-2.199 11.578 2.024 19.957 1.348a33.34 33.34 0 0 1 8.566.527c2.004.465 4.082.496 6.102.098 2.789-.746 2.55-3.988 1.574-6.098-3.879-8.359-14.789-8.972-22.77-8.043a79.826 79.826 0 0 1-10.304 2.079 27.665 27.665 0 0 1-9.977-5.13c.637 2.266.793 4.645.45 6.973-1.008 1.918-5.836-.832-5.836-.832zm0 0" fill="#2c2f38"/><path d="M229.52 195.809c0-10.454-7.907-18.926-17.657-18.926s-17.656 8.472-17.656 18.926c0 10.449 7.906 18.921 17.656 18.921s17.657-8.472 17.657-18.921zm0 0" fill="#2c2f38"/><path d="M216.813 179.387a8.833 8.833 0 0 0-11.391 5.113 8.833 8.833 0 0 0 5.113 11.39 8.833 8.833 0 0 0 11.39-5.113 8.833 8.833 0 0 0-5.113-11.39zm0 0" fill="#fff"/><path d="M327.855 178.656s-2.511 11.278-12.238 9.078c-9.722-2.199-11.578 2.024-19.957 1.348a33.33 33.33 0 0 0-8.566.527 14.538 14.538 0 0 1-6.102.098c-2.793-.746-2.55-3.988-1.574-6.098 3.879-8.359 14.789-8.972 22.77-8.043a79.826 79.826 0 0 0 10.304 2.079 27.665 27.665 0 0 0 9.977-5.13 16.748 16.748 0 0 0-.45 6.973c1.012 1.918 5.836-.832 5.836-.832zm0 0" fill="#2c2f38"/><path d="M317.793 195.809c0-10.454-7.906-18.926-17.656-18.926s-17.657 8.472-17.657 18.926c0 10.449 7.907 18.921 17.657 18.921s17.656-8.472 17.656-18.921zm0 0" fill="#2c2f38"/><path d="M306.574 184.5a8.823 8.823 0 0 0-11.386-5.113 8.827 8.827 0 0 0-5.114 11.39 8.827 8.827 0 0 0 16.5-6.277zm0 0" fill="#fff"/></svg>