<svg height="512pt" viewBox="-4 0 511 512" width="512pt" xmlns="http://www.w3.org/2000/svg"><path d="M408.363 512h95.461l-.004-7.723a136.762 136.762 0 0 0-3.988-32.976l-8.07-32.715c-9.364-34.129-40.73-57.52-76.11-56.754H88.668c-35.379-.766-66.746 22.625-76.106 56.754L4.492 471.3A136.571 136.571 0 0 0 .5 504.277V512zm0 0" fill="#c03a2b"/><path d="M182.738 295.05h138.848v78.102H182.738zm0 0" fill="#f29c1f"/><path d="M410.883 269.016s7.027 52.07-14.059 52.07c-13.8 0-18.57-25.688-20.222-43.652a60.588 60.588 0 0 0 5.73-25.774v-34.71a149.848 149.848 0 0 0-26.035-34.712c-17.356-17.355-8.68-52.07-43.39-60.746-34.712-8.68-43.391 8.676-60.747 8.676-17.355 0-26.031-17.356-60.746-8.676-34.71 8.676-26.031 43.39-43.387 60.746a149.738 149.738 0 0 0-26.035 34.711v34.711a60.642 60.642 0 0 0 5.727 25.774c-1.649 17.964-6.422 43.652-20.219 43.652-21.09 0-14.059-52.07-14.059-52.07S72.266 251.66 79.297 208.27c0 0-21.09-43.387 0-69.422 0 0-7.031-69.426 42.348-86.782 0 0 5.902-17.875 36.187-30.718l16.227 56.754a479.991 479.991 0 0 1 78.101-8.68 479.943 479.943 0 0 1 78.102 8.68l16.23-56.754c30.285 12.843 36.188 30.718 36.188 30.718 49.375 17.356 42.347 86.782 42.347 86.782 21.086 26.035 0 69.422 0 69.422 7.028 43.39-14.144 60.746-14.144 60.746zm0 0" fill="#cb8252"/><path d="M356.297 10.848l-1.23 4.988-17.704 70.945a459.816 459.816 0 0 0-85.203-10.847c-28.676.949-57.2 4.582-85.2 10.847l-17.702-70.945-1.23-4.988S195.358 32.543 252.16 0c56.8 32.543 104.137 10.848 104.137 10.848zm0 0" fill="#f3d55b"/><path d="M373.652 355.797l-20.246 52.066H150.914l-20.246-52.066zm0 0" fill="#bdc3c7"/><path d="M356.297 442.578L324.23 512H180.09l-32.063-69.422zm0 0" fill="#f3d55b"/><path d="M382.332 216.95v34.71c.008 16.113-6.39 31.57-17.785 42.965s-26.848 17.79-42.961 17.781H182.738a60.718 60.718 0 0 1-42.965-17.781 60.718 60.718 0 0 1-17.78-42.965v-34.71a149.738 149.738 0 0 1 26.034-34.712c17.356-17.355 8.676-52.07 43.387-60.746 34.715-8.68 43.39 8.676 60.746 8.676s26.035-17.356 60.746-8.676c34.711 8.676 26.035 43.39 43.39 60.746a149.848 149.848 0 0 1 26.036 34.711zm0 0" fill="#f0c419"/><path d="M364.977 407.863l-15.008 34.715H154.352l-15.004-34.715zm0 0" fill="#2c2f38"/><path d="M200.094 512H69.926l29.418-142.32c2.992-8.97 11.754-14.711 21.172-13.883h27.511l17.356 52.066 11.539 34.715zm0 0M434.398 512H304.23l23.168-69.422 11.543-34.715 17.356-52.066h27.508c9.441-.828 18.226 4.906 21.261 13.883zm0 0" fill="#e6e7e8"/><g fill="#2c2f38"><path d="M293.188 260.34c-7.012 13.723-28.899 15.66-40.852 15.66-11.98 0-33.84-1.938-40.852-15.66a176.492 176.492 0 0 0 40.852 5.117 176.492 176.492 0 0 0 40.851-5.117zm0 0M229.434 165.652a86.393 86.393 0 0 0-25.688-5.207 61.786 61.786 0 0 0-34.02 7.254c1.188-15.187 36.395-18.187 53.61-14.281a8.206 8.206 0 0 1 6.098 12.234zm0 0M274.89 165.652a86.368 86.368 0 0 1 25.688-5.207 61.772 61.772 0 0 1 34.016 7.254c-1.188-15.187-36.395-18.187-53.606-14.281a8.207 8.207 0 0 0-6.332 4.48 8.206 8.206 0 0 0 .235 7.754zm0 0M181.516 179.965s2.472 11.09 12.03 8.926c9.563-2.16 11.384 1.992 19.622 1.324a32.917 32.917 0 0 1 8.422.515c1.969.458 4.015.493 5.996.098 2.746-.734 2.508-3.922 1.547-5.992-3.813-8.219-14.535-8.82-22.383-7.906a78.415 78.415 0 0 1-10.129 2.039 27.181 27.181 0 0 1-9.805-5.04c.625 2.227.778 4.563.442 6.856-.992 1.887-5.742-.82-5.742-.82zm0 0"/><path d="M226.129 196.828c0-10.273-7.774-18.605-17.36-18.605-9.582 0-17.355 8.332-17.355 18.605s7.774 18.602 17.356 18.602c9.585 0 17.359-8.328 17.359-18.602zm0 0"/></g><path d="M213.637 180.684a8.677 8.677 0 0 0-11.196 5.027 8.677 8.677 0 0 0 5.028 11.195c4.476 1.703 9.492-.547 11.195-5.023 1.703-4.48-.547-9.496-5.027-11.2zm0 0" fill="#fff"/><path d="M322.8 179.965s-2.472 11.09-12.03 8.926c-9.563-2.16-11.383 1.992-19.622 1.324a32.917 32.917 0 0 0-8.421.515 14.234 14.234 0 0 1-5.997.098c-2.746-.734-2.507-3.922-1.546-5.992 3.812-8.219 14.535-8.82 22.382-7.906a78.415 78.415 0 0 0 10.13 2.039 27.089 27.089 0 0 0 9.804-5.04 16.578 16.578 0 0 0-.441 6.856c.996 1.887 5.742-.82 5.742-.82zm0 0" fill="#2c2f38"/><path d="M312.906 196.828c0-10.273-7.773-18.605-17.36-18.605-9.581 0-17.355 8.332-17.355 18.605s7.774 18.602 17.356 18.602c9.586 0 17.36-8.328 17.36-18.602zm0 0" fill="#2c2f38"/><path d="M301.879 185.71a8.678 8.678 0 1 0-16.224 6.17 8.678 8.678 0 0 0 16.224-6.17zm0 0" fill="#fff"/></svg>