<svg height="512pt" viewBox="0 0 512 512" width="512pt" xmlns="http://www.w3.org/2000/svg"><path d="M414.898 512H512v-7.855a138.922 138.922 0 0 0-4.063-33.547l-8.207-33.278c-9.523-34.715-41.43-58.511-77.418-57.734H89.688c-35.988-.777-67.894 23.02-77.417 57.734l-8.207 33.278A138.922 138.922 0 0 0 0 504.145V512zm0 0" fill="#c03a2b"/><path d="M330.594 61.793C322.738 37.188 303.14 0 256 0s-66.738 37.188-74.594 61.793zm0 0" fill="#4c8056"/><path d="M388.414 211.863s26.484-8.828 26.484-35.312c0-16.567-10.363-50.406-39.734-82.067A162.106 162.106 0 0 0 256 44.137a162.106 162.106 0 0 0-119.164 50.347c-29.371 31.66-39.73 65.5-39.73 82.067 0 26.484 26.48 35.312 26.48 35.312" fill="#24ae5f"/><path d="M111.316 355.398a16.716 16.716 0 0 0-10.77 11.829l-2.558 12.359L70.621 512H441.38l-27.277-132.414-2.559-12.36a17.488 17.488 0 0 0-10.77-12.003" fill="#e64c3c"/><path d="M125.793 263.414a58.23 58.23 0 0 1-2.207-16.242v-52.965c35.312-44.137 88.277-70.621 132.414-70.621s97.105 26.484 132.414 70.621v52.965a58.087 58.087 0 0 1-2.207 16.242zm0 0" fill="#f0c419"/><path d="M256 476.691s8.828-17.656 44.137-26.484c52.093-13.023 61.793-35.309 61.793-35.309a27.327 27.327 0 0 1 8.828 17.653c44.14-52.965 26.484-105.93 26.484-105.93a30.818 30.818 0 0 1 17.656 8.828C423.723 300.137 397.242 256 361.93 256c-35.309 0-35.309-26.484-61.793-26.484-26.48 0-35.309 8.828-44.137 8.828s-17.656-8.828-44.137-8.828C185.38 229.516 185.38 256 150.07 256c-35.312 0-61.793 44.137-52.965 79.45a30.795 30.795 0 0 1 17.653-8.829s-17.653 52.965 26.484 105.93a27.327 27.327 0 0 1 8.828-17.653s9.7 22.286 61.793 35.309C247.172 459.035 256 476.691 256 476.691zm0 0" fill="#e6e7e8"/><path d="M317.793 291.309a196.678 196.678 0 0 1-51.836-6.797 58.082 58.082 0 0 0-9.957-2.028 58.082 58.082 0 0 0-9.957 2.028 196.678 196.678 0 0 1-51.836 6.797c-4.875 0-8.828-3.95-8.828-8.825s3.953-8.828 8.828-8.828a180.829 180.829 0 0 0 47.55-6.277 62.8 62.8 0 0 1 14.243-2.55 62.8 62.8 0 0 1 14.242 2.55 180.829 180.829 0 0 0 47.551 6.277c4.875 0 8.828 3.953 8.828 8.828s-3.953 8.825-8.828 8.825zm0 0" fill="#bdc3c7"/><path d="M232.879 159.68a87.917 87.917 0 0 0-26.129-5.293 62.774 62.774 0 0 0-34.605 7.379c1.207-15.45 37.023-18.504 54.53-14.532a8.351 8.351 0 0 1 6.442 4.559 8.35 8.35 0 0 1-.238 7.887zm0 0M229.516 186.98c0-10.453-7.903-18.925-17.653-18.925s-17.656 8.472-17.656 18.925c0 10.45 7.906 18.922 17.656 18.922s17.653-8.472 17.653-18.922zm0 0" fill="#2c2f38"/><path d="M216.813 170.559a8.833 8.833 0 0 0-11.391 5.113 8.827 8.827 0 0 0 5.113 11.39 8.833 8.833 0 0 0 11.39-5.113 8.833 8.833 0 0 0-5.113-11.39zm0 0" fill="#fff"/><path d="M279.121 159.68a87.942 87.942 0 0 1 26.129-5.293 62.774 62.774 0 0 1 34.605 7.379c-1.207-15.45-37.023-18.504-54.53-14.532a8.357 8.357 0 0 0-6.442 4.559 8.35 8.35 0 0 0 .238 7.887zm0 0M317.793 186.98c0-10.453-7.902-18.925-17.656-18.925-9.75 0-17.653 8.472-17.653 18.925 0 10.45 7.903 18.922 17.653 18.922 9.754 0 17.656-8.472 17.656-18.922zm0 0" fill="#2c2f38"/><path d="M306.578 175.672a8.827 8.827 0 0 0-11.39-5.113 8.833 8.833 0 0 0-5.114 11.39 8.833 8.833 0 0 0 11.39 5.113c4.56-1.734 6.849-6.835 5.114-11.39zm0 0" fill="#fff"/></svg>