<svg height="512pt" viewBox="0 0 512 512" width="512pt" xmlns="http://www.w3.org/2000/svg"><path d="M426.02 130.383a164.114 164.114 0 0 1-2.297 28.515c-.086.262-.086.618-.176.883-8.914 52.168-35.133 60.91-35.133 60.91H123.586s-21.098-7.062-31.867-46.168a148.406 148.406 0 0 1-3.442-15.625c-.265-1.765-.53-3.53-.707-5.386a155.684 155.684 0 0 1 .707-48.992 132.616 132.616 0 0 1 5.739-21.274v-.09C109.902 39.988 152.98 0 256 0c104.96 0 147.688 41.578 162.781 85.629a120.994 120.994 0 0 1 5.031 19.418 148.885 148.885 0 0 1 2.208 25.336zm0 0" fill="#e6e7e8"/><g fill="#bdc3c7"><path d="M255.469 125.352a8.912 8.912 0 0 1-11.297 5.296c-3.707-1.324-91.895-32.043-148.922 41.227a7.842 7.842 0 0 1-3.531 2.648 148.406 148.406 0 0 1-3.442-15.625c-.265-1.765-.53-3.53-.707-5.386 65.059-73.797 161.633-39.903 162.606-39.461a8.8 8.8 0 0 1 4.992 4.55 8.798 8.798 0 0 1 .3 6.75zm0 0M426.02 130.383a164.114 164.114 0 0 1-2.297 28.515c-.086.262-.086.618-.176.883a57.663 57.663 0 0 0-45.727-36.37 8.837 8.837 0 0 1-6.61-5.856 8.835 8.835 0 0 1 1.767-8.653 8.83 8.83 0 0 1 8.375-2.793 79.898 79.898 0 0 1 44.668 24.274zm0 0"/><path d="M423.813 105.047c-.614.105-1.231.164-1.856.18a8.1 8.1 0 0 1-3.441-.707c-8.032-3.356-199.504-82.008-323.532-1.149a8.74 8.74 0 0 1-6.707 1.149 132.616 132.616 0 0 1 5.739-21.274v-.09c120.23-70.445 285.66-12.8 324.765 2.473a120.994 120.994 0 0 1 5.031 19.418zm0 0"/></g><path d="M414.898 512H512v-7.855a138.922 138.922 0 0 0-4.063-33.547l-8.207-33.278c-9.523-34.715-41.43-58.511-77.418-57.734H89.688c-35.988-.777-67.894 23.02-77.417 57.734l-8.207 33.278A138.922 138.922 0 0 0 0 504.145V512zm0 0" fill="#3b97d3"/><path d="M353.105 353.105h36.81a20.899 20.899 0 0 1 21.628 14.122L441.379 512H70.62l29.926-144.773a20.785 20.785 0 0 1 21.539-14.122zm0 0" fill="#2980ba"/><path d="M185.379 291.309H326.62v79.449H185.38zm0 0" fill="#f29c1f"/><path d="M388.414 185.379v61.793a61.747 61.747 0 0 1-61.793 61.793H185.38a61.747 61.747 0 0 1-61.793-61.793v-61.793c17.656-44.137 79.45-70.621 132.414-70.621s114.758 26.484 132.414 70.62zm0 0" fill="#f0c419"/><path d="M220.691 203.035h-26.484a8.829 8.829 0 0 1 0-17.656h26.484c4.875 0 8.825 3.953 8.825 8.828s-3.95 8.828-8.825 8.828zm0 0M317.793 203.035h-26.484c-4.875 0-8.825-3.953-8.825-8.828s3.95-8.828 8.825-8.828h26.484a8.829 8.829 0 0 1 0 17.656zm0 0" fill="#955ba5"/><path d="M158.898 256a8.832 8.832 0 0 1-8.156-5.45 8.831 8.831 0 0 1 1.914-9.62l8.828-8.825a8.825 8.825 0 0 1 12.375.106 8.828 8.828 0 0 1 .106 12.375l-8.828 8.828a8.797 8.797 0 0 1-6.239 2.586zm0 0M176.55 282.484a8.833 8.833 0 0 1-8.152-5.449 8.822 8.822 0 0 1 1.915-9.62l8.824-8.83c3.465-3.343 8.972-3.296 12.375.11 3.406 3.403 3.453 8.91.11 12.375l-8.829 8.825a8.803 8.803 0 0 1-6.242 2.59zm0 0" fill="#d75e72"/><path d="M353.105 353.105S344.277 406.07 256 406.07s-97.102-52.965-97.102-52.965zm0 0" fill="#f0c419"/><path d="M297.734 258.691c-7.129-13.957-29.394-15.933-41.558-15.933-12.188 0-34.422 1.976-41.555 15.933a179.535 179.535 0 0 1 41.555-5.207 179.357 179.357 0 0 1 41.558 5.207zm0 0M232.879 150.855a87.8 87.8 0 0 0-26.129-5.296 62.774 62.774 0 0 0-34.605 7.379c1.207-15.45 37.023-18.504 54.53-14.532a8.356 8.356 0 0 1 6.442 4.563 8.351 8.351 0 0 1-.238 7.886zm0 0M229.516 178.152c0-10.453-7.903-18.922-17.653-18.922s-17.656 8.47-17.656 18.922c0 10.45 7.906 18.922 17.656 18.922s17.653-8.472 17.653-18.922zm0 0" fill="#2c2f38"/><path d="M216.813 161.73a8.833 8.833 0 0 0-11.391 5.114 8.833 8.833 0 0 0 5.113 11.39 8.827 8.827 0 0 0 11.39-5.113 8.833 8.833 0 0 0-5.113-11.39zm0 0" fill="#fff"/><path d="M279.121 150.855a87.824 87.824 0 0 1 26.129-5.296 62.774 62.774 0 0 1 34.605 7.379c-1.207-15.45-37.023-18.504-54.53-14.532a8.362 8.362 0 0 0-6.442 4.563 8.351 8.351 0 0 0 .238 7.886zm0 0M317.793 178.152c0-10.453-7.902-18.922-17.656-18.922-9.75 0-17.653 8.47-17.653 18.922 0 10.45 7.903 18.922 17.653 18.922 9.754 0 17.656-8.472 17.656-18.922zm0 0" fill="#2c2f38"/><path d="M306.578 166.844a8.833 8.833 0 0 0-11.39-5.114 8.833 8.833 0 0 0-5.114 11.391 8.833 8.833 0 0 0 11.39 5.113 8.827 8.827 0 0 0 5.114-11.39zm0 0" fill="#fff"/></svg>