<svg height="512pt" viewBox="0 0 512 512" width="512pt" xmlns="http://www.w3.org/2000/svg"><path d="M512 504.145V512H0v-7.855a138.922 138.922 0 0 1 4.063-33.547l8.207-33.278c9.523-34.715 41.43-58.511 77.418-57.734h332.625c35.988-.777 67.894 23.02 77.417 57.734l8.207 33.278A138.922 138.922 0 0 1 512 504.145zm0 0" fill="#35495e"/><path d="M114.758 353.105c-88.274 0-97.102-61.796-97.102-61.796 70.621-26.48 44.137-158.895 61.793-211.86s73.864-41.8 79.45-52.965C167.722 8.828 220.69 0 282.483 0s150.067 35.309 167.723 132.414c17.656 97.102 8.828 141.242 44.137 158.895 0 0-5.778 61.796-104.406 61.796" fill="#2c2f38"/><path d="M344.277 353.105h45.637a20.899 20.899 0 0 1 21.629 14.122l2.559 12.359L441.379 512H70.62l27.367-132.414 2.559-12.36a20.785 20.785 0 0 1 21.539-14.12zm0 0" fill="#2c3e50"/><path d="M185.379 300.137H326.62v61.793H185.38zm0 0" fill="#f29c1f"/><path d="M388.414 203.035v44.137a61.747 61.747 0 0 1-61.793 61.793H185.38a61.747 61.747 0 0 1-61.793-61.793v-17.656c17.656-17.653 26.484-52.965 35.312-79.446 8.825-26.484 27.278-59.144 61.793-70.62 26.48-8.829 123.586 52.964 132.414 70.62a184.664 184.664 0 0 0 35.31 52.965zm0 0" fill="#f0c419"/><path d="M291.309 273.656H256c-43.637 0-44.137-25.406-44.137-26.484a8.826 8.826 0 0 1 8.828-8.828c4.875 0 8.825 3.953 8.825 8.828C229.93 249.91 236.027 256 256 256h35.309c4.878 0 8.828 3.953 8.828 8.828s-3.95 8.828-8.828 8.828zm0 0" fill="#e64c3c"/><path d="M344.277 353.105s-8.828 35.31-44.14 35.31c-35.309 0-44.137 17.655-44.137 17.655s-8.828-17.656-44.137-17.656c-35.312 0-44.14-35.309-44.14-35.309zm0 0" fill="#f0c419"/><path d="M167.723 512h-39.371a52.369 52.369 0 0 1-13.594-35.309c0-4.878 3.953-8.828 8.828-8.828s8.828 3.95 8.828 8.828a35.282 35.282 0 0 0 10.34 24.97A35.282 35.282 0 0 0 167.723 512zm0 0M397.242 476.691A52.369 52.369 0 0 1 383.648 512h-39.37a35.282 35.282 0 0 0 24.968-10.34 35.282 35.282 0 0 0 10.34-24.969c0-4.878 3.953-8.828 8.828-8.828s8.828 3.95 8.828 8.828zm0 0" fill="#3b97d3"/><path d="M264.828 441.379V512h-17.656v-70.621a8.829 8.829 0 0 1 17.656 0zm0 0" fill="#bdc3c7"/><path d="M247.172 406.07h17.656a8.826 8.826 0 0 1 8.828 8.828v17.653a8.829 8.829 0 0 1-8.828 8.828h-17.656a8.829 8.829 0 0 1-8.828-8.828v-17.653a8.826 8.826 0 0 1 8.828-8.828zm0 0" fill="#e6e7e8"/><path d="M229.516 182.566c0-10.453-7.903-18.925-17.653-18.925s-17.656 8.472-17.656 18.925c0 10.45 7.906 18.922 17.656 18.922s17.653-8.472 17.653-18.922zm0 0" fill="#35495e"/><path d="M216.813 166.145a8.827 8.827 0 0 0-11.391 5.113 8.827 8.827 0 0 0 5.113 11.39 8.833 8.833 0 0 0 11.39-5.113 8.833 8.833 0 0 0-5.113-11.39zm0 0" fill="#fff"/><path d="M317.79 182.566c0-10.453-7.903-18.925-17.653-18.925-9.754 0-17.657 8.472-17.657 18.925 0 10.45 7.903 18.922 17.657 18.922 9.75 0 17.652-8.472 17.652-18.922zm0 0" fill="#35495e"/><path d="M306.582 171.262a8.827 8.827 0 1 0-16.5 6.277c1.73 4.555 6.832 6.844 11.387 5.113a8.827 8.827 0 0 0 5.113-11.39zm0 0" fill="#fff"/><path d="M356.457 143.977c-12.71-13.239-64.793 3.53-73.797 7.238a59.353 59.353 0 0 0-10.41 5.129 16.508 16.508 0 0 1-9.098 2.554h-14.3a16.477 16.477 0 0 1-9.094-2.554 59.425 59.425 0 0 0-10.418-5.13c-9.004-3.706-61.086-20.476-73.797-7.237-8.297 8.476-6.18 28.425-.09 42.902 7.621 20.394 27.137 33.887 48.906 33.812a37.16 37.16 0 0 0 31.868-16.14 24.278 24.278 0 0 1 19.761-10.344h.024a24.278 24.278 0 0 1 19.761 10.344 37.16 37.16 0 0 0 31.868 16.14c21.773.075 41.285-13.418 48.906-33.812 6.09-14.477 8.21-34.426-.09-42.902zm-152.098 59.058a32.788 32.788 0 0 1-29.836-17.566 46.089 46.089 0 0 1-6.535-28.778c10.418-2.472 51.465 7.68 61.442 13.946-.618 8.476-4.149 32.398-25.07 32.398zM337.48 185.47a32.798 32.798 0 0 1-29.84 17.566c-20.742 0-24.363-23.922-24.98-32.398 9.887-6.266 50.492-16.418 61.176-13.946a45.36 45.36 0 0 1-6.356 28.778zm0 0" fill="#2c2f38"/></svg>