<svg height="512pt" viewBox="0 0 512 512" width="512pt" xmlns="http://www.w3.org/2000/svg"><path d="M44.137 393.094v-75.301a26.44 26.44 0 0 1 7.746-18.734 26.46 26.46 0 0 1 18.738-7.75H441.38a26.46 26.46 0 0 1 18.738 7.75 26.44 26.44 0 0 1 7.746 18.734v75.3zm0 0" fill="#3b97d3"/><path d="M185.379 291.309H326.62v79.449H185.38zm0 0" fill="#f29c1f"/><path d="M512 504.145V512H0v-7.855a138.922 138.922 0 0 1 4.063-33.547l8.207-33.278c9.523-34.715 41.43-58.511 77.418-57.734h332.625c35.988-.777 67.894 23.02 77.417 57.734l8.207 33.278A138.922 138.922 0 0 1 512 504.145zm0 0" fill="#4c8056"/><path d="M441.379 512H70.62l27.367-132.414 2.559-12.36a20.785 20.785 0 0 1 21.539-14.12h267.828a20.899 20.899 0 0 1 21.629 14.12l2.559 12.36zm0 0" fill="#4fba6f"/><path d="M388.414 185.379v61.793a61.747 61.747 0 0 1-61.793 61.793H185.38a61.747 61.747 0 0 1-61.793-61.793v-61.793c17.656-8.828 35.312-35.309 35.312-70.621 0-35.309 70.618-35.309 97.102-35.309s97.105 0 97.105 35.309c0 35.312 17.653 61.793 35.31 70.62zm0 0" fill="#f0c419"/><g fill="#805333"><path d="M425.047 132.414c16.863 26.484-8.473 61.793-8.473 61.793a96.44 96.44 0 0 1-28.16 48.2v-30.544c-17.656-8.828-35.309-35.312-35.309-70.62 0-35.313-70.62-35.313-97.105-35.313s-97.102 0-97.102 35.312c0 35.309-17.656 61.793-35.312 70.621v30.543a96.44 96.44 0 0 1-28.16-48.199s-25.336-35.309-8.473-61.793c0 0-25.336-70.621 16.95-79.45 0 0 0-17.655 33.808-35.308 0 0 16.86 8.828 16.86 17.653a103.972 103.972 0 0 1 33.808-26.48l16.95 17.655S239.14 0 256 0s50.672 26.484 50.672 26.484l16.95-17.656a103.972 103.972 0 0 1 33.808 26.48c0-8.824 16.86-17.652 16.86-17.652 33.808 17.653 33.808 35.309 33.808 35.309 42.285 8.828 16.949 79.45 16.949 79.45zm0 0"/><path d="M167.723 220.691a8.822 8.822 0 0 1-8.825 8.825 8.823 8.823 0 0 1-8.828-8.825 8.824 8.824 0 0 1 8.828-8.828 8.823 8.823 0 0 1 8.825 8.828zm0 0M167.723 247.172c0 4.875-3.95 8.828-8.825 8.828-4.878 0-8.828-3.953-8.828-8.828s3.95-8.828 8.828-8.828c4.875 0 8.825 3.953 8.825 8.828zm0 0M194.207 247.172a8.829 8.829 0 1 1-17.658-.002 8.829 8.829 0 0 1 17.658.002zm0 0M194.207 273.656a8.829 8.829 0 1 1-17.658-.001 8.829 8.829 0 0 1 17.658.001zm0 0M220.691 273.656a8.829 8.829 0 1 1-17.657-.001 8.829 8.829 0 0 1 17.657.001zm0 0M361.93 220.691a8.822 8.822 0 0 1-8.825 8.825 8.823 8.823 0 0 1-8.828-8.825 8.824 8.824 0 0 1 8.828-8.828 8.823 8.823 0 0 1 8.825 8.828zm0 0M361.93 247.172c0 4.875-3.95 8.828-8.825 8.828-4.878 0-8.828-3.953-8.828-8.828s3.95-8.828 8.828-8.828c4.875 0 8.825 3.953 8.825 8.828zm0 0M335.45 247.172a8.829 8.829 0 1 1-17.659-.002 8.829 8.829 0 0 1 17.658.002zm0 0M335.45 273.656a8.829 8.829 0 1 1-17.659-.001 8.829 8.829 0 0 1 17.658.001zm0 0M308.965 273.656a8.829 8.829 0 1 1-17.658-.001 8.829 8.829 0 0 1 17.658.001zm0 0"/></g><path d="M141.242 414.898h35.309c4.875 0 8.828 3.95 8.828 8.825v35.312a8.829 8.829 0 0 1-8.828 8.828h-35.309a8.829 8.829 0 0 1-8.828-8.828v-35.312c0-4.875 3.953-8.825 8.828-8.825zm0 0M335.45 414.898h35.308c4.875 0 8.828 3.95 8.828 8.825v35.312a8.829 8.829 0 0 1-8.828 8.828h-35.309a8.829 8.829 0 0 1-8.828-8.828v-35.312c0-4.875 3.953-8.825 8.828-8.825zm0 0" fill="#3b97d3"/><path d="M264.828 406.07V512h-17.656V406.07a8.829 8.829 0 0 1 17.656 0zm0 0M141.242 414.898v-61.793h35.309v61.793M141.242 467.863h35.309V512h-35.309zm0 0M335.45 414.898v-61.793h35.308v61.793M335.45 467.863h35.308V512h-35.309zm0 0" fill="#2980ba"/><path d="M176.55 406.07h-35.308c-9.738.028-17.629 7.914-17.656 17.653v35.312c.023 9.742 7.914 17.63 17.656 17.656h35.309c9.742-.027 17.633-7.914 17.656-17.656v-35.312c-.027-9.739-7.918-17.625-17.656-17.653zm-35.308 52.965v-35.312h35.309v35.312zm0 0M370.758 406.07h-35.309c-9.738.028-17.629 7.914-17.656 17.653v35.312c.023 9.742 7.914 17.63 17.656 17.656h35.309c9.742-.027 17.633-7.914 17.656-17.656v-35.312c-.027-9.739-7.918-17.625-17.656-17.653zm-35.309 52.965v-35.312h35.309v35.312zm0 0" fill="#35495e"/><path d="M132.414 353.105h17.656v61.793c0 4.875-3.953 8.825-8.828 8.825s-8.828-3.95-8.828-8.825zm0 0M185.379 353.105v61.793c0 4.875-3.953 8.825-8.828 8.825s-8.828-3.95-8.828-8.825v-61.793zm0 0M150.07 467.863V512h-17.656v-44.137c0-1.558.43-3.082 1.234-4.414a8.682 8.682 0 0 1 7.594-4.414c4.867.012 8.813 3.957 8.828 8.828zm0 0M185.379 467.863V512h-17.656v-44.137c.015-4.87 3.96-8.816 8.828-8.828a8.682 8.682 0 0 1 7.594 4.414 8.533 8.533 0 0 1 1.234 4.414zm0 0M326.621 353.105h17.656v61.793c0 4.875-3.953 8.825-8.828 8.825s-8.828-3.95-8.828-8.825zm0 0M379.586 353.105v61.793c0 4.875-3.953 8.825-8.828 8.825s-8.828-3.95-8.828-8.825v-61.793zm0 0M344.277 467.863V512h-17.656v-44.137c0-1.558.43-3.082 1.234-4.414a8.682 8.682 0 0 1 7.594-4.414c4.867.012 8.813 3.957 8.828 8.828zm0 0M379.586 467.863V512H361.93v-44.137c.015-4.87 3.96-8.816 8.828-8.828a8.682 8.682 0 0 1 7.594 4.414 8.533 8.533 0 0 1 1.234 4.414zm0 0" fill="#35495e"/><path d="M297.734 247.172c-7.132 13.957-29.398 15.933-41.558 15.933-12.188 0-34.422-1.976-41.555-15.933a179.535 179.535 0 0 0 41.555 5.207 179.356 179.356 0 0 0 41.558-5.207zm0 0M232.879 155.27a87.8 87.8 0 0 0-26.129-5.297 62.774 62.774 0 0 0-34.605 7.379c1.207-15.45 37.023-18.504 54.53-14.532a8.36 8.36 0 0 1 6.442 4.559 8.359 8.359 0 0 1-.238 7.89zm0 0M229.516 182.566c0-10.453-7.903-18.925-17.653-18.925s-17.656 8.472-17.656 18.925c0 10.45 7.906 18.922 17.656 18.922s17.653-8.472 17.653-18.922zm0 0" fill="#2c2f38"/><path d="M216.813 166.145a8.827 8.827 0 0 0-11.391 5.113 8.827 8.827 0 0 0 5.113 11.39 8.833 8.833 0 0 0 11.39-5.113 8.833 8.833 0 0 0-5.113-11.39zm0 0" fill="#fff"/><path d="M279.121 155.27a87.824 87.824 0 0 1 26.129-5.297 62.774 62.774 0 0 1 34.605 7.379c-1.207-15.45-37.023-18.504-54.53-14.532a8.366 8.366 0 0 0-6.442 4.559 8.359 8.359 0 0 0 .238 7.89zm0 0M317.793 182.566c0-10.453-7.902-18.925-17.656-18.925-9.75 0-17.653 8.472-17.653 18.925 0 10.45 7.903 18.922 17.653 18.922 9.754 0 17.656-8.472 17.656-18.922zm0 0" fill="#2c2f38"/><path d="M306.578 171.258a8.833 8.833 0 0 0-11.39-5.113 8.833 8.833 0 0 0-5.114 11.39c1.735 4.555 6.836 6.844 11.39 5.113a8.827 8.827 0 0 0 5.114-11.39zm0 0" fill="#fff"/></svg>