<svg height="512pt" viewBox="0 0 512 512.039" width="512pt" xmlns="http://www.w3.org/2000/svg"><path d="M185.398 291.348h141.243v79.449H185.398zm0 0" fill="#f29c1f"/><path d="M512.02 504.184v7.855H.02v-7.855a138.922 138.922 0 0 1 4.062-33.547l8.207-33.278c9.524-34.714 41.43-58.511 77.418-57.734h333.332c35.75-.52 67.313 23.234 76.711 57.734l8.207 33.278a138.922 138.922 0 0 1 4.063 33.547zm0 0" fill="#f0c419"/><path d="M441.398 512.04H70.641l27.363-132.415 2.562-12.36a20.792 20.792 0 0 1 21.54-14.124h222.19l-93.308 104.875-1.234 1.41 58.437 43.61 1.235-1.415 105.402-118.555 1.942 9.446.265 1.324zm0 0" fill="#f3d55b"/><path d="M414.828 383.066L309.426 501.621l-1.235 1.414-58.437-43.61 1.234-1.41 93.309-104.874h45.637a20.907 20.907 0 0 1 21.628 14.125l.793 3.707zm0 0" fill="#b19046"/><path d="M308.984 511.773v.266h-105.93c.024-23.504 15.505-44.195 38.048-50.848a53.86 53.86 0 0 1 8.652-1.765 48.673 48.673 0 0 1 6.266-.352c1.94 0 3.796.086 5.648.266a52.897 52.897 0 0 1 43.7 33.543 49.451 49.451 0 0 1 2.823 10.152c.536 2.883.801 5.809.793 8.738zm0 0" fill="#e4c05c"/><path d="M388.434 211.902v35.309a61.754 61.754 0 0 1-18.086 43.707 61.738 61.738 0 0 1-43.707 18.086H185.398a61.738 61.738 0 0 1-43.707-18.086 61.754 61.754 0 0 1-18.086-43.707v-35.309c0-44.14 52.965-52.968 88.278-79.449a107.42 107.42 0 0 1 74.414-18.363 415.526 415.526 0 0 0 75.832 62.148c17.566 8.914 26.305 35.664 26.305 35.664zm0 0" fill="#f0c419"/><path d="M286.297 114.09a107.42 107.42 0 0 0-74.414 18.363c-35.313 26.48-88.278 35.309-88.278 79.45v35.308c-19.597-13.066-39.195-45.375-47.933-86.332v-.09a203.083 203.083 0 0 1-3.621-21.098 230.47 230.47 0 0 1-1.41-24.894 106.852 106.852 0 0 1 14.742-55.879 95.77 95.77 0 0 1 15.625-19.684 113.997 113.997 0 0 1 57.91-30.367 108.399 108.399 0 0 1 79.445 17.656l.617.086a38.74 38.74 0 0 0 .442 15.801 91.896 91.896 0 0 0 11.652 27.719c2.738 4.59 5.918 9.18 9.36 13.86a288.843 288.843 0 0 0 25.863 30.1zm0 0" fill="#4fba6f"/><path d="M262.023 79.047c0 1.851 3.883-.973 2.825.441-1.59 2.293 11.828 8.828 8.828 8.828-.531.086-21.364-.53-21.805-.53A243.739 243.739 0 0 0 76.996 159.73c-.398.407-.84.762-1.324 1.06a203.083 203.083 0 0 1-3.621-21.099A263.436 263.436 0 0 1 251.074 70.13h2.121a8.818 8.818 0 0 1 6.278 2.613 8.842 8.842 0 0 1 2.55 6.305zm0 0M181.602 54.945a8.943 8.943 0 0 1-8.649 6.887c-.652-.02-1.3-.078-1.941-.176a192.754 192.754 0 0 0-81.57-2.648 7.858 7.858 0 0 1-4.06-.09 95.77 95.77 0 0 1 15.626-19.684 225.926 225.926 0 0 1 73.887 5.118c4.77 1.082 7.77 5.82 6.707 10.593zm0 0" fill="#4c8056"/><path d="M436.898 134.043a186.222 186.222 0 0 1-31.691 92.777 146.172 146.172 0 0 1-16.773 20.39v-35.308s-8.739-26.75-26.305-35.664a415.526 415.526 0 0 1-75.832-62.148c-22.422-23.04-42.106-48.903-46.875-71.68a38.74 38.74 0 0 1-.442-15.8c6.711-35.665 72.477-27.805 88.102-19.864 0 0 87.836-6.707 105.488 72.742a193.529 193.529 0 0 1 4.328 54.555zm0 0" fill="#24ae5f"/><path d="M436.898 134.043a182.692 182.692 0 0 1-4.062 28.687 413.538 413.538 0 0 0-77.95-103.37 8.856 8.856 0 0 1-2.44-8.544 8.864 8.864 0 0 1 14.8-4.168 446.699 446.699 0 0 1 69.652 87.395zm0 0M343.414 114.797a8.783 8.783 0 0 1-6.242-2.586 278.555 278.555 0 0 1-45.793-64.09 8.826 8.826 0 0 1 8.406-12.879c3.18.207 6 2.113 7.383 4.985a265.34 265.34 0 0 0 42.484 59.496 8.83 8.83 0 0 1-6.238 15.074zm0 0" fill="#4c8056"/><g fill="#805333"><path d="M354.71 353.14l-92.07 103.462a8.626 8.626 0 0 1-6.62 3 8.717 8.717 0 0 1-5.032-1.586c-.265-.18-30.015 18.976-30.277 18.71-3.711-3.265 25.512-28.156 28.687-31.867l81.567-91.718zm0 0M416.77 392.512L321.078 500.21c-1.765 2.027-9.621 11.828-12.094 11.828-1.765 0 1.942-9.36.442-10.418a4.648 4.648 0 0 1-.793-.617 8.802 8.802 0 0 1-2.977-6.059 8.788 8.788 0 0 1 2.18-6.386l104.52-117.586 2.472 12.093zm0 0"/><path d="M317.813 512.04h-17.657a42.109 42.109 0 0 0-.527-6.798v-.176c0-.18-.09-.265-.09-.441v-.18a.325.325 0 0 0-.086-.261 37.672 37.672 0 0 0-3.09-9.977 43.484 43.484 0 0 0-34.695-25.953h-.086a37.86 37.86 0 0 0-5.562-.352 48.767 48.767 0 0 0-5.122.262h-.175c-.176 0-.352.09-.532.09-21.949 2.906-38.343 21.64-38.308 43.785h-17.656c-.059-29.941 21.441-55.578 50.933-60.734 1.149-.266 2.297-.442 3.531-.618a49.451 49.451 0 0 1 7.329-.44c.62-.017 1.238.015 1.855.089 3.621.047 7.23.46 10.77 1.234a61.35 61.35 0 0 1 43.253 34.075A47.236 47.236 0 0 1 315.34 495a41.3 41.3 0 0 1 1.59 6.535c.27 1.43.445 2.871.53 4.324.25 2.051.368 4.114.352 6.18zm0 0"/></g><path d="M297.754 276.383c-7.129-13.957-29.395-15.93-41.559-15.93-12.187 0-34.422 1.973-41.554 15.93a179.747 179.747 0 0 1 41.554-5.207 179.568 179.568 0 0 1 41.559 5.207zm0 0M232.898 172.96a87.922 87.922 0 0 0-26.128-5.296 62.842 62.842 0 0 0-34.606 7.379c1.207-15.45 37.024-18.5 54.531-14.527a8.342 8.342 0 0 1 6.203 12.445zm0 0M229.535 200.258c0-10.45-7.902-18.922-17.652-18.922s-17.656 8.473-17.656 18.922c0 10.453 7.906 18.926 17.656 18.926s17.652-8.473 17.652-18.926zm0 0" fill="#2c2f38"/><path d="M216.832 183.84a8.827 8.827 0 0 0-11.39 5.113 8.823 8.823 0 0 0 5.113 11.387 8.827 8.827 0 1 0 6.277-16.5zm0 0" fill="#fff"/><path d="M279.14 172.96a87.947 87.947 0 0 1 26.13-5.296 62.842 62.842 0 0 1 34.605 7.379c-1.207-15.45-37.023-18.5-54.531-14.527a8.342 8.342 0 0 0-6.203 12.445zm0 0M317.813 200.258c0-10.45-7.907-18.922-17.657-18.922s-17.652 8.473-17.652 18.922c0 10.453 7.902 18.926 17.652 18.926s17.656-8.473 17.656-18.926zm0 0" fill="#2c2f38"/><path d="M306.598 188.953a8.827 8.827 0 0 0-11.391-5.113c-4.555 1.73-6.844 6.832-5.113 11.387a8.827 8.827 0 0 0 11.39 5.113 8.823 8.823 0 0 0 5.114-11.387zm0 0" fill="#fff"/></svg>