<svg height="512pt" viewBox="0 0 512 512" width="512pt" xmlns="http://www.w3.org/2000/svg"><path d="M414.898 512H512v-7.855a138.922 138.922 0 0 0-4.063-33.547l-8.207-33.278c-9.523-34.715-41.43-58.511-77.418-57.734H89.688c-35.988-.777-67.894 23.02-77.417 57.734l-8.207 33.278A138.922 138.922 0 0 0 0 504.145V512zm0 0" fill="#e64c3c"/><path d="M397.242 353.105c61.793 0 80.242-52.968 62.586-79.449a189.314 189.314 0 0 1-35.308-105.933c0-44.137-8.829-97.102-44.141-114.758C345.07 35.309 283.277 0 256.793 0H256c-26.484 0-88.277 35.309-123.586 52.965-35.309 17.656-44.137 70.62-44.137 114.758a189.288 189.288 0 0 1-35.312 105.933c-17.656 26.48 0 79.45 61.793 79.45L224 450.206h76.691zm0 0" fill="#527f72"/><path d="M388.414 167.723v44.14c-8.828 8.828-26.484 17.653-61.793 17.653-35.312 0-52.965-26.48-70.621-26.48s-35.309 26.48-70.621 26.48c-35.309 0-52.965-8.825-61.793-17.653v-44.14c0-17.653 17.656-44.137 44.137-61.793 26.484-17.653 61.793 26.484 88.277 26.484s61.793-44.137 88.277-26.484a123.713 123.713 0 0 1 18.094 14.656c16.156 15.71 26.043 33.898 26.043 47.137zm0 0" fill="#f0c419"/><path d="M151.656 419.84A240.696 240.696 0 0 0 132.414 512H70.621l29.926-144.773a20.785 20.785 0 0 1 21.539-14.122h45.637c-16.317-.007-30.508 11.172-34.328 27.036-3.82 15.863 3.734 32.277 18.261 39.699zm0 0" fill="#804537"/><path d="M441.379 512H132.414a240.696 240.696 0 0 1 19.242-92.16 35.212 35.212 0 0 0 27.34 2.035 35.212 35.212 0 0 0 20.508-18.188 599.77 599.77 0 0 0 229.164 46.52zm0 0" fill="#527f72"/><path d="M199.504 403.688a34.12 34.12 0 0 0 3.531-15.274 35.296 35.296 0 0 0-35.313-35.309H195a98.486 98.486 0 0 0 61 26.48 98.486 98.486 0 0 0 61-26.48h72.914a20.899 20.899 0 0 1 21.629 14.122l17.125 82.98a599.77 599.77 0 0 1-229.164-46.52zm0 0" fill="#804537"/><path d="M406.07 282.484c0 26.48-52.965 35.309-79.449 61.793-3.18 3.176-6.445 6.18-9.621 8.828a98.486 98.486 0 0 1-61 26.48 98.486 98.486 0 0 1-61-26.48c-3.176-2.648-6.441-5.652-9.621-8.828-26.48-26.484-79.45-35.312-79.45-61.793 0-26.484 8.829-79.449 17.657-70.62 8.828 8.827 26.484 17.652 61.793 17.652 35.312 0 52.965-26.48 70.621-26.48s35.309 26.48 70.621 26.48c35.309 0 52.965-8.825 61.793-17.653 8.828-8.828 17.656 44.137 17.656 70.621zm0 0" fill="#26b99a"/><g fill="#527f72"><path d="M167.723 273.656a146.566 146.566 0 0 1-63.485-11.734 8.818 8.818 0 0 1-5.207-7.305 8.823 8.823 0 0 1 3.88-8.094 8.834 8.834 0 0 1 8.956-.515A129.567 129.567 0 0 0 167.723 256c49.23 0 66.609-7.871 66.777-7.945 4.375-2.153 9.668-.348 11.82 4.027 2.153 4.375.348 9.664-4.027 11.816-2 1-21.066 9.758-74.57 9.758zm0 0M344.277 273.656c-53.504 0-72.57-8.758-74.57-9.761a8.83 8.83 0 0 1-3.95-11.844c2.184-4.36 7.485-6.13 11.848-3.946.063.024 17.442 7.895 66.672 7.895a129.567 129.567 0 0 0 55.856-9.992 8.834 8.834 0 0 1 8.957.515 8.823 8.823 0 0 1 3.879 8.094c-.274 3.2-2.27 6-5.207 7.305a146.566 146.566 0 0 1-63.485 11.734zm0 0M256 326.621a253.831 253.831 0 0 1-55.11-9.094 131.785 131.785 0 0 0-65.742 2.676 8.836 8.836 0 0 1-8.636-2.133 8.83 8.83 0 0 1 3.875-14.867 149.348 149.348 0 0 1 74.789-2.797 244.949 244.949 0 0 0 50.847 8.567 245.288 245.288 0 0 0 50.801-8.567 149.195 149.195 0 0 1 74.57 2.735 8.826 8.826 0 0 1 6.66 9.609 8.826 8.826 0 0 1-8.73 7.781h-.086c-.804 0-1.61-.113-2.383-.328a131.798 131.798 0 0 0-65.746-2.672 253.826 253.826 0 0 1-55.109 9.09zm0 0"/></g><path d="M203.035 388.414a34.12 34.12 0 0 1-3.531 15.274c-7.824 16.12-26.508 23.8-43.406 17.832-16.899-5.965-26.621-23.676-22.586-41.137 4.039-17.461 20.547-29.106 38.351-27.047 17.801 2.055 31.223 17.156 31.172 35.078zm0 0" fill="#e6e7e8"/><path d="M284.777 512h-35.222a228.715 228.715 0 0 1-53.582-47.668 8.826 8.826 0 0 1 1.765-12.36 8.826 8.826 0 0 1 12.36 1.766A231.36 231.36 0 0 0 284.778 512zm0 0" fill="#5e5f62"/><path d="M231.215 160.793a87.747 87.747 0 0 0-24.664-10.133 62.81 62.81 0 0 0-35.38.711c4.106-14.941 39.852-11.18 56.294-3.969a8.344 8.344 0 0 1 3.75 13.39zm0 0" fill="#805333"/><path d="M229.516 178.152c0-10.453-7.903-18.922-17.653-18.922s-17.656 8.47-17.656 18.922c0 10.45 7.906 18.922 17.656 18.922s17.653-8.472 17.653-18.922zm0 0" fill="#2c2f38"/><path d="M216.813 161.73a8.833 8.833 0 0 0-11.391 5.114 8.833 8.833 0 0 0 5.113 11.39 8.827 8.827 0 0 0 11.39-5.113 8.833 8.833 0 0 0-5.113-11.39zm0 0" fill="#fff"/><path d="M279.84 162.645a49.234 49.234 0 0 1 24.86-17.32 35.398 35.398 0 0 1 36.304 11.527c-.137-.133.137-2.946.086-3.387a11.964 11.964 0 0 0-.918-3.317 16.754 16.754 0 0 0-4.469-5.84 35.972 35.972 0 0 0-16.39-7.495 44.867 44.867 0 0 0-24.083 1.195 36.957 36.957 0 0 0-12.664 7.46c-3.242 2.97-8.043 8.43-5.957 13.407a28.568 28.568 0 0 0 3.23 3.77zm0 0" fill="#805333"/><path d="M317.793 178.152c0-10.453-7.902-18.922-17.656-18.922-9.75 0-17.653 8.47-17.653 18.922 0 10.45 7.903 18.922 17.653 18.922 9.754 0 17.656-8.472 17.656-18.922zm0 0" fill="#2c2f38"/><path d="M306.578 166.844a8.833 8.833 0 0 0-11.39-5.114 8.833 8.833 0 0 0-5.114 11.391 8.833 8.833 0 0 0 11.39 5.113 8.827 8.827 0 0 0 5.114-11.39zm0 0" fill="#fff"/></svg>