<svg height="512pt" viewBox="0 0 512 512" width="512pt" xmlns="http://www.w3.org/2000/svg"><path d="M512 512v-26.484a123.57 123.57 0 0 0-36.2-87.387 123.586 123.586 0 0 0-87.386-36.2H123.586C55.332 361.93 0 417.263 0 485.517V512zm0 0" fill="#2c2f38"/><path d="M185.379 338.555H326.62v67.515H185.38zm0 0" fill="#35495e"/><path d="M416.84 432.55h5.473c36.988 0 69.12 14.391 77.417 34.606l8.207 20.04A52.146 52.146 0 0 1 512 507.32V512H0v-4.68a52.146 52.146 0 0 1 4.063-20.125l8.207-20.039c8.296-20.215 40.43-34.605 77.418-34.605zm0 0" fill="#95a5a5"/><path d="M203.035 264.828h105.93c9.75 0 17.656 7.902 17.656 17.656v61.793c0 9.75-7.906 17.653-17.656 17.653h-105.93c-9.75 0-17.656-7.903-17.656-17.653v-61.793c0-9.754 7.906-17.656 17.656-17.656zm0 0" fill="#fdd7ad"/><path d="M326.621 344.277v-61.793c-.027-9.742-7.918-17.629-17.656-17.656h-105.93c-9.738.027-17.629 7.914-17.656 17.656v79.446a61.747 61.747 0 0 1-61.793-61.793V176.55C123.586 141.242 141.242 0 194.207 0v70.621c.027 9.738 7.918 17.625 17.656 17.656h88.274c9.738-.03 17.629-7.918 17.656-17.656V0c52.965 0 70.621 141.242 70.621 176.55v123.587a61.747 61.747 0 0 1-61.793 61.793zm0 0" fill="#2c2f38"/><path d="M441.379 512H70.62l29.906-96.496c1.637-5.441 10.797-9.434 21.59-9.434h267.82c10.797 0 19.954 3.993 21.59 9.434zm0 0" fill="#7f8c8d"/><path d="M236.578 210.496a38.243 38.243 0 0 1-38.273 9.68 38.243 38.243 0 0 1-30.707-24.809s5.675-25.867 40.168-18.3c25.867 5.671 28.812 33.43 28.812 33.43zm0 0M275.297 210.496a38.239 38.239 0 0 0 38.27 9.68 38.256 38.256 0 0 0 30.71-24.809s-5.675-25.867-40.168-18.3c-25.863 5.671-28.812 33.43-28.812 33.43zm0 0" fill="#e6e7e8"/><path d="M326.621 476.691c0-19.504-31.617-35.312-70.621-35.312s-70.621 15.808-70.621 35.312c0 19.5 31.617 35.309 70.621 35.309s70.621-15.809 70.621-35.309zm0 0" fill="#f0c419"/><g fill="#2c2f38"><path d="M256 503.172a8.829 8.829 0 0 1-8.828-8.828v-26.067a65.064 65.064 0 0 0-37.942 14.707 8.828 8.828 0 1 1-12.438-12.535 85.883 85.883 0 0 1 59.208-20.242 8.829 8.829 0 0 1 8.828 8.828v35.309a8.829 8.829 0 0 1-8.828 8.828zm0 0"/><path d="M256 503.172a8.829 8.829 0 0 1-8.828-8.828v-35.309a8.829 8.829 0 0 1 8.828-8.828 85.921 85.921 0 0 1 59.207 20.242 8.829 8.829 0 0 1-.082 12.364 8.834 8.834 0 0 1-12.367.152 65.246 65.246 0 0 0-37.93-14.688v26.067a8.829 8.829 0 0 1-8.828 8.828zm0 0"/><path d="M273.656 485.516a8.783 8.783 0 0 1-6.242-2.586L256 471.516l-11.414 11.414a8.828 8.828 0 0 1-12.375-.106 8.825 8.825 0 0 1-.106-12.375l17.653-17.656a8.829 8.829 0 0 1 12.484 0l17.653 17.656a8.817 8.817 0 0 1 1.914 9.617 8.82 8.82 0 0 1-8.153 5.45zm0 0M297.73 295.723c-7.128 13.96-29.394 15.933-41.554 15.933-12.188 0-34.422-1.972-41.555-15.933a179.539 179.539 0 0 0 41.555 5.21 179.512 179.512 0 0 0 41.554-5.21zm0 0"/></g></svg>