<svg height="512pt" viewBox="0 0 512 512" width="512pt" xmlns="http://www.w3.org/2000/svg"><path d="M512 504.145V512H0v-7.855a138.922 138.922 0 0 1 4.063-33.547l8.207-33.278c9.523-34.715 41.43-58.511 77.418-57.734h332.625c35.988-.777 67.894 23.02 77.417 57.734l8.207 33.278A138.922 138.922 0 0 1 512 504.145zm0 0" fill="#4482c3"/><path d="M441.379 512H70.62l27.367-132.414 2.559-12.36a20.785 20.785 0 0 1 21.539-14.12h267.828a20.899 20.899 0 0 1 21.629 14.12l2.559 12.36zm0 0" fill="#3b97d3"/><path d="M361.93 467.863L335.45 512h-158.9l-26.48-44.137 35.309-35.312H326.62zm0 0" fill="#f0c419"/><path d="M388.414 247.172v-79.45a78.993 78.993 0 0 0-2.117-18.71c-6.094-24.278-28.16-39.637-51.203-46.348a159.137 159.137 0 0 0-48.727-5.559 29.799 29.799 0 0 0-27.719 16.594C256 119.438 256 141.242 238.344 150.07c-23.215 11.653-35.309 0-35.309 0s16.153-23.043 1.59-42.11v-.085c-.531-.707-1.063-1.324-1.59-1.945a29.526 29.526 0 0 0-27.808-9.707 54.788 54.788 0 0 0-33.543 20.742 85.54 85.54 0 0 0-18.098 50.758v79.449c-35.309-8.828-35.309-88.274-35.309-150.067C88.277 35.31 158.898 0 256 0c97.105 0 99.93 36.281 123.586 44.137 52.965 17.656 61.793 123.586 8.828 203.035zm0 0" fill="#2c2f38"/><path d="M222.898 40.52a8.8 8.8 0 0 1-8.828 8.828 24.61 24.61 0 0 0-24.367 14.562c-3.969 9.625-2.644 25.426 12.977 41.05a7.999 7.999 0 0 1 1.945 2.915c-.531-.707-1.063-1.324-1.59-1.945a29.526 29.526 0 0 0-27.808-9.707 48.232 48.232 0 0 1-1.852-39.11c6.941-16.125 23.156-26.254 40.695-25.422a8.857 8.857 0 0 1 8.828 8.829zm0 0" fill="#5e5f62"/><path d="M185.379 308.965H326.62v44.14H185.38zm0 0" fill="#f9c795"/><path d="M388.414 167.723v79.449a61.747 61.747 0 0 1-61.793 61.793H185.38a61.747 61.747 0 0 1-61.793-61.793v-79.45a85.54 85.54 0 0 1 18.098-50.757c14.21-18.45 43.52-31.074 61.351-11.035 17.3 19.422 0 44.14 0 44.14s12.094 11.653 35.309 0C256 141.242 256 119.438 258.648 113.7a29.799 29.799 0 0 1 27.72-16.595 159.137 159.137 0 0 1 48.726 5.56c23.043 6.71 45.11 22.07 51.203 46.347a78.993 78.993 0 0 1 2.117 18.71zm0 0" fill="#fdd7ad"/><path d="M255.902 405.957a8.617 8.617 0 0 1-6.144-2.473 49.156 49.156 0 0 0-29.067-6.242h-61.793c-4.878 0-8.828-3.953-8.828-8.828s3.95-8.828 8.828-8.828h61.793A74.855 74.855 0 0 1 256 386.648a74.855 74.855 0 0 1 35.309-7.062h61.796c4.875 0 8.825 3.953 8.825 8.828s-3.95 8.828-8.825 8.828H291.31c-21.579 0-29.22 6.387-29.293 6.457a9.383 9.383 0 0 1-6.114 2.258zm0 0" fill="#285680"/><path d="M369.523 472.363L345.777 512h-19.156a9.069 9.069 0 0 1 1.234-4.5l22.954-38.227L323 441.38H189l-27.809 27.894 22.954 38.227a9.069 9.069 0 0 1 1.234 4.5h-19.156l-23.746-39.637a8.957 8.957 0 0 1 1.324-10.77l35.312-35.308a9.114 9.114 0 0 1 6.266-2.562H326.62c2.34.02 4.586.933 6.266 2.562l35.312 35.309a8.957 8.957 0 0 1 1.324 10.77zm0 0" fill="#e64c3c"/><path d="M319.117 432.55v28.126a4.388 4.388 0 0 1-6.265 4c-16.82-8.043-63.594-27.067-92.16-5.64-27.72 20.784 33.632 44.401 77.152 52.964H185.379c-13.457-25.82-9.969-57.21 8.828-79.45 2.648-3.265 5.563 2.65 8.473 0 3.527-3.198 7.273-6.152 11.21-8.827h60.473zm0 0" fill="#e64c3c"/><g fill="#2c2f38"><path d="M301.242 237.793c-4.867 15.023-27.77 22.406-40.172 24.578-12.425 2.176-35.441 4.2-45.12-8.277 14.464.87 28.98.101 43.273-2.29a201.154 201.154 0 0 0 42.02-14.011zm0 0M231.215 165.207a87.747 87.747 0 0 0-24.664-10.133 62.81 62.81 0 0 0-35.38.711c4.106-14.941 39.852-11.18 56.294-3.972a8.35 8.35 0 0 1 5.469 5.69 8.344 8.344 0 0 1-1.72 7.704zm0 0M229.516 182.566c0-10.453-7.903-18.925-17.653-18.925s-17.656 8.472-17.656 18.925c0 10.45 7.906 18.922 17.656 18.922s17.653-8.472 17.653-18.922zm0 0"/></g><path d="M216.813 166.145a8.827 8.827 0 0 0-11.391 5.113 8.827 8.827 0 0 0 5.113 11.39 8.833 8.833 0 0 0 11.39-5.113 8.833 8.833 0 0 0-5.113-11.39zm0 0" fill="#fff"/><path d="M279.84 167.059a49.234 49.234 0 0 1 24.86-17.32 35.398 35.398 0 0 1 36.304 11.527c-.137-.133.137-2.946.086-3.387a11.927 11.927 0 0 0-.918-3.316 16.754 16.754 0 0 0-4.469-5.84 35.972 35.972 0 0 0-16.39-7.496 44.867 44.867 0 0 0-24.083 1.195 36.957 36.957 0 0 0-12.664 7.46c-3.242 2.97-8.043 8.43-5.957 13.407a28.568 28.568 0 0 0 3.23 3.77zm0 0" fill="#2c2f38"/><path d="M317.793 182.566c0-10.453-7.902-18.925-17.656-18.925-9.75 0-17.653 8.472-17.653 18.925 0 10.45 7.903 18.922 17.653 18.922 9.754 0 17.656-8.472 17.656-18.922zm0 0" fill="#2c2f38"/><path d="M306.578 171.258a8.833 8.833 0 0 0-11.39-5.113 8.833 8.833 0 0 0-5.114 11.39c1.735 4.555 6.836 6.844 11.39 5.113a8.827 8.827 0 0 0 5.114-11.39zm0 0" fill="#fff"/></svg>