<svg height="512pt" viewBox="0 0 512 512" width="512pt" xmlns="http://www.w3.org/2000/svg"><path d="M414.898 512H512v-7.855a138.922 138.922 0 0 0-4.063-33.547l-8.207-33.278c-9.523-34.715-41.43-58.511-77.418-57.734H89.688c-35.988-.777-67.894 23.02-77.417 57.734l-8.207 33.278A138.922 138.922 0 0 0 0 504.145V512zm0 0" fill="#fdd7ad"/><path d="M441.379 512H70.62l4.238-20.48 17.211-83.157 8.477-41.136a20.785 20.785 0 0 1 21.539-14.122h267.828a20.899 20.899 0 0 1 21.629 14.122l8.473 41.05 17.125 83.243zm0 0" fill="#f0c419"/><path d="M113.988 512l17.133-116.047a8.824 8.824 0 0 1 8.73-7.539h232.387a8.829 8.829 0 0 1 8.735 7.543L398.035 512zm0 0" fill="#464f5d"/><path d="M185.379 308.965H326.62v44.14H185.38zm0 0" fill="#f9c795"/><path d="M388.414 229.516v17.656a61.747 61.747 0 0 1-61.793 61.793H185.38a61.747 61.747 0 0 1-61.793-61.793v-17.656c35.312-35.309 8.828-123.586 26.484-141.239 17.653-17.656 70.621 35.309 105.93 35.309s88.277-52.965 105.93-35.309c17.656 17.653-8.825 105.93 26.484 141.239zm0 0" fill="#fdd7ad"/><g fill="#2c2f38"><path d="M220.68 256.242c-4.918-.113-8.84-4.148-8.817-9.07 0-1.078.5-26.48 44.137-26.48s44.137 25.402 44.137 26.48a8.829 8.829 0 0 1-8.614 8.855 8.83 8.83 0 0 1-9.03-8.433c-.509-3.239-6.661-9.25-26.493-9.25-19.973 0-26.07 6.093-26.504 9.32a8.603 8.603 0 0 1-2.605 6.14 8.592 8.592 0 0 1-6.211 2.438zm0 0"/><path d="M449.414 70.621c4.953 12.445 1.399 26.664-8.828 35.309 0 0 0 35.312-17.656 44.14a118.09 118.09 0 0 1-8.828 44.137s17.48 43.61-25.688 52.79v-17.481c-35.309-35.309-8.828-123.586-26.484-141.239-17.653-17.656-70.621 35.309-105.93 35.309S167.723 70.62 150.07 88.277c-17.656 17.653 8.828 105.93-26.484 141.239v17.656c-44.137-8.828-26.48-52.965-26.48-52.965a118.09 118.09 0 0 1-8.829-44.137c-17.656-8.828-17.656-44.14-17.656-44.14a31.139 31.139 0 0 1-8.828-35.309C44.137 52.965 35.309 0 52.965 0s52.965 17.656 52.965 17.656a38.684 38.684 0 0 1 26.484-8.828c17.656 0 35.309 17.656 35.309 17.656s17.656-17.656 35.312-17.656a32.644 32.644 0 0 1 26.48 17.656 32.903 32.903 0 0 1 26.133-17.656 32.67 32.67 0 0 1 26.04 17.656 32.656 32.656 0 0 1 26.484-17.656c17.656 0 35.308 17.656 35.308 17.656s17.657-17.656 35.313-17.656a38.668 38.668 0 0 1 26.48 8.828S440.586 0 458.238 0c17.657 0 8.828 52.965-8.824 70.621zm0 0"/><path d="M158.898 308.965a8.826 8.826 0 0 1-8.828-8.828v-61.793a8.826 8.826 0 0 1 8.828-8.828c4.875 0 8.825 3.953 8.825 8.828v61.793c0 4.875-3.95 8.828-8.825 8.828zm0 0M194.207 317.793a8.829 8.829 0 0 1-8.828-8.828v-35.309a8.829 8.829 0 0 1 17.656 0v35.309a8.829 8.829 0 0 1-8.828 8.828zm0 0M229.516 317.793c-4.875 0-8.825-3.953-8.825-8.828v-26.48c0-4.876 3.95-8.829 8.825-8.829a8.826 8.826 0 0 1 8.828 8.828v26.48a8.826 8.826 0 0 1-8.828 8.829zm0 0M353.105 308.965a8.826 8.826 0 0 1-8.828-8.828v-61.793a8.826 8.826 0 0 1 8.828-8.828c4.875 0 8.825 3.953 8.825 8.828v61.793c0 4.875-3.95 8.828-8.825 8.828zm0 0M317.793 317.793a8.829 8.829 0 0 1-8.828-8.828v-35.309a8.829 8.829 0 0 1 17.656 0v35.309a8.829 8.829 0 0 1-8.828 8.828zm0 0M282.484 317.793a8.829 8.829 0 0 1-8.828-8.828v-26.48c0-4.876 3.953-8.829 8.828-8.829s8.825 3.953 8.825 8.828v26.48c0 4.876-3.95 8.829-8.825 8.829zm0 0"/></g><path d="M154.96 460.488l-46.62 31.032 17.21-83.157 31.41 39.262a8.838 8.838 0 0 1 1.833 6.875 8.837 8.837 0 0 1-3.832 5.988zm0 0M335.45 512a516.369 516.369 0 0 0-17.657-123.586H194.207A516.369 516.369 0 0 0 176.551 512zm0 0M403.66 491.52l-46.62-31.028a8.835 8.835 0 0 1-2-12.867l31.495-39.348zm0 0" fill="#f0c419"/><path d="M255.902 405.957a8.617 8.617 0 0 1-6.144-2.473 49.156 49.156 0 0 0-29.067-6.242h-61.793c-4.878 0-8.828-3.953-8.828-8.828s3.95-8.828 8.828-8.828h61.793A74.855 74.855 0 0 1 256 386.648a74.855 74.855 0 0 1 35.309-7.062h61.796c4.875 0 8.825 3.953 8.825 8.828s-3.95 8.828-8.825 8.828H291.31c-21.579 0-29.22 6.387-29.293 6.457a9.383 9.383 0 0 1-6.114 2.258zm0 0M231.215 160.793a87.747 87.747 0 0 0-24.664-10.133 62.81 62.81 0 0 0-35.38.711c4.106-14.941 39.852-11.18 56.294-3.969a8.344 8.344 0 0 1 3.75 13.39zm0 0M229.516 178.152c0-10.453-7.903-18.922-17.653-18.922s-17.656 8.47-17.656 18.922c0 10.45 7.906 18.922 17.656 18.922s17.653-8.472 17.653-18.922zm0 0" fill="#2c2f38"/><path d="M216.813 161.73a8.833 8.833 0 0 0-11.391 5.114 8.833 8.833 0 0 0 5.113 11.39 8.827 8.827 0 0 0 11.39-5.113 8.833 8.833 0 0 0-5.113-11.39zm0 0" fill="#fff"/><path d="M279.84 162.645a49.234 49.234 0 0 1 24.86-17.32 35.398 35.398 0 0 1 36.304 11.527c-.137-.133.137-2.946.086-3.387a11.964 11.964 0 0 0-.918-3.317 16.754 16.754 0 0 0-4.469-5.84 35.972 35.972 0 0 0-16.39-7.495 44.867 44.867 0 0 0-24.083 1.195 36.957 36.957 0 0 0-12.664 7.46c-3.242 2.97-8.043 8.43-5.957 13.407a28.568 28.568 0 0 0 3.23 3.77zm0 0" fill="#2c2f38"/><path d="M317.793 178.152c0-10.453-7.902-18.922-17.656-18.922-9.75 0-17.653 8.47-17.653 18.922 0 10.45 7.903 18.922 17.653 18.922 9.754 0 17.656-8.472 17.656-18.922zm0 0" fill="#2c2f38"/><path d="M306.578 166.844a8.833 8.833 0 0 0-11.39-5.114 8.833 8.833 0 0 0-5.114 11.391 8.833 8.833 0 0 0 11.39 5.113 8.827 8.827 0 0 0 5.114-11.39zm0 0" fill="#fff"/></svg>