<svg height="512pt" viewBox="0 0 512 512" width="512pt" xmlns="http://www.w3.org/2000/svg"><path d="M185.379 256H326.62v97.105H185.38zm0 0M220.691 0h70.618a8.826 8.826 0 0 1 8.828 8.828v44.137h-88.274V8.828A8.826 8.826 0 0 1 220.691 0zm0 0" fill="#c03a2b"/><path d="M388.414 97.105v123.586a61.54 61.54 0 0 1-26.57 50.758 56.951 56.951 0 0 1-15.54 7.766 60.593 60.593 0 0 1-19.683 3.27H185.38a60.593 60.593 0 0 1-19.684-3.27 56.951 56.951 0 0 1-15.539-7.766 61.54 61.54 0 0 1-26.57-50.758V97.105a61.789 61.789 0 0 1 26.746-50.937 63.192 63.192 0 0 1 15.45-7.68 62.119 62.119 0 0 1 19.597-3.18H326.62a62.119 62.119 0 0 1 19.598 3.18 63.123 63.123 0 0 1 15.449 7.68 61.789 61.789 0 0 1 26.746 50.937zm0 0" fill="#e64c3c"/><path d="M273.656 150.07s17.653-52.965 61.793-70.62c0 0 17.656 17.655 17.656 70.62s-70.62 61.793-79.449 0zm0 0M238.344 150.07S220.69 97.105 176.55 79.45c0 0-17.653 17.655-17.653 70.62s70.618 61.793 79.446 0zm0 0" fill="#e6e7e8"/><path d="M414.898 512H512v-7.855a138.922 138.922 0 0 0-4.063-33.547l-8.207-59.762c-9.523-34.715-41.43-58.508-77.418-57.73H89.688c-35.988-.778-67.894 23.015-77.417 57.73l-8.207 59.762A138.922 138.922 0 0 0 0 504.145V512zm0 0" fill="#2980ba"/><path d="M441.379 512H70.62l6.266-35.84 3.355-19.332 4.59-26.129 3.18-18.363L92.426 387l3.09-17.3v-.09l5.03-28.864a20.788 20.788 0 0 1 21.54-14.125h267.828a20.902 20.902 0 0 1 21.629 14.125l5.031 28.953 3 17.39 4.414 25.247 3.266 18.363 4.504 26.13 3.355 19.421zm0 0" fill="#e64c3c"/><g fill="#bdc3c7"><path d="M273.656 211.863h-35.312a8.819 8.819 0 0 1-7.352-3.941l-14.207-21.363a8.825 8.825 0 0 1-.562-8.805 8.824 8.824 0 0 1 15.25-.969l11.605 17.422h25.844l11.605-17.422a8.824 8.824 0 0 1 15.25.969 8.833 8.833 0 0 1-.562 8.809l-14.207 21.359a8.819 8.819 0 0 1-7.352 3.941zm0 0M202.594 249.996a8.8 8.8 0 0 1-8.387 6.004 10.978 10.978 0 0 1-2.824-.441l-26.485-8.829a9.32 9.32 0 0 1-3.441-2.117l-37.871-37.87v-21.364a8.903 8.903 0 0 1 6.27 2.559l34.601 34.695 8.035 8.031 6.883 2.297 17.656 5.824a8.926 8.926 0 0 1 5.563 11.211zm0 0M388.414 185.379v21.363l-37.871 37.871a9.32 9.32 0 0 1-3.441 2.117l-8.739 2.915-17.746 5.914c-.918.27-1.867.418-2.824.441a8.8 8.8 0 0 1-8.387-6.004 8.926 8.926 0 0 1 5.563-11.21l17.656-5.825 6.883-2.297 8.035-8.031 34.602-34.696a8.903 8.903 0 0 1 6.27-2.558zm0 0M211.863 114.758a8.826 8.826 0 1 1-3.285-17.023c20.2-8.098 38.594-21.024 38.594-27.114a8.829 8.829 0 0 1 17.656 0c0 21.93-38.035 38.84-49.691 43.508a8.698 8.698 0 0 1-3.274.629zm0 0"/><path d="M300.137 114.758a8.698 8.698 0 0 1-3.274-.63c-11.656-4.667-49.691-21.577-49.691-43.507a8.829 8.829 0 0 1 17.656 0c0 6.09 18.395 19.016 38.594 27.113a8.821 8.821 0 0 1 5.394 9.868 8.824 8.824 0 0 1-8.68 7.156zm0 0M246.996 204.977l-1.5 6.886-15.715 70.621h-17.918a7.085 7.085 0 0 1 .176-1.945l16.86-75.828.796-3.617c1.09-4.758 5.82-7.742 10.582-6.672a8.865 8.865 0 0 1 6.72 10.555zm0 0M300.137 282.484h-17.918l-15.715-70.62-1.5-6.887a8.865 8.865 0 0 1 6.719-10.555c4.761-1.07 9.492 1.914 10.582 6.672l.797 3.617 16.859 75.828c.148.637.207 1.293.176 1.945zm0 0M193.5 197.648c-4.238 9.801-9.445 22.778-14.125 35.313-2.027 5.824-4.059 11.476-5.734 16.684a99.364 99.364 0 0 0-5.918 24.011 8.289 8.289 0 0 1-2.028 5.559 56.951 56.951 0 0 1-15.539-7.766 154.133 154.133 0 0 1 7.68-30.457 903.85 903.85 0 0 1 6.621-18.36 984.304 984.304 0 0 1 12.8-31.866 8.817 8.817 0 0 1 11.563-4.68 8.817 8.817 0 0 1 4.68 11.562zm0 0M361.844 271.45a56.951 56.951 0 0 1-15.54 7.765 8.289 8.289 0 0 1-2.027-5.559 99.538 99.538 0 0 0-5.914-24.011c-1.68-5.208-3.71-10.86-5.738-16.684-4.68-12.535-9.887-25.512-14.125-35.313a8.817 8.817 0 0 1 9.2-12.195 8.815 8.815 0 0 1 7.042 5.313 984.304 984.304 0 0 1 12.801 31.867 903.85 903.85 0 0 1 6.621 18.36 154.133 154.133 0 0 1 7.68 30.456zm0 0"/><path d="M264.828 35.309v79.449a8.829 8.829 0 0 1-17.656 0v-79.45zm0 0M185.379 79.45a8.836 8.836 0 0 1-4.375 7.667 8.832 8.832 0 0 1-13.281-7.582 46.366 46.366 0 0 0-15.094-29.129 8.709 8.709 0 0 1-2.297-4.238 63.192 63.192 0 0 1 15.45-7.68 63.626 63.626 0 0 1 19.597 40.961zm0 0M361.668 46.168a8.399 8.399 0 0 1-2.297 4.238 46.366 46.366 0 0 0-15.094 29.13 8.875 8.875 0 0 1-8.828 8.651h-.09a8.704 8.704 0 0 1-6.191-2.546 8.704 8.704 0 0 1-2.547-6.192 63.626 63.626 0 0 1 19.598-40.96 63.123 63.123 0 0 1 15.449 7.679zm0 0M419.574 387.09a8.717 8.717 0 0 1-4.676 1.324 8.878 8.878 0 0 1-6.18-2.473 30.254 30.254 0 0 0-20.304-6.355 33.019 33.019 0 0 0-17.656 4.504 15.341 15.341 0 0 0-2.649 1.851 9.04 9.04 0 0 1-12.445-.086 11.886 11.886 0 0 0-2.824-1.945v-.086a35.168 35.168 0 0 0-17.39-4.238 33.409 33.409 0 0 0-18.54 4.945c-.629.418-1.219.89-1.765 1.41a9.04 9.04 0 0 1-12.446-.086 17.423 17.423 0 0 0-3.531-2.386 37.646 37.646 0 0 0-34.34.531 18.97 18.97 0 0 0-2.648 1.941 9.04 9.04 0 0 1-12.446-.086 18.357 18.357 0 0 0-2.562-1.855 33.696 33.696 0 0 0-17.656-4.414 34.884 34.884 0 0 0-16.684 3.883c-1.3.672-2.52 1.504-3.617 2.472a9.044 9.044 0 0 1-12.45-.086c-.085-.09-.617-.53-1.675-1.324a33.662 33.662 0 0 0-18.54-4.945 34.097 34.097 0 0 0-17.39 4.324c-1.039.57-2.02 1.25-2.91 2.031a9.044 9.044 0 0 1-12.45-.086 14.908 14.908 0 0 0-2.558-1.765 32.757 32.757 0 0 0-17.656-4.504 30.254 30.254 0 0 0-20.305 6.355A9.197 9.197 0 0 1 92.426 387l3.09-17.3v-.09a51.667 51.667 0 0 1 28.07-7.68 52.981 52.981 0 0 1 20.305 3.797 51.21 51.21 0 0 1 6.18 3 47.323 47.323 0 0 1 12.003-4.942 56.539 56.539 0 0 1 34.957 2.031c2.082.793 4.09 1.77 6.004 2.91a45.302 45.302 0 0 1 11.918-4.94 54.717 54.717 0 0 1 14.563-1.856 53.2 53.2 0 0 1 17.656 2.828 44.342 44.342 0 0 1 8.828 3.969 44.342 44.342 0 0 1 8.828-3.97 53.2 53.2 0 0 1 17.656-2.827c4.914-.04 9.817.586 14.563 1.855a45.247 45.247 0 0 1 11.918 4.942 38.504 38.504 0 0 1 6.004-2.91 56.539 56.539 0 0 1 34.957-2.032c4.21 1.09 8.25 2.75 12.004 4.942a51.21 51.21 0 0 1 6.18-3 52.981 52.981 0 0 1 20.304-3.797 51.67 51.67 0 0 1 28.16 7.77zm0 0M427.254 430.7a9.678 9.678 0 0 1-3.531.702 8.699 8.699 0 0 1-5.559-1.941 38.156 38.156 0 0 0-22.422-5.824 43.915 43.915 0 0 0-18.89 3.797 18.046 18.046 0 0 0-3.446 2.027 9.146 9.146 0 0 1-11.297-.086 18.4 18.4 0 0 0-3.004-1.766 43.63 43.63 0 0 0-19.242-3.972 44.29 44.29 0 0 0-19.07 3.883c-1.176.539-2.3 1.187-3.352 1.94a9.022 9.022 0 0 1-11.21-.085 14.638 14.638 0 0 0-3.18-1.766 42.1 42.1 0 0 0-19.067-3.972 44.727 44.727 0 0 0-19.156 3.883 17.111 17.111 0 0 0-3.265 1.94 9.022 9.022 0 0 1-11.211-.085 14.548 14.548 0 0 0-3.18-1.766v-.09a43.73 43.73 0 0 0-19.156-3.882 44.272 44.272 0 0 0-19.067 3.883 17.111 17.111 0 0 0-3.265 1.94 9.152 9.152 0 0 1-11.301-.085 14.52 14.52 0 0 0-3.176-1.766 42.117 42.117 0 0 0-19.07-3.972 43.915 43.915 0 0 0-19.242 3.972 17.016 17.016 0 0 0-3.18 1.852 9.022 9.022 0 0 1-11.211-.086 17.909 17.909 0 0 0-3.352-1.941 43.932 43.932 0 0 0-18.894-3.797 37.64 37.64 0 0 0-22.422 5.824 8.826 8.826 0 0 1-9.004 1.238l3.18-18.363a60.574 60.574 0 0 1 28.246-6.356 65.417 65.417 0 0 1 21.363 3.442 53.728 53.728 0 0 1 6.535 2.828 56.326 56.326 0 0 1 11.473-4.328 67.942 67.942 0 0 1 16.508-1.942 65.048 65.048 0 0 1 20.656 3.18 54.588 54.588 0 0 1 7.328 3.09 54.502 54.502 0 0 1 10.418-4.062 69.235 69.235 0 0 1 17.477-2.208c6.488-.07 12.949.852 19.156 2.739 3.043.906 6 2.086 8.828 3.531a52.04 52.04 0 0 1 8.828-3.531 63.502 63.502 0 0 1 19.156-2.739c5.895-.011 11.77.73 17.477 2.208a54.502 54.502 0 0 1 10.418 4.062 54.588 54.588 0 0 1 7.328-3.09 65.048 65.048 0 0 1 20.656-3.18 67.942 67.942 0 0 1 16.508 1.942 56.326 56.326 0 0 1 11.473 4.328 53.728 53.728 0 0 1 6.535-2.828 65.417 65.417 0 0 1 21.363-3.442 60.574 60.574 0 0 1 28.246 6.356zm0 0M435.113 476.25a6.324 6.324 0 0 1-2.562.441 8.75 8.75 0 0 1-5.824-2.207 38.123 38.123 0 0 0-23.57-6.62 42.906 42.906 0 0 0-20.04 4.413 24.457 24.457 0 0 0-3.617 2.207 8.88 8.88 0 0 1-11.742-.09 19.009 19.009 0 0 0-2.383-1.59 42.613 42.613 0 0 0-21.098-4.94 43.254 43.254 0 0 0-20.215 4.5 16.386 16.386 0 0 0-3.355 2.12 8.88 8.88 0 0 1-11.742-.09 18.482 18.482 0 0 0-2.559-1.675 42.1 42.1 0 0 0-21.011-4.856 43.06 43.06 0 0 0-20.567 4.676 18.003 18.003 0 0 0-3 1.945 8.88 8.88 0 0 1-11.742-.09 12.85 12.85 0 0 0-2.914-1.855 43.06 43.06 0 0 0-20.567-4.676 41.537 41.537 0 0 0-21.011 4.942 15.01 15.01 0 0 0-2.649 1.68 8.875 8.875 0 0 1-11.738-.09 18.87 18.87 0 0 0-3.27-2.118 43.971 43.971 0 0 0-20.214-4.414 42.613 42.613 0 0 0-21.098 4.942 13.231 13.231 0 0 0-2.469 1.68 8.88 8.88 0 0 1-11.742-.09 17.213 17.213 0 0 0-3.531-2.208 44.312 44.312 0 0 0-20.04-4.324 37.61 37.61 0 0 0-23.57 6.621 8.876 8.876 0 0 1-8.386 1.676l3.355-19.332a60.564 60.564 0 0 1 28.602-6.621 63.935 63.935 0 0 1 22.597 3.883 51.836 51.836 0 0 1 6.887 3.18 52.834 52.834 0 0 1 11.121-4.59 66.292 66.292 0 0 1 18.274-2.473 63.835 63.835 0 0 1 21.453 3.531 45.845 45.845 0 0 1 7.945 3.532 48.784 48.784 0 0 1 9.887-4.149 63.737 63.737 0 0 1 19.597-2.914 63.128 63.128 0 0 1 20.567 3.266A50.676 50.676 0 0 1 256 457.27a50.805 50.805 0 0 1 8.828-3.797 63.128 63.128 0 0 1 20.567-3.266 63.737 63.737 0 0 1 19.597 2.914 48.784 48.784 0 0 1 9.887 4.149 45.845 45.845 0 0 1 7.945-3.532 63.835 63.835 0 0 1 21.453-3.531c6.176-.031 12.325.8 18.274 2.473a52.834 52.834 0 0 1 11.12 4.59 51.836 51.836 0 0 1 6.888-3.18 63.935 63.935 0 0 1 22.597-3.883 60.564 60.564 0 0 1 28.602 6.621zm0 0"/><path d="M167.723 326.621c.015.473-.012.945-.086 1.414-1.59 9.621-3.532 21.98-5.563 35.75a1921.575 1921.575 0 0 0-2.914 20.125c-1.234 7.86-2.383 15.89-3.531 24.012-.883 6.621-1.852 13.152-2.734 19.687a2354.044 2354.044 0 0 0-3.446 25.07c-1.058 7.15-1.941 13.86-2.824 20.126-2.734 20.039-4.766 34.957-5.297 39.195h-17.742c-.016-.383.016-.77.09-1.148.086-.442 2.117-16.153 5.207-38.664.793-5.649 1.59-11.743 2.558-18.098a962.638 962.638 0 0 1 3.711-26.656c.793-5.918 1.586-12.008 2.47-18.012 1.148-8.563 2.382-17.035 3.62-25.332.883-6.27 1.766-12.45 2.649-18.363 2.207-15.008 4.324-28.602 6.09-39.106zm0 0M220.691 326.621a8.782 8.782 0 0 1-.265 2.117 313.173 313.173 0 0 0-5.473 35.047c-.707 6.18-1.414 12.711-2.121 19.684-.703 7.945-1.5 16.246-2.293 24.719l-1.59 19.332c-.707 8.738-1.324 17.39-1.941 25.601-.531 6.883-.973 13.504-1.414 19.684-1.41 20.746-2.383 36.105-2.559 39.195H185.38v-.531c.09-1.942 1.059-17.567 2.559-39.192.355-5.828.796-12.007 1.238-18.539.707-8.297 1.324-17.125 2.031-26.129.527-6.093 1.059-12.27 1.586-18.449.707-8.3 1.504-16.597 2.297-24.629.617-6.445 1.234-12.8 1.941-18.715 1.856-16.421 3.797-30.367 5.739-39.195zm0 0M388.414 512h-17.742c-.531-4.238-2.563-19.156-5.297-39.195-.883-6.266-1.766-12.977-2.824-20.125a2354.044 2354.044 0 0 0-3.446-25.07c-.882-6.536-1.851-13.067-2.734-19.688-1.148-8.121-2.297-16.152-3.531-24.012v-.086a2151.236 2151.236 0 0 0-2.914-20.039c-2.031-13.77-3.973-26.129-5.563-35.75a7.457 7.457 0 0 1-.086-1.414h17.743c1.765 10.504 3.882 24.098 6.09 39.106.882 5.914 1.765 12.093 2.648 18.363 1.238 8.297 2.472 16.77 3.62 25.332.884 6.004 1.677 12.094 2.474 18.012a962.187 962.187 0 0 1 3.707 26.656c.968 6.445 1.765 12.535 2.558 18.187 3.09 22.508 5.121 38.133 5.207 38.575.074.378.106.765.09 1.148zm0 0M326.621 511.469V512h-17.656c-.266-3.18-1.149-18.54-2.559-39.281-.441-6.094-.883-12.715-1.414-19.598-.617-8.21-1.234-16.773-1.941-25.512-.528-6.445-1.059-12.976-1.59-19.421-.793-8.473-1.586-16.774-2.293-24.72a1536.435 1536.435 0 0 0-2.121-19.683 313.173 313.173 0 0 0-5.473-35.047 8.981 8.981 0 0 1-.265-2.117h17.921c1.942 8.828 3.883 22.774 5.739 39.195.707 5.914 1.324 12.27 1.941 18.715.793 8.031 1.59 16.328 2.297 24.63.527 6.179 1.059 12.269 1.586 18.359.707 9.003 1.324 17.832 2.031 26.218.442 6.532.883 12.801 1.238 18.625 1.5 21.63 2.47 37.164 2.56 39.106zm0 0M247.172 326.621h17.656V512h-17.656zm0 0"/></g><path d="M314.535 201.992c-21.605 0-44.562-15.3-49.62-50.672a8.817 8.817 0 0 1 .37-4.043c.766-2.32 19.492-57.066 66.887-76.023a8.856 8.856 0 0 1 9.52 1.957c2.066 2.066 20.238 21.824 20.238 76.86 1.664 26.355-17.875 49.277-44.16 51.808a44.731 44.731 0 0 1-3.235.113zm-31.8-51.039c4.5 26.016 21.03 34.18 33.773 33.317 17.062-1.872 29.441-17.118 27.77-34.2 0-33.433-7.391-51.613-11.856-59.543-31.102 16.051-46.371 51.774-49.688 60.426zm0 0M197.465 201.992c-1.078 0-2.156-.035-3.23-.113-26.29-2.531-45.829-25.453-44.165-51.809 0-55.035 18.172-74.793 20.243-76.863a8.857 8.857 0 0 1 9.515-1.957c47.395 18.957 66.117 73.71 66.887 76.027.437 1.301.562 2.684.37 4.043-5.05 35.371-28.026 50.672-49.62 50.672zM179.57 90.527c-4.43 7.871-11.847 26.051-11.847 59.543-1.672 17.078 10.71 32.325 27.77 34.196 12.671.87 29.265-7.301 33.773-33.301-3.344-8.656-18.723-44.43-49.696-60.438zm0 0" fill="#2c2f38"/></svg>