<svg height="512pt" viewBox="0 0 512 512" width="512pt" xmlns="http://www.w3.org/2000/svg"><path d="M185.379 264.828H326.62v79.45H185.38zm0 0M220.691 0h70.618a8.826 8.826 0 0 1 8.828 8.828v123.586h-88.274V8.828A8.826 8.826 0 0 1 220.691 0zm0 0" fill="#f29c1f"/><path d="M185.379 35.309H326.62c34.129 0 61.793 27.668 61.793 61.796v123.586c0 34.125-27.664 61.793-61.793 61.793H185.38c-34.125 0-61.793-27.668-61.793-61.793V97.105c0-34.128 27.668-61.796 61.793-61.796zm0 0" fill="#f0c419"/><path d="M308.965 79.45c0 29.25-23.711 52.964-52.965 52.964-29.25 0-52.965-23.715-52.965-52.965 0-29.254 23.715-52.965 52.965-52.965 29.254 0 52.965 23.711 52.965 52.965zm0 0" fill="#2c2f38"/><path d="M256 35.309v44.14h-44.137C211.871 55.074 231.63 35.32 256 35.31zm0 0M256 123.586V79.449h44.137c-.008 24.371-19.762 44.13-44.137 44.137zm0 0" fill="#f0c419"/><path d="M414.898 512H512v-7.855a138.922 138.922 0 0 0-4.063-33.547l-8.207-59.762c-9.523-34.715-41.43-58.508-77.418-57.73H89.688c-35.988-.778-67.894 23.015-77.417 57.73l-8.207 59.762A138.922 138.922 0 0 0 0 504.145V512zm0 0" fill="#f3d55b"/><path d="M441.379 512H70.62l29.906-171.23a20.851 20.851 0 0 1 21.59-14.149h267.82c9.602-.84 18.532 5.008 21.59 14.149zm0 0" fill="#f0c419"/><path d="M229.516 423.723c0 29.254-23.711 52.968-52.965 52.968-29.25 0-52.965-23.714-52.965-52.968 0-29.25 23.715-52.965 52.965-52.965 29.254 0 52.965 23.715 52.965 52.965zm0 0" fill="#2c2f38"/><path d="M220.691 423.723h-44.14v-44.137c24.375.008 44.129 19.766 44.14 44.137zm0 0M132.414 423.723h44.137v44.14c-24.371-.011-44.13-19.765-44.137-44.14zm0 0" fill="#f0c419"/><path d="M388.414 423.723c0 29.254-23.715 52.968-52.965 52.968-29.254 0-52.965-23.714-52.965-52.968 0-29.25 23.711-52.965 52.965-52.965 29.25 0 52.965 23.715 52.965 52.965zm0 0" fill="#2c2f38"/><path d="M335.45 379.586v44.137h-44.141c.011-24.371 19.765-44.13 44.14-44.137zm0 0M335.45 467.863v-44.14h44.136c-.008 24.375-19.766 44.129-44.137 44.14zm0 0" fill="#f0c419"/><g fill="#2c2f38"><path d="M297.734 245.45c-7.129-13.958-29.394-15.934-41.558-15.934-12.188 0-34.422 1.976-41.555 15.933a179.535 179.535 0 0 1 41.555-5.207 179.356 179.356 0 0 1 41.558 5.207zm0 0M232.879 142.027a87.8 87.8 0 0 0-26.129-5.297 62.808 62.808 0 0 0-34.605 7.38c1.207-15.45 37.023-18.505 54.53-14.532a8.356 8.356 0 0 1 6.442 4.563 8.351 8.351 0 0 1-.238 7.886zm0 0M229.516 169.324c0-10.449-7.903-18.922-17.653-18.922s-17.656 8.473-17.656 18.922 7.906 18.922 17.656 18.922 17.653-8.473 17.653-18.922zm0 0"/></g><path d="M216.813 152.902a8.833 8.833 0 0 0-11.391 5.114 8.833 8.833 0 0 0 5.113 11.39 8.827 8.827 0 0 0 11.39-5.113c1.731-4.555-.558-9.656-5.113-11.39zm0 0" fill="#fff"/><path d="M279.121 142.027a87.824 87.824 0 0 1 26.129-5.297 62.808 62.808 0 0 1 34.605 7.38c-1.207-15.45-37.023-18.505-54.53-14.532a8.362 8.362 0 0 0-6.442 4.563 8.351 8.351 0 0 0 .238 7.886zm0 0M317.793 169.324c0-10.449-7.902-18.922-17.656-18.922-9.75 0-17.653 8.473-17.653 18.922s7.903 18.922 17.653 18.922c9.754 0 17.656-8.473 17.656-18.922zm0 0" fill="#2c2f38"/><path d="M306.578 158.016a8.833 8.833 0 0 0-11.39-5.114 8.833 8.833 0 0 0-5.114 11.391c1.735 4.559 6.832 6.848 11.39 5.113s6.849-6.832 5.114-11.39zm0 0" fill="#fff"/></svg>