<svg height="503pt" viewBox="0 0 503 503.614" width="503pt" xmlns="http://www.w3.org/2000/svg"><path d="M182.727 312.406h138.847v95.457H182.727zm0 0" fill="#f29c1f"/><path d="M382.316 130.168v147.527a60.701 60.701 0 0 1-60.742 60.746H182.727a60.704 60.704 0 0 1-60.747-60.746V130.168zm0 0" fill="#f0c419"/><path d="M156.691 0h190.914c19.172 0 34.711 15.543 34.711 34.71v121.493H121.98V34.711C121.98 15.543 137.52 0 156.691 0zm0 0" fill="#2c3e50"/><path d="M408.172 503.32h82.265c6.684 0 13.625 2.344 13.364-6.246-.692-20.828-15.531-45.125-28.809-60.226a80.111 80.111 0 0 0-59.531-28.985H88.656a80.111 80.111 0 0 0-59.531 28.985C15.848 451.949 1.008 476.246.313 497.074c-.258 8.59 6.683 6.246 13.367 6.246zm0 0" fill="#35495e"/><path d="M434.387 503.32H69.91l29.403-107.578a20.49 20.49 0 0 1 21.222-13.91h263.281a20.498 20.498 0 0 1 21.227 13.91zm0 0" fill="#2c3e50"/><path d="M338.93 381.832s-5.383 14.316-11.282 34.883l-11.457 50.332a230.976 230.976 0 0 0-3.296 36.273H191.402a230.976 230.976 0 0 0-3.297-36.273l-11.457-50.332c-5.898-20.567-11.28-34.883-11.28-34.883zm0 0" fill="#e6e7e8"/><path d="M95.945 138.848h312.407a8.68 8.68 0 0 1 8.68 8.68v17.355c0 4.793-3.887 8.676-8.68 8.676H95.945c-4.793 0-8.68-3.883-8.68-8.676v-17.356a8.68 8.68 0 0 1 8.68-8.68zm0 0" fill="#35495e"/><path d="M278.184 425.219a389.946 389.946 0 0 1 53.996-8.676c15.425 0 15.425 26.035 15.425 26.035s0 26.031-15.425 26.031a389.946 389.946 0 0 1-53.996-8.675h-52.07a389.946 389.946 0 0 1-53.997 8.675c-15.426 0-15.426-26.03-15.426-26.03s0-26.036 15.426-26.036a389.946 389.946 0 0 1 53.996 8.676zm0 0" fill="#e64c3c"/><path d="M234.793 416.543h34.71c4.794 0 8.68 3.883 8.68 8.676v34.715c0 4.793-3.886 8.675-8.68 8.675h-34.71c-4.793 0-8.68-3.882-8.68-8.675v-34.715c0-4.793 3.887-8.676 8.68-8.676zm0 0" fill="#c03a2b"/><g fill="#2c2f38"><path d="M293.172 286.371c-7.012 13.723-28.895 15.664-40.852 15.664-11.98 0-33.836-1.941-40.851-15.664a176.285 176.285 0 0 0 40.851 5.121 176.232 176.232 0 0 0 40.852-5.12zm0 0M229.418 196.027a86.22 86.22 0 0 0-25.684-5.207 61.718 61.718 0 0 0-34.02 7.254c1.188-15.187 36.395-18.191 53.606-14.285a8.206 8.206 0 0 1 6.098 12.238zm0 0M226.113 222.86c0-10.274-7.77-18.602-17.355-18.602-9.586 0-17.356 8.328-17.356 18.601s7.77 18.602 17.356 18.602c9.586 0 17.355-8.328 17.355-18.602zm0 0"/></g><path d="M213.625 206.719a8.677 8.677 0 0 0-11.195 5.027c-1.707 4.477.543 9.492 5.023 11.195s9.492-.546 11.195-5.027a8.672 8.672 0 0 0-5.023-11.195zm0 0" fill="#fff"/><path d="M274.879 196.027a86.246 86.246 0 0 1 25.687-5.207 61.712 61.712 0 0 1 34.016 7.254c-1.187-15.187-36.395-18.191-53.605-14.285a8.206 8.206 0 0 0-6.098 12.238zm0 0M312.895 222.86c0-10.274-7.77-18.602-17.356-18.602-9.586 0-17.355 8.328-17.355 18.601s7.77 18.602 17.355 18.602c9.586 0 17.356-8.328 17.356-18.602zm0 0" fill="#2c2f38"/><path d="M301.867 211.746c-1.703-4.48-6.715-6.73-11.195-5.027s-6.73 6.715-5.024 11.195c1.704 4.48 6.715 6.73 11.196 5.027s6.73-6.714 5.023-11.195zm0 0" fill="#fff"/></svg>