<svg height="512pt" viewBox="0 -1 512 512" width="512pt" xmlns="http://www.w3.org/2000/svg"><path d="M123.586 245.879C17.656 122.293 97.106 86.984 97.106 86.984c8.03-24.011 16.945-59.324 45.37-66.472a47.439 47.439 0 0 1 23.57.883c.794.175 10.24 4.058 10.505 3.796 26.484-26.484 44.14-17.656 44.14-17.656a24.448 24.448 0 0 1 35.309 0 24.448 24.448 0 0 1 35.309 0s17.656-8.828 44.14 17.656c21.031-10.984 46.977-3.527 58.969 16.95a115.73 115.73 0 0 1 13.152 26.214c1.676 4.68 2.293 16.332 7.328 18.63.262.085 79.27 35.484-26.484 158.894zm0 0" fill="#cb8252"/><path d="M185.379 281.191H326.62v97.102H185.38zm0 0" fill="#f9c795"/><path d="M414.898 510.707H512v-7.855a138.922 138.922 0 0 0-4.063-33.547l-8.207-33.278c-9.523-34.715-41.43-58.511-77.418-57.734H89.688c-35.988-.777-67.894 23.02-77.417 57.734l-8.207 33.278A138.922 138.922 0 0 0 0 502.852v7.855zm0 0" fill="#fdd7ad"/><path d="M441.379 510.707H70.62l29.906-144.746a20.854 20.854 0 0 1 21.59-14.152h267.82a20.851 20.851 0 0 1 21.59 14.152zm0 0" fill="#35495e"/><path d="M388.414 201.742v44.137a61.747 61.747 0 0 1-61.793 61.793H185.38a61.747 61.747 0 0 1-61.793-61.793v-44.137s26.484-17.656 26.484-44.137c0-26.484 0-61.796 44.137-61.796 35.309 0 26.484-8.825 61.793-8.825s26.484 8.825 61.793 8.825c44.137 0 44.137 35.312 44.137 61.796 0 26.48 26.484 44.137 26.484 44.137zm0 0" fill="#fdd7ad"/><g fill="#cb8252"><path d="M158.898 307.672a8.826 8.826 0 0 1-8.828-8.828V237.05a8.826 8.826 0 0 1 8.828-8.828c4.875 0 8.825 3.953 8.825 8.828v61.793c0 4.875-3.95 8.828-8.825 8.828zm0 0M194.207 316.5a8.829 8.829 0 0 1-8.828-8.828v-35.309a8.829 8.829 0 0 1 17.656 0v35.309a8.829 8.829 0 0 1-8.828 8.828zm0 0M229.516 316.5c-4.875 0-8.825-3.953-8.825-8.828v-26.48c0-4.876 3.95-8.829 8.825-8.829a8.826 8.826 0 0 1 8.828 8.828v26.48a8.826 8.826 0 0 1-8.828 8.829zm0 0M353.105 307.672a8.826 8.826 0 0 1-8.828-8.828V237.05a8.826 8.826 0 0 1 8.828-8.828c4.875 0 8.825 3.953 8.825 8.828v61.793c0 4.875-3.95 8.828-8.825 8.828zm0 0M317.793 316.5a8.829 8.829 0 0 1-8.828-8.828v-35.309a8.829 8.829 0 0 1 17.656 0v35.309a8.829 8.829 0 0 1-8.828 8.828zm0 0M282.484 316.5a8.829 8.829 0 0 1-8.828-8.828v-26.48c0-4.876 3.953-8.829 8.828-8.829s8.825 3.953 8.825 8.828v26.48c0 4.876-3.95 8.829-8.825 8.829zm0 0"/></g><path d="M220.691 466.57c0 24.375-19.761 44.137-44.14 44.137-24.375 0-44.137-19.762-44.137-44.137 0-24.379 19.762-44.14 44.137-44.14 24.379 0 44.14 19.761 44.14 44.14zm0 0" fill="#67b9cc"/><path d="M211.863 466.57c0 19.5-15.808 35.309-35.312 35.309-19.5 0-35.309-15.809-35.309-35.309 0-19.504 15.809-35.312 35.309-35.312 19.504 0 35.312 15.808 35.312 35.312zm0 0" fill="#9fc9d3"/><path d="M379.586 466.57c0 24.375-19.762 44.137-44.137 44.137-24.379 0-44.14-19.762-44.14-44.137 0-24.379 19.761-44.14 44.14-44.14 24.375 0 44.137 19.761 44.137 44.14zm0 0" fill="#67b9cc"/><path d="M256 422.43c-4.875 0-8.828-3.95-8.828-8.825 0-12.476-34.5-17.656-52.965-17.656a8.829 8.829 0 0 1 0-17.656c5.543 0 44.102.586 61.793 16.332 17.691-15.746 56.25-16.332 61.793-16.332 4.875-.004 8.828 3.95 8.832 8.824s-3.95 8.828-8.824 8.832c-22.207.024-52.973 6.172-52.973 17.656 0 4.875-3.953 8.825-8.828 8.825zm0 0" fill="#95a5a5"/><path d="M370.758 466.57c0 19.5-15.809 35.309-35.309 35.309-19.504 0-35.312-15.809-35.312-35.309 0-19.504 15.808-35.312 35.312-35.312 19.5 0 35.309 15.808 35.309 35.312zm0 0" fill="#9fc9d3"/><path d="M194.207 466.57c0 9.75-7.906 17.653-17.656 17.653s-17.653-7.903-17.653-17.653 7.903-17.656 17.653-17.656 17.656 7.906 17.656 17.656zm0 0M353.105 466.57c0 9.75-7.906 17.653-17.656 17.653s-17.656-7.903-17.656-17.653 7.906-17.656 17.656-17.656 17.656 7.906 17.656 17.656zm0 0" fill="#fff"/><path d="M301.242 258.29c-4.867-15.024-27.77-22.403-40.172-24.575-12.425-2.176-35.441-4.203-45.12 8.273a192.253 192.253 0 0 1 43.273 2.29 201.154 201.154 0 0 1 42.02 14.011zm0 0" fill="#2c2f38"/><path d="M231.215 155.086a87.747 87.747 0 0 0-24.664-10.133 62.81 62.81 0 0 0-35.38.715c4.106-14.945 39.852-11.184 56.294-3.973a8.344 8.344 0 0 1 3.75 13.39zm0 0" fill="#cb8252"/><path d="M229.516 172.445c0-10.453-7.903-18.922-17.653-18.922s-17.656 8.47-17.656 18.922c0 10.45 7.906 18.922 17.656 18.922s17.653-8.472 17.653-18.922zm0 0" fill="#2c2f38"/><path d="M216.813 156.023a8.833 8.833 0 0 0-11.391 5.114 8.827 8.827 0 0 0 5.113 11.39 8.833 8.833 0 0 0 11.39-5.113 8.833 8.833 0 0 0-5.113-11.39zm0 0" fill="#fff"/><path d="M279.84 156.938a49.234 49.234 0 0 1 24.86-17.32 35.406 35.406 0 0 1 36.304 11.527c-.137-.133.137-2.946.086-3.387a12.002 12.002 0 0 0-.918-3.317 16.754 16.754 0 0 0-4.469-5.84 35.972 35.972 0 0 0-16.39-7.496 44.905 44.905 0 0 0-24.083 1.196 36.957 36.957 0 0 0-12.664 7.46c-3.242 2.97-8.043 8.43-5.957 13.407a28.568 28.568 0 0 0 3.23 3.77zm0 0" fill="#cb8252"/><path d="M317.793 172.445c0-10.453-7.902-18.922-17.656-18.922-9.75 0-17.653 8.47-17.653 18.922 0 10.45 7.903 18.922 17.653 18.922 9.754 0 17.656-8.472 17.656-18.922zm0 0" fill="#2c2f38"/><path d="M306.578 161.137a8.833 8.833 0 0 0-11.39-5.114 8.833 8.833 0 0 0-5.114 11.391c1.735 4.555 6.836 6.844 11.39 5.113a8.827 8.827 0 0 0 5.114-11.39zm0 0" fill="#fff"/></svg>