<svg height="512pt" viewBox="0 -13 512 512" width="512pt" xmlns="http://www.w3.org/2000/svg"><path d="M185.379 264.828H326.62v79.45H185.38zm0 0" fill="#c03a2b"/><path d="M414.898 485.516H512v-7.856a138.866 138.866 0 0 0-4.063-33.543l-8.207-33.281c-9.523-34.715-41.43-58.508-77.418-57.73H89.688c-35.988-.778-67.894 23.015-77.417 57.73l-8.207 33.281A138.866 138.866 0 0 0 0 477.66v7.856zm0 0" fill="#2c2f38"/><path d="M441.379 485.516H70.62l29.926-144.77a20.788 20.788 0 0 1 21.539-14.125h267.828a20.902 20.902 0 0 1 21.629 14.125zm0 0" fill="#e64c3c"/><path d="M220.691 0h70.618a8.826 8.826 0 0 1 8.828 8.828v44.137h-88.274V8.828A8.826 8.826 0 0 1 220.691 0zm0 0" fill="#c03a2b"/><path d="M208.078 430.59s-15.973 15.695-23.96 54.926h-95.84l27.074-128.684a18.8 18.8 0 0 1 19.488-12.555h41.293s-31.95 31.387-23.961 70.621c7.984 39.23 31.945-7.847 31.945-7.847zm0 0M423.723 485.516h-95.84c-7.988-39.23-23.961-54.926-23.961-54.926l23.96-23.54s23.962 47.079 31.946 7.848c7.988-39.234-23.96-70.62-23.96-70.62h41.292a18.905 18.905 0 0 1 19.57 12.554zm0 0" fill="#2c2f38"/><path d="M359.828 414.898c-7.984 39.23-31.945-7.847-31.945-7.847l-23.961 23.539s15.976 15.695 23.96 54.926H184.118c7.988-39.23 23.961-54.926 23.961-54.926l-23.96-23.54s-23.962 47.079-31.946 7.848c-7.988-39.234 23.96-70.62 23.96-70.62h159.735s31.95 31.386 23.961 70.62zm0 0M185.379 35.309H326.62c34.129 0 61.793 27.668 61.793 61.796v123.586c0 34.125-27.664 61.793-61.793 61.793H185.38c-34.125 0-61.793-27.668-61.793-61.793V97.105c0-34.128 27.668-61.796 61.793-61.796zm0 0" fill="#e64c3c"/><path d="M353.105 167.723c0 35.312-8.828 70.62-44.14 70.62-27.719 0-33.633-48.902-34.957-70-.352-5.738-.352-9.445-.352-9.445s1.059-3.18 3-8.3c7.594-20.301 28.778-71.149 49.965-71.149 19.774 0 26.484 52.965 26.484 88.274zm0 0M238.344 158.898s0 3.707-.352 9.446c-1.324 21.097-7.238 70-34.957 70-35.312 0-44.137-35.309-44.137-70.621 0-35.309 6.707-88.274 26.48-88.274 21.188 0 42.462 50.934 49.966 71.239 1.941 5.03 3 8.21 3 8.21zm0 0" fill="#2c2f38"/><g fill="#e6e7e8"><path d="M238.344 158.898s0 3.707-.352 9.446a38.266 38.266 0 0 1-10.86 1.586 42.116 42.116 0 0 1-30.366-13.594 8.86 8.86 0 0 1 .027-12.508 8.86 8.86 0 0 1 12.508-.027 22.43 22.43 0 0 0 25.07 7.238c.309-.156.637-.273.973-.351 1.941 5.03 3 8.21 3 8.21zm0 0M315.234 156.336a42.489 42.489 0 0 1-30.367 13.594 38.287 38.287 0 0 1-10.86-1.586c-.35-5.739-.35-9.446-.35-9.446s1.058-3.18 3-8.3c.312.062.613.183.882.355a22.37 22.37 0 0 0 25.16-7.152 8.86 8.86 0 0 1 12.508.027 8.86 8.86 0 0 1 .027 12.508zm0 0"/></g></svg>