<svg height="512pt" viewBox="0 0 512 512" width="512pt" xmlns="http://www.w3.org/2000/svg"><path d="M512 504.145V512H0v-7.855a138.922 138.922 0 0 1 4.063-33.547l8.207-24.453c9.523-34.711 41.43-58.508 77.418-57.73h332.625c35.988-.778 67.894 23.019 77.417 57.73l8.207 24.453A138.922 138.922 0 0 1 512 504.145zm0 0" fill="#bdc3c7"/><path d="M441.379 512H70.62L97.81 388.414l2.738-12.36a20.792 20.792 0 0 1 21.539-14.124h63.648l5.207 17.656 2.559 8.828 9.887 33.543 29.398-33.543L256 361.93l23.215 26.484 29.398 33.543 9.887-33.543 2.559-8.828 5.21-17.656h63.645a20.902 20.902 0 0 1 21.629 14.125l2.734 12.36zm0 0" fill="#95a5a5"/><path d="M300.137 512H220.69L185.38 379.586l52.965-8.828h61.793l26.484 44.14zm0 0" fill="#d1d4d1"/><path d="M185.379 300.137H326.62v79.449H185.38zm0 0" fill="#f29c1f"/><path d="M388.414 247.172V256a61.754 61.754 0 0 1-18.086 43.707 61.754 61.754 0 0 1-43.707 18.086H185.38a61.754 61.754 0 0 1-43.707-18.086A61.754 61.754 0 0 1 123.586 256V79.45h264.828zm0 0" fill="#f0c419"/><path d="M423.723 61.793v167.723c0 9.754-7.903 17.656-17.653 17.656h-17.656c-9.75 0-17.656-7.902-17.656-17.656V150.07c0-29.254-23.711-52.965-52.965-52.965H194.207c-29.254 0-52.965 23.711-52.965 52.965v79.446c0 9.754-7.906 17.656-17.656 17.656H105.93c-9.75 0-17.653-7.902-17.653-17.656V70.62c0-9.75 7.903-17.656 17.653-17.656h79.449a8.829 8.829 0 0 0 8.828-8.828V8.828A8.829 8.829 0 0 1 203.035 0h105.93a8.829 8.829 0 0 1 8.828 8.828v26.48a8.826 8.826 0 0 0 8.828 8.829h79.45c9.75 0 17.652 7.906 17.652 17.656zm0 0" fill="#f18d46"/><path d="M229.871 391.77a17.704 17.704 0 0 0 17.3 14.3h17.657a17.704 17.704 0 0 0 17.3-14.3l.356-29.84h-52.968zm0 0" fill="#c03a2b"/><path d="M291.309 512H220.69l4.235-16.86 22.246-89.07h17.656l22.246 89.07zm0 0" fill="#e64c3c"/><path d="M256 361.93l-52.613 60.027-12.446-42.371-5.207-17.656zm0 0M326.27 361.93l-5.211 17.656-12.446 42.371L256 361.93zm0 0" fill="#ecf0f1"/><path d="M229.516 512H206.3l-70.446-54.82a8.825 8.825 0 0 1-3.44-7.856 9.006 9.006 0 0 1 4.855-6.972l6.707-3.356-17.832-17.832a8.895 8.895 0 0 1-2.118-9.094l7.856-23.656 8.828-26.484h18.187c-.011.96-.16 1.91-.441 2.828l-7.945 23.656-8.035 24.098 22.687 22.601a9.098 9.098 0 0 1 2.473 7.68 8.782 8.782 0 0 1-4.77 6.441l-5.117 2.563 46.785 36.457-29.394-99.84-7.063-24.012a8.026 8.026 0 0 1-.355-2.472h17.656v-1.235l.355 1.235 5.207 17.656 2.559 8.828 9.887 33.543v.09l21.539 73.094 4.238 14.386c.254.801.371 1.637.352 2.473zm0 0M385.855 421.164l-17.832 17.832 6.707 3.356a9.006 9.006 0 0 1 4.856 6.972 8.825 8.825 0 0 1-3.441 7.856L305.699 512h-23.215a7.594 7.594 0 0 1 .352-2.473l4.238-14.386 21.54-73.094v-.09l9.886-33.543 2.559-8.828 5.21-17.656.352-1.235v1.235h17.656c.012.84-.109 1.672-.355 2.472l-7.063 24.012-29.394 99.84 46.785-36.457-5.117-2.563a8.782 8.782 0 0 1-4.77-6.441 9.11 9.11 0 0 1 2.473-7.68l22.687-22.601-8.035-24.098-7.941-23.656a9.784 9.784 0 0 1-.442-2.828h18.184l8.828 26.484 7.856 23.656a8.895 8.895 0 0 1-2.118 9.094zm0 0" fill="#606060"/><g fill="#2c2f38"><path d="M301.242 237.793c-4.867 15.023-27.77 22.406-40.172 24.578-12.425 2.176-35.441 4.2-45.12-8.277 14.464.87 28.98.101 43.273-2.29a201.154 201.154 0 0 0 42.02-14.011zm0 0M231.215 165.207a87.747 87.747 0 0 0-24.664-10.133 62.81 62.81 0 0 0-35.38.711c4.106-14.941 39.852-11.18 56.294-3.972a8.35 8.35 0 0 1 5.469 5.69 8.344 8.344 0 0 1-1.72 7.704zm0 0M229.516 182.566c0-10.453-7.903-18.925-17.653-18.925s-17.656 8.472-17.656 18.925c0 10.45 7.906 18.922 17.656 18.922s17.653-8.472 17.653-18.922zm0 0"/></g><path d="M216.813 166.145a8.827 8.827 0 0 0-11.391 5.113 8.827 8.827 0 0 0 5.113 11.39 8.833 8.833 0 0 0 11.39-5.113 8.833 8.833 0 0 0-5.113-11.39zm0 0" fill="#fff"/><path d="M279.84 167.059a49.234 49.234 0 0 1 24.86-17.32 35.398 35.398 0 0 1 36.304 11.527c-.137-.133.137-2.946.086-3.387a11.927 11.927 0 0 0-.918-3.316 16.754 16.754 0 0 0-4.469-5.84 35.972 35.972 0 0 0-16.39-7.496 44.867 44.867 0 0 0-24.083 1.195 36.957 36.957 0 0 0-12.664 7.46c-3.242 2.97-8.043 8.43-5.957 13.407a28.568 28.568 0 0 0 3.23 3.77zm0 0" fill="#2c2f38"/><path d="M317.793 182.566c0-10.453-7.902-18.925-17.656-18.925-9.75 0-17.653 8.472-17.653 18.925 0 10.45 7.903 18.922 17.653 18.922 9.754 0 17.656-8.472 17.656-18.922zm0 0" fill="#2c2f38"/><path d="M306.578 171.258a8.833 8.833 0 0 0-11.39-5.113 8.833 8.833 0 0 0-5.114 11.39c1.735 4.555 6.836 6.844 11.39 5.113a8.827 8.827 0 0 0 5.114-11.39zm0 0" fill="#fff"/></svg>