<svg height="512pt" viewBox="0 0 512 512.04" width="512pt" xmlns="http://www.w3.org/2000/svg"><path d="M185.398 300.18h141.243v79.445H185.398zm0 0" fill="#f29c1f"/><path d="M388.434 61.832v194.207a61.73 61.73 0 0 1-18.086 43.707 61.738 61.738 0 0 1-43.707 18.086H185.398a61.747 61.747 0 0 1-61.793-61.793V70.66zm0 0" fill="#f0c419"/><path d="M414.918 512.04h97.102v-7.856a139.057 139.057 0 0 0-4.06-33.543l-8.21-24.454c-9.523-34.714-41.43-58.507-77.418-57.734H89.707c-35.988-.773-67.894 23.02-77.418 57.735L4.082 470.64A138.866 138.866 0 0 0 .02 504.184v7.855zm0 0" fill="#2c3e50"/><path d="M441.398 512.04H70.641l29.925-135.946a20.785 20.785 0 0 1 21.54-14.121s36.812 8.824 45.64 44.136c8.121 32.399 45.988 42.547 79.445 43.961 3.004.09 5.914.176 8.829.176 2.914 0 5.828-.086 8.828-.176 33.457-1.414 71.328-11.562 79.449-43.96 8.828-35.313 45.637-44.137 45.637-44.137a20.899 20.899 0 0 1 21.628 14.12zm0 0" fill="#35495e"/><path d="M256.02 450.246c-35.31 0-79.45-8.828-88.274-44.137-8.828-35.312-45.64-44.136-45.64-44.136h98.605s8.828 88.273 35.309 88.273zm0 0M389.934 361.973s-36.809 8.824-45.637 44.136c-8.828 35.309-52.965 44.137-88.277 44.137 26.484 0 35.312-88.273 35.312-88.273zm0 0" fill="#2c2f38"/><path d="M317.813 361.973s-35.31 88.273-61.793 88.273c-26.48 0-61.793-88.273-61.793-88.273zm0 0" fill="#f0c419"/><path d="M411.473 104.91c12.183 1.063 25.425 5.477 47.582 9.887 44.136 8.828 52.965-52.965 52.965-52.965-61.793 0-35.31-61.793-97.102-61.793a81.887 81.887 0 0 0-64.621 28.426zm0 0" fill="#2c2f38"/><path d="M264.848 450.07v61.97H247.19v-61.97c3.004.09 5.914.176 8.829.176 2.914 0 5.828-.086 8.828-.176zm0 0" fill="#bdc3c7"/><path d="M150.09 512.04h-35.313a43.618 43.618 0 0 1-8.824-26.481c0-4.875 3.95-8.829 8.824-8.829s8.828 3.954 8.828 8.829c.043 14.605 11.875 26.437 26.485 26.48zm0 0" fill="#67b9cc"/><path d="M406.09 485.559a43.597 43.597 0 0 1-8.828 26.48h-35.309c14.606-.043 26.438-11.875 26.48-26.48a8.829 8.829 0 0 1 17.657 0zm0 0" fill="#cc66a1"/><path d="M388.434 238.387c-35.309 0-44.137-132.414-52.965-132.414s-17.656 26.48-79.45 26.48-97.101 52.965-105.93 79.45-17.655 35.308-26.484 35.308c-8.562 0-15.093-4.149-19.417-20.566a177.892 177.892 0 0 1-4.77-30.72c-.793-8.917-1.324-19.245-1.766-31.34a1012.46 1012.46 0 0 1-.441-29.925v-.086c-.086-3.531-.086-7.152-.086-10.949 0-105.93 123.586-105.93 158.895-105.93 35.312 0 114.757 0 141.242 44.137 26.484 44.14 26.484 176.555-8.828 176.555zm0 0" fill="#35495e"/><path d="M293.8 79.84a8.793 8.793 0 0 1-1.312 6.664 8.814 8.814 0 0 1-5.66 3.754c-1.5.265-139.3 28.691-182.64 136.387a177.892 177.892 0 0 1-4.77-30.72c55.172-96.573 178.23-121.82 183.969-122.968 4.765-.914 9.39 2.14 10.414 6.883zm0 0" fill="#67b9cc"/><path d="M246.75 56.273c-1.145.352-99.574 30.278-149.098 108.313a1012.46 1012.46 0 0 1-.441-29.926v-.086c54.555-67.972 139.918-93.75 144.598-95.164a8.868 8.868 0 0 1 10.945 5.914 8.677 8.677 0 0 1-6.004 10.95zm0 0" fill="#cc66a1"/><g fill="#2c2f38"><path d="M297.754 269.281c-7.133 13.957-29.399 15.934-41.559 15.934-12.187 0-34.422-1.977-41.554-15.934a179.535 179.535 0 0 0 41.554 5.207 179.357 179.357 0 0 0 41.559-5.207zm0 0M232.898 177.375a87.917 87.917 0 0 0-26.128-5.293 62.774 62.774 0 0 0-34.606 7.379c1.207-15.45 37.024-18.504 54.531-14.531a8.345 8.345 0 0 1 6.203 12.445zm0 0M279.14 177.375a87.942 87.942 0 0 1 26.13-5.293 62.774 62.774 0 0 1 34.605 7.379c-1.207-15.45-37.023-18.504-54.531-14.531a8.345 8.345 0 0 0-6.438 4.558 8.34 8.34 0 0 0 .235 7.887zm0 0M184.16 191.938s2.512 11.277 12.238 9.078c9.723-2.2 11.579 2.023 19.957 1.347a33.328 33.328 0 0 1 8.567.524c2.004.465 4.082.5 6.101.101 2.79-.746 2.551-3.992 1.575-6.097-3.88-8.36-14.79-8.973-22.77-8.043a79.814 79.814 0 0 1-10.305 2.074 27.656 27.656 0 0 1-9.976-5.125c.637 2.266.793 4.64.45 6.973-1.009 1.917-5.837-.833-5.837-.833zm0 0"/><path d="M229.54 209.09c0-10.453-7.907-18.926-17.657-18.926s-17.656 8.473-17.656 18.926c0 10.45 7.906 18.922 17.656 18.922s17.656-8.473 17.656-18.922zm0 0"/></g><path d="M216.832 192.668a8.827 8.827 0 1 0-6.277 16.5 8.828 8.828 0 0 0 11.39-5.11 8.833 8.833 0 0 0-5.113-11.39zm0 0" fill="#fff"/><path d="M327.875 191.938s-2.512 11.277-12.238 9.078c-9.723-2.2-11.578 2.023-19.957 1.347a33.328 33.328 0 0 0-8.567.524c-2.004.465-4.082.5-6.101.101-2.793-.746-2.551-3.992-1.575-6.097 3.88-8.36 14.79-8.973 22.77-8.043a79.814 79.814 0 0 0 10.305 2.074 27.656 27.656 0 0 0 9.976-5.125 16.744 16.744 0 0 0-.449 6.973c1.012 1.917 5.836-.833 5.836-.833zm0 0" fill="#2c2f38"/><path d="M317.813 209.09c0-10.453-7.907-18.926-17.657-18.926S282.5 198.637 282.5 209.09c0 10.45 7.906 18.922 17.656 18.922s17.656-8.473 17.656-18.922zm0 0" fill="#2c2f38"/><path d="M306.594 197.781a8.823 8.823 0 0 0-11.387-5.113 8.827 8.827 0 0 0-5.113 11.39c1.73 4.555 6.832 6.844 11.386 5.11a8.823 8.823 0 0 0 5.114-11.387zm0 0" fill="#fff"/></svg>