<svg height="512pt" viewBox="0 0 512 512" width="512pt" xmlns="http://www.w3.org/2000/svg"><path d="M350.191 180.523a386.926 386.926 0 0 1-104.695 68.329 290.433 290.433 0 0 1-76.8-92.782v-.086c4.5-12.625 26.042-63.558 91.984-109.023 61.968 55.527 82.8 109.2 89.511 133.562zm0 0" fill="#14a085"/><path d="M239.559 160.496c0-16.394-12.399-29.684-27.696-29.684s-27.699 13.29-27.699 29.684c0 16.395 12.402 29.684 27.7 29.684s27.695-13.29 27.695-29.684zm0 0M328.113 160.496c0-16.559-12.523-29.984-27.976-29.984-15.45 0-27.977 13.425-27.977 29.984 0 16.563 12.527 29.984 27.977 29.984 15.453 0 27.976-13.421 27.976-29.984zm0 0" fill="#2c2f38"/><path d="M414.898 512H512v-7.855c0-11.301-12.27-93.31-12.27-93.31-9.523-34.714-41.43-58.507-77.418-57.733H89.688c-35.988-.774-67.894 23.02-77.417 57.734 0 0-12.27 82.008-12.27 93.309V512zm0 0" fill="#d3c18d"/><path d="M424.43 414.809l-.707.09c-3.618-.266-7.239-.622-10.77-.973a197.176 197.176 0 0 1-10.504-1.324c-2.734-.352-5.472-.793-8.12-1.235-2.208-.355-4.415-.797-6.532-1.238-2.121-.352-4.149-.793-6.27-1.234-3-.618-5.914-1.325-8.828-2.032-3.176-.793-6.265-1.59-9.265-2.472-2.739-.707-5.477-1.5-8.125-2.383a178.344 178.344 0 0 1-9.707-3.176c2.293-2.387 4.5-4.77 6.53-7.062 2.56-2.825 4.856-5.653 7.063-8.387a87.65 87.65 0 0 0 3.707-4.77c3.356-4.324 6.266-8.562 8.828-12.535.176-.262.352-.527.442-.703 2.293-3.531 4.238-6.887 6-10.066.883-1.586 1.68-3.176 2.473-4.676a125.124 125.124 0 0 0 8.386-20.656c.223-.606.403-1.227.531-1.856.266-.973.352-1.5.352-1.5a25.078 25.078 0 0 1 8.652 1.41 18.159 18.159 0 0 1 12.977 12.715l11.387 65.234zm0 0" fill="#f9eab0"/><path d="M432.11 459.035c-6.973 0-13.77-.176-20.391-.441-2.473-.176-4.946-.266-7.414-.442a355.445 355.445 0 0 1-20.215-1.855c-1.856-.176-3.711-.352-5.563-.617-2.558-.352-5.03-.707-7.504-1.059-2.914-.441-5.828-.883-8.652-1.414-2.734-.527-5.473-.969-8.207-1.586-.707-.18-1.414-.266-2.121-.441h-.086c-3.09-.621-6.094-1.325-9.004-2.032a53.106 53.106 0 0 1-5.387-1.324c-5.296-1.324-10.418-2.738-15.359-4.328-1.5-.441-3-.883-4.414-1.41-2.207-.617-4.324-1.414-6.445-2.117-3.618-1.239-7.063-2.563-10.504-3.887 3-2.031 5.914-4.059 8.738-6.18 2.914-2.117 5.652-4.148 8.3-6.265.43-.297.845-.621 1.235-.973 1.942-1.5 3.883-3.09 5.738-4.59 5.208-4.414 10.063-8.738 14.477-13.066a204.755 204.755 0 0 0 6.18-6.176h.09a178.344 178.344 0 0 0 9.707 3.176c2.648.883 5.386 1.676 8.125 2.383 3.086.882 6.09 1.68 9.265 2.472 2.914.707 5.828 1.414 8.828 2.032 2.121.44 4.149.882 6.27 1.234 2.117.441 4.324.883 6.531 1.238 2.649.442 5.387.883 8.121 1.235 1.676.265 3.442.53 5.207.707 1.766.265 3.531.441 5.297.617 3.531.351 7.152.707 10.77.972l.707-.09 1.5 8.563 4.68 26.836zm0 0" fill="#f9eab0"/><path d="M441.379 512H273.656a223.798 223.798 0 0 0 29.219-13.418 112.467 112.467 0 0 0 5.473-3.09 223.082 223.082 0 0 0 27.101-18.183c1.5-1.149 2.914-2.297 4.324-3.446a214.979 214.979 0 0 0 15.008-13.152 204.719 204.719 0 0 0 7.59-7.504c2.824.531 5.738.973 8.652 1.414 2.473.352 4.946.707 7.504 1.059 1.852.265 3.707.441 5.563.617a355.445 355.445 0 0 0 20.215 1.855c2.468.176 4.941.266 7.414.442 6.62.265 13.418.441 20.39.441l1.5 8.649zm0 0" fill="#f9eab0"/><path d="M362.371 453.207a204.719 204.719 0 0 1-7.59 7.504 214.979 214.979 0 0 1-15.008 13.152 182.001 182.001 0 0 1-4.324 3.446 223.082 223.082 0 0 1-27.101 18.183 112.467 112.467 0 0 1-5.473 3.09A223.798 223.798 0 0 1 273.656 512H88.277a536.693 536.693 0 0 0 18.45-3.18 481.275 481.275 0 0 0 13.062-2.558 24.2 24.2 0 0 0 2.738-.532c.625-.101 1.246-.25 1.852-.437 3.004-.531 5.918-1.238 8.828-1.856 4.77-1.058 9.535-2.207 14.125-3.265 4.063-.973 8.035-2.031 11.918-3.004 4.68-1.234 9.18-2.469 13.684-3.793 3.441-.973 6.796-1.941 10.062-3.004 3.441-.969 6.797-2.117 10.152-3.266 2.735-.882 5.473-1.765 8.122-2.734a92.69 92.69 0 0 0 6.972-2.387c3-1.058 5.828-2.117 8.653-3.175a694.276 694.276 0 0 0 7.503-2.914 227.46 227.46 0 0 0 9.356-3.883c3.883-1.59 7.594-3.266 11.3-4.946 3.09-1.41 6.18-2.824 9.18-4.324a124.128 124.128 0 0 0 8.473-4.238c2.914-1.41 5.652-2.914 8.387-4.414 1.504-.793 3.004-1.586 4.504-2.469 3.175-1.766 6.18-3.531 9.18-5.297 2.913-1.765 5.827-3.62 8.652-5.387 2.558-1.59 5.03-3.175 7.414-4.855 3.441 1.324 6.886 2.648 10.504 3.887l3.18 1.058 3.175 1.059a283.676 283.676 0 0 0 25.25 7.062c2.91.707 5.914 1.41 9.004 2.032h.086c.7.187 1.406.336 2.121.441a61.84 61.84 0 0 0 5.559 1.059zm0 0" fill="#f9eab0"/><path d="M389.914 326.621s-.086.527-.351 1.5c-.13.629-.31 1.25-.532 1.856a125.124 125.124 0 0 1-8.386 20.656c-.793 1.5-1.59 3.09-2.473 4.676-1.762 3.18-3.707 6.535-6 10.066-.09.176-.266.441-.442.703-2.562 3.973-5.472 8.211-8.828 12.535a87.65 87.65 0 0 1-3.707 4.77c-2.207 2.734-4.504 5.562-7.062 8.387a239.983 239.983 0 0 1-6.531 7.062h-.09a204.755 204.755 0 0 1-6.18 6.176c-4.414 4.328-9.27 8.652-14.477 13.066-1.855 1.5-3.796 3.09-5.738 4.59-.39.352-.804.676-1.234.973-2.649 2.117-5.387 4.148-8.301 6.265-2.824 2.121-5.738 4.149-8.738 6.18-2.383 1.68-4.856 3.266-7.414 4.856-2.825 1.765-5.739 3.62-8.653 5.386-3 1.766-6.004 3.531-9.18 5.297-1.5.883-3 1.676-4.503 2.469-2.735 1.5-5.473 3.004-8.387 4.414a124.128 124.128 0 0 1-8.473 4.238c-3 1.5-6.09 2.914-9.18 4.324-3.706 1.68-7.417 3.356-11.3 4.946-3 1.324-6.18 2.648-9.356 3.883a694.276 694.276 0 0 1-7.503 2.914c-2.825 1.058-5.653 2.117-8.653 3.175-2.293.797-4.59 1.59-6.972 2.387-2.649.969-5.387 1.852-8.122 2.734-3.355 1.149-6.71 2.297-10.152 3.266-3.266 1.063-6.621 2.031-10.062 3.004a503.306 503.306 0 0 1-13.684 3.793c-3.883.973-7.855 2.031-11.918 3.004-4.59 1.058-9.355 2.207-14.125 3.266-2.91.617-5.824 1.324-8.828 1.855-.606.187-1.227.336-1.852.437a24.2 24.2 0 0 1-2.738.532 481.275 481.275 0 0 1-13.062 2.558 536.693 536.693 0 0 1-18.45 3.18H70.621l7.77-44.402 1.5-8.653c17.035-3.09 33.101-6.707 48.199-10.593 3.176-.883 6.355-1.676 9.445-2.559 2.824-.793 5.649-1.59 8.387-2.473a539.752 539.752 0 0 0 38.223-12.535c3.707-1.41 7.238-2.734 10.77-4.148 1.765-.707 3.53-1.41 5.206-2.117.973-.356 1.856-.797 2.824-1.239 1.5-.617 2.914-1.234 4.328-1.765.207-.149.45-.243.704-.262 9.359-3.973 18.187-8.035 26.394-12.274.266-.085.531-.261.797-.351 2.734-1.414 5.383-2.738 8.031-4.149 2.649-1.414 5.297-2.824 7.77-4.238 1.148-.617 2.207-1.234 3.355-1.851l1.852-1.063c4.238-2.383 8.387-4.855 12.36-7.238 5.472-3.442 10.679-6.797 15.534-10.063a304.254 304.254 0 0 0 7.946-5.562c2.382-1.766 4.77-3.442 6.976-5.207 1.059-.793 2.203-1.676 3.176-2.383.793-.617 1.5-1.238 2.207-1.766 5.648-4.414 10.68-8.652 15.008-12.535 1.5-1.324 2.824-2.558 4.148-3.797a274.54 274.54 0 0 0 9.977-9.797 69.686 69.686 0 0 0 2.558-2.738 4.19 4.19 0 0 0 .618-.617c.265-.266.441-.531.707-.793.32-.332.613-.687.882-1.062.434-.418.848-.86 1.235-1.325 3.265-3.707 4.77-5.824 4.77-5.824zm0 0" fill="#f9eab0"/><path d="M344.277 326.621s-1.504 2.117-4.77 5.824c-.386.465-.8.907-1.234 1.325-.27.375-.562.73-.882 1.062-.266.262-.442.527-.707.793a4.19 4.19 0 0 1-.618.617 69.686 69.686 0 0 1-2.558 2.738 274.54 274.54 0 0 1-9.977 9.797 190.571 190.571 0 0 1-4.148 3.797c-4.328 3.883-9.36 8.121-15.008 12.535-.707.528-1.414 1.149-2.207 1.766-.973.707-2.117 1.59-3.176 2.383-2.207 1.765-4.594 3.441-6.976 5.207-2.825-1.676-5.649-3.266-8.297-4.942a288.991 288.991 0 0 1-25.602-17.566c-1.324-.973-2.648-1.941-3.793-2.914-1.148-.883-2.297-1.766-3.27-2.648-1.41-1.149-2.824-2.297-4.058-3.356-3.883-3.266-7.062-6.18-9.621-8.562-1.5-1.325-2.738-2.559-3.797-3.618-.707-.707-1.234-1.324-1.765-1.765-.618-.621-1.06-1.149-1.415-1.504a1.972 1.972 0 0 0-.441-.442c-.086-.175-.176-.175-.262-.261a1.027 1.027 0 0 0-.18-.266zm0 0" fill="#f9eab0"/><path d="M292.016 374.465a295.094 295.094 0 0 1-7.946 5.562c-4.855 3.266-10.062 6.621-15.535 10.063-3.972 2.383-8.12 4.855-12.36 7.238l-1.85 1.063c-1.15.617-2.208 1.234-3.356 1.851-2.473 1.414-5.121 2.824-7.77 4.238-2.734-1.94-5.297-3.972-7.765-5.914a195.083 195.083 0 0 1-58.883-71.945h52.965c.074.078.132.168.18.266.253.21.492.449.702.703.356.355.797.883 1.415 1.504.53.441 1.058 1.058 1.765 1.765 1.059 1.059 2.297 2.293 3.797 3.618 2.559 2.382 5.738 5.296 9.621 8.562 1.234 1.059 2.649 2.207 4.059 3.356.972.882 2.12 1.765 3.27 2.648 1.144.973 2.468 1.941 3.792 2.914a288.991 288.991 0 0 0 25.602 17.566c2.648 1.676 5.472 3.266 8.297 4.942zm0 0" fill="#f9eab0"/><path d="M243.2 404.48c-2.65 1.41-5.298 2.735-8.032 4.149-.266.09-.531.266-.797.351-8.207 4.239-17.035 8.301-26.394 12.274-.254.02-.497.113-.704.262-1.414.53-2.828 1.148-4.328 1.765-.968.442-1.851.883-2.824 1.239-1.676.707-3.441 1.41-5.207 2.117-3.445-1.852-6.797-3.707-9.887-5.649h-.09a293.868 293.868 0 0 1-5.382-3.445c-1.766-1.059-3.446-2.293-5.121-3.441-3.356-2.383-6.446-4.68-9.36-7.149-1.5-1.148-2.91-2.387-4.324-3.621-1.41-1.148-2.734-2.383-4.059-3.617a158.825 158.825 0 0 1-10.152-10.328c-.266-.356-.617-.707-.797-.973a51.415 51.415 0 0 1-2.91-3.441 142.688 142.688 0 0 1-10.684-14.743c-.699-1-1.347-2.03-1.941-3.09a132.126 132.126 0 0 1-10.418-21.804c-.527-1.414-.969-2.738-1.41-3.973a85.119 85.119 0 0 1-2.563-9.093 9.399 9.399 0 0 1-.351-1.5 26.567 26.567 0 0 1-.617-3.18c2.359-.64 4.793-.969 7.238-.969h54.465a195.083 195.083 0 0 0 58.883 71.945c2.468 1.942 5.03 3.973 7.765 5.914zm0 0" fill="#f9eab0"/><path d="M194.914 426.637c-3.531 1.414-7.062 2.738-10.77 4.148a539.752 539.752 0 0 1-38.222 12.535c-2.738.883-5.563 1.68-8.387 2.473-3.09.883-6.27 1.676-9.445 2.559-15.098 3.886-31.164 7.503-48.2 10.593l1.59-9.27 9.446-54.023 2.734-15.273 6.887-39.633a15.57 15.57 0 0 1 6.004-9.094 21.482 21.482 0 0 1 8.297-4.062c.14 1.074.347 2.133.617 3.18.086.507.203 1.007.351 1.5a85.119 85.119 0 0 0 2.563 9.093c.351 1.235.883 2.559 1.41 3.973 2.8 7.57 6.285 14.871 10.418 21.805.617.968 1.234 2.027 1.941 3.09a142.688 142.688 0 0 0 10.684 14.742 51.415 51.415 0 0 0 2.91 3.441c.18.266.531.617.797.973a139.921 139.921 0 0 0 10.152 10.328c1.325 1.234 2.649 2.469 4.059 3.617 1.324 1.234 2.824 2.473 4.324 3.621 2.914 2.469 6.004 4.766 9.36 7.149 1.675 1.148 3.355 2.382 5.12 3.441 1.766 1.148 3.442 2.297 5.298 3.445.085.086.085 0 .175 0h.176c1.5.969 3 1.942 4.59 2.825 1.676.972 3.355 1.855 5.121 2.824zm0 0" fill="#f9eab0"/><path d="M185.379 282.484H326.62v44.137H185.38zm0 0" fill="#d3c18d"/><path d="M211.863 35.309a173.94 173.94 0 0 0-15.449 13.156c-1.676 1.586-3.355 3.176-5.031 4.855-1.059 1.059-2.207 2.118-3.18 3.266-5.558 5.559-10.855 11.476-15.8 17.3-1.5 1.677-2.915 3.442-4.325 5.122-1.5 1.851-3.004 3.797-4.504 5.558-3 3.797-5.738 7.329-8.207 10.594a16.16 16.16 0 0 0-.797 1.059c-.968 1.238-1.765 2.386-2.558 3.445-2.473 3.266-4.504 6.18-6.18 8.473-1.324-3.176-2.559-6.442-3.883-9.797-1.324-3.621-2.738-7.238-3.972-10.945-.797-2.122-1.504-4.329-2.297-6.536-1.059-3.351-2.207-6.707-3.266-10.238l-2.297-1.058a58.012 58.012 0 0 1 4.414-7.504 61.385 61.385 0 0 1 50.848-26.75zm0 0" fill="#f9eab0"/><path d="M245.496 248.852a372.87 372.87 0 0 1-9.27 3.968h-.09c-.792.356-1.5.621-2.292.973-1.414.531-2.824 1.059-4.149 1.59-4.238 1.676-8.3 3.18-12.183 4.5-2.117.707-4.149 1.414-6.18 2.12a238.472 238.472 0 0 1-8.562 2.65c-.793-.622-3.622-2.915-8.211-7.153a444.57 444.57 0 0 1-70.973-89.777V97.102a63.306 63.306 0 0 1 2.473-17.477 58.61 58.61 0 0 1 4.058-10.063l2.297 1.06c1.059 3.53 2.207 6.886 3.266 10.237.793 2.207 1.5 4.414 2.297 6.536 1.234 3.707 2.648 7.324 3.972 10.945 1.324 3.355 2.559 6.62 3.883 9.797 1.148 2.738 2.207 5.472 3.356 8.12 4.5 10.595 9.18 20.395 14.035 29.575 1.765 3.531 3.617 6.887 5.472 10.152v.086c1.414 2.563 2.914 5.121 4.325 7.594 3.003 5.121 5.914 9.887 8.917 14.477l3.176 4.765c0 .09.09.18.18.266 1.5 2.297 3 4.504 4.59 6.621 1.144 1.676 2.293 3.355 3.531 4.945a103.45 103.45 0 0 0 2.824 3.793 403.935 403.935 0 0 0 11.828 14.742c1.059 1.239 2.118 2.383 3.176 3.532a159.065 159.065 0 0 0 5.035 5.562l.793.793c1.414 1.59 2.825 3.004 4.239 4.504 6 6.004 11.562 10.945 16.242 14.918l.086.09c1.414 1.234 2.828 2.293 4.062 3.266.446.386.914.742 1.414 1.058.883.707 1.586 1.324 2.383 1.856zm0 0" fill="#f9eab0"/><path d="M202.77 264.652c-3.622 1.059-7.149 2.028-10.418 2.825-1.676.441-3.352.793-5.032 1.234-.351.09-.793.176-1.148.266a283.095 283.095 0 0 1-13.945 2.824c-.227.09-.465.148-.707.176-3.797.62-6.887 1.062-9.004 1.324-.618.09-1.235.09-1.676.18-.266 0-.356.085-.531.085a1.74 1.74 0 0 0-.707.09h-.618v2.824h-.086l-1.062-.53a69.153 69.153 0 0 1-7.504-4.325 61.666 61.666 0 0 1-26.746-50.934v-52.968a444.57 444.57 0 0 0 70.973 89.777c4.59 4.238 7.418 6.531 8.21 7.152zm0 0" fill="#f9eab0"/><path d="M388.414 141.242v52.965c-35.312 52.965-123.586 88.277-123.586 88.277h-79.45a59.156 59.156 0 0 1-13.858-1.59c-4.06-.886-8-2.25-11.739-4.062-.265-.086-.531-.266-.797-.352v-2.824h.618a1.74 1.74 0 0 1 .707-.09c.175 0 .265-.086.53-.086.442-.09 1.06-.09 1.677-.18 2.117-.26 5.207-.702 9.004-1.323.242-.028.48-.086.707-.176 3.972-.707 8.562-1.59 13.945-2.824.355-.09.797-.176 1.148-.266 1.68-.441 3.356-.793 5.032-1.234 3.27-.797 6.796-1.766 10.418-2.825 2.738-.797 5.648-1.68 8.562-2.648 2.559-.883 5.207-1.766 7.856-2.738 2.207-.707 4.593-1.59 6.976-2.559.453-.11.895-.254 1.324-.441.703-.266 1.41-.532 2.207-.883h.086a193.72 193.72 0 0 1 4.063-1.59c.793-.352 1.5-.617 2.293-.973h.09c3-1.234 6.09-2.558 9.27-3.968 2.648-1.149 5.296-2.387 8.03-3.622l.532-.265a197.79 197.79 0 0 0 7.59-3.707c.663-.29 1.312-.613 1.94-.973 5.122-2.469 10.243-5.207 15.45-8.207a389.29 389.29 0 0 0 57.379-39.637c.437-.324.852-.675 1.238-1.058 1.942-1.59 3.973-3.266 5.914-5.031a196.564 196.564 0 0 0 6.621-5.829c2.383-2.207 4.856-4.414 7.239-6.707 1.59-1.5 3.175-3.004 4.765-4.59 1.239-1.238 2.473-2.386 3.621-3.62 1.676-1.676 3.266-3.356 4.856-5.032a16.744 16.744 0 0 0 1.766-1.765 32.529 32.529 0 0 1 1.675-1.856c2.032-2.117 4.059-4.234 6.004-6.441.176-.18.352-.442.528-.621.34-.278.636-.606.882-.97.09 0 .09 0 .09-.089.29-.27.555-.566.793-.883.176-.176.356-.265.442-.441l.265-.266c.38-.387.73-.8 1.059-1.234.379-.36.73-.742 1.058-1.149.176-.152.325-.332.442-.527.375-.363.73-.746 1.062-1.148v-.09a17.11 17.11 0 0 0 1.676-1.852zm0 0" fill="#f9eab0"/><path d="M388.414 194.207v26.484a61.76 61.76 0 0 1-18.086 43.707 61.754 61.754 0 0 1-43.707 18.086h-61.793s88.274-35.312 123.586-88.277zm0 0" fill="#f9eab0"/><path d="M300.137 8.828v26.48h-88.274V8.829c.012-4.871 3.957-8.812 8.828-8.828h70.618c4.87.016 8.816 3.957 8.828 8.828zm0 0" fill="#d3c18d"/><path d="M380.117 150.512c-1.945 2.207-3.972 4.324-6.004 6.441-1.148 1.238-2.297 2.387-3.441 3.621-1.59 1.676-3.18 3.356-4.856 5.031-1.148 1.235-2.382 2.383-3.62 3.622a235.753 235.753 0 0 1-4.766 4.59c-2.383 2.292-4.856 4.5-7.239 6.706-.09-.441-.265-.793-.355-1.234a8.477 8.477 0 0 0-.441-1.414c-.442-1.5-.883-3-1.41-4.68 0-.086 0-.086-.09-.175a14.7 14.7 0 0 0-.618-1.852 234.182 234.182 0 0 0-19.949-43.7 141.114 141.114 0 0 0-3.445-5.738 18.292 18.292 0 0 0-1.059-1.761 291.284 291.284 0 0 0-23.129-32.313 282.285 282.285 0 0 0-7.148-8.472c-1.856-2.118-3.707-4.239-5.738-6.446-.883-.883-1.676-1.851-2.649-2.824a279.623 279.623 0 0 0-7.152-7.414 5.465 5.465 0 0 0-.703-.707 41.086 41.086 0 0 0-3.446-3.355c-1.5-1.586-3.09-3.09-4.765-4.59a8.562 8.562 0 0 0-.883-.883c-2.117-2.031-4.324-3.973-6.531-6.004-2.207-2.027-4.504-3.969-6.797-6-2.207-1.856-4.414-3.797-6.711-5.652h61.793s5.207 5.21 12.8 14.214c.794.883 1.59 1.766 2.383 2.825 5.649 6.797 12.45 15.359 19.422 25.422a393.425 393.425 0 0 1 5.914 8.828 265.677 265.677 0 0 1 23.657 44.843 193.57 193.57 0 0 1 3.445 9.27c.086.09.086.176.176.355 0 0 .09.086 0 .086l1.058 3.18c.176.617.442 1.234.617 1.852.09.39.208.777.356 1.148.262.883.527 1.856.793 2.738zm0 0" fill="#f9eab0"/><path d="M388.414 97.102v44.14a17.11 17.11 0 0 1-1.676 1.852v.09c-.332.402-.687.785-1.062 1.148a2.188 2.188 0 0 1-.442.527c-.328.407-.68.79-1.058 1.149-.328.433-.68.847-1.059 1.234l-.265.266c-.086.176-.266.265-.442.441a6.806 6.806 0 0 1-.793.883c0 .09 0 .09-.09.09a4.526 4.526 0 0 1-.882.969c-.176.18-.352.441-.528.62l-.531-.44c-.266-.883-.531-1.856-.793-2.739-.09-.352-.266-.793-.355-1.148a14.7 14.7 0 0 0-.618-1.852l-1.058-3.18c.09 0 0-.086 0-.086-.09-.18-.09-.265-.176-.355a193.57 193.57 0 0 0-3.445-9.27 265.677 265.677 0 0 0-23.657-44.843c-1.941-3.09-3.972-6-5.914-8.828-6.972-10.063-13.773-18.625-19.422-25.422a78.553 78.553 0 0 0-2.382-2.825c-7.594-9.003-12.801-14.214-12.801-14.214h17.656a61.754 61.754 0 0 1 43.707 18.086 61.76 61.76 0 0 1 18.086 43.707zm0 0M260.68 46.96a271.098 271.098 0 0 0-7.418 5.298c-.528.441-1.145.797-1.676 1.324-2.473 1.766-4.856 3.531-7.149 5.387a257.796 257.796 0 0 0-23.042 20.304c-2.208 2.118-4.325 4.235-6.442 6.356-4.062 4.234-7.77 8.387-11.125 12.445-1.234 1.414-2.293 2.739-3.355 4.063-1.145 1.41-2.118 2.734-3.086 3.972a15.33 15.33 0 0 0-1.59 2.028 232.55 232.55 0 0 0-13.418 19.773c-.973 1.68-1.856 3.27-2.738 4.77-2.735 4.765-4.942 9.09-6.621 12.8-.352.704-.618 1.325-.883 1.942-.352.793-.617 1.5-.883 2.117-.234.387-.41.8-.527 1.234-.883 2.122-1.59 3.887-2.032 5.211-1.855-3.265-3.707-6.62-5.472-10.152-4.856-9.18-9.536-18.98-14.036-29.574-1.148-2.649-2.207-5.383-3.355-8.121 1.676-2.293 3.707-5.207 6.18-8.473.793-1.059 1.59-2.207 2.558-3.445.176-.262.442-.617.797-1.059 2.383-3.265 5.207-6.797 8.207-10.594 1.5-1.761 3.004-3.707 4.504-5.558 1.41-1.68 2.914-3.356 4.324-5.121 4.946-5.825 10.243-11.742 15.801-17.301 1.059-1.148 2.121-2.207 3.18-3.266 1.59-1.59 3.265-3.27 5.031-4.855a173.94 173.94 0 0 1 15.45-13.156h35.308c2.297 1.855 4.504 3.796 6.71 5.652 2.294 2.031 4.59 3.973 6.798 6zm0 0M137.535 445.793a297.258 297.258 0 0 1-40.433-57.379zm0 0" fill="#f9eab0"/><g fill="#7f6e5d"><path d="M388.414 132.414v22.156a436.266 436.266 0 0 1-33.105 33.282 397.712 397.712 0 0 1-105.84 69.207 358.837 358.837 0 0 1-42.285 15.625c-.09 0-.09.09-.176.09h-.09c-.883.265-1.766.527-2.559.706a255.998 255.998 0 0 1-32.84 7.415c-4.058-.887-8-2.25-11.738-4.063-.265-.086-.531-.266-.797-.352h-.086l-1.062-.53a69.153 69.153 0 0 1-7.504-4.325 8.66 8.66 0 0 1 7.945-6.797 194.915 194.915 0 0 0 26.22-4.68c3.089-.707 6.444-1.59 10.062-2.648 3.18-.793 6.535-1.766 10.066-2.824 7.238-2.297 15.27-5.031 23.746-8.387 3-1.148 6-2.383 9.18-3.707 3-1.324 6.004-2.648 9.094-4.062a383.848 383.848 0 0 0 93.48-60.82c2.387-2.118 4.77-4.24 7.152-6.532 2.383-2.121 4.68-4.328 7.063-6.621a444.465 444.465 0 0 0 15.625-15.89v-.09c2.293-2.47 4.59-4.852 6.797-7.415v-.086c1.676-1.855 3.355-3.71 4.941-5.562a8.117 8.117 0 0 1 1.856-1.59 8.992 8.992 0 0 1 4.855-1.5zm0 0M388.414 185.379v23.57c-28.336 35.047-75.918 61.086-101.957 73.535H256a9 9 0 0 1 5.563-8.21c.882-.352 86.156-34.958 119.523-84.922a8.811 8.811 0 0 1 7.328-3.973zm0 0"/><path d="M355.223 187.762a9.164 9.164 0 0 1-2.649 1.238 7.465 7.465 0 0 1-2.383.352 8.658 8.658 0 0 1-6.62-3 9.287 9.287 0 0 1-1.856-3.446c-.442-1.676-.969-3.351-1.59-5.207-8.031-26.043-28.598-71.504-80.152-119.437-1.676-1.5-3.442-3.09-5.207-4.68-.532-.441-.973-.883-1.504-1.324-2.207-2.028-4.5-4.059-6.797-5.914-1.586-1.5-3.266-2.824-4.942-4.235a8.756 8.756 0 0 1-3.18-6.8h22.512c1.766 1.59 3.532 3.09 5.207 4.68.2.12.375.269.532.44.176.09.176.176.265.266 53.317 47.758 77.063 94.278 87.48 123.852 1.235 3.266 2.208 6.445 3.09 9.27.442 1.5.883 2.91 1.235 4.324a8.705 8.705 0 0 1-3.441 9.62zm0 0M388.414 150.156a8.642 8.642 0 0 1-6.445 8.387 7.469 7.469 0 0 1-2.383.355 8.633 8.633 0 0 1-5.473-1.945 8.5 8.5 0 0 1-3-4.5c-.355-1.238-.797-2.562-1.148-3.797-17.922-57.289-66.738-106.547-67.266-107.078a8.893 8.893 0 0 1-2.562-6.27h21.011a324.803 324.803 0 0 1 62.41 98.606c1.149 3.09 2.208 6.18 3.18 9.27l1.324 4.5a7.7 7.7 0 0 1 .352 2.472zm0 0M252.559 254.145a8.388 8.388 0 0 1-3.18 2.648 8.58 8.58 0 0 1-3.883.883 8.484 8.484 0 0 1-5.297-1.766c-1.238-.883-2.562-1.941-3.972-3.09h-.09c-2.383-1.851-4.942-4.058-7.766-6.53a313.909 313.909 0 0 1-67.004-85.364 7.254 7.254 0 0 1-.793-1.41 383.33 383.33 0 0 1-22.597-47.317c-.09-.265-.266-.531-.356-.797-4.059-9.972-7.945-20.656-11.562-31.777a58.61 58.61 0 0 1 4.058-10.062 58.012 58.012 0 0 1 4.414-7.504 8.793 8.793 0 0 1 6.27 5.914 573.048 573.048 0 0 0 7.414 21.804c1.234 3.356 2.472 6.707 3.797 9.887.617 1.766 1.324 3.441 2.031 5.121l1.852 4.5a331.193 331.193 0 0 0 12.093 26.485 203.87 203.87 0 0 0 5.032 9.71 140.613 140.613 0 0 0 3.355 6.266 71.043 71.043 0 0 0 2.031 3.531 282.036 282.036 0 0 0 68.239 83.243c1.5 1.238 2.824 2.296 4.148 3.27a8.628 8.628 0 0 1 2.734 3.44 8.82 8.82 0 0 1-.968 8.915zm0 0M210.098 270.125a10.99 10.99 0 0 1-3.09 2.648c-.09-.09-.09 0-.09 0-.883.266-1.766.528-2.559.707a3.462 3.462 0 0 1-1.324.176 9.102 9.102 0 0 1-5.297-1.765c-.265-.266-2.207-1.68-5.386-4.414-2.028-1.856-4.676-4.239-7.856-7.329a443.957 443.957 0 0 1-60.91-76.003v-25.247a8.825 8.825 0 0 1 7.504 4.149 413.38 413.38 0 0 0 73.535 91.629c2.383 2.031 3.617 3 3.707 3.09a8.798 8.798 0 0 1 3 4.238 8.48 8.48 0 0 1-1.234 8.121zm0 0"/><path d="M168.695 164.852a8.784 8.784 0 0 1-6.238-2.559 8.78 8.78 0 0 1-2.59-6.223v-.09c0-1.011.172-2.011.512-2.964 5.289-14.82 27.793-66.793 95.289-113.32 4.012-2.66 9.418-1.618 12.148 2.347 2.73 3.965 1.786 9.387-2.129 12.187-64.273 44.317-84.921 94.293-88.597 104.493a8.85 8.85 0 0 1-8.395 6.129zm0 0M220.691 35.309a8.95 8.95 0 0 1-3.53 7.062 345.814 345.814 0 0 0-61.266 66.914c-1.149 1.59-2.032 2.914-2.825 3.973a9.116 9.116 0 0 1-3.882 3 8.714 8.714 0 0 1-3.356.707 8.811 8.811 0 0 1-7.855-4.68 9.682 9.682 0 0 1-.356-.883 8.96 8.96 0 0 1 .973-8.382c.969-1.415 2.117-2.915 3.355-4.68a285.044 285.044 0 0 1 6.266-8.477v-.086a370.608 370.608 0 0 1 49.613-54.468zm0 0M353.102 326.621a8.897 8.897 0 0 1-1.676 5.207 256.491 256.491 0 0 1-54.29 49.79 2.05 2.05 0 0 1-.792.527 417.695 417.695 0 0 1-48.996 30.19c-.086 0-.176 0-.176.09a470.025 470.025 0 0 1-48.11 21.981 8.457 8.457 0 0 1-1.855.793 562.554 562.554 0 0 1-56.406 18.805 6.094 6.094 0 0 1-1.68.441c-18.976 5.297-38.398 9.797-57.64 13.153a4.975 4.975 0 0 1-1.59.175 4.416 4.416 0 0 1-1.5-.175l1.5-8.653 1.59-9.27c13.503-2.468 26.921-5.472 40.25-8.823 3.18-.797 6.359-1.59 9.449-2.473h.086c.355-.09.617-.176.882-.266.973-.265 2.032-.531 3-.793 1.856-.53 3.532-1.062 5.297-1.59h.09c11.742-3.355 23.04-6.972 33.985-10.945h.09c3.44-1.238 6.886-2.472 10.242-3.797.085.086.085 0 .175 0h.086c2.207-.883 4.328-1.68 6.535-2.562 1.325-.528 2.559-.969 3.793-1.586h.09c10.77-4.328 21.188-9.004 31.25-13.86 2.914-1.5 5.824-2.914 8.653-4.414 1.234-.617 2.382-1.238 3.617-1.855a145.193 145.193 0 0 0 4.945-2.734c11.211-6.094 21.89-12.45 31.777-18.98 2.739-1.767 5.387-3.622 7.946-5.474 1.058-.707 2.117-1.414 3.18-2.207 1.585-1.148 3.085-2.296 4.59-3.441a258.492 258.492 0 0 0 41.312-37.254zm0 0"/><path d="M398.566 328.031v.266a160.052 160.052 0 0 1-36.812 66.473 4258.846 4258.846 0 0 1-6.445 7.238c-2.207 2.383-4.5 4.68-6.883 7.062a282.165 282.165 0 0 1-28.336 24.54 376.715 376.715 0 0 1-8.742 6.359 404.203 404.203 0 0 1-9.004 6.09c-38.574 25.336-92.246 49.433-166.93 65.941H79.45a8.82 8.82 0 0 1 7.414-8.738c98.782-15.89 164.899-44.844 208.86-74.77a287.232 287.232 0 0 0 42.55-35.312c.317-.301.614-.625.883-.97a166.497 166.497 0 0 0 41.664-65.589h9.094a25.078 25.078 0 0 1 8.652 1.41zm0 0"/><path d="M425.93 423.371a6.054 6.054 0 0 1-2.207.352h-.618a309.102 309.102 0 0 1-74.68-14.653c-1.94-.617-3.886-1.234-5.827-1.941a8.04 8.04 0 0 1-3.266-2.121 8.379 8.379 0 0 1-2.117-9.09 8.252 8.252 0 0 1 2.207-3.445 8.776 8.776 0 0 1 9.004-1.942c1.234.442 2.472.883 3.707 1.239 3.176 1.058 6.355 2.117 9.62 3a293.347 293.347 0 0 0 61.177 11.21l1.5 8.829zm0 0M299.695 378.879a8.45 8.45 0 0 1-2.558 2.738 2.05 2.05 0 0 1-.793.528 8.346 8.346 0 0 1-4.328 1.148 8.873 8.873 0 0 1-4.414-1.148c-1.235-.704-2.383-1.41-3.532-2.118-2.824-1.675-5.648-3.355-8.297-5.03a265.773 265.773 0 0 1-52.875-42.552 8.696 8.696 0 0 1-2.207-5.824h21.274a275.206 275.206 0 0 0 49.523 37.254 240.42 240.42 0 0 0 4.942 2.91 6.916 6.916 0 0 1 2.562 2.473 8.683 8.683 0 0 1 .703 9.62zm0 0M433.61 467.684c-.493.109-.997.168-1.5.18a414.837 414.837 0 0 1-66.65-5.212c-1.585-.261-3.089-.527-4.589-.793-2.031-.351-4.059-.707-6.09-1.148-3.531-.617-7.062-1.41-10.594-2.207a309.09 309.09 0 0 1-41.843-12.445c-1.586-.532-3.09-1.149-4.676-1.766a8.663 8.663 0 0 1-4.934-4.625 8.664 8.664 0 0 1-.101-6.762 9.07 9.07 0 0 1 3.27-4.148 8.78 8.78 0 0 1 8.12-.883c1.852.703 3.707 1.41 5.559 2.027a209.01 209.01 0 0 0 10.508 3.707 338.387 338.387 0 0 0 43.605 10.95c.211-.012.422.02.621.086a407.953 407.953 0 0 0 66.293 5.562l1.5 8.828zm0 0M250.352 409.688a8.552 8.552 0 0 1-3.004 2.648c-.086 0-.176 0-.176.09-1.254.55-2.602.851-3.973.883a8.9 8.9 0 0 1-5.207-1.68c-1.234-.883-2.383-1.766-3.62-2.649a320.522 320.522 0 0 1-7.59-6 201.947 201.947 0 0 1-58.438-73.093 8.59 8.59 0 0 1-.621-3.266h18.539a200.22 200.22 0 0 0 57.734 67.356 81.845 81.845 0 0 0 4.414 3.351 10.044 10.044 0 0 1 2.559 2.914 9.128 9.128 0 0 1-.617 9.445zm0 0M202.68 430.785a8.702 8.702 0 0 1-5.473 4.414c-.75.18-1.52.27-2.293.266a8.789 8.789 0 0 1-4.148-1.059c-2.297-1.148-4.414-2.383-6.621-3.62-3.356-1.942-6.536-3.974-9.625-6a151.23 151.23 0 0 1-67.97-93.134 21.482 21.482 0 0 1 8.298-4.062c2.359-.64 4.793-.969 7.238-.969h1.59c1.765 10.238 13.062 57.555 71.765 90.219a49.101 49.101 0 0 0 3.621 2.027 7.92 7.92 0 0 1 3.883 4.414 8.341 8.341 0 0 1-.265 7.504zm0 0M143.36 452.414a8.813 8.813 0 0 1-2.56 1.59 6.094 6.094 0 0 1-1.679.441 4.939 4.939 0 0 1-1.586.176 8.626 8.626 0 0 1-6.62-3 91.516 91.516 0 0 1-2.825-3.27c-2.207-2.558-4.328-5.03-6.36-7.5a300.259 300.259 0 0 1-30.804-45.199l2.734-15.273a8.716 8.716 0 0 1 11.3 4.062 295.763 295.763 0 0 0 35.485 51.29h.09c1.149 1.41 2.383 2.824 3.621 4.238a7.328 7.328 0 0 1 1.766 3.351c1 3.274 0 6.825-2.563 9.094zm0 0"/><path d="M371.023 454.621a8.386 8.386 0 0 1-2.296 4.68c-1.059 1.058-2.118 2.207-3.266 3.351A251.05 251.05 0 0 1 296.078 512h-31.25a9.018 9.018 0 0 1 5.738-8.297 229.507 229.507 0 0 0 73.621-45.2h.09a211.283 211.283 0 0 0 7.68-7.323h.086c1.414-1.414 2.738-2.739 3.973-4.063a8.706 8.706 0 0 1 7.238-2.648.953.953 0 0 1 .441.09c.211-.012.422.02.621.086 0 0 0-.086.086 0a7.74 7.74 0 0 1 4.063 2.207 8.59 8.59 0 0 1 2.558 7.77zm0 0"/></g><path d="M232.879 137.613a87.8 87.8 0 0 0-26.129-5.297 62.808 62.808 0 0 0-34.605 7.38c1.207-15.45 37.023-18.505 54.53-14.532a8.356 8.356 0 0 1 6.442 4.563 8.351 8.351 0 0 1-.238 7.886zm0 0" fill="#2c2f38"/><path d="M229.516 160.496c0-10.45-7.903-18.922-17.653-18.922s-17.656 8.473-17.656 18.922c0 10.45 7.906 18.922 17.656 18.922s17.653-8.473 17.653-18.922zm0 0" fill="#4fba6f"/><path d="M216.813 144.078a8.827 8.827 0 0 0-6.277 16.5c4.554 1.735 9.655-.555 11.39-5.113 1.73-4.555-.559-9.656-5.113-11.387zm0 0" fill="#fff"/><path d="M279.121 137.613a87.8 87.8 0 0 1 26.129-5.297 62.808 62.808 0 0 1 34.605 7.38c-1.207-15.45-37.023-18.505-54.53-14.532a8.356 8.356 0 0 0-6.442 4.563 8.351 8.351 0 0 0 .238 7.886zm0 0" fill="#2c2f38"/><path d="M317.793 160.496c0-10.45-7.906-18.922-17.656-18.922s-17.653 8.473-17.653 18.922c0 10.45 7.903 18.922 17.653 18.922s17.656-8.473 17.656-18.922zm0 0" fill="#4fba6f"/><path d="M306.578 149.188a8.828 8.828 0 0 0-11.39-5.11 8.827 8.827 0 0 0 6.277 16.5 8.827 8.827 0 0 0 5.113-11.39zm0 0" fill="#fff"/></svg>