<svg height="512pt" viewBox="0 0 512 512" width="512pt" xmlns="http://www.w3.org/2000/svg"><path d="M185.379 300.137H326.62v79.449H185.38zm0 0" fill="#f29c1f"/><path d="M512 504.145V512H0v-7.855a138.922 138.922 0 0 1 4.063-33.547l8.207-24.453c9.523-34.711 41.43-58.508 77.418-57.73h332.625c35.988-.778 67.894 23.019 77.417 57.73l8.207 24.453A138.922 138.922 0 0 1 512 504.145zm0 0" fill="#2fa8cc"/><path d="M194.207 512H70.621l29.926-135.945a20.792 20.792 0 0 1 21.539-14.125h10.328v44.14c15.36 7.68 37.43 22.067 42.902 25.598zm0 0M441.379 512H317.793l18.89-80.332c2.739-1.766 9.622-6.266 17.743-11.211 8.125-5.031 17.48-10.504 25.16-14.387v-44.14h10.328a20.902 20.902 0 0 1 21.629 14.125zm0 0" fill="#84b5cb"/><path d="M353.105 361.93l-6.27 26.484-10.151 43.254L317.793 512H194.207l-18.89-80.332-10.153-43.254-6.266-26.484zm0 0" fill="#f0c419"/><path d="M175.316 431.668c-5.472-3.531-27.543-17.918-42.902-25.598v-44.14h26.484zm0 0M379.586 361.93v44.14c-7.68 3.883-17.035 9.356-25.16 14.387-8.121 4.945-15.004 9.445-17.742 11.211l16.421-69.738zm0 0" fill="#e6e7e8"/><path d="M388.414 88.277V256a61.754 61.754 0 0 1-18.086 43.707 61.754 61.754 0 0 1-43.707 18.086H185.38a61.754 61.754 0 0 1-43.707-18.086A61.754 61.754 0 0 1 123.586 256V88.277zm0 0" fill="#f0c419"/><path d="M423.723 170.46c-8.825 50.935-35.309 67.884-35.309 67.884-26.484 0-17.656-85.274-35.309-113.7C335.45 96.224 273.656 115.2 256 115.2s-79.45-18.976-97.102 9.446c-17.656 28.425-8.828 113.699-35.312 113.699 0 0-26.48-16.95-35.309-67.883-8.828-50.848 0-135.68 70.621-144.242 11.032-1.239 21.098-2.383 30.364-3.356 8.566-.883 16.422-1.59 23.484-2.117.164-.074.348-.101.527-.09h.09C223.668 7.61 239.375 0 256 0s32.332 7.61 42.637 20.656h.09c.18-.011.363.016.527.09 7.062.527 14.922 1.234 23.484 2.117 9.266.973 19.332 2.117 30.367 3.356 70.618 8.562 79.446 93.394 70.618 144.242zm0 0" fill="#2c2f38"/><path d="M329.445 58.352a10.65 10.65 0 0 1-2.824.441 8.8 8.8 0 0 1-8.387-6.004 93.108 93.108 0 0 0-17.3-29.219 8.54 8.54 0 0 1-1.68-2.824c7.062.527 14.922 1.234 23.484 2.117a114.449 114.449 0 0 1 12.27 24.278 8.926 8.926 0 0 1-5.563 11.21zm0 0M212.746 20.746a8.54 8.54 0 0 1-1.68 2.824 93.108 93.108 0 0 0-17.3 29.22 8.8 8.8 0 0 1-8.387 6.003 10.65 10.65 0 0 1-2.824-.441 8.926 8.926 0 0 1-5.563-11.211 114.632 114.632 0 0 1 12.27-24.278c8.566-.883 16.422-1.59 23.484-2.117zm0 0" fill="#bdc3c7"/><g fill="#f29c1f"><path d="M247.172 494.344A35.258 35.258 0 0 1 242.406 512h-30.543c9.739-.027 17.625-7.918 17.653-17.656a8.829 8.829 0 0 1 17.656 0zm0 0M300.137 512h-30.543a35.258 35.258 0 0 1-4.766-17.656 8.829 8.829 0 0 1 17.656 0c.028 9.738 7.914 17.629 17.653 17.656zm0 0M238.344 423.723a8.78 8.78 0 0 1-6.239-2.586l-6.242-6.239h-14a8.829 8.829 0 0 1 0-17.656h17.653c2.343 0 4.586.93 6.242 2.586l8.828 8.828a8.826 8.826 0 0 1-6.242 15.066zm0 0M273.656 423.723a8.826 8.826 0 0 1-6.242-15.067l8.828-8.828a8.822 8.822 0 0 1 6.242-2.586h17.653a8.829 8.829 0 0 1 0 17.656h-14l-6.242 6.239a8.78 8.78 0 0 1-6.239 2.586zm0 0"/></g><path d="M297.734 251.586c-7.132 13.957-29.398 15.934-41.558 15.934-12.188 0-34.422-1.977-41.555-15.934a179.535 179.535 0 0 0 41.555 5.207 179.357 179.357 0 0 0 41.558-5.207zm0 0M232.879 159.68a87.917 87.917 0 0 0-26.129-5.293 62.774 62.774 0 0 0-34.605 7.379c1.207-15.45 37.023-18.504 54.53-14.532a8.351 8.351 0 0 1 6.442 4.559 8.35 8.35 0 0 1-.238 7.887zm0 0M229.516 186.98c0-10.453-7.903-18.925-17.653-18.925s-17.656 8.472-17.656 18.925c0 10.45 7.906 18.922 17.656 18.922s17.653-8.472 17.653-18.922zm0 0" fill="#2c2f38"/><path d="M216.813 170.559a8.833 8.833 0 0 0-11.391 5.113 8.827 8.827 0 0 0 5.113 11.39 8.833 8.833 0 0 0 11.39-5.113 8.833 8.833 0 0 0-5.113-11.39zm0 0" fill="#fff"/><path d="M279.121 159.68a87.942 87.942 0 0 1 26.129-5.293 62.774 62.774 0 0 1 34.605 7.379c-1.207-15.45-37.023-18.504-54.53-14.532a8.357 8.357 0 0 0-6.442 4.559 8.35 8.35 0 0 0 .238 7.887zm0 0M317.793 186.98c0-10.453-7.902-18.925-17.656-18.925-9.75 0-17.653 8.472-17.653 18.925 0 10.45 7.903 18.922 17.653 18.922 9.754 0 17.656-8.472 17.656-18.922zm0 0" fill="#2c2f38"/><path d="M306.578 175.672a8.827 8.827 0 0 0-11.39-5.113 8.833 8.833 0 0 0-5.114 11.39 8.833 8.833 0 0 0 11.39 5.113c4.56-1.734 6.849-6.835 5.114-11.39zm0 0" fill="#fff"/></svg>