<svg height="512pt" viewBox="0 0 512 512" width="512pt" xmlns="http://www.w3.org/2000/svg"><path d="M185.379 317.793H326.62v79.45H185.38zm0 0" fill="#f29c1f"/><path d="M512 504.145V512H0v-7.855A174.304 174.304 0 0 1 12.27 463.8c9.523-34.715 41.43-58.508 77.418-57.73h332.625c35.988-.778 67.894 23.015 77.417 57.73A174.304 174.304 0 0 1 512 504.145zm0 0" fill="#f0c419"/><path d="M344.277 379.586l-19.863 26.484-9.27 12.356-5.296 7.062c-.086 0-.176.09-.266.09-1.941.531-3.973 1.149-6.18 1.59a76.21 76.21 0 0 1-7.058 1.59c-3.446.703-7.153 1.32-11.035 1.851-1.59.176-3.266.442-4.946.618-2.472.265-4.941.53-7.59.707-.972.09-2.03.175-3.09.175-1.761.184-3.527.27-5.296.266a24.35 24.35 0 0 1-2.559.09c-1.945.086-3.887.086-5.828.086s-3.883 0-5.828-.086a24.35 24.35 0 0 1-2.559-.09 49.998 49.998 0 0 1-5.297-.266c-1.058 0-2.117-.086-3.09-.175-2.648-.176-5.117-.442-7.59-.707-1.679-.176-3.355-.442-4.945-.618-3.882-.53-7.59-1.148-11.035-1.851a76.21 76.21 0 0 1-7.058-1.59h-.18a188.592 188.592 0 0 1-6-1.59h-.18l-.086-.09-5.297-7.062-9.27-12.356-19.862-26.484zm0 0" fill="#f0c419"/><path d="M220.691 450.207V512H70.621l26.836-105.93 3.09-12.36a20.788 20.788 0 0 1 21.539-14.124h19.156c0 1.941 0 3.797.086 5.648 0 1.325.09 2.649.09 3.887.176 2.824.352 5.473.531 8.121.176 1.324.262 2.649.442 3.883.175 1.68.351 3.355.617 4.945.441 3.176.883 6.18 1.5 9.09.883 4.328 1.855 8.477 2.914 12.274.351 1.234.703 2.468 1.058 3.707l.793 2.382c.067.395.184.782.356 1.149.527 1.676 1.144 3.265 1.766 4.765a105.537 105.537 0 0 0 5.558 12.446c.266.531.531.972.797 1.504a81.146 81.146 0 0 0 6.973 10.855c.09.176.265.356.351.531.32.329.617.684.883 1.059 1.063 1.324 1.766 2.031 1.766 2.031.125-.144.273-.265.441-.355a12.28 12.28 0 0 1 1.945-1.766 47.223 47.223 0 0 1 9.266-6.18c1.148-.527 2.297-1.144 3.445-1.675a74.97 74.97 0 0 1 9.446-3.356c1.41-.441 2.914-.793 4.324-1.144 1.238-.356 2.472-.621 3.62-.883.884-.18 1.767-.356 2.65-.441 1.324-.266 2.558-.442 3.792-.708.594-.011 1.184-.07 1.766-.175.621-.09 1.148-.18 1.766-.266 3.488-.414 6.996-.648 10.507-.707zm0 0" fill="#2c2f38"/><path d="M220.691 450.207c-3.511.059-7.02.293-10.507.707-.528.086-1.145.176-1.766.266-.582.105-1.172.164-1.766.175-1.234.176-2.468.442-3.793.707-.882.086-1.765.262-2.648.442a50.855 50.855 0 0 0-3.621.883c-1.41.261-2.824.703-4.324 1.144a74.97 74.97 0 0 0-9.446 3.356c-1.148.531-2.297 1.058-3.445 1.675a47.223 47.223 0 0 0-9.266 6.18 12.28 12.28 0 0 0-1.945 1.766c-.168.09-.316.21-.441.355 0 0-.703-.707-1.766-2.031-.309-.34-.605-.691-.883-1.059-.086-.175-.262-.355-.351-.53a81.146 81.146 0 0 1-6.973-10.856c-.266-.442-.531-.973-.797-1.504a105.537 105.537 0 0 1-5.558-12.446c-.622-1.5-1.149-3.09-1.766-4.765a4.447 4.447 0 0 1-.356-1.149l-.793-2.382c-.355-1.239-.707-2.473-1.058-3.707a17.446 17.446 0 0 1-.531-2.032 159.297 159.297 0 0 1-2.383-10.242c-.617-2.91-1.059-5.914-1.5-9.09-.266-1.59-.442-3.265-.617-4.945-.18-1.234-.266-2.559-.442-3.883-.18-2.648-.355-5.297-.531-8.12 0-1.24-.09-2.563-.09-3.888-.086-1.851-.086-3.707-.086-5.648h26.48l19.864 26.484 9.27 12.356 5.296 7.062.086.09 7.946 10.594.441.527v.09l3.621 4.856zm0 0M441.379 512h-150.07v-61.793c3.511.059 7.02.293 10.507.707a74.686 74.686 0 0 1 42.461 16.95s18.801-18.805 24.715-61.794a185.977 185.977 0 0 0 1.766-26.484h19.156a20.902 20.902 0 0 1 21.629 14.125l3.09 12.36zm0 0" fill="#2c2f38"/><path d="M370.758 379.586c0 1.941 0 3.797-.086 5.648 0 1.325-.09 2.649-.09 3.887-.176 2.824-.352 5.473-.531 8.121-.176 1.324-.262 2.649-.442 3.883-.175 1.68-.351 3.355-.617 4.945-.441 3.176-.883 6.18-1.5 9.09a109.224 109.224 0 0 1-2.914 12.274c-.351 1.234-.703 2.468-1.058 3.707a.3.3 0 0 1-.086.175c-.356 1.149-.707 2.293-1.063 3.356-.617 1.676-1.144 3.265-1.766 4.765a105.537 105.537 0 0 1-5.558 12.446c-.375.758-.79 1.496-1.238 2.207a83.72 83.72 0 0 1-6.266 9.887l-.266.265c-.09.176-.265.356-.351.531-.278.368-.574.72-.883 1.059-1.063 1.324-1.766 2.031-1.766 2.031a28.291 28.291 0 0 0-3.445-3.004 46.646 46.646 0 0 0-8.207-5.296c-1.148-.618-2.297-1.145-3.445-1.676a74.97 74.97 0 0 0-9.446-3.356c-1.5-.441-2.914-.883-4.324-1.144a50.855 50.855 0 0 0-3.62-.883c-.884-.18-1.767-.356-2.65-.441-.956-.25-1.93-.426-2.91-.532-.355-.09-.796-.09-1.148-.176-1.148-.175-2.207-.355-3.266-.44a103.849 103.849 0 0 0-10.507-.708l6.445-8.562 3.621-4.856v-.09l8.473-11.21 5.297-7.063 9.27-12.356 19.862-26.484zm0 0" fill="#2c2f38"/><path d="M305.79 88.277h20.831a61.747 61.747 0 0 1 61.793 61.793v123.586a61.754 61.754 0 0 1-18.086 43.707 61.754 61.754 0 0 1-43.707 18.086H185.38a61.754 61.754 0 0 1-43.707-18.086 61.754 61.754 0 0 1-18.086-43.707V150.07a61.747 61.747 0 0 1 61.793-61.793zm0 0" fill="#f0c419"/><path d="M256 0c24.879 0 62.867 74.32 49.754 88.277-16.582 17.653-41.461 52.965-49.754 52.965s-33.172-35.312-49.754-52.965C193.133 74.32 231.121 0 256 0zm0 0" fill="#e64c3c"/><path d="M309.848 425.488l-8.473 11.211v.09l-3.621 4.856-6.445 8.562V512H220.69v-61.793l-6.445-8.562-3.621-4.856v-.09l-8.473-11.21c.086 0 .176.09.266.09 1.852.53 3.883 1.058 6 1.589h.18a76.21 76.21 0 0 0 7.058 1.59c3.446.703 7.153 1.32 11.035 1.851 1.59.176 3.266.442 4.946.618 2.472.265 4.941.53 7.59.707.972.09 2.03.175 3.09.175 1.761.184 3.527.27 5.296.266a24.35 24.35 0 0 0 2.559.09c1.945.086 3.887.086 5.828.086s3.883 0 5.828-.086a24.35 24.35 0 0 0 2.559-.09c1.77.004 3.535-.082 5.297-.266 1.058 0 2.117-.086 3.09-.175 2.648-.176 5.117-.442 7.59-.707 1.679-.176 3.355-.442 4.945-.618 3.882-.53 7.59-1.148 11.035-1.851a76.21 76.21 0 0 0 7.058-1.59c2.207-.441 4.239-1.059 6.18-1.59.09 0 .18-.09.266-.09zm0 0" fill="#5e5f62"/><g fill="#95a5a5"><path d="M229.516 450.207V512h-17.653v-58.879l-1.68-2.207-6.09-8.121-9.003-12.094a5.237 5.237 0 0 1-.793-1.148l-17.746-23.48-15.89-21.188a9.071 9.071 0 0 1-1.763-5.297h19.86l19.863 26.484 8.652 11.653.086.086 8.297 10.949 7.684 10.328 3.617 4.851a8.96 8.96 0 0 1 2.559 6.27zm0 0"/><path d="M229.516 450.207c-.012 4.871-3.957 8.813-8.825 8.828-2.953.047-5.898.25-8.828.617a66.384 66.384 0 0 0-37.87 14.477 8.951 8.951 0 0 1-12.536 0c-.973-1.059-21.363-21.89-27.367-68.059a202.822 202.822 0 0 1-1.676-26.484h17.656c-.02 8.86.598 17.71 1.852 26.484a122.865 122.865 0 0 0 17.305 49.258 90.29 90.29 0 0 1 34.867-12.535 275.6 275.6 0 0 1 10.152-1.148c3.707-.266 6.09-.266 6.445-.266a8.737 8.737 0 0 1 8.825 8.828zm0 0M353.102 379.586a9.071 9.071 0 0 1-1.762 5.297l-15.89 21.187-17.747 23.48c-.21.415-.476.802-.793 1.15l-9.004 12.093-6.09 8.121-1.68 2.207V512h-17.652v-61.793a8.96 8.96 0 0 1 2.559-6.27l3.617-4.851 7.684-10.328 8.297-10.95.086-.085 8.652-11.653 19.863-26.484zm0 0"/><path d="M379.586 379.586c.02 8.855-.54 17.703-1.676 26.484-6.004 46.168-26.394 67-27.367 68.059a8.951 8.951 0 0 1-12.535 0 67.236 67.236 0 0 0-37.871-14.477 76.637 76.637 0 0 0-8.828-.617c-4.868-.015-8.813-3.957-8.825-8.828a8.737 8.737 0 0 1 8.824-8.828c.356 0 2.739 0 6.446.266 2.738.175 6.18.527 10.152 1.148a90.29 90.29 0 0 1 34.867 12.535 121.746 121.746 0 0 0 17.305-49.258 184.885 184.885 0 0 0 1.852-26.484zm0 0"/><path d="M256 441.379a201.37 201.37 0 0 1-56.328-7.414 8.83 8.83 0 0 1 4.957-16.95A183.775 183.775 0 0 0 256 423.724a183.775 183.775 0 0 0 51.371-6.707c4.68-1.371 9.582 1.316 10.953 5.996a8.833 8.833 0 0 1-5.996 10.953A201.37 201.37 0 0 1 256 441.379zm0 0"/></g><path d="M301.242 251.035c-4.867 15.024-27.77 22.403-40.172 24.574-12.425 2.176-35.441 4.204-45.12-8.273 14.464.871 28.98.101 43.273-2.29a201.154 201.154 0 0 0 42.02-14.01zm0 0M231.215 178.45a87.747 87.747 0 0 0-24.664-10.134 62.81 62.81 0 0 0-35.38.711c4.102-14.941 39.852-11.18 56.294-3.972a8.35 8.35 0 0 1 5.469 5.691 8.344 8.344 0 0 1-1.72 7.703zm0 0M229.516 195.805c0-10.45-7.903-18.922-17.653-18.922s-17.656 8.472-17.656 18.922c0 10.453 7.906 18.925 17.656 18.925s17.653-8.472 17.653-18.925zm0 0" fill="#2c2f38"/><path d="M216.813 179.387a8.827 8.827 0 0 0-11.391 5.113 8.823 8.823 0 0 0 5.113 11.387 8.828 8.828 0 0 0 11.39-5.11 8.833 8.833 0 0 0-5.113-11.39zm0 0" fill="#fff"/><path d="M279.84 180.3a49.21 49.21 0 0 1 24.86-17.32 35.398 35.398 0 0 1 36.304 11.528c-.137-.133.137-2.95.086-3.387a11.927 11.927 0 0 0-.918-3.316 16.754 16.754 0 0 0-4.469-5.84 35.932 35.932 0 0 0-16.39-7.496 44.904 44.904 0 0 0-24.083 1.191 36.967 36.967 0 0 0-12.664 7.465c-3.242 2.965-8.043 8.43-5.957 13.402a28.353 28.353 0 0 0 3.23 3.774zm0 0" fill="#2c2f38"/><path d="M317.793 195.805c0-10.45-7.906-18.922-17.656-18.922s-17.653 8.472-17.653 18.922c0 10.453 7.903 18.925 17.653 18.925s17.656-8.472 17.656-18.925zm0 0" fill="#2c2f38"/><path d="M306.578 184.5a8.827 8.827 0 0 0-11.39-5.113 8.833 8.833 0 0 0-5.114 11.39 8.833 8.833 0 0 0 11.39 5.114c4.556-1.735 6.845-6.836 5.114-11.391zm0 0" fill="#fff"/></svg>