<svg height="512pt" viewBox="0 0 512 512" width="512pt" xmlns="http://www.w3.org/2000/svg"><path d="M414.898 512H512v-7.855a138.922 138.922 0 0 0-4.063-33.547l-8.207-24.453c-9.523-34.711-41.43-58.508-77.418-57.73H89.688c-35.988-.778-67.894 23.019-77.417 57.73l-8.207 24.453A138.922 138.922 0 0 0 0 504.145V512zm0 0" fill="#e4c05c"/><path d="M185.379 300.137H326.62v79.449H185.38zm0 0" fill="#f29c1f"/><path d="M203.035 512H70.621l29.926-135.945a20.792 20.792 0 0 1 21.539-14.125h36.812c.528 1.945 1.145 3.797 1.676 5.652.242.926.535 1.84.883 2.734.266.973.617 1.856.883 2.649.883 2.738 1.765 5.387 2.734 7.945.11.367.258.723.442 1.059.707 2.031 1.414 3.972 2.207 5.828a192.803 192.803 0 0 0 1.59 3.883c.097.16.16.343.175.53 1.414 3.353 2.914 6.442 4.328 9.356.883 1.766 1.676 3.446 2.559 5.032.266.617.617 1.148.883 1.68.176.261.351.617.531.882.352.793.793 1.5 1.145 2.207 1.68 2.91 3.355 5.649 5.035 8.121a79.68 79.68 0 0 0 2.648 3.973c.703.969 1.32 1.851 2.028 2.734l.53.797c.266.262.442.617.708.883.312.363.61.746.883 1.145.703.882 1.41 1.68 2.117 2.472 1.234 1.59 2.558 2.914 3.62 4.063a51.187 51.187 0 0 0 4.325 4.058c.332.32.684.617 1.059.883l.265.266c.25.199.516.375.793.531l.09.086a68.617 68.617 0 0 1 3.617 8.035A74.555 74.555 0 0 1 203.035 512zm0 0M441.379 512H308.965a70.124 70.124 0 0 1-8.031-45.11c.351-2.206.707-4.238 1.148-6.09 0-.175.086-.355.086-.53a138.123 138.123 0 0 1 2.738-9.622c.176-.441.262-.793.442-1.148v-.086l.086-.09a64.121 64.121 0 0 1 3.53-7.945c.407-.262.79-.559 1.15-.883a33.61 33.61 0 0 0 1.323-1.058 130.924 130.924 0 0 0 4.063-3.883c1.059-1.149 2.383-2.473 3.617-4.063a57.524 57.524 0 0 0 2.117-2.472c.356-.52.739-1.02 1.149-1.5.12-.196.27-.375.441-.528a98.696 98.696 0 0 0 5.211-7.504c2.203-3.355 4.41-7.062 6.707-11.21a154.215 154.215 0 0 0 3.442-6.712c1.414-2.914 2.914-6.004 4.328-9.355a.75.75 0 0 1 .261-.531c.442-1.235.973-2.559 1.504-3.883 1.852-4.59 3.707-9.535 5.383-14.832.617-1.766 1.238-3.531 1.766-5.383.531-1.855 1.148-3.707 1.68-5.652h36.808a20.902 20.902 0 0 1 21.629 14.125zm0 0" fill="#f3d55b"/><path d="M308.965 512h-105.93a74.555 74.555 0 0 0 3.617-62.586 68.617 68.617 0 0 0-3.617-8.035c.707-1.41 1.5-2.914 2.383-4.324.176-.356.441-.707.707-1.149a14.36 14.36 0 0 1 1.324-2.207 159.287 159.287 0 0 1 15.977-21.008c1.324-1.503 2.472-2.828 3.441-3.886l.973-.97c1.058-1.147 1.676-1.765 1.676-1.765l5.386 7.149L256 441.379l21.098-28.16 5.386-7.149s.618.618 1.676 1.766l.973.969c.262.355.617.707.969 1.148.257.215.492.45.707.707.617.617 1.148 1.324 1.765 2.031a168.825 168.825 0 0 1 14.653 18.891c.293.52.617 1.02.972 1.5.149.184.27.395.352.617a84.535 84.535 0 0 1 4.414 7.68 64.121 64.121 0 0 0-3.531 7.945l-.086.09v.086a69.072 69.072 0 0 0-3.18 10.77c-.527 2.12-.883 4.328-1.234 6.62a70.124 70.124 0 0 0 8.03 45.11zm0 0" fill="#c03a2b"/><path d="M353.105 361.93c-.53 1.945-1.148 3.797-1.68 5.652a76.325 76.325 0 0 1-1.765 5.383c-1.676 5.297-3.531 10.242-5.383 14.832-.53 1.324-1.062 2.648-1.504 3.883a.75.75 0 0 0-.261.53c-1.414 3.353-2.914 6.442-4.328 9.356a154.215 154.215 0 0 1-3.442 6.711c-.176.262-.351.618-.531.883-.969 1.766-1.941 3.442-2.824 5.031-.528.97-1.149 1.852-1.676 2.735-.617.883-1.148 1.765-1.676 2.562a98.696 98.696 0 0 1-5.21 7.504c-.177.176-.266.352-.442.528-.41.48-.793.98-1.149 1.5-.703.882-1.41 1.68-2.117 2.472-1.234 1.59-2.558 2.914-3.617 4.063a130.924 130.924 0 0 1-4.063 3.882c-.53.442-.972.793-1.324 1.06-.36.323-.742.62-1.148.882-.707-1.41-1.5-2.914-2.383-4.324v-.09a5.046 5.046 0 0 0-.707-.969v-.09c-.086-.176-.086-.265-.176-.351 0-.09-.09-.18-.176-.356l-.09-.086c0-.09-.085-.18-.175-.355a7.346 7.346 0 0 0-.707-1.059c-.086-.176-.266-.441-.352-.617-.09-.09-.176-.266-.265-.355a7.847 7.847 0 0 0-.707-1.145c-.442-.617-.883-1.324-1.325-1.941-.261-.442-.527-.797-.793-1.239a54.822 54.822 0 0 0-.972-1.234 6.836 6.836 0 0 0-.703-.973l-1.063-1.59c-.086-.085-.176-.261-.262-.351a1.89 1.89 0 0 1-.53-.707c-.267-.352-.618-.707-.884-1.059a33.65 33.65 0 0 0-2.207-2.738c-2.117-2.734-4.148-5.031-5.914-7.059-.617-.707-1.148-1.414-1.765-2.03l-.707-.708c-2.207-2.473-3.618-3.883-3.618-3.883l1.145-1.414 2.031-2.558 2.297-2.914 29.836-37.254zm0 0" fill="#e4c05c"/><path d="M317.793 361.93l-29.836 37.254-2.297 2.914-2.031 2.558-1.145 1.414-5.386 7.149L256 441.379l-21.098-28.16-5.386-7.149-5.473-6.886-29.836-37.254zm0 0" fill="#f0c419"/><path d="M229.516 406.07s-.618.618-1.676 1.766l-.973.969c-.969 1.058-2.117 2.382-3.441 3.886a159.287 159.287 0 0 0-15.977 21.008 14.36 14.36 0 0 0-1.324 2.207c-.3.34-.54.727-.707 1.149-.883 1.41-1.676 2.914-2.383 4.324l-.09-.086a5.974 5.974 0 0 1-.793-.531l-.265-.266a9.123 9.123 0 0 1-1.059-.883 51.187 51.187 0 0 1-4.324-4.058c-1.063-1.149-2.387-2.473-3.621-4.063a57.524 57.524 0 0 1-2.117-2.472 13.3 13.3 0 0 0-.883-1.145 5.937 5.937 0 0 0-.707-.883l-.531-.797a53.522 53.522 0 0 1-2.028-2.734 79.68 79.68 0 0 1-2.648-3.973 109.441 109.441 0 0 1-5.035-8.12c-.352-.708-.793-1.415-1.145-2.208-.18-.265-.355-.62-.531-.883-.266-.53-.617-1.062-.883-1.68-.883-1.585-1.766-3.265-2.559-5.03-1.414-2.915-2.824-6.005-4.328-9.356a1.223 1.223 0 0 0-.175-.531 192.803 192.803 0 0 1-1.59-3.883c-.793-1.856-1.5-3.797-2.207-5.828a5.46 5.46 0 0 1-.442-1.059c-.969-2.558-1.851-5.207-2.734-7.945-.266-.793-.617-1.676-.883-2.649-.352-.882-.617-1.851-.883-2.734-.531-1.855-1.148-3.707-1.676-5.652h35.309l29.836 37.254zm0 0" fill="#e4c05c"/><path d="M125.262 115.113c-2.34 0-4.586-.93-6.242-2.586s-2.586-3.902-2.582-6.242a9.773 9.773 0 0 1 .324-2.398 8.829 8.829 0 0 1 9.617-6.723c4.45.52 7.8 4.29 7.8 8.766a9.076 9.076 0 0 1-.277 2.175 8.83 8.83 0 0 1-8.64 7.008zm0 0M386.738 115.113a8.828 8.828 0 0 1-8.652-7.02 9.376 9.376 0 0 1-.266-2.163 8.825 8.825 0 0 1 7.809-8.778 8.826 8.826 0 0 1 9.613 6.754c.2.778.309 1.574.32 2.38 0 2.339-.93 4.585-2.582 6.241a8.829 8.829 0 0 1-6.242 2.586zm0 0"/><path d="M388.414 132.414V256a61.754 61.754 0 0 1-18.086 43.707 61.754 61.754 0 0 1-43.707 18.086H185.38a61.754 61.754 0 0 1-43.707-18.086A61.754 61.754 0 0 1 123.586 256V132.414c.031-8.527.562-17.047 1.59-25.512 32.66 10.504 67 42.11 130.824 43.168 63.824-1.058 98.164-32.664 130.824-43.168a218.404 218.404 0 0 1 1.59 25.512zm0 0" fill="#f0c419"/><path d="M125.176 106.902a218.404 218.404 0 0 0-1.59 25.512v97.102S8.652 156.25 71.856 114.758a57.826 57.826 0 0 1 39.285-10.856 59.536 59.536 0 0 1 11.562 2.293c.797.176 1.676.442 2.473.707zm0 0M388.414 229.516v-97.102a218.404 218.404 0 0 0-1.59-25.512c.797-.265 1.68-.53 2.473-.707a59.536 59.536 0 0 1 11.562-2.293 57.826 57.826 0 0 1 39.286 10.856c63.203 41.492-51.73 114.758-51.73 114.758zm0 0" fill="#b19046"/><path d="M386.824 106.902c-32.66 10.504-67 42.11-130.824 43.168-63.824-1.058-98.164-32.664-130.824-43.168 0-.175.086-.441.086-.617 49.703 1.59 99.488 8.473 130.738 8.473s81.04-6.883 130.738-8.473c0 .176.086.442.086.617zm0 0" fill="#f3d55b"/><path d="M400.86 103.902a59.536 59.536 0 0 0-11.563 2.293c-.883 0-1.676.09-2.559.09-49.699 1.59-99.488 8.473-130.738 8.473s-81.035-6.883-130.738-8.473c-.883 0-1.676-.09-2.559-.09a59.536 59.536 0 0 0-11.562-2.293l39.015-81.304A35.428 35.428 0 0 1 183.172 0h145.656a35.428 35.428 0 0 1 33.016 22.598zm0 0" fill="#e4c05c"/><g fill="#805333"><path d="M167.723 229.516a8.823 8.823 0 0 1-8.825 8.828 8.824 8.824 0 0 1-8.828-8.828 8.823 8.823 0 0 1 8.828-8.825 8.822 8.822 0 0 1 8.825 8.825zm0 0M167.723 256c0 4.875-3.95 8.828-8.825 8.828-4.878 0-8.828-3.953-8.828-8.828s3.95-8.828 8.828-8.828c4.875 0 8.825 3.953 8.825 8.828zm0 0M194.207 256a8.829 8.829 0 1 1-17.658-.002 8.829 8.829 0 0 1 17.658.002zm0 0M194.207 282.484c0 4.875-3.953 8.825-8.828 8.825s-8.828-3.95-8.828-8.825a8.829 8.829 0 0 1 17.656 0zm0 0M220.691 282.484c0 4.875-3.953 8.825-8.828 8.825s-8.828-3.95-8.828-8.825a8.829 8.829 0 0 1 17.656 0zm0 0M361.93 229.516a8.823 8.823 0 0 1-8.825 8.828 8.824 8.824 0 0 1-8.828-8.828 8.823 8.823 0 0 1 8.828-8.825 8.822 8.822 0 0 1 8.825 8.825zm0 0M361.93 256c0 4.875-3.95 8.828-8.825 8.828-4.878 0-8.828-3.953-8.828-8.828s3.95-8.828 8.828-8.828c4.875 0 8.825 3.953 8.825 8.828zm0 0M335.45 256a8.829 8.829 0 1 1-17.659-.002 8.829 8.829 0 0 1 17.658.002zm0 0M335.45 282.484c0 4.875-3.954 8.825-8.829 8.825s-8.828-3.95-8.828-8.825a8.829 8.829 0 0 1 17.656 0zm0 0M308.965 282.484c0 4.875-3.953 8.825-8.828 8.825s-8.828-3.95-8.828-8.825a8.829 8.829 0 0 1 17.656 0zm0 0"/></g><path d="M235.785 412.336l-.883.883c-1.148 1.148-3.355 3.531-6.09 6.71a147.668 147.668 0 0 0-15.89 21.626 79.888 79.888 0 0 0-2.031 3.797 8.609 8.609 0 0 1-4.239 4.062c-.406.25-.855.43-1.324.527-.75.176-1.52.266-2.293.266a8.547 8.547 0 0 1-4.855-1.5 19.461 19.461 0 0 1-2.032-1.59l-.085-.09-.18-.175c-7.324-5.914-29.926-28.16-45.461-82.536a7.075 7.075 0 0 1-.352-2.386h18.008a167.772 167.772 0 0 0 32.926 65.414 173.986 173.986 0 0 1 16.86-21.715l-30.544-38.227a8.496 8.496 0 0 1-1.941-5.472h20.129l30.894 38.668c.09 0 .09.086.176.175a8.867 8.867 0 0 1-.793 11.563zm0 0M361.93 361.93a7.397 7.397 0 0 1-.352 2.386c-15.535 54.375-38.137 76.621-45.46 82.536l-.18.175c0 .09-.086.09-.086.18-1.149.883-1.856 1.41-2.032 1.5a8.547 8.547 0 0 1-4.855 1.5c-.774 0-1.543-.09-2.293-.266a4.144 4.144 0 0 1-1.324-.527 8.625 8.625 0 0 1-4.239-4.062 79.888 79.888 0 0 0-2.03-3.797 147.668 147.668 0 0 0-15.892-21.625c-2.734-3.18-4.94-5.563-6.09-6.711l-.882-.883a8.867 8.867 0 0 1-.793-11.563c.086-.09.086-.175.176-.175l30.894-38.668h20.13a8.496 8.496 0 0 1-1.942 5.472l-30.543 38.227a173.986 173.986 0 0 1 16.86 21.715 168.33 168.33 0 0 0 32.925-65.414zm0 0" fill="#b19046"/><path d="M256 450.207a8.832 8.832 0 0 1-7.063-3.531l-26.48-35.309a8.826 8.826 0 0 1 1.766-12.36 8.822 8.822 0 0 1 12.355 1.766L256 426.664l19.422-25.89a8.826 8.826 0 0 1 12.36-1.766c3.898 2.926 4.687 8.457 1.765 12.36l-26.485 35.308a8.832 8.832 0 0 1-7.062 3.531zm0 0M212.922 512h-18.715a8.323 8.323 0 0 1 1.148-4.324 66.967 66.967 0 0 0 .708-60.649l-.18-.175a8.008 8.008 0 0 0-.528-1.149 8.76 8.76 0 0 1 1.149-10.148 7.587 7.587 0 0 1 2.207-1.856 9.047 9.047 0 0 1 8.738 0 8.536 8.536 0 0 1 3.266 3.356 40.315 40.315 0 0 1 2.207 4.5 84.419 84.419 0 0 1 0 70.445zm0 0M317.793 512h-18.715a84.419 84.419 0 0 1 0-70.445 40.315 40.315 0 0 1 2.207-4.5 9.181 9.181 0 0 1 3.266-3.356 8.608 8.608 0 0 1 8.742 0 7.69 7.69 0 0 1 2.207 1.856 8.779 8.779 0 0 1 1.145 10.148 8.008 8.008 0 0 0-.528 1.149l-.18.175a67.209 67.209 0 0 0 .708 60.649 8.323 8.323 0 0 1 1.148 4.324zm0 0" fill="#b19046"/><path d="M297.734 256c-7.132 13.957-29.398 15.934-41.558 15.934-12.188 0-34.422-1.977-41.555-15.934a179.535 179.535 0 0 0 41.555 5.207A179.357 179.357 0 0 0 297.734 256zm0 0M232.879 164.094a88.045 88.045 0 0 0-26.129-5.297 62.842 62.842 0 0 0-34.605 7.379c1.207-15.446 37.023-18.5 54.53-14.528a8.351 8.351 0 0 1 6.442 4.559 8.35 8.35 0 0 1-.238 7.887zm0 0M229.516 191.395c0-10.454-7.903-18.926-17.653-18.926s-17.656 8.472-17.656 18.926c0 10.449 7.906 18.921 17.656 18.921s17.653-8.472 17.653-18.921zm0 0" fill="#2c2f38"/><path d="M216.816 174.969a8.823 8.823 0 0 0-11.386 5.113c-1.735 4.555.554 9.656 5.11 11.387a8.827 8.827 0 0 0 11.39-5.114c1.734-4.554-.555-9.652-5.114-11.386zm0 0" fill="#fff"/><path d="M279.121 164.094a88.07 88.07 0 0 1 26.129-5.297 62.842 62.842 0 0 1 34.605 7.379c-1.207-15.446-37.023-18.5-54.53-14.528a8.357 8.357 0 0 0-6.442 4.559 8.35 8.35 0 0 0 .238 7.887zm0 0M317.793 191.395c0-10.454-7.902-18.926-17.656-18.926-9.75 0-17.653 8.472-17.653 18.926 0 10.449 7.903 18.921 17.653 18.921 9.754 0 17.656-8.472 17.656-18.921zm0 0" fill="#2c2f38"/><path d="M306.578 180.086a8.827 8.827 0 0 0-11.39-5.113 8.833 8.833 0 0 0-5.114 11.39c1.735 4.555 6.836 6.844 11.39 5.114 4.56-1.735 6.849-6.836 5.114-11.391zm0 0" fill="#fff"/></svg>