<svg height="512pt" viewBox="0 0 512 512" width="512pt" xmlns="http://www.w3.org/2000/svg"><path d="M512 504.145V512H0v-7.855a138.922 138.922 0 0 1 4.063-33.547l8.207-24.453c9.523-34.711 41.43-58.508 77.418-57.73h332.625c35.988-.778 67.894 23.019 77.417 57.73l8.207 24.453A138.922 138.922 0 0 1 512 504.145zm0 0" fill="#46b29d"/><path d="M185.379 300.137H326.62v79.449H185.38zm0 0" fill="#f29c1f"/><path d="M388.414 211.863s11.45-7.867 26.484-52.965c8.825-26.484 8.825-52.968 0-70.62-12.484-24.97-35.312-35.313-44.14-61.794a31.352 31.352 0 0 0-26.48 17.653s0-26.48-35.313-26.48A77.327 77.327 0 0 1 256 0a215.547 215.547 0 0 1-61.793 8.828c-35.309 0-44.137 26.48-44.137 26.48a27.358 27.358 0 0 0-17.656-8.824c0 26.48-22.828 27.996-35.309 52.965-8.828 17.656-17.656 35.309 0 79.45 17.653 44.136 26.48 52.964 26.48 52.964zm0 0" fill="#805333"/><path d="M135.152 138.77c-.62 1.058-1.062 2.117-1.59 3.09a102.793 102.793 0 0 0-9.976 44.933V256a61.754 61.754 0 0 0 18.086 43.707 61.754 61.754 0 0 0 43.707 18.086H326.62a61.754 61.754 0 0 0 43.707-18.086A61.754 61.754 0 0 0 388.414 256v-69.207a102.793 102.793 0 0 0-9.976-44.934c-.528-.972-.97-2.03-1.586-3.09zm0 0" fill="#f0c419"/><path d="M441.379 512H70.62L97.81 388.414l2.738-12.36a20.792 20.792 0 0 1 21.539-14.124h267.828a20.902 20.902 0 0 1 21.629 14.125l2.734 12.36zm0 0M301.816 88.277h68.942a8.849 8.849 0 0 1 8.828 8.828v35.31a8.885 8.885 0 0 1-8.828 8.827H141.242a8.885 8.885 0 0 1-8.828-8.828V97.105c.016-4.87 3.957-8.816 8.828-8.828zm0 0" fill="#9bc8c2"/><path d="M308.965 114.758c0 29.254-23.711 52.965-52.965 52.965-29.25 0-52.965-23.711-52.965-52.965 0-29.25 23.715-52.965 52.965-52.965 29.254 0 52.965 23.715 52.965 52.965zm0 0" fill="#95a5a5"/><path d="M273.656 114.758c0 9.75-7.906 17.656-17.656 17.656s-17.656-7.906-17.656-17.656S246.25 97.105 256 97.105s17.656 7.903 17.656 17.653zm0 0" fill="#fff"/><path d="M308.965 361.93l-18.715 26.484-29.129 41.313-5.121 7.238-5.121-7.238-29.129-41.313-18.715-26.484zm0 0" fill="#f0c419"/><g fill="#e6e7e8"><path d="M264.828 436.965V512h-17.656v-75.035a8.829 8.829 0 0 1 17.656 0zm0 0"/><path d="M273.656 479.137H256c-4.875 0-8.828-3.953-8.828-8.828s3.953-8.825 8.828-8.825h17.656c4.875 0 8.828 3.95 8.828 8.825s-3.953 8.828-8.828 8.828zm0 0M317.793 361.93a9.179 9.179 0 0 1-1.59 5.12l-15.094 21.364-36.28 51.465-1.59 2.207a8.918 8.918 0 0 1-14.477 0l-1.59-2.207-36.281-51.465-15.094-21.363a9.179 9.179 0 0 1-1.59-5.121h19.684l18.629 26.484L256 421.695l23.48-33.28 18.63-26.485zm0 0"/></g><path d="M297.734 264.828c-7.132 13.957-29.398 15.93-41.558 15.93-12.188 0-34.422-1.973-41.555-15.93a179.535 179.535 0 0 0 41.555 5.207 179.568 179.568 0 0 0 41.558-5.207zm0 0M232.879 172.922a87.922 87.922 0 0 0-26.129-5.297 62.842 62.842 0 0 0-34.605 7.379c1.207-15.445 37.023-18.5 54.53-14.527a8.351 8.351 0 0 1 6.442 4.558 8.35 8.35 0 0 1-.238 7.887zm0 0M229.516 200.219c0-10.45-7.903-18.922-17.653-18.922s-17.656 8.473-17.656 18.922c0 10.453 7.906 18.926 17.656 18.926s17.653-8.473 17.653-18.926zm0 0" fill="#2c2f38"/><path d="M216.816 183.797a8.823 8.823 0 0 0-11.386 5.113c-1.735 4.555.554 9.656 5.11 11.387a8.827 8.827 0 0 0 11.39-5.113 8.823 8.823 0 0 0-5.114-11.387zm0 0" fill="#fff"/><path d="M279.121 172.922a87.947 87.947 0 0 1 26.129-5.297 62.842 62.842 0 0 1 34.605 7.379c-1.207-15.445-37.023-18.5-54.53-14.527a8.357 8.357 0 0 0-6.442 4.558 8.35 8.35 0 0 0 .238 7.887zm0 0M317.793 200.219c0-10.45-7.902-18.922-17.656-18.922-9.75 0-17.653 8.473-17.653 18.922 0 10.453 7.903 18.926 17.653 18.926 9.754 0 17.656-8.473 17.656-18.926zm0 0" fill="#2c2f38"/><path d="M306.578 188.914a8.827 8.827 0 0 0-11.39-5.113c-4.555 1.734-6.844 6.832-5.114 11.387 1.735 4.558 6.836 6.847 11.39 5.113a8.823 8.823 0 0 0 5.114-11.387zm0 0" fill="#fff"/></svg>