<svg height="512pt" viewBox="0 0 512 512" width="512pt" xmlns="http://www.w3.org/2000/svg"><path d="M185.379 300.137H326.62v79.449H185.38zm0 0" fill="#603e26"/><path d="M414.898 512H512v-7.855a138.922 138.922 0 0 0-4.063-33.547l-8.207-24.453c-9.523-34.711-41.43-58.508-77.418-57.73H89.688c-35.988-.778-67.894 23.019-77.417 57.73l-8.207 24.453A138.922 138.922 0 0 0 0 504.145V512zm0 0" fill="#805333"/><path d="M441.379 512H70.62l29.906-135.918a20.854 20.854 0 0 1 21.59-14.152h267.82a20.851 20.851 0 0 1 21.59 14.152zm0 0" fill="#e64c3c"/><path d="M407.04 512H105.93c35.312-44.137 26.484-150.07 26.484-150.07h70.621s0 114.761 52.965 114.761 52.965-114.761 52.965-114.761h71.594S371.73 467.863 407.039 512zm0 0" fill="#285680"/><path d="M308.965 361.93h35.312S361.93 512 256 512s-88.277-150.07-88.277-150.07h35.312" fill="#f29c1f"/><path d="M317.793 361.93s0 114.761-61.793 114.761-61.793-114.761-61.793-114.761zm0 0" fill="#e57e25"/><path d="M344.277 88.277v-70.62c0-9.75-7.906-17.657-17.656-17.657H185.38c-9.75 0-17.656 7.906-17.656 17.656v70.621" fill="#2c2f38"/><path d="M203.035 79.45a8.829 8.829 0 0 1-8.828-8.829V52.965a8.829 8.829 0 0 1 17.656 0V70.62a8.829 8.829 0 0 1-8.828 8.828zm0 0M238.344 79.45a8.829 8.829 0 0 1-8.828-8.829V35.31c0-4.875 3.953-8.825 8.828-8.825s8.828 3.95 8.828 8.825V70.62a8.829 8.829 0 0 1-8.828 8.828zm0 0M273.656 79.45a8.829 8.829 0 0 1-8.828-8.829V35.31c0-4.875 3.953-8.825 8.828-8.825s8.828 3.95 8.828 8.825V70.62a8.829 8.829 0 0 1-8.828 8.828zm0 0M308.965 79.45a8.829 8.829 0 0 1-8.828-8.829V52.965a8.829 8.829 0 0 1 17.656 0V70.62a8.829 8.829 0 0 1-8.828 8.828zm0 0" fill="#464f5d"/><path d="M185.379 70.621H326.62c34.129 0 61.793 27.664 61.793 61.793V256c0 34.129-27.664 61.793-61.793 61.793H185.38c-34.125 0-61.793-27.664-61.793-61.793V132.414c0-34.129 27.668-61.793 61.793-61.793zm0 0" fill="#805333"/><g fill="#2c2f38"><path d="M167.723 229.516a8.823 8.823 0 0 1-8.825 8.828 8.824 8.824 0 0 1-8.828-8.828 8.823 8.823 0 0 1 8.828-8.825 8.822 8.822 0 0 1 8.825 8.825zm0 0M167.723 256c0 4.875-3.95 8.828-8.825 8.828-4.878 0-8.828-3.953-8.828-8.828s3.95-8.828 8.828-8.828c4.875 0 8.825 3.953 8.825 8.828zm0 0M194.207 256a8.829 8.829 0 1 1-17.658-.002 8.829 8.829 0 0 1 17.658.002zm0 0M194.207 282.484c0 4.875-3.953 8.825-8.828 8.825s-8.828-3.95-8.828-8.825a8.829 8.829 0 0 1 17.656 0zm0 0M220.691 282.484c0 4.875-3.953 8.825-8.828 8.825s-8.828-3.95-8.828-8.825a8.829 8.829 0 0 1 17.656 0zm0 0M361.93 229.516a8.823 8.823 0 0 1-8.825 8.828 8.824 8.824 0 0 1-8.828-8.828 8.823 8.823 0 0 1 8.828-8.825 8.822 8.822 0 0 1 8.825 8.825zm0 0M361.93 256c0 4.875-3.95 8.828-8.825 8.828-4.878 0-8.828-3.953-8.828-8.828s3.95-8.828 8.828-8.828c4.875 0 8.825 3.953 8.825 8.828zm0 0M335.45 256a8.829 8.829 0 1 1-17.659-.002 8.829 8.829 0 0 1 17.658.002zm0 0M335.45 282.484c0 4.875-3.954 8.825-8.829 8.825s-8.828-3.95-8.828-8.825a8.829 8.829 0 0 1 17.656 0zm0 0M308.965 282.484c0 4.875-3.953 8.825-8.828 8.825s-8.828-3.95-8.828-8.825a8.829 8.829 0 0 1 17.656 0zm0 0"/></g><path d="M264.828 361.93v61.793c0 4.879-3.953 8.828-8.828 8.828s-8.828-3.95-8.828-8.828V361.93zm0 0" fill="#f29c1f"/><path d="M297.734 245.45c-7.129-13.958-29.394-15.934-41.558-15.934-12.188 0-34.422 1.976-41.555 15.933a179.535 179.535 0 0 1 41.555-5.207 179.356 179.356 0 0 1 41.558 5.207zm0 0M232.879 146.441a87.8 87.8 0 0 0-26.129-5.296 62.808 62.808 0 0 0-34.605 7.378c1.207-15.449 37.023-18.503 54.53-14.53a8.356 8.356 0 0 1 6.442 4.562 8.351 8.351 0 0 1-.238 7.886zm0 0M229.516 173.738c0-10.453-7.903-18.922-17.653-18.922s-17.656 8.47-17.656 18.922c0 10.45 7.906 18.922 17.656 18.922s17.653-8.472 17.653-18.922zm0 0" fill="#2c2f38"/><path d="M216.816 157.313a8.827 8.827 0 0 0-11.39 5.113 8.833 8.833 0 0 0 5.113 11.39 8.833 8.833 0 0 0 11.39-5.113 8.833 8.833 0 0 0-5.113-11.39zm0 0" fill="#fff"/><path d="M279.121 146.441a87.824 87.824 0 0 1 26.129-5.296 62.808 62.808 0 0 1 34.605 7.378c-1.207-15.449-37.023-18.503-54.53-14.53a8.362 8.362 0 0 0-6.442 4.562 8.351 8.351 0 0 0 .238 7.886zm0 0M317.793 173.738c0-10.453-7.902-18.922-17.656-18.922-9.75 0-17.653 8.47-17.653 18.922 0 10.45 7.903 18.922 17.653 18.922 9.754 0 17.656-8.472 17.656-18.922zm0 0" fill="#2c2f38"/><path d="M306.578 162.43a8.833 8.833 0 0 0-11.39-5.114 8.833 8.833 0 0 0-5.114 11.391c1.735 4.555 6.836 6.844 11.39 5.113a8.827 8.827 0 0 0 5.114-11.39zm0 0" fill="#fff"/></svg>