<svg height="512pt" viewBox="0 0 512 512" width="512pt" xmlns="http://www.w3.org/2000/svg"><path d="M185.379 291.309H326.62v105.933H185.38zm0 0" fill="#f29c1f"/><path d="M388.414 211.863s11.45-7.867 26.484-52.965c8.825-26.484 8.825-52.968 0-70.62-12.484-24.97-35.312-35.313-44.14-61.794a31.352 31.352 0 0 0-26.48 17.653s0-26.48-35.313-26.48A77.327 77.327 0 0 1 256 0a215.547 215.547 0 0 1-61.793 8.828c-35.309 0-44.137 26.48-44.137 26.48a27.358 27.358 0 0 0-17.656-8.824c0 26.48-22.828 27.996-35.309 52.965-8.828 17.656-17.656 35.309 0 79.45 17.653 44.136 26.48 52.964 26.48 52.964zm0 0" fill="#805333"/><path d="M388.414 186.793a102.793 102.793 0 0 0-9.976-44.934c-8.387-17.214-22.422-37.87-42.989-44.754-26.484-8.828-44.14 8.825-79.449 8.825s-52.965-17.653-79.45-8.825c-20.566 6.883-34.6 27.54-42.988 44.754a102.793 102.793 0 0 0-9.976 44.934v60.379a61.747 61.747 0 0 0 61.793 61.793H326.62a61.747 61.747 0 0 0 61.793-61.793zm0 0" fill="#f0c419"/><path d="M512 504.145V512H0v-7.855a138.922 138.922 0 0 1 4.063-33.547l8.207-33.278c9.523-34.715 41.43-58.511 77.418-57.734h332.625c35.988-.777 67.894 23.02 77.417 57.734l8.207 33.278A138.922 138.922 0 0 1 512 504.145zm0 0" fill="#46b29d"/><path d="M441.379 512H70.62l26.746-132.414.621-3.266 2.559-12.625a16.313 16.313 0 0 1 7.77-10.59h295.37a16.742 16.742 0 0 1 7.856 10.59l2.559 12.625.617 3.266zm0 0" fill="#9bc8c2"/><path d="M203.035 353.105L256 432.551l52.965-79.446" fill="#f0c419"/><path d="M167.723 353.105v61.793a8.822 8.822 0 0 1-8.825 8.825 8.823 8.823 0 0 1-8.828-8.825v-61.793zm0 0" fill="#67b9cc"/><path d="M176.55 485.516c-4.874 0-8.827-3.95-8.827-8.825a8.826 8.826 0 0 1 8.828-8.828 8.836 8.836 0 0 0 8.828-8.828V441.38c-.012-9.746-7.91-17.645-17.656-17.656H150.07c-9.746.011-17.644 7.91-17.656 17.656v17.656a8.836 8.836 0 0 0 8.828 8.828 8.826 8.826 0 0 1 8.828 8.828c0 4.875-3.953 8.825-8.828 8.825-14.62-.016-26.469-11.864-26.484-26.48v-17.657c.02-19.492 15.82-35.29 35.312-35.309h17.653c19.496.02 35.293 15.817 35.312 35.309v17.656c-.015 14.617-11.863 26.465-26.484 26.48zm0 0" fill="#e6e7e8"/><path d="M361.93 353.105v70.618a8.823 8.823 0 0 1-8.825 8.828 8.824 8.824 0 0 1-8.828-8.828v-70.618zm0 0" fill="#67b9cc"/><path d="M379.586 450.207c0 14.625-11.856 26.484-26.48 26.484-14.63 0-26.485-11.859-26.485-26.484s11.856-26.484 26.484-26.484c14.625 0 26.48 11.859 26.48 26.484zm0 0" fill="#bdc3c7"/><g fill="#e6e7e8"><path d="M353.105 485.516c-19.503 0-35.312-15.809-35.312-35.309s15.809-35.309 35.312-35.309c19.5 0 35.31 15.809 35.31 35.309-.02 19.492-15.817 35.29-35.31 35.309zm0-52.965c-9.753 0-17.656 7.906-17.656 17.656s7.903 17.656 17.656 17.656c9.75 0 17.653-7.906 17.653-17.656-.012-9.746-7.906-17.644-17.653-17.656zm0 0M313.734 353.105l-50.406 75.563a8.856 8.856 0 0 1-14.656 0l-50.402-75.563h21.183L256 407.835l36.547-54.73zm0 0"/><path d="M264.828 423.723V512h-17.656v-88.277c0-4.875 3.953-8.825 8.828-8.825s8.828 3.95 8.828 8.825zm0 0"/><path d="M273.656 476.691H256a8.829 8.829 0 0 1 0-17.656h17.656a8.829 8.829 0 0 1 0 17.656zm0 0M194.207 282.484a8.695 8.695 0 0 1-3.473-.718l-61.797-26.48c-3.246-1.391-5.351-4.583-5.351-8.114s2.105-6.723 5.352-8.11l61.796-26.484a8.827 8.827 0 1 1 6.945 16.223l-42.85 18.37 42.85 18.372a8.83 8.83 0 0 1-3.473 16.941zm0 0M317.793 282.484a8.826 8.826 0 0 1-8.637-7.054 8.826 8.826 0 0 1 5.164-9.887l42.856-18.371L314.32 228.8a8.832 8.832 0 0 1-5.504-7.078 8.827 8.827 0 1 1 12.453-9.145l61.794 26.484c3.246 1.387 5.351 4.579 5.351 8.11s-2.105 6.723-5.351 8.113l-61.793 26.48a8.727 8.727 0 0 1-3.477.72zm0 0"/></g><path d="M185.379 211.863H326.62v52.965c0 19.5-15.809 35.309-35.312 35.309H220.69c-19.504 0-35.312-15.809-35.312-35.309zm0 0" fill="#46b29d"/><path d="M232.879 150.855a87.8 87.8 0 0 0-26.129-5.296 62.774 62.774 0 0 0-34.605 7.379c1.207-15.45 37.023-18.504 54.53-14.532a8.356 8.356 0 0 1 6.442 4.563 8.351 8.351 0 0 1-.238 7.886zm0 0M229.516 178.152c0-10.453-7.903-18.922-17.653-18.922s-17.656 8.47-17.656 18.922c0 10.45 7.906 18.922 17.656 18.922s17.653-8.472 17.653-18.922zm0 0" fill="#2c2f38"/><path d="M216.813 161.73a8.833 8.833 0 0 0-11.391 5.114 8.833 8.833 0 0 0 5.113 11.39 8.827 8.827 0 0 0 11.39-5.113 8.833 8.833 0 0 0-5.113-11.39zm0 0" fill="#fff"/><path d="M279.121 150.855a87.824 87.824 0 0 1 26.129-5.296 62.774 62.774 0 0 1 34.605 7.379c-1.207-15.45-37.023-18.504-54.53-14.532a8.362 8.362 0 0 0-6.442 4.563 8.351 8.351 0 0 0 .238 7.886zm0 0M317.793 178.152c0-10.453-7.902-18.922-17.656-18.922-9.75 0-17.653 8.47-17.653 18.922 0 10.45 7.903 18.922 17.653 18.922 9.754 0 17.656-8.472 17.656-18.922zm0 0" fill="#2c2f38"/><path d="M306.578 166.844a8.833 8.833 0 0 0-11.39-5.114 8.833 8.833 0 0 0-5.114 11.391 8.833 8.833 0 0 0 11.39 5.113 8.827 8.827 0 0 0 5.114-11.39zm0 0" fill="#fff"/></svg>