<svg height="512pt" viewBox="0 0 512 512" width="512pt" xmlns="http://www.w3.org/2000/svg"><path d="M185.379 264.828H326.62v79.45H185.38zm0 0" fill="#f29c1f"/><path d="M512 504.145V512H0v-7.855a138.922 138.922 0 0 1 4.063-33.547l8.207-59.762c9.523-34.715 41.43-58.508 77.418-57.73h332.625c35.988-.778 67.894 23.015 77.417 57.73l8.207 59.762A138.922 138.922 0 0 1 512 504.145zm0 0" fill="#2c3e50"/><path d="M370.758 326.621h19.156a20.902 20.902 0 0 1 21.629 14.125l2.117 12.36L441.38 512H70.62l27.805-158.895 2.12-12.359a20.788 20.788 0 0 1 21.54-14.125zm0 0" fill="#35495e"/><path d="M370.758 326.621v17.656c-.02 29.243-23.723 52.942-52.965 52.965H194.207c-29.242-.023-52.941-23.722-52.965-52.965v-17.656zm0 0" fill="#2c3e50"/><path d="M220.691 326.621h70.618v70.621H220.69zm0 0" fill="#fff"/><path d="M185.379 35.309H326.62c34.129 0 61.793 27.668 61.793 61.796v123.586c0 34.125-27.664 61.793-61.793 61.793H185.38c-34.125 0-61.793-27.668-61.793-61.793V97.105c0-34.128 27.668-61.796 61.793-61.796zm0 0" fill="#f0c419"/><path d="M220.691 0h70.618a8.826 8.826 0 0 1 8.828 8.828v26.48h-88.274V8.829A8.826 8.826 0 0 1 220.691 0zm0 0" fill="#f29c1f"/><path d="M264.828 432.55V512h-17.656v-79.45a8.829 8.829 0 0 1 17.656 0zm0 0" fill="#f3d55b"/><path d="M282.484 467.863h-52.968c-4.875 0-8.825-3.953-8.825-8.828s3.95-8.828 8.825-8.828h52.968c4.875 0 8.825 3.953 8.825 8.828s-3.95 8.828-8.825 8.828zm0 0" fill="#f3d55b"/><g fill="#2c2f38"><path d="M297.734 207.45c-7.132 13.956-29.398 15.929-41.558 15.929-12.188 0-34.422-1.973-41.555-15.93a179.535 179.535 0 0 0 41.555 5.207 179.568 179.568 0 0 0 41.558-5.207zm0 0M232.879 115.543a87.922 87.922 0 0 0-26.129-5.297 62.842 62.842 0 0 0-34.605 7.379c1.207-15.45 37.023-18.5 54.53-14.527a8.342 8.342 0 0 1 6.204 12.445zm0 0M229.516 142.84c0-10.45-7.903-18.922-17.653-18.922s-17.656 8.473-17.656 18.922c0 10.453 7.906 18.926 17.656 18.926s17.653-8.473 17.653-18.926zm0 0"/></g><path d="M216.813 126.422a8.827 8.827 0 1 0-6.278 16.5 8.828 8.828 0 0 0 11.39-5.11 8.833 8.833 0 0 0-5.113-11.39zm0 0" fill="#fff"/><path d="M279.121 115.543a87.947 87.947 0 0 1 26.129-5.297 62.842 62.842 0 0 1 34.605 7.379c-1.207-15.45-37.023-18.5-54.53-14.527a8.348 8.348 0 0 0-6.442 4.558 8.35 8.35 0 0 0 .238 7.887zm0 0M317.793 142.84c0-10.45-7.902-18.922-17.656-18.922-9.75 0-17.653 8.473-17.653 18.922 0 10.453 7.903 18.926 17.653 18.926 9.754 0 17.656-8.473 17.656-18.926zm0 0" fill="#2c2f38"/><path d="M306.578 131.535a8.827 8.827 0 0 0-11.39-5.113 8.827 8.827 0 0 0 6.277 16.5 8.823 8.823 0 0 0 5.113-11.387zm0 0" fill="#fff"/></svg>