<svg xmlns="http://www.w3.org/2000/svg" viewBox="0 0 334.367 334.367"><path d="M10.449 52.245h313.469c5.771 0 10.449-4.678 10.449-10.449s-4.678-10.449-10.449-10.449H10.449C4.678 31.347 0 36.025 0 41.796s4.678 10.449 10.449 10.449zM57.469 114.939c-5.771 0-10.449 4.678-10.449 10.449s4.678 10.449 10.449 10.449h219.429c5.771 0 10.449-4.678 10.449-10.449s-4.678-10.449-10.449-10.449H57.469zM323.918 198.531H10.449C4.678 198.531 0 203.209 0 208.98s4.678 10.449 10.449 10.449h313.469c5.771 0 10.449-4.678 10.449-10.449s-4.678-10.449-10.449-10.449zM237.714 282.122H96.653c-5.771 0-10.449 4.678-10.449 10.449s4.678 10.449 10.449 10.449h141.061c5.771 0 10.449-4.678 10.449-10.449s-4.678-10.449-10.449-10.449z"/></svg>