<svg height="512pt" viewBox="-1 -1 512 512.002" width="512pt" xmlns="http://www.w3.org/2000/svg"><path d="M492.094 66.242l-47.086-47.086c-10.785-10.785-28.27-10.785-39.055 0l-17.851 17.852 86.14 86.14 17.852-17.851c10.785-10.785 10.785-28.27 0-39.055zm0 0" fill="#aed3ff"/><path d="M492.09 105.297l-17.844 17.855-15.422-15.418 17.516-17.527c8.96-8.957 11.156-22.105 6.598-33.121l9.152 9.156c10.785 10.785 10.785 28.27 0 39.055zm0 0" fill="#83bfff"/><path d="M361.96 63.148L24.29 400.824l-.747 10.098 77.836 76.594 9.047-.555 337.672-337.672zm0 0" fill="#ea4444"/><path d="M415.953 147.348l17.043 17.043L110.43 486.957l-17.043-17.043zm0 0" fill="#d93131"/><path d="M474.016 118.797l-81.563-81.563c-8.05-8.054-21.101-8.054-29.152 0l-14.156 14.153c-8.051 8.05-8.051 21.105 0 29.152l81.566 81.566c8.05 8.051 21.102 8.051 29.152 0l14.153-14.156c8.05-8.05 8.05-21.105 0-29.152zm0 0" fill="#ffb541"/><path d="M474.02 147.953l-14.16 14.149c-8.051 8.05-21.098 8.05-29.15 0l-17.026-17.028c8.05 8.051 21.093 8.051 29.144 0l14.16-14.152c8.051-8.047 8.051-21.106 0-29.156l17.032 17.03c8.05 8.052 8.05 21.106 0 29.157zm0 0" fill="#ffa812"/><path d="M24.29 400.824l86.136 86.137-89.188 14.133c-5.707.902-10.66-3.973-9.843-9.692zm0 0" fill="#e1d3ce"/><path d="M110.426 486.96l-89.184 14.13c-5.707.91-10.664-3.973-9.847-9.688l1.226-8.609 80.824-12.809zm0 0" fill="#cdbfba"/><path d="M17.598 448.531l-6.118 42.957c-.812 5.719 4.141 10.594 9.844 9.692l42.23-6.692zm0 0" fill="#7c8388"/><path d="M63.473 494.402l-42.23 6.688a8.542 8.542 0 0 1-7.122-2.113 9.92 9.92 0 0 1-.766-.805 8.487 8.487 0 0 1-1.96-6.774l1.226-8.605.094-.012 33.781-5.355zm0 0" fill="#6a7075"/><path d="M112.39 180.54l68.141-68.145L396.77 328.633l-68.141 68.144zm0 0" fill="#a1a1a7"/><path d="M163.379 129.55l17.152-17.155L396.77 328.633l-17.153 17.156zm0 0" fill="#929298"/><path d="M86.441 17.7l44.825 44.827a18.687 18.687 0 0 1 5.464 13.813l-7.316 35.957c-.316 9.992-8.441 17.96-18.437 18.09l-34.848 6.504c-5.04.062-9.89-1.91-13.453-5.473l-44.98-44.977c-6.048-6.05-16.329-2.289-17.18 6.22-3 29.98 7.117 61.03 30.355 83.831 39.711 38.965 103.918 39.137 143.828.371C216 136.746 216.363 70.738 175.79 30.164 153.02 7.391 122.24-2.484 92.516.531 84.074 1.387 80.44 11.7 86.44 17.7zm0 0M425.559 494.305l-44.825-44.828a18.687 18.687 0 0 1-5.464-13.813l7.316-35.957c.316-9.992 8.441-17.96 18.437-18.09l34.848-6.504c5.04-.062 9.89 1.91 13.453 5.473l44.98 44.98c6.048 6.047 16.329 2.29 17.18-6.222 3-29.98-7.117-61.031-30.355-83.832-39.711-38.965-103.918-39.137-143.828-.371-41.301 40.117-41.664 106.125-1.09 146.699 22.77 22.773 53.55 32.648 83.27 29.633 8.44-.86 12.078-11.168 6.078-17.168zm0 0" fill="#7c8388"/><path d="M174.703 176.863a102.553 102.553 0 0 1-9.652 8.274c30.531-40.352 27.414-98.059-9.39-134.852-18.528-18.527-42.349-28.515-66.602-29.96l-2.621-2.622C80.44 11.695 84.073 1.387 92.516.527c29.722-3.011 60.5 6.864 83.27 29.633 40.581 40.582 40.21 106.582-1.083 146.703zm0 0M511.484 419.34c-.847 8.515-11.136 12.273-17.175 6.223l-2.633-2.633c-1.465-24.551-11.692-48.672-30.672-67.29-36.649-35.968-94.156-38.878-134.184-8.648a103.139 103.139 0 0 1 10.477-11.851c39.91-38.762 104.117-38.598 143.832.375 23.242 22.796 33.355 53.843 30.355 83.824zm0 0" fill="#6a7075"/><path d="M311.172 309.375l-1.8 1.8c-7.657 7.657-20.071 7.657-27.731 0l-83.649-83.648c-7.656-7.656-7.656-20.07 0-27.73l1.805-1.8c7.656-7.657 20.07-7.657 27.726 0l83.649 83.648c7.656 7.656 7.656 20.07 0 27.73zm0 0" fill="#fff5f5"/><path d="M311.176 309.371l-1.809 1.805a19.516 19.516 0 0 1-8.047 4.863c2.082-6.73.461-14.355-4.863-19.672l-83.648-83.652c-5.329-5.324-12.954-6.945-19.672-4.86a19.444 19.444 0 0 1 4.86-8.062l1.796-1.797c7.656-7.656 20.074-7.656 27.73 0l83.653 83.652c7.656 7.649 7.656 20.063 0 27.723zm0 0" fill="#efe2dd"/></svg>