<svg height="512" viewBox="0 0 64 64" width="512" xmlns="http://www.w3.org/2000/svg"><path d="M32.35 46.36a27.723 27.723 0 0 0 1.69-3.52A29.471 29.471 0 0 0 36 32h-8l-4-12.55L26 16a7.275 7.275 0 0 0 2-4c.56-2.8 2.76-5.06 5.6-6.6A20.293 20.293 0 0 1 43 3a15.889 15.889 0 0 1 12.43 5.57A20.528 20.528 0 0 1 60 22a94.963 94.963 0 0 1-3.88 26.52L53 51.812l-19.875-2.355z" fill="#55b56a"/><path d="M9.929 25H9a5 5 0 0 0-5 5 2 2 0 0 0 2 2h22l2-3c1-3.009-1-5-3.943-6.948A.36.36 0 0 1 26 22c-1.112-1.112-.552-4.528 0-6l-4 4a17.073 17.073 0 0 1-12.071 5z" fill="#f9bb4b"/><path d="M22 26h2v2h-2z" fill="#ffd782"/><path d="M37.513 32.319a.994.994 0 0 1 .87-1.319 11.607 11.607 0 0 0 6.96-2.756 11.393 11.393 0 0 0 3.468-5.558.989.989 0 0 1 1.146-.7 1 1 0 0 1 .777 1.246A13.237 13.237 0 0 1 38.506 33a.993.993 0 0 1-.992-.679zM29.99 49.79A21.5 21.5 0 0 1 28 52l-9 9h33l2-6c.223-.613.3-.843.51-1.46z" fill="#3e8051"/><path d="M56.12 48.52q-.735 2.535-1.61 5.02A23.889 23.889 0 0 1 40.98 55c-4.75-.78-8.46-3.45-10.99-5.21a27.14 27.14 0 0 0 2.36-3.43A31.088 31.088 0 0 0 42.04 50c5.69.93 10.61-.46 14.08-1.48z" fill="#ffd782"/><path d="M36 15h2v2h-2z" fill="#143441"/><g fill="#3e8051"><path d="M52 44h2v2h-2zM48 41h2v2h-2z"/></g></svg>