<svg height="512" viewBox="0 0 24 24" width="512" xmlns="http://www.w3.org/2000/svg"><path d="M12.5 19C8.364 19 5 15.636 5 11.5S8.364 4 12.5 4 20 7.364 20 11.5 16.636 19 12.5 19z" fill="#ffc107"/><path d="M12.5 4C8.364 4 5 7.364 5 11.5S8.364 19 12.5 19z" fill="#dea806"/><path d="M6 24c-3.309 0-6-2.691-6-6s2.691-6 6-6 6 2.691 6 6-2.691 6-6 6z" fill="#607d8b"/><path d="M6 12c-3.309 0-6 2.691-6 6s2.691 6 6 6z" fill="#546d79"/><path d="M12.5 3a1 1 0 0 1-1-1V1a1 1 0 1 1 2 0v1a1 1 0 0 1-1 1z" fill="#ffc107"/><path d="M12.5 0a1 1 0 0 0-1 1v1a1 1 0 0 0 1 1z" fill="#dea806"/><path d="M5.075 5.49l-.707-.708a1 1 0 1 1 1.414-1.415l.707.708A1 1 0 1 1 5.075 5.49z" fill="#ffc107"/><path d="M4.368 3.368a1 1 0 0 0 0 1.415l.707.707a.997.997 0 0 0 1.414 0z" fill="#dea806"/><path d="M18.511 5.49a1 1 0 0 1 0-1.415l.707-.708a1 1 0 0 1 1.414 1.414l-.707.709a1 1 0 0 1-1.414 0z" fill="#ffc107"/><path d="M19.925 3.075a.997.997 0 0 0-.707.293l-.707.708a1 1 0 0 0 0 1.415l2.121-2.123a.997.997 0 0 0-.707-.293z" fill="#dea806"/><path d="M23 12.5h-1a1 1 0 1 1 0-2h1a1 1 0 1 1 0 2z" fill="#ffc107"/><path d="M24 11.5h-3a1 1 0 0 0 1 1h1a1 1 0 0 0 1-1z" fill="#dea806"/><path d="M19.218 19.632l-.707-.708a1 1 0 1 1 1.414-1.415l.707.708a1 1 0 1 1-1.414 1.415z" fill="#ffc107"/><path d="M18.51 17.51a1 1 0 0 0 0 1.414l.707.708a.997.997 0 0 0 1.414 0z" fill="#dea806"/></svg>