<svg xmlns="http://www.w3.org/2000/svg" viewBox="0 0 512 512"><path d="M512 471.273C512 493.382 493.382 512 471.273 512c-11.636 0-22.109-4.655-30.255-12.8L310.691 357.236c-4.655-4.655-4.655-11.636 0-16.291l30.255-30.255c4.655-4.655 11.636-4.655 16.291 0L499.2 442.182c8.145 6.982 12.8 18.618 12.8 29.091z" fill="#b06328"/><path fill="#b0c4d8" d="M337.157 314.123l-23.038 23.038-34.557-34.557 23.038-23.038z"/><path d="M320 320l5.818 5.818 11.636-11.636-34.909-34.909-23.273 23.273L296.727 320c6.982-6.982 16.291-6.982 23.273 0z" fill="#99b4cd"/><path d="M174.545 0C77.964 0 0 77.964 0 174.545S77.964 349.09 174.545 349.09 349.09 271.126 349.09 174.545 271.127 0 174.545 0zm0 314.182c-76.8 0-139.636-62.836-139.636-139.636S97.745 34.909 174.545 34.909s139.636 62.836 139.636 139.636-62.836 139.637-139.636 139.637z" fill="#c4d7e5"/><circle cx="174.545" cy="174.545" r="139.636" fill="#70b7e5"/><path d="M105.891 190.836c5.818-44.218 40.727-79.127 84.945-84.945H192c19.782-2.327 20.945-30.255 2.327-33.745-11.636-2.327-23.273-2.327-34.909-1.164-45.382 6.982-81.455 43.055-87.273 87.273-2.327 11.636-1.164 24.436 1.164 34.909 3.491 19.782 31.418 17.455 33.745-2.327-1.163 1.163-1.163-.001-1.163-.001z" fill="#92c5eb"/><path d="M46.545 186.182c0-76.8 62.836-139.636 139.636-139.636 36.073 0 67.491 13.964 93.091 34.909-25.6-29.091-62.836-46.545-104.727-46.545-76.8 0-139.636 62.836-139.636 139.636 0 41.891 18.618 79.127 46.545 104.727-20.945-25.6-34.909-57.018-34.909-93.091z" fill="#4c9cd6"/><path d="M174.545 349.091c96.582 0 174.545-77.964 174.545-174.545-5.818 0-11.636 4.655-11.636 11.636-2.327 39.564-19.782 75.636-46.545 102.4-26.764 27.927-64 45.382-104.727 48.873-6.982 0-11.637 5.818-11.637 11.636z" fill="#b0c9db"/><path d="M174.545 0C77.964 0 0 77.964 0 174.545c5.818 0 11.636-4.655 11.636-11.636C13.964 124.509 30.255 89.6 54.691 64c27.927-29.091 66.327-48.873 108.218-52.364 6.982 0 11.636-5.818 11.636-11.636z" fill="#e2e7f0"/><path d="M498.036 441.018l-6.982-5.818c5.818 6.982 9.309 16.291 9.309 25.6 0 15.127-18.618 20.945-29.091 10.473L349.091 349.091c-6.982-6.982-17.455-6.982-24.436 0l-11.636 11.636 126.836 136.145c6.982 6.982 16.291 12.8 25.6 13.964 12.8 1.164 25.6-3.491 33.745-11.636 8.145-8.145 12.8-20.945 11.636-33.745 0-9.31-5.818-17.455-12.8-24.437z" fill="#a35425"/><path d="M378.182 360.727c-1.164 0-3.491 0-4.655-1.164l-29.091-29.091c-2.327-2.327-2.327-5.818 0-8.145s5.818-2.327 8.145 0l29.091 29.091c2.327 2.327 2.327 5.818 0 8.145.001 1.164-2.327 1.164-3.49 1.164z" fill="#c97629"/></svg>